<?xml version="1.0" encoding="UTF-8" standalone="no"?>
<!DOCTYPE svg PUBLIC "-//W3C//DTD SVG 1.1//EN"
 "http://www.w3.org/Graphics/SVG/1.1/DTD/svg11.dtd">
<!-- Generated by graphviz version 2.43.0 (0)
 -->
<!-- Title: /home/build/sdk/c/ifxAlgo/2DMTI.h Pages: 1 -->
<svg width="202pt" height="263pt"
 viewBox="0.00 0.00 201.50 263.00" xmlns="http://www.w3.org/2000/svg" xmlns:xlink="http://www.w3.org/1999/xlink">
<g id="graph0" class="graph" transform="scale(1 1) rotate(0) translate(4 259)">
<title>/home/build/sdk/c/ifxAlgo/2DMTI.h</title>
<polygon fill="white" stroke="transparent" points="-4,4 -4,-259 197.5,-259 197.5,4 -4,4"/>
<!-- Node1 -->
<g id="node1" class="node">
<title>Node1</title>
<g id="a_node1"><a xlink:title="API for 2D Moving Target Indicator filter (2DMTI)">
<polygon fill="#bfbfbf" stroke="black" points="0,-224.5 0,-254.5 140,-254.5 140,-224.5 0,-224.5"/>
<text text-anchor="start" x="8" y="-242.5" font-family="Helvetica,sans-Serif" font-size="10.00">/home/build/sdk/c/ifxAlgo</text>
<text text-anchor="middle" x="70" y="-231.5" font-family="Helvetica,sans-Serif" font-size="10.00">/2DMTI.h</text>
</a>
</g>
</g>
<!-- Node2 -->
<g id="node2" class="node">
<title>Node2</title>
<g id="a_node2"><a xlink:href="_types_8h.html" target="_top" xlink:title="Definitions of data types used within the SDK.">
<polygon fill="white" stroke="black" points="23.5,-56.5 23.5,-75.5 116.5,-75.5 116.5,-56.5 23.5,-56.5"/>
<text text-anchor="middle" x="70" y="-63.5" font-family="Helvetica,sans-Serif" font-size="10.00">ifxBase/Types.h</text>
</a>
</g>
</g>
<!-- Node1&#45;&gt;Node2 -->
<g id="edge1" class="edge">
<title>Node1&#45;&gt;Node2</title>
<path fill="none" stroke="midnightblue" d="M63.09,-224.31C58.65,-214.4 53.31,-200.72 51,-188 44.4,-151.7 55.47,-109.02 63.3,-85.28"/>
<polygon fill="midnightblue" stroke="midnightblue" points="66.71,-86.13 66.69,-75.53 60.1,-83.83 66.71,-86.13"/>
</g>
<!-- Node5 -->
<g id="node5" class="node">
<title>Node5</title>
<g id="a_node5"><a xlink:href="_matrix_8h.html" target="_top" xlink:title="API for operations on Matrix data structures.">
<polygon fill="white" stroke="black" points="60.5,-168.5 60.5,-187.5 157.5,-187.5 157.5,-168.5 60.5,-168.5"/>
<text text-anchor="middle" x="109" y="-175.5" font-family="Helvetica,sans-Serif" font-size="10.00">ifxBase/Matrix.h</text>
</a>
</g>
</g>
<!-- Node1&#45;&gt;Node5 -->
<g id="edge4" class="edge">
<title>Node1&#45;&gt;Node5</title>
<path fill="none" stroke="midnightblue" d="M79.24,-224.4C84.79,-215.93 91.89,-205.1 97.77,-196.14"/>
<polygon fill="midnightblue" stroke="midnightblue" points="100.77,-197.94 103.33,-187.66 94.92,-194.1 100.77,-197.94"/>
</g>
<!-- Node3 -->
<g id="node3" class="node">
<title>Node3</title>
<g id="a_node3"><a xlink:title=" ">
<polygon fill="white" stroke="#bfbfbf" points="6,-0.5 6,-19.5 62,-19.5 62,-0.5 6,-0.5"/>
<text text-anchor="middle" x="34" y="-7.5" font-family="Helvetica,sans-Serif" font-size="10.00">stddef.h</text>
</a>
</g>
</g>
<!-- Node2&#45;&gt;Node3 -->
<g id="edge2" class="edge">
<title>Node2&#45;&gt;Node3</title>
<path fill="none" stroke="midnightblue" d="M64.06,-56.08C59.02,-48.53 51.66,-37.49 45.49,-28.23"/>
<polygon fill="midnightblue" stroke="midnightblue" points="48.29,-26.13 39.83,-19.75 42.47,-30.01 48.29,-26.13"/>
</g>
<!-- Node4 -->
<g id="node4" class="node">
<title>Node4</title>
<g id="a_node4"><a xlink:title=" ">
<polygon fill="white" stroke="#bfbfbf" points="80.5,-0.5 80.5,-19.5 133.5,-19.5 133.5,-0.5 80.5,-0.5"/>
<text text-anchor="middle" x="107" y="-7.5" font-family="Helvetica,sans-Serif" font-size="10.00">stdint.h</text>
</a>
</g>
</g>
<!-- Node2&#45;&gt;Node4 -->
<g id="edge3" class="edge">
<title>Node2&#45;&gt;Node4</title>
<path fill="none" stroke="midnightblue" d="M76.11,-56.08C81.28,-48.53 88.85,-37.49 95.19,-28.23"/>
<polygon fill="midnightblue" stroke="midnightblue" points="98.24,-29.98 101,-19.75 92.46,-26.02 98.24,-29.98"/>
</g>
<!-- Node5&#45;&gt;Node2 -->
<g id="edge5" class="edge">
<title>Node5&#45;&gt;Node2</title>
<path fill="none" stroke="midnightblue" d="M104.66,-168.18C100.34,-159.21 93.71,-144.84 89,-132 83.31,-116.48 78.14,-98.39 74.63,-85.25"/>
<polygon fill="midnightblue" stroke="midnightblue" points="78.01,-84.33 72.1,-75.53 71.23,-86.09 78.01,-84.33"/>
</g>
<!-- Node6 -->
<g id="node6" class="node">
<title>Node6</title>
<g id="a_node6"><a xlink:href="_vector_8h.html" target="_top" xlink:title="API for operations on Vector data structures.">
<polygon fill="white" stroke="black" points="98.5,-112.5 98.5,-131.5 193.5,-131.5 193.5,-112.5 98.5,-112.5"/>
<text text-anchor="middle" x="146" y="-119.5" font-family="Helvetica,sans-Serif" font-size="10.00">ifxBase/Vector.h</text>
</a>
</g>
</g>
<!-- Node5&#45;&gt;Node6 -->
<g id="edge6" class="edge">
<title>Node5&#45;&gt;Node6</title>
<path fill="none" stroke="midnightblue" d="M115.11,-168.08C120.28,-160.53 127.85,-149.49 134.19,-140.23"/>
<polygon fill="midnightblue" stroke="midnightblue" points="137.24,-141.98 140,-131.75 131.46,-138.02 137.24,-141.98"/>
</g>
<!-- Node6&#45;&gt;Node2 -->
<g id="edge7" class="edge">
<title>Node6&#45;&gt;Node2</title>
<path fill="none" stroke="midnightblue" d="M133.79,-112.32C122.22,-104.11 104.62,-91.6 90.84,-81.81"/>
<polygon fill="midnightblue" stroke="midnightblue" points="92.61,-78.77 82.43,-75.83 88.56,-84.48 92.61,-78.77"/>
</g>
</g>
</svg>
