<?xml version="1.0" encoding="UTF-8" standalone="no"?>
<!DOCTYPE svg PUBLIC "-//W3C//DTD SVG 1.1//EN"
 "http://www.w3.org/Graphics/SVG/1.1/DTD/svg11.dtd">
<!-- Generated by graphviz version 2.43.0 (0)
 -->
<!-- Title: /home/build/sdk/c/ifxAlgo/Algo.h Pages: 1 -->
<svg width="944pt" height="319pt"
 viewBox="0.00 0.00 943.50 319.00" xmlns="http://www.w3.org/2000/svg" xmlns:xlink="http://www.w3.org/1999/xlink">
<g id="graph0" class="graph" transform="scale(1 1) rotate(0) translate(4 315)">
<title>/home/build/sdk/c/ifxAlgo/Algo.h</title>
<polygon fill="white" stroke="transparent" points="-4,4 -4,-315 939.5,-315 939.5,4 -4,4"/>
<!-- Node1 -->
<g id="node1" class="node">
<title>Node1</title>
<g id="a_node1"><a xlink:title="Header for ifxAlgo.">
<polygon fill="#bfbfbf" stroke="black" points="322.5,-280.5 322.5,-310.5 462.5,-310.5 462.5,-280.5 322.5,-280.5"/>
<text text-anchor="start" x="330.5" y="-298.5" font-family="Helvetica,sans-Serif" font-size="10.00">/home/build/sdk/c/ifxAlgo</text>
<text text-anchor="middle" x="392.5" y="-287.5" font-family="Helvetica,sans-Serif" font-size="10.00">/Algo.h</text>
</a>
</g>
</g>
<!-- Node2 -->
<g id="node2" class="node">
<title>Node2</title>
<g id="a_node2"><a xlink:href="2_d_m_t_i_8h.html" target="_top" xlink:title="API for 2D Moving Target Indicator filter (2DMTI)">
<polygon fill="white" stroke="black" points="0,-224.5 0,-243.5 95,-243.5 95,-224.5 0,-224.5"/>
<text text-anchor="middle" x="47.5" y="-231.5" font-family="Helvetica,sans-Serif" font-size="10.00">ifxAlgo/2DMTI.h</text>
</a>
</g>
</g>
<!-- Node1&#45;&gt;Node2 -->
<g id="edge1" class="edge">
<title>Node1&#45;&gt;Node2</title>
<path fill="none" stroke="midnightblue" d="M322.27,-282.39C258.29,-271.35 164.95,-255.26 105.22,-244.95"/>
<polygon fill="midnightblue" stroke="midnightblue" points="105.65,-241.48 95.2,-243.23 104.46,-248.38 105.65,-241.48"/>
</g>
<!-- Node8 -->
<g id="node8" class="node">
<title>Node8</title>
<g id="a_node8"><a xlink:href="_d_b_s_c_a_n_8h.html" target="_top" xlink:title="API for Density&#45;based spatial clustering of applications with noise (DBSCAN) algorithm.">
<polygon fill="white" stroke="black" points="831.5,-112.5 831.5,-131.5 935.5,-131.5 935.5,-112.5 831.5,-112.5"/>
<text text-anchor="middle" x="883.5" y="-119.5" font-family="Helvetica,sans-Serif" font-size="10.00">ifxAlgo/DBSCAN.h</text>
</a>
</g>
</g>
<!-- Node1&#45;&gt;Node8 -->
<g id="edge9" class="edge">
<title>Node1&#45;&gt;Node8</title>
<path fill="none" stroke="midnightblue" d="M462.69,-287.24C521.54,-279.95 607.29,-266.51 679.5,-244 736.46,-226.24 750.65,-219.2 801.5,-188 825.5,-173.28 850.49,-152.56 866.48,-138.5"/>
<polygon fill="midnightblue" stroke="midnightblue" points="868.84,-141.09 873.97,-131.82 864.18,-135.86 868.84,-141.09"/>
</g>
<!-- Node9 -->
<g id="node9" class="node">
<title>Node9</title>
<g id="a_node9"><a xlink:href="_f_f_t_8h.html" target="_top" xlink:title="API for Fast Fourier Transform (FFT)">
<polygon fill="white" stroke="black" points="387.5,-168.5 387.5,-187.5 467.5,-187.5 467.5,-168.5 387.5,-168.5"/>
<text text-anchor="middle" x="427.5" y="-175.5" font-family="Helvetica,sans-Serif" font-size="10.00">ifxAlgo/FFT.h</text>
</a>
</g>
</g>
<!-- Node1&#45;&gt;Node9 -->
<g id="edge11" class="edge">
<title>Node1&#45;&gt;Node9</title>
<path fill="none" stroke="midnightblue" d="M396.79,-280.34C403.13,-259.43 414.98,-220.31 421.96,-197.27"/>
<polygon fill="midnightblue" stroke="midnightblue" points="425.32,-198.25 424.87,-187.67 418.62,-196.22 425.32,-198.25"/>
</g>
<!-- Node10 -->
<g id="node10" class="node">
<title>Node10</title>
<g id="a_node10"><a xlink:href="_m_t_i_8h.html" target="_top" xlink:title="API for Moving Target Indicator (MTI) filter.">
<polygon fill="white" stroke="black" points="212,-168.5 212,-187.5 293,-187.5 293,-168.5 212,-168.5"/>
<text text-anchor="middle" x="252.5" y="-175.5" font-family="Helvetica,sans-Serif" font-size="10.00">ifxAlgo/MTI.h</text>
</a>
</g>
</g>
<!-- Node1&#45;&gt;Node10 -->
<g id="edge14" class="edge">
<title>Node1&#45;&gt;Node10</title>
<path fill="none" stroke="midnightblue" d="M347.35,-280.43C326.89,-272.31 303.53,-260.41 286.5,-244 273.05,-231.04 263.86,-211.61 258.45,-197.36"/>
<polygon fill="midnightblue" stroke="midnightblue" points="261.67,-195.95 255.05,-187.67 255.06,-198.27 261.67,-195.95"/>
</g>
<!-- Node11 -->
<g id="node11" class="node">
<title>Node11</title>
<g id="a_node11"><a xlink:href="_o_s_c_f_a_r_8h.html" target="_top" xlink:title="API for 2D ordered statistic constant false alarm rate (OS&#45;CFAR) algorithm.">
<polygon fill="white" stroke="black" points="113,-224.5 113,-243.5 214,-243.5 214,-224.5 113,-224.5"/>
<text text-anchor="middle" x="163.5" y="-231.5" font-family="Helvetica,sans-Serif" font-size="10.00">ifxAlgo/OSCFAR.h</text>
</a>
</g>
</g>
<!-- Node1&#45;&gt;Node11 -->
<g id="edge17" class="edge">
<title>Node1&#45;&gt;Node11</title>
<path fill="none" stroke="midnightblue" d="M338.52,-280.47C298.15,-269.99 243.7,-255.84 206.31,-246.12"/>
<polygon fill="midnightblue" stroke="midnightblue" points="206.8,-242.63 196.24,-243.51 205.04,-249.41 206.8,-242.63"/>
</g>
<!-- Node12 -->
<g id="node12" class="node">
<title>Node12</title>
<g id="a_node12"><a xlink:href="_preprocessed_f_f_t_8h.html" target="_top" xlink:title="API for Pre&#45;processed FFT.">
<polygon fill="white" stroke="black" points="526,-224.5 526,-243.5 671,-243.5 671,-224.5 526,-224.5"/>
<text text-anchor="middle" x="598.5" y="-231.5" font-family="Helvetica,sans-Serif" font-size="10.00">ifxAlgo/PreprocessedFFT.h</text>
</a>
</g>
</g>
<!-- Node1&#45;&gt;Node12 -->
<g id="edge20" class="edge">
<title>Node1&#45;&gt;Node12</title>
<path fill="none" stroke="midnightblue" d="M441.06,-280.47C477.06,-270.08 525.52,-256.08 559.13,-246.37"/>
<polygon fill="midnightblue" stroke="midnightblue" points="560.41,-249.64 569.05,-243.51 558.47,-242.92 560.41,-249.64"/>
</g>
<!-- Node14 -->
<g id="node14" class="node">
<title>Node14</title>
<g id="a_node14"><a xlink:href="_window_8h.html" target="_top" xlink:title="API for Window function processing.">
<polygon fill="white" stroke="black" points="486,-168.5 486,-187.5 587,-187.5 587,-168.5 486,-168.5"/>
<text text-anchor="middle" x="536.5" y="-175.5" font-family="Helvetica,sans-Serif" font-size="10.00">ifxAlgo/Window.h</text>
</a>
</g>
</g>
<!-- Node1&#45;&gt;Node14 -->
<g id="edge34" class="edge">
<title>Node1&#45;&gt;Node14</title>
<path fill="none" stroke="midnightblue" d="M410.16,-280.34C437.52,-258.39 489.91,-216.37 517.86,-193.95"/>
<polygon fill="midnightblue" stroke="midnightblue" points="520.08,-196.66 525.69,-187.67 515.7,-191.2 520.08,-196.66"/>
</g>
<!-- Node16 -->
<g id="node16" class="node">
<title>Node16</title>
<g id="a_node16"><a xlink:href="_signal_8h.html" target="_top" xlink:title="API for digital filtering operations.">
<polygon fill="white" stroke="black" points="296,-224.5 296,-243.5 389,-243.5 389,-224.5 296,-224.5"/>
<text text-anchor="middle" x="342.5" y="-231.5" font-family="Helvetica,sans-Serif" font-size="10.00">ifxAlgo/Signal.h</text>
</a>
</g>
</g>
<!-- Node1&#45;&gt;Node16 -->
<g id="edge30" class="edge">
<title>Node1&#45;&gt;Node16</title>
<path fill="none" stroke="midnightblue" d="M380.65,-280.4C373.39,-271.75 364.05,-260.64 356.43,-251.58"/>
<polygon fill="midnightblue" stroke="midnightblue" points="358.89,-249.06 349.78,-243.66 353.53,-253.57 358.89,-249.06"/>
</g>
<!-- Node3 -->
<g id="node3" class="node">
<title>Node3</title>
<g id="a_node3"><a xlink:href="_types_8h.html" target="_top" xlink:title="Definitions of data types used within the SDK.">
<polygon fill="white" stroke="black" points="351,-56.5 351,-75.5 444,-75.5 444,-56.5 351,-56.5"/>
<text text-anchor="middle" x="397.5" y="-63.5" font-family="Helvetica,sans-Serif" font-size="10.00">ifxBase/Types.h</text>
</a>
</g>
</g>
<!-- Node2&#45;&gt;Node3 -->
<g id="edge2" class="edge">
<title>Node2&#45;&gt;Node3</title>
<path fill="none" stroke="midnightblue" d="M49.87,-224.28C56.66,-201.17 78.6,-138.26 122.5,-112 158.34,-90.56 270.9,-77.57 340.41,-71.39"/>
<polygon fill="midnightblue" stroke="midnightblue" points="341.1,-74.84 350.76,-70.49 340.49,-67.87 341.1,-74.84"/>
</g>
<!-- Node6 -->
<g id="node6" class="node">
<title>Node6</title>
<g id="a_node6"><a xlink:href="_matrix_8h.html" target="_top" xlink:title="API for operations on Matrix data structures.">
<polygon fill="white" stroke="black" points="97,-168.5 97,-187.5 194,-187.5 194,-168.5 97,-168.5"/>
<text text-anchor="middle" x="145.5" y="-175.5" font-family="Helvetica,sans-Serif" font-size="10.00">ifxBase/Matrix.h</text>
</a>
</g>
</g>
<!-- Node2&#45;&gt;Node6 -->
<g id="edge5" class="edge">
<title>Node2&#45;&gt;Node6</title>
<path fill="none" stroke="midnightblue" d="M63.25,-224.32C78.82,-215.74 102.88,-202.49 120.96,-192.52"/>
<polygon fill="midnightblue" stroke="midnightblue" points="122.72,-195.55 129.79,-187.65 119.35,-189.42 122.72,-195.55"/>
</g>
<!-- Node4 -->
<g id="node4" class="node">
<title>Node4</title>
<g id="a_node4"><a xlink:title=" ">
<polygon fill="white" stroke="#bfbfbf" points="333.5,-0.5 333.5,-19.5 389.5,-19.5 389.5,-0.5 333.5,-0.5"/>
<text text-anchor="middle" x="361.5" y="-7.5" font-family="Helvetica,sans-Serif" font-size="10.00">stddef.h</text>
</a>
</g>
</g>
<!-- Node3&#45;&gt;Node4 -->
<g id="edge3" class="edge">
<title>Node3&#45;&gt;Node4</title>
<path fill="none" stroke="midnightblue" d="M391.56,-56.08C386.52,-48.53 379.16,-37.49 372.99,-28.23"/>
<polygon fill="midnightblue" stroke="midnightblue" points="375.79,-26.13 367.33,-19.75 369.97,-30.01 375.79,-26.13"/>
</g>
<!-- Node5 -->
<g id="node5" class="node">
<title>Node5</title>
<g id="a_node5"><a xlink:title=" ">
<polygon fill="white" stroke="#bfbfbf" points="408,-0.5 408,-19.5 461,-19.5 461,-0.5 408,-0.5"/>
<text text-anchor="middle" x="434.5" y="-7.5" font-family="Helvetica,sans-Serif" font-size="10.00">stdint.h</text>
</a>
</g>
</g>
<!-- Node3&#45;&gt;Node5 -->
<g id="edge4" class="edge">
<title>Node3&#45;&gt;Node5</title>
<path fill="none" stroke="midnightblue" d="M403.61,-56.08C408.78,-48.53 416.35,-37.49 422.69,-28.23"/>
<polygon fill="midnightblue" stroke="midnightblue" points="425.74,-29.98 428.5,-19.75 419.96,-26.02 425.74,-29.98"/>
</g>
<!-- Node6&#45;&gt;Node3 -->
<g id="edge6" class="edge">
<title>Node6&#45;&gt;Node3</title>
<path fill="none" stroke="midnightblue" d="M162.76,-168.43C188.73,-155.64 239.5,-131.02 283.5,-112 310.72,-100.23 342.09,-87.94 365.03,-79.18"/>
<polygon fill="midnightblue" stroke="midnightblue" points="366.51,-82.36 374.61,-75.54 364.02,-75.82 366.51,-82.36"/>
</g>
<!-- Node7 -->
<g id="node7" class="node">
<title>Node7</title>
<g id="a_node7"><a xlink:href="_vector_8h.html" target="_top" xlink:title="API for operations on Vector data structures.">
<polygon fill="white" stroke="black" points="350,-112.5 350,-131.5 445,-131.5 445,-112.5 350,-112.5"/>
<text text-anchor="middle" x="397.5" y="-119.5" font-family="Helvetica,sans-Serif" font-size="10.00">ifxBase/Vector.h</text>
</a>
</g>
</g>
<!-- Node6&#45;&gt;Node7 -->
<g id="edge7" class="edge">
<title>Node6&#45;&gt;Node7</title>
<path fill="none" stroke="midnightblue" d="M185.43,-168.44C229.39,-159.02 300.13,-143.87 347.68,-133.68"/>
<polygon fill="midnightblue" stroke="midnightblue" points="348.71,-137.03 357.76,-131.52 347.25,-130.19 348.71,-137.03"/>
</g>
<!-- Node7&#45;&gt;Node3 -->
<g id="edge8" class="edge">
<title>Node7&#45;&gt;Node3</title>
<path fill="none" stroke="midnightblue" d="M397.5,-112.08C397.5,-105.01 397.5,-94.86 397.5,-85.99"/>
<polygon fill="midnightblue" stroke="midnightblue" points="401,-85.75 397.5,-75.75 394,-85.75 401,-85.75"/>
</g>
<!-- Node8&#45;&gt;Node3 -->
<g id="edge10" class="edge">
<title>Node8&#45;&gt;Node3</title>
<path fill="none" stroke="midnightblue" d="M831.28,-113.74C826.62,-113.13 821.98,-112.54 817.5,-112 687.65,-96.19 534.85,-80.57 454.12,-72.54"/>
<polygon fill="midnightblue" stroke="midnightblue" points="454.46,-69.06 444.16,-71.56 453.77,-76.03 454.46,-69.06"/>
</g>
<!-- Node9&#45;&gt;Node3 -->
<g id="edge12" class="edge">
<title>Node9&#45;&gt;Node3</title>
<path fill="none" stroke="midnightblue" d="M435.51,-168.43C446.26,-155.85 462.96,-131.73 453.5,-112 447.25,-98.95 435.16,-88.49 423.82,-80.95"/>
<polygon fill="midnightblue" stroke="midnightblue" points="425.35,-77.79 415,-75.54 421.69,-83.75 425.35,-77.79"/>
</g>
<!-- Node9&#45;&gt;Node7 -->
<g id="edge13" class="edge">
<title>Node9&#45;&gt;Node7</title>
<path fill="none" stroke="midnightblue" d="M422.55,-168.08C418.4,-160.61 412.35,-149.72 407.23,-140.52"/>
<polygon fill="midnightblue" stroke="midnightblue" points="410.28,-138.79 402.36,-131.75 404.16,-142.19 410.28,-138.79"/>
</g>
<!-- Node10&#45;&gt;Node3 -->
<g id="edge15" class="edge">
<title>Node10&#45;&gt;Node3</title>
<path fill="none" stroke="midnightblue" d="M258.03,-168.46C267.06,-155.03 286.11,-128.81 307.5,-112 324.77,-98.43 346.78,-87.33 364.71,-79.56"/>
<polygon fill="midnightblue" stroke="midnightblue" points="366.33,-82.68 374.2,-75.58 363.62,-76.22 366.33,-82.68"/>
</g>
<!-- Node10&#45;&gt;Node7 -->
<g id="edge16" class="edge">
<title>Node10&#45;&gt;Node7</title>
<path fill="none" stroke="midnightblue" d="M275.48,-168.44C299.66,-159.44 337.92,-145.19 365.15,-135.05"/>
<polygon fill="midnightblue" stroke="midnightblue" points="366.48,-138.29 374.63,-131.52 364.04,-131.73 366.48,-138.29"/>
</g>
<!-- Node11&#45;&gt;Node3 -->
<g id="edge18" class="edge">
<title>Node11&#45;&gt;Node3</title>
<path fill="none" stroke="midnightblue" d="M138.33,-224.33C110.17,-213.2 70.57,-192.39 87.5,-168 143.87,-86.78 267.62,-69.37 340.57,-66.51"/>
<polygon fill="midnightblue" stroke="midnightblue" points="341.07,-70 350.95,-66.19 340.85,-63 341.07,-70"/>
</g>
<!-- Node11&#45;&gt;Node6 -->
<g id="edge19" class="edge">
<title>Node11&#45;&gt;Node6</title>
<path fill="none" stroke="midnightblue" d="M160.53,-224.08C158.12,-216.85 154.64,-206.41 151.63,-197.4"/>
<polygon fill="midnightblue" stroke="midnightblue" points="154.9,-196.13 148.42,-187.75 148.26,-198.34 154.9,-196.13"/>
</g>
<!-- Node12&#45;&gt;Node3 -->
<g id="edge26" class="edge">
<title>Node12&#45;&gt;Node3</title>
<path fill="none" stroke="midnightblue" d="M671.07,-230.8C736.52,-226.05 817.79,-211.55 784.5,-168 744.53,-115.72 551.6,-85.49 454.12,-73.32"/>
<polygon fill="midnightblue" stroke="midnightblue" points="454.49,-69.84 444.14,-72.09 453.64,-76.78 454.49,-69.84"/>
</g>
<!-- Node12&#45;&gt;Node9 -->
<g id="edge22" class="edge">
<title>Node12&#45;&gt;Node9</title>
<path fill="none" stroke="midnightblue" d="M571.4,-224.44C542.51,-215.32 496.58,-200.81 464.39,-190.65"/>
<polygon fill="midnightblue" stroke="midnightblue" points="465.06,-187.19 454.47,-187.52 462.95,-193.87 465.06,-187.19"/>
</g>
<!-- Node13 -->
<g id="node13" class="node">
<title>Node13</title>
<g id="a_node13"><a xlink:title=" ">
<polygon fill="white" stroke="#bfbfbf" points="605.5,-168.5 605.5,-187.5 667.5,-187.5 667.5,-168.5 605.5,-168.5"/>
<text text-anchor="middle" x="636.5" y="-175.5" font-family="Helvetica,sans-Serif" font-size="10.00">stdbool.h</text>
</a>
</g>
</g>
<!-- Node12&#45;&gt;Node13 -->
<g id="edge21" class="edge">
<title>Node12&#45;&gt;Node13</title>
<path fill="none" stroke="midnightblue" d="M604.77,-224.08C610.14,-216.46 618.02,-205.26 624.58,-195.94"/>
<polygon fill="midnightblue" stroke="midnightblue" points="627.45,-197.94 630.34,-187.75 621.72,-193.91 627.45,-197.94"/>
</g>
<!-- Node12&#45;&gt;Node14 -->
<g id="edge23" class="edge">
<title>Node12&#45;&gt;Node14</title>
<path fill="none" stroke="midnightblue" d="M588.54,-224.32C579.37,-216.34 565.56,-204.31 554.47,-194.65"/>
<polygon fill="midnightblue" stroke="midnightblue" points="556.48,-191.76 546.64,-187.83 551.88,-197.04 556.48,-191.76"/>
</g>
<!-- Node15 -->
<g id="node15" class="node">
<title>Node15</title>
<g id="a_node15"><a xlink:href="_math_8h.html" target="_top" xlink:title="API for Mathematical operations.">
<polygon fill="white" stroke="black" points="685.5,-168.5 685.5,-187.5 775.5,-187.5 775.5,-168.5 685.5,-168.5"/>
<text text-anchor="middle" x="730.5" y="-175.5" font-family="Helvetica,sans-Serif" font-size="10.00">ifxBase/Math.h</text>
</a>
</g>
</g>
<!-- Node12&#45;&gt;Node15 -->
<g id="edge27" class="edge">
<title>Node12&#45;&gt;Node15</title>
<path fill="none" stroke="midnightblue" d="M619.42,-224.44C641.24,-215.52 675.65,-201.44 700.39,-191.32"/>
<polygon fill="midnightblue" stroke="midnightblue" points="701.75,-194.54 709.68,-187.52 699.1,-188.06 701.75,-194.54"/>
</g>
<!-- Node14&#45;&gt;Node3 -->
<g id="edge24" class="edge">
<title>Node14&#45;&gt;Node3</title>
<path fill="none" stroke="midnightblue" d="M528.76,-168.41C516.79,-155.37 492.72,-130.19 469.5,-112 454.55,-100.29 436.42,-88.98 422.1,-80.62"/>
<polygon fill="midnightblue" stroke="midnightblue" points="423.72,-77.52 413.3,-75.58 420.24,-83.59 423.72,-77.52"/>
</g>
<!-- Node14&#45;&gt;Node7 -->
<g id="edge25" class="edge">
<title>Node14&#45;&gt;Node7</title>
<path fill="none" stroke="midnightblue" d="M514.48,-168.44C491.4,-159.48 454.94,-145.31 428.86,-135.18"/>
<polygon fill="midnightblue" stroke="midnightblue" points="430.01,-131.88 419.42,-131.52 427.48,-138.4 430.01,-131.88"/>
</g>
<!-- Node15&#45;&gt;Node3 -->
<g id="edge28" class="edge">
<title>Node15&#45;&gt;Node3</title>
<path fill="none" stroke="midnightblue" d="M704.65,-168.46C645.63,-148.97 500.91,-101.16 433.34,-78.84"/>
<polygon fill="midnightblue" stroke="midnightblue" points="434.16,-75.42 423.57,-75.61 431.96,-82.07 434.16,-75.42"/>
</g>
<!-- Node15&#45;&gt;Node7 -->
<g id="edge29" class="edge">
<title>Node15&#45;&gt;Node7</title>
<path fill="none" stroke="midnightblue" d="M685.42,-169.47C682.4,-168.97 679.41,-168.48 676.5,-168 600.15,-155.48 512.01,-141.31 455.56,-132.27"/>
<polygon fill="midnightblue" stroke="midnightblue" points="455.83,-128.77 445.4,-130.65 454.72,-135.68 455.83,-128.77"/>
</g>
<!-- Node16&#45;&gt;Node3 -->
<g id="edge31" class="edge">
<title>Node16&#45;&gt;Node3</title>
<path fill="none" stroke="midnightblue" d="M339.8,-224.22C333.94,-203.45 321.99,-150.19 340.5,-112 346.9,-98.8 359.25,-88.3 370.83,-80.78"/>
<polygon fill="midnightblue" stroke="midnightblue" points="372.66,-83.77 379.42,-75.61 369.05,-77.77 372.66,-83.77"/>
</g>
<!-- Node16&#45;&gt;Node6 -->
<g id="edge32" class="edge">
<title>Node16&#45;&gt;Node6</title>
<path fill="none" stroke="midnightblue" d="M311.28,-224.44C277.57,-215.2 223.7,-200.44 186.57,-190.26"/>
<polygon fill="midnightblue" stroke="midnightblue" points="187.14,-186.78 176.57,-187.52 185.29,-193.54 187.14,-186.78"/>
</g>
<!-- Node16&#45;&gt;Node7 -->
<g id="edge33" class="edge">
<title>Node16&#45;&gt;Node7</title>
<path fill="none" stroke="midnightblue" d="M346.82,-224.37C355.81,-206.38 376.72,-164.55 388.69,-140.63"/>
<polygon fill="midnightblue" stroke="midnightblue" points="391.86,-142.1 393.2,-131.59 385.6,-138.97 391.86,-142.1"/>
</g>
</g>
</svg>
