<?xml version="1.0" encoding="UTF-8" standalone="no"?>
<!DOCTYPE svg PUBLIC "-//W3C//DTD SVG 1.1//EN"
 "http://www.w3.org/Graphics/SVG/1.1/DTD/svg11.dtd">
<!-- Generated by graphviz version 2.43.0 (0)
 -->
<!-- Title: /home/build/sdk/c/ifxRadar/AngleMonopulse.h Pages: 1 -->
<svg width="215pt" height="375pt"
 viewBox="0.00 0.00 214.50 375.00" xmlns="http://www.w3.org/2000/svg" xmlns:xlink="http://www.w3.org/1999/xlink">
<g id="graph0" class="graph" transform="scale(1 1) rotate(0) translate(4 371)">
<title>/home/build/sdk/c/ifxRadar/AngleMonopulse.h</title>
<polygon fill="white" stroke="transparent" points="-4,4 -4,-371 210.5,-371 210.5,4 -4,4"/>
<!-- Node1 -->
<g id="node1" class="node">
<title>Node1</title>
<g id="a_node1"><a xlink:title="API for Phase Monopulse algorithm.">
<polygon fill="#bfbfbf" stroke="black" points="31.5,-336.5 31.5,-366.5 178.5,-366.5 178.5,-336.5 31.5,-336.5"/>
<text text-anchor="start" x="39.5" y="-354.5" font-family="Helvetica,sans-Serif" font-size="10.00">/home/build/sdk/c/ifxRadar</text>
<text text-anchor="middle" x="105" y="-343.5" font-family="Helvetica,sans-Serif" font-size="10.00">/AngleMonopulse.h</text>
</a>
</g>
</g>
<!-- Node2 -->
<g id="node2" class="node">
<title>Node2</title>
<g id="a_node2"><a xlink:href="_types_8h.html" target="_top" xlink:title="Definitions of data types used within the SDK.">
<polygon fill="white" stroke="black" points="17.5,-56.5 17.5,-75.5 110.5,-75.5 110.5,-56.5 17.5,-56.5"/>
<text text-anchor="middle" x="64" y="-63.5" font-family="Helvetica,sans-Serif" font-size="10.00">ifxBase/Types.h</text>
</a>
</g>
</g>
<!-- Node1&#45;&gt;Node2 -->
<g id="edge1" class="edge">
<title>Node1&#45;&gt;Node2</title>
<path fill="none" stroke="midnightblue" d="M81.03,-336.46C52.01,-317.46 7,-280.63 7,-235 7,-235 7,-235 7,-177 7,-140.3 32.32,-103.66 49.21,-83.3"/>
<polygon fill="midnightblue" stroke="midnightblue" points="51.95,-85.48 55.83,-75.62 46.65,-80.9 51.95,-85.48"/>
</g>
<!-- Node5 -->
<g id="node5" class="node">
<title>Node5</title>
<g id="a_node5"><a xlink:href="_complex_8h.html" target="_top" xlink:title="API for operations on complex numbers.">
<polygon fill="white" stroke="black" points="50.5,-280.5 50.5,-299.5 159.5,-299.5 159.5,-280.5 50.5,-280.5"/>
<text text-anchor="middle" x="105" y="-287.5" font-family="Helvetica,sans-Serif" font-size="10.00">ifxBase/Complex.h</text>
</a>
</g>
</g>
<!-- Node1&#45;&gt;Node5 -->
<g id="edge4" class="edge">
<title>Node1&#45;&gt;Node5</title>
<path fill="none" stroke="midnightblue" d="M105,-336.4C105,-328.47 105,-318.46 105,-309.86"/>
<polygon fill="midnightblue" stroke="midnightblue" points="108.5,-309.66 105,-299.66 101.5,-309.66 108.5,-309.66"/>
</g>
<!-- Node8 -->
<g id="node8" class="node">
<title>Node8</title>
<g id="a_node8"><a xlink:href="_vector_8h.html" target="_top" xlink:title="API for operations on Vector data structures.">
<polygon fill="white" stroke="black" points="111.5,-112.5 111.5,-131.5 206.5,-131.5 206.5,-112.5 111.5,-112.5"/>
<text text-anchor="middle" x="159" y="-119.5" font-family="Helvetica,sans-Serif" font-size="10.00">ifxBase/Vector.h</text>
</a>
</g>
</g>
<!-- Node1&#45;&gt;Node8 -->
<g id="edge11" class="edge">
<title>Node1&#45;&gt;Node8</title>
<path fill="none" stroke="midnightblue" d="M129.05,-336.46C142.32,-327.57 158.07,-314.94 168,-300 182.33,-278.44 180.41,-269.63 184,-244 189.16,-207.16 175.85,-164.7 166.73,-141.14"/>
<polygon fill="midnightblue" stroke="midnightblue" points="169.92,-139.69 162.92,-131.74 163.43,-142.32 169.92,-139.69"/>
</g>
<!-- Node3 -->
<g id="node3" class="node">
<title>Node3</title>
<g id="a_node3"><a xlink:title=" ">
<polygon fill="white" stroke="#bfbfbf" points="0,-0.5 0,-19.5 56,-19.5 56,-0.5 0,-0.5"/>
<text text-anchor="middle" x="28" y="-7.5" font-family="Helvetica,sans-Serif" font-size="10.00">stddef.h</text>
</a>
</g>
</g>
<!-- Node2&#45;&gt;Node3 -->
<g id="edge2" class="edge">
<title>Node2&#45;&gt;Node3</title>
<path fill="none" stroke="midnightblue" d="M58.06,-56.08C53.02,-48.53 45.66,-37.49 39.49,-28.23"/>
<polygon fill="midnightblue" stroke="midnightblue" points="42.29,-26.13 33.83,-19.75 36.47,-30.01 42.29,-26.13"/>
</g>
<!-- Node4 -->
<g id="node4" class="node">
<title>Node4</title>
<g id="a_node4"><a xlink:title=" ">
<polygon fill="white" stroke="#bfbfbf" points="74.5,-0.5 74.5,-19.5 127.5,-19.5 127.5,-0.5 74.5,-0.5"/>
<text text-anchor="middle" x="101" y="-7.5" font-family="Helvetica,sans-Serif" font-size="10.00">stdint.h</text>
</a>
</g>
</g>
<!-- Node2&#45;&gt;Node4 -->
<g id="edge3" class="edge">
<title>Node2&#45;&gt;Node4</title>
<path fill="none" stroke="midnightblue" d="M70.11,-56.08C75.28,-48.53 82.85,-37.49 89.19,-28.23"/>
<polygon fill="midnightblue" stroke="midnightblue" points="92.24,-29.98 95,-19.75 86.46,-26.02 92.24,-29.98"/>
</g>
<!-- Node5&#45;&gt;Node2 -->
<g id="edge10" class="edge">
<title>Node5&#45;&gt;Node2</title>
<path fill="none" stroke="midnightblue" d="M93.46,-280.49C83.52,-272.38 69.88,-259.18 64,-244 42.96,-189.66 53.09,-118.7 59.76,-85.56"/>
<polygon fill="midnightblue" stroke="midnightblue" points="63.24,-86.02 61.92,-75.51 56.4,-84.55 63.24,-86.02"/>
</g>
<!-- Node6 -->
<g id="node6" class="node">
<title>Node6</title>
<g id="a_node6"><a xlink:href="_defines_8h.html" target="_top" xlink:title="Internal definitions used by standard math.h functions as Macros, to use float or double precision.">
<polygon fill="white" stroke="black" points="73,-224.5 73,-243.5 175,-243.5 175,-224.5 73,-224.5"/>
<text text-anchor="middle" x="124" y="-231.5" font-family="Helvetica,sans-Serif" font-size="10.00">ifxBase/Defines.h</text>
</a>
</g>
</g>
<!-- Node5&#45;&gt;Node6 -->
<g id="edge5" class="edge">
<title>Node5&#45;&gt;Node6</title>
<path fill="none" stroke="midnightblue" d="M108.14,-280.08C110.68,-272.85 114.36,-262.41 117.53,-253.4"/>
<polygon fill="midnightblue" stroke="midnightblue" points="120.9,-254.35 120.92,-243.75 114.3,-252.02 120.9,-254.35"/>
</g>
<!-- Node7 -->
<g id="node7" class="node">
<title>Node7</title>
<g id="a_node7"><a xlink:href="_math_8h.html" target="_top" xlink:title="API for Mathematical operations.">
<polygon fill="white" stroke="black" points="98.5,-168.5 98.5,-187.5 149.5,-187.5 149.5,-168.5 98.5,-168.5"/>
<text text-anchor="middle" x="124" y="-175.5" font-family="Helvetica,sans-Serif" font-size="10.00">math.h</text>
</a>
</g>
</g>
<!-- Node6&#45;&gt;Node7 -->
<g id="edge6" class="edge">
<title>Node6&#45;&gt;Node7</title>
<path fill="none" stroke="midnightblue" d="M124,-224.08C124,-217.01 124,-206.86 124,-197.99"/>
<polygon fill="midnightblue" stroke="midnightblue" points="127.5,-197.75 124,-187.75 120.5,-197.75 127.5,-197.75"/>
</g>
<!-- Node7&#45;&gt;Node2 -->
<g id="edge7" class="edge">
<title>Node7&#45;&gt;Node2</title>
<path fill="none" stroke="midnightblue" d="M119.29,-168.37C109.48,-150.38 86.66,-108.55 73.61,-84.63"/>
<polygon fill="midnightblue" stroke="midnightblue" points="76.55,-82.69 68.69,-75.59 70.4,-86.05 76.55,-82.69"/>
</g>
<!-- Node7&#45;&gt;Node8 -->
<g id="edge8" class="edge">
<title>Node7&#45;&gt;Node8</title>
<path fill="none" stroke="midnightblue" d="M129.78,-168.08C134.67,-160.53 141.83,-149.49 147.83,-140.23"/>
<polygon fill="midnightblue" stroke="midnightblue" points="150.83,-142.05 153.33,-131.75 144.95,-138.24 150.83,-142.05"/>
</g>
<!-- Node8&#45;&gt;Node2 -->
<g id="edge9" class="edge">
<title>Node8&#45;&gt;Node2</title>
<path fill="none" stroke="midnightblue" d="M143.74,-112.32C128.78,-103.82 105.75,-90.73 88.27,-80.8"/>
<polygon fill="midnightblue" stroke="midnightblue" points="89.65,-77.55 79.23,-75.65 86.19,-83.64 89.65,-77.55"/>
</g>
</g>
</svg>
