<?xml version="1.0" encoding="UTF-8" standalone="no"?>
<!DOCTYPE svg PUBLIC "-//W3C//DTD SVG 1.1//EN"
 "http://www.w3.org/Graphics/SVG/1.1/DTD/svg11.dtd">
<!-- Generated by graphviz version 2.43.0 (0)
 -->
<!-- Title: /home/build/sdk/c/ifxBase/Base.h Pages: 1 -->
<svg width="956pt" height="375pt"
 viewBox="0.00 0.00 956.00 375.00" xmlns="http://www.w3.org/2000/svg" xmlns:xlink="http://www.w3.org/1999/xlink">
<g id="graph0" class="graph" transform="scale(1 1) rotate(0) translate(4 371)">
<title>/home/build/sdk/c/ifxBase/Base.h</title>
<polygon fill="white" stroke="transparent" points="-4,4 -4,-371 952,-371 952,4 -4,4"/>
<!-- Node1 -->
<g id="node1" class="node">
<title>Node1</title>
<g id="a_node1"><a xlink:title="Header for ifxBase.">
<polygon fill="#bfbfbf" stroke="black" points="410.5,-336.5 410.5,-366.5 553.5,-366.5 553.5,-336.5 410.5,-336.5"/>
<text text-anchor="start" x="418.5" y="-354.5" font-family="Helvetica,sans-Serif" font-size="10.00">/home/build/sdk/c/ifxBase</text>
<text text-anchor="middle" x="482" y="-343.5" font-family="Helvetica,sans-Serif" font-size="10.00">/Base.h</text>
</a>
</g>
</g>
<!-- Node2 -->
<g id="node2" class="node">
<title>Node2</title>
<g id="a_node2"><a xlink:title=" ">
<polygon fill="white" stroke="#bfbfbf" points="219,-0.5 219,-19.5 275,-19.5 275,-0.5 219,-0.5"/>
<text text-anchor="middle" x="247" y="-7.5" font-family="Helvetica,sans-Serif" font-size="10.00">stddef.h</text>
</a>
</g>
</g>
<!-- Node1&#45;&gt;Node2 -->
<g id="edge1" class="edge">
<title>Node1&#45;&gt;Node2</title>
<path fill="none" stroke="midnightblue" d="M410.43,-347.28C308.17,-341.76 126.11,-328.24 67,-300 29.56,-282.12 0,-276.49 0,-235 0,-235 0,-235 0,-121 0,-30.81 139.14,-14.04 208.55,-11.28"/>
<polygon fill="midnightblue" stroke="midnightblue" points="208.78,-14.78 218.67,-10.96 208.56,-7.78 208.78,-14.78"/>
</g>
<!-- Node3 -->
<g id="node3" class="node">
<title>Node3</title>
<g id="a_node3"><a xlink:href="_complex_8h.html" target="_top" xlink:title="API for operations on complex numbers.">
<polygon fill="white" stroke="black" points="271.5,-280.5 271.5,-299.5 380.5,-299.5 380.5,-280.5 271.5,-280.5"/>
<text text-anchor="middle" x="326" y="-287.5" font-family="Helvetica,sans-Serif" font-size="10.00">ifxBase/Complex.h</text>
</a>
</g>
</g>
<!-- Node1&#45;&gt;Node3 -->
<g id="edge2" class="edge">
<title>Node1&#45;&gt;Node3</title>
<path fill="none" stroke="midnightblue" d="M445.03,-336.4C418.62,-326.33 383.44,-312.91 358.19,-303.28"/>
<polygon fill="midnightblue" stroke="midnightblue" points="359.29,-299.95 348.7,-299.66 356.8,-306.49 359.29,-299.95"/>
</g>
<!-- Node4 -->
<g id="node4" class="node">
<title>Node4</title>
<g id="a_node4"><a xlink:href="_defines_8h.html" target="_top" xlink:title="Internal definitions used by standard math.h functions as Macros, to use float or double precision.">
<polygon fill="white" stroke="black" points="376,-224.5 376,-243.5 478,-243.5 478,-224.5 376,-224.5"/>
<text text-anchor="middle" x="427" y="-231.5" font-family="Helvetica,sans-Serif" font-size="10.00">ifxBase/Defines.h</text>
</a>
</g>
</g>
<!-- Node1&#45;&gt;Node4 -->
<g id="edge16" class="edge">
<title>Node1&#45;&gt;Node4</title>
<path fill="none" stroke="midnightblue" d="M459.71,-336.31C447.95,-327.45 434.6,-314.9 428,-300 421.57,-285.49 421.9,-267.31 423.51,-253.87"/>
<polygon fill="midnightblue" stroke="midnightblue" points="426.98,-254.29 425.04,-243.87 420.06,-253.23 426.98,-254.29"/>
</g>
<!-- Node5 -->
<g id="node5" class="node">
<title>Node5</title>
<g id="a_node5"><a xlink:href="_math_8h.html" target="_top" xlink:title="API for Mathematical operations.">
<polygon fill="white" stroke="black" points="403.5,-168.5 403.5,-187.5 454.5,-187.5 454.5,-168.5 403.5,-168.5"/>
<text text-anchor="middle" x="429" y="-175.5" font-family="Helvetica,sans-Serif" font-size="10.00">math.h</text>
</a>
</g>
</g>
<!-- Node1&#45;&gt;Node5 -->
<g id="edge28" class="edge">
<title>Node1&#45;&gt;Node5</title>
<path fill="none" stroke="midnightblue" d="M410.39,-343.55C353.76,-336.39 281.28,-322.98 263,-300 220.81,-246.97 332.7,-206 393.18,-188.41"/>
<polygon fill="midnightblue" stroke="midnightblue" points="394.46,-191.68 403.13,-185.59 392.55,-184.95 394.46,-191.68"/>
</g>
<!-- Node6 -->
<g id="node6" class="node">
<title>Node6</title>
<g id="a_node6"><a xlink:href="_types_8h.html" target="_top" xlink:title="Definitions of data types used within the SDK.">
<polygon fill="white" stroke="black" points="541.5,-56.5 541.5,-75.5 634.5,-75.5 634.5,-56.5 541.5,-56.5"/>
<text text-anchor="middle" x="588" y="-63.5" font-family="Helvetica,sans-Serif" font-size="10.00">ifxBase/Types.h</text>
</a>
</g>
</g>
<!-- Node1&#45;&gt;Node6 -->
<g id="edge32" class="edge">
<title>Node1&#45;&gt;Node6</title>
<path fill="none" stroke="midnightblue" d="M553.55,-344.14C612.3,-337.27 688.83,-323.92 708,-300 766.52,-226.96 653.52,-120.87 606.86,-81.99"/>
<polygon fill="midnightblue" stroke="midnightblue" points="608.93,-79.16 598.97,-75.54 604.49,-84.58 608.93,-79.16"/>
</g>
<!-- Node8 -->
<g id="node8" class="node">
<title>Node8</title>
<g id="a_node8"><a xlink:href="_vector_8h.html" target="_top" xlink:title="API for operations on Vector data structures.">
<polygon fill="white" stroke="black" points="464.5,-112.5 464.5,-131.5 559.5,-131.5 559.5,-112.5 464.5,-112.5"/>
<text text-anchor="middle" x="512" y="-119.5" font-family="Helvetica,sans-Serif" font-size="10.00">ifxBase/Vector.h</text>
</a>
</g>
</g>
<!-- Node1&#45;&gt;Node8 -->
<g id="edge37" class="edge">
<title>Node1&#45;&gt;Node8</title>
<path fill="none" stroke="midnightblue" d="M504.37,-336.35C516.17,-327.5 529.51,-314.95 536,-300 539.54,-291.85 536.67,-288.86 536,-280 535.48,-273.17 521.29,-182.23 514.98,-141.96"/>
<polygon fill="midnightblue" stroke="midnightblue" points="518.4,-141.19 513.39,-131.86 511.48,-142.28 518.4,-141.19"/>
</g>
<!-- Node9 -->
<g id="node9" class="node">
<title>Node9</title>
<g id="a_node9"><a xlink:href="_cube_8h.html" target="_top" xlink:title="API for operations on Cube data structures.">
<polygon fill="white" stroke="black" points="437,-280.5 437,-299.5 527,-299.5 527,-280.5 437,-280.5"/>
<text text-anchor="middle" x="482" y="-287.5" font-family="Helvetica,sans-Serif" font-size="10.00">ifxBase/Cube.h</text>
</a>
</g>
</g>
<!-- Node1&#45;&gt;Node9 -->
<g id="edge11" class="edge">
<title>Node1&#45;&gt;Node9</title>
<path fill="none" stroke="midnightblue" d="M482,-336.4C482,-328.47 482,-318.46 482,-309.86"/>
<polygon fill="midnightblue" stroke="midnightblue" points="485.5,-309.66 482,-299.66 478.5,-309.66 485.5,-309.66"/>
</g>
<!-- Node10 -->
<g id="node10" class="node">
<title>Node10</title>
<g id="a_node10"><a xlink:href="_matrix_8h.html" target="_top" xlink:title="API for operations on Matrix data structures.">
<polygon fill="white" stroke="black" points="539.5,-224.5 539.5,-243.5 636.5,-243.5 636.5,-224.5 539.5,-224.5"/>
<text text-anchor="middle" x="588" y="-231.5" font-family="Helvetica,sans-Serif" font-size="10.00">ifxBase/Matrix.h</text>
</a>
</g>
</g>
<!-- Node1&#45;&gt;Node10 -->
<g id="edge29" class="edge">
<title>Node1&#45;&gt;Node10</title>
<path fill="none" stroke="midnightblue" d="M519.51,-336.44C536.81,-328.22 556.29,-316.22 569,-300 579.41,-286.71 584.12,-267.88 586.25,-253.9"/>
<polygon fill="midnightblue" stroke="midnightblue" points="589.73,-254.28 587.46,-243.93 582.78,-253.44 589.73,-254.28"/>
</g>
<!-- Node11 -->
<g id="node11" class="node">
<title>Node11</title>
<g id="a_node11"><a xlink:href="_error_8h.html" target="_top" xlink:title="API for error handling.">
<polygon fill="white" stroke="black" points="89,-280.5 89,-299.5 177,-299.5 177,-280.5 89,-280.5"/>
<text text-anchor="middle" x="133" y="-287.5" font-family="Helvetica,sans-Serif" font-size="10.00">ifxBase/Error.h</text>
</a>
</g>
</g>
<!-- Node1&#45;&gt;Node11 -->
<g id="edge17" class="edge">
<title>Node1&#45;&gt;Node11</title>
<path fill="none" stroke="midnightblue" d="M410.11,-338.24C343.9,-326.96 247.13,-310.46 187.21,-300.24"/>
<polygon fill="midnightblue" stroke="midnightblue" points="187.64,-296.76 177.19,-298.53 186.46,-303.67 187.64,-296.76"/>
</g>
<!-- Node12 -->
<g id="node12" class="node">
<title>Node12</title>
<g id="a_node12"><a xlink:href="_log_8h.html" target="_top" xlink:title="API for logging.">
<polygon fill="white" stroke="black" points="147.5,-224.5 147.5,-243.5 230.5,-243.5 230.5,-224.5 147.5,-224.5"/>
<text text-anchor="middle" x="189" y="-231.5" font-family="Helvetica,sans-Serif" font-size="10.00">ifxBase/Log.h</text>
</a>
</g>
</g>
<!-- Node1&#45;&gt;Node12 -->
<g id="edge27" class="edge">
<title>Node1&#45;&gt;Node12</title>
<path fill="none" stroke="midnightblue" d="M410.39,-342.66C346.19,-334.48 257.81,-320.05 229,-300 212.72,-288.67 201.81,-268.37 195.55,-253.46"/>
<polygon fill="midnightblue" stroke="midnightblue" points="198.67,-251.83 191.8,-243.76 192.14,-254.35 198.67,-251.83"/>
</g>
<!-- Node14 -->
<g id="node14" class="node">
<title>Node14</title>
<g id="a_node14"><a xlink:href="_l_a_8h.html" target="_top" xlink:title="API for Linear Algebra (LA)">
<polygon fill="white" stroke="black" points="621,-280.5 621,-299.5 699,-299.5 699,-280.5 621,-280.5"/>
<text text-anchor="middle" x="660" y="-287.5" font-family="Helvetica,sans-Serif" font-size="10.00">ifxBase/LA.h</text>
</a>
</g>
</g>
<!-- Node1&#45;&gt;Node14 -->
<g id="edge21" class="edge">
<title>Node1&#45;&gt;Node14</title>
<path fill="none" stroke="midnightblue" d="M524.18,-336.4C554.81,-326.16 595.77,-312.47 624.67,-302.81"/>
<polygon fill="midnightblue" stroke="midnightblue" points="625.98,-306.06 634.36,-299.57 623.77,-299.42 625.98,-306.06"/>
</g>
<!-- Node15 -->
<g id="node15" class="node">
<title>Node15</title>
<g id="a_node15"><a xlink:href="_list_8h.html" target="_top" xlink:title=" ">
<polygon fill="white" stroke="black" points="758.5,-112.5 758.5,-131.5 841.5,-131.5 841.5,-112.5 758.5,-112.5"/>
<text text-anchor="middle" x="800" y="-119.5" font-family="Helvetica,sans-Serif" font-size="10.00">ifxBase/List.h</text>
</a>
</g>
</g>
<!-- Node1&#45;&gt;Node15 -->
<g id="edge24" class="edge">
<title>Node1&#45;&gt;Node15</title>
<path fill="none" stroke="midnightblue" d="M553.59,-344.72C625.08,-337.7 728.83,-323.76 761,-300 806.1,-266.7 805.73,-242.46 819,-188 822.95,-171.8 816.69,-153.59 810.32,-140.58"/>
<polygon fill="midnightblue" stroke="midnightblue" points="813.4,-138.93 805.6,-131.76 807.23,-142.23 813.4,-138.93"/>
</g>
<!-- Node17 -->
<g id="node17" class="node">
<title>Node17</title>
<g id="a_node17"><a xlink:href="_mem_8h.html" target="_top" xlink:title="API for memory management.">
<polygon fill="white" stroke="black" points="720,-168.5 720,-187.5 810,-187.5 810,-168.5 720,-168.5"/>
<text text-anchor="middle" x="765" y="-175.5" font-family="Helvetica,sans-Serif" font-size="10.00">ifxBase/Mem.h</text>
</a>
</g>
</g>
<!-- Node1&#45;&gt;Node17 -->
<g id="edge30" class="edge">
<title>Node1&#45;&gt;Node17</title>
<path fill="none" stroke="midnightblue" d="M553.63,-345.38C620.95,-339.05 715.12,-325.79 741,-300 768.09,-273 769.06,-224.79 767.17,-198.1"/>
<polygon fill="midnightblue" stroke="midnightblue" points="770.63,-197.44 766.22,-187.8 763.66,-198.08 770.63,-197.44"/>
</g>
<!-- Node18 -->
<g id="node18" class="node">
<title>Node18</title>
<g id="a_node18"><a xlink:href="_uuid_8h.html" target="_top" xlink:title=" ">
<polygon fill="white" stroke="black" points="860,-112.5 860,-131.5 948,-131.5 948,-112.5 860,-112.5"/>
<text text-anchor="middle" x="904" y="-119.5" font-family="Helvetica,sans-Serif" font-size="10.00">ifxBase/Uuid.h</text>
</a>
</g>
</g>
<!-- Node1&#45;&gt;Node18 -->
<g id="edge33" class="edge">
<title>Node1&#45;&gt;Node18</title>
<path fill="none" stroke="midnightblue" d="M553.77,-345.16C631.25,-338.26 748.59,-324.17 786,-300 846.7,-260.78 883.55,-178.1 897.54,-141.31"/>
<polygon fill="midnightblue" stroke="midnightblue" points="900.86,-142.44 901.02,-131.85 894.29,-140.03 900.86,-142.44"/>
</g>
<!-- Node19 -->
<g id="node19" class="node">
<title>Node19</title>
<g id="a_node19"><a xlink:href="_version_8h.html" target="_top" xlink:title="Version information of SDK.">
<polygon fill="white" stroke="black" points="28.5,-224.5 28.5,-243.5 129.5,-243.5 129.5,-224.5 28.5,-224.5"/>
<text text-anchor="middle" x="79" y="-231.5" font-family="Helvetica,sans-Serif" font-size="10.00">ifxBase/Version.h</text>
</a>
</g>
</g>
<!-- Node1&#45;&gt;Node19 -->
<g id="edge38" class="edge">
<title>Node1&#45;&gt;Node19</title>
<path fill="none" stroke="midnightblue" d="M410.06,-346.51C300.36,-339.69 101.62,-324.13 80,-300 68.96,-287.68 70.24,-268.15 73.34,-253.71"/>
<polygon fill="midnightblue" stroke="midnightblue" points="76.77,-254.42 75.9,-243.86 70,-252.66 76.77,-254.42"/>
</g>
<!-- Node3&#45;&gt;Node4 -->
<g id="edge3" class="edge">
<title>Node3&#45;&gt;Node4</title>
<path fill="none" stroke="midnightblue" d="M342.23,-280.32C358.35,-271.7 383.3,-258.36 401.96,-248.39"/>
<polygon fill="midnightblue" stroke="midnightblue" points="403.64,-251.46 410.81,-243.65 400.34,-245.28 403.64,-251.46"/>
</g>
<!-- Node3&#45;&gt;Node6 -->
<g id="edge10" class="edge">
<title>Node3&#45;&gt;Node6</title>
<path fill="none" stroke="midnightblue" d="M328.75,-280.25C338.39,-251.06 373.64,-156.38 438,-112 465.75,-92.86 501.81,-81.71 531.61,-75.29"/>
<polygon fill="midnightblue" stroke="midnightblue" points="532.35,-78.71 541.46,-73.29 530.96,-71.85 532.35,-78.71"/>
</g>
<!-- Node4&#45;&gt;Node5 -->
<g id="edge4" class="edge">
<title>Node4&#45;&gt;Node5</title>
<path fill="none" stroke="midnightblue" d="M427.33,-224.08C427.59,-217.01 427.97,-206.86 428.3,-197.99"/>
<polygon fill="midnightblue" stroke="midnightblue" points="431.8,-197.87 428.68,-187.75 424.81,-197.61 431.8,-197.87"/>
</g>
<!-- Node5&#45;&gt;Node6 -->
<g id="edge5" class="edge">
<title>Node5&#45;&gt;Node6</title>
<path fill="none" stroke="midnightblue" d="M430.31,-168.12C432.82,-154.23 439.59,-127.37 456,-112 476.51,-92.78 505.56,-81.74 531.19,-75.41"/>
<polygon fill="midnightblue" stroke="midnightblue" points="532.22,-78.77 541.19,-73.13 530.66,-71.94 532.22,-78.77"/>
</g>
<!-- Node5&#45;&gt;Node8 -->
<g id="edge8" class="edge">
<title>Node5&#45;&gt;Node8</title>
<path fill="none" stroke="midnightblue" d="M442.34,-168.32C455.16,-159.98 474.78,-147.21 489.94,-137.35"/>
<polygon fill="midnightblue" stroke="midnightblue" points="492.22,-140.04 498.7,-131.65 488.41,-134.17 492.22,-140.04"/>
</g>
<!-- Node6&#45;&gt;Node2 -->
<g id="edge6" class="edge">
<title>Node6&#45;&gt;Node2</title>
<path fill="none" stroke="midnightblue" d="M541.3,-57.6C473.22,-46.82 348.01,-27 285.14,-17.04"/>
<polygon fill="midnightblue" stroke="midnightblue" points="285.66,-13.58 275.24,-15.47 284.57,-20.49 285.66,-13.58"/>
</g>
<!-- Node7 -->
<g id="node7" class="node">
<title>Node7</title>
<g id="a_node7"><a xlink:title=" ">
<polygon fill="white" stroke="#bfbfbf" points="710.5,-0.5 710.5,-19.5 763.5,-19.5 763.5,-0.5 710.5,-0.5"/>
<text text-anchor="middle" x="737" y="-7.5" font-family="Helvetica,sans-Serif" font-size="10.00">stdint.h</text>
</a>
</g>
</g>
<!-- Node6&#45;&gt;Node7 -->
<g id="edge7" class="edge">
<title>Node6&#45;&gt;Node7</title>
<path fill="none" stroke="midnightblue" d="M611.61,-56.44C636.46,-47.44 675.77,-33.19 703.75,-23.05"/>
<polygon fill="midnightblue" stroke="midnightblue" points="705.29,-26.21 713.5,-19.52 702.91,-19.63 705.29,-26.21"/>
</g>
<!-- Node8&#45;&gt;Node6 -->
<g id="edge9" class="edge">
<title>Node8&#45;&gt;Node6</title>
<path fill="none" stroke="midnightblue" d="M524.21,-112.32C535.78,-104.11 553.38,-91.6 567.16,-81.81"/>
<polygon fill="midnightblue" stroke="midnightblue" points="569.44,-84.48 575.57,-75.83 565.39,-78.77 569.44,-84.48"/>
</g>
<!-- Node9&#45;&gt;Node4 -->
<g id="edge12" class="edge">
<title>Node9&#45;&gt;Node4</title>
<path fill="none" stroke="midnightblue" d="M472.92,-280.08C464.83,-272.14 452.8,-260.34 443.09,-250.8"/>
<polygon fill="midnightblue" stroke="midnightblue" points="445.5,-248.26 435.91,-243.75 440.6,-253.25 445.5,-248.26"/>
</g>
<!-- Node9&#45;&gt;Node10 -->
<g id="edge13" class="edge">
<title>Node9&#45;&gt;Node10</title>
<path fill="none" stroke="midnightblue" d="M499.03,-280.32C516.03,-271.66 542.38,-258.24 561.99,-248.25"/>
<polygon fill="midnightblue" stroke="midnightblue" points="563.69,-251.31 571.01,-243.65 560.51,-245.08 563.69,-251.31"/>
</g>
<!-- Node10&#45;&gt;Node6 -->
<g id="edge14" class="edge">
<title>Node10&#45;&gt;Node6</title>
<path fill="none" stroke="midnightblue" d="M588,-224.08C588,-197.95 588,-121.21 588,-85.58"/>
<polygon fill="midnightblue" stroke="midnightblue" points="591.5,-85.57 588,-75.57 584.5,-85.57 591.5,-85.57"/>
</g>
<!-- Node10&#45;&gt;Node8 -->
<g id="edge15" class="edge">
<title>Node10&#45;&gt;Node8</title>
<path fill="none" stroke="midnightblue" d="M582.04,-224.37C569.49,-206.22 540.19,-163.8 523.74,-139.99"/>
<polygon fill="midnightblue" stroke="midnightblue" points="526.5,-137.83 517.94,-131.59 520.74,-141.81 526.5,-137.83"/>
</g>
<!-- Node11&#45;&gt;Node12 -->
<g id="edge18" class="edge">
<title>Node11&#45;&gt;Node12</title>
<path fill="none" stroke="midnightblue" d="M142,-280.32C150.19,-272.42 162.51,-260.55 172.47,-250.94"/>
<polygon fill="midnightblue" stroke="midnightblue" points="175.07,-253.29 179.84,-243.83 170.21,-248.26 175.07,-253.29"/>
</g>
<!-- Node12&#45;&gt;Node6 -->
<g id="edge20" class="edge">
<title>Node12&#45;&gt;Node6</title>
<path fill="none" stroke="midnightblue" d="M189.35,-224.39C190.34,-210.88 194.05,-184.53 208,-168 244.67,-124.56 268.87,-129.38 323,-112 392.71,-89.62 476.5,-77.77 530.94,-71.95"/>
<polygon fill="midnightblue" stroke="midnightblue" points="531.5,-75.41 541.09,-70.9 530.78,-68.45 531.5,-75.41"/>
</g>
<!-- Node13 -->
<g id="node13" class="node">
<title>Node13</title>
<g id="a_node13"><a xlink:title=" ">
<polygon fill="white" stroke="#bfbfbf" points="217,-168.5 217,-187.5 267,-187.5 267,-168.5 217,-168.5"/>
<text text-anchor="middle" x="242" y="-175.5" font-family="Helvetica,sans-Serif" font-size="10.00">stdio.h</text>
</a>
</g>
</g>
<!-- Node12&#45;&gt;Node13 -->
<g id="edge19" class="edge">
<title>Node12&#45;&gt;Node13</title>
<path fill="none" stroke="midnightblue" d="M197.75,-224.08C205.47,-216.22 216.9,-204.57 226.22,-195.08"/>
<polygon fill="midnightblue" stroke="midnightblue" points="228.9,-197.34 233.41,-187.75 223.91,-192.44 228.9,-197.34"/>
</g>
<!-- Node14&#45;&gt;Node6 -->
<g id="edge22" class="edge">
<title>Node14&#45;&gt;Node6</title>
<path fill="none" stroke="midnightblue" d="M658.57,-280.49C656.37,-267.98 651.8,-243.95 646,-224 631.11,-172.79 607.75,-114.3 595.73,-85.3"/>
<polygon fill="midnightblue" stroke="midnightblue" points="598.8,-83.58 591.72,-75.71 592.34,-86.28 598.8,-83.58"/>
</g>
<!-- Node14&#45;&gt;Node10 -->
<g id="edge23" class="edge">
<title>Node14&#45;&gt;Node10</title>
<path fill="none" stroke="midnightblue" d="M648.43,-280.32C637.58,-272.18 621.12,-259.84 608.12,-250.09"/>
<polygon fill="midnightblue" stroke="midnightblue" points="609.88,-247.03 599.78,-243.83 605.68,-252.63 609.88,-247.03"/>
</g>
<!-- Node15&#45;&gt;Node6 -->
<g id="edge25" class="edge">
<title>Node15&#45;&gt;Node6</title>
<path fill="none" stroke="midnightblue" d="M766.41,-112.44C729.81,-103.12 671.16,-88.18 631.17,-78"/>
<polygon fill="midnightblue" stroke="midnightblue" points="631.99,-74.59 621.43,-75.52 630.26,-81.38 631.99,-74.59"/>
</g>
<!-- Node16 -->
<g id="node16" class="node">
<title>Node16</title>
<g id="a_node16"><a xlink:title=" ">
<polygon fill="white" stroke="#bfbfbf" points="780,-56.5 780,-75.5 842,-75.5 842,-56.5 780,-56.5"/>
<text text-anchor="middle" x="811" y="-63.5" font-family="Helvetica,sans-Serif" font-size="10.00">stdbool.h</text>
</a>
</g>
</g>
<!-- Node15&#45;&gt;Node16 -->
<g id="edge26" class="edge">
<title>Node15&#45;&gt;Node16</title>
<path fill="none" stroke="midnightblue" d="M801.82,-112.08C803.27,-104.93 805.37,-94.64 807.19,-85.69"/>
<polygon fill="midnightblue" stroke="midnightblue" points="810.65,-86.25 809.22,-75.75 803.79,-84.85 810.65,-86.25"/>
</g>
<!-- Node17&#45;&gt;Node6 -->
<g id="edge31" class="edge">
<title>Node17&#45;&gt;Node6</title>
<path fill="none" stroke="midnightblue" d="M759.12,-168.22C749.51,-154.47 729.16,-127.81 706,-112 683.66,-96.75 655.45,-85.74 632.21,-78.44"/>
<polygon fill="midnightblue" stroke="midnightblue" points="633.17,-75.07 622.59,-75.53 631.15,-81.77 633.17,-75.07"/>
</g>
<!-- Node18&#45;&gt;Node6 -->
<g id="edge36" class="edge">
<title>Node18&#45;&gt;Node6</title>
<path fill="none" stroke="midnightblue" d="M859.73,-113.43C803.41,-103.81 706.09,-87.18 644.48,-76.65"/>
<polygon fill="midnightblue" stroke="midnightblue" points="644.99,-73.19 634.54,-74.95 643.81,-80.09 644.99,-73.19"/>
</g>
<!-- Node18&#45;&gt;Node7 -->
<g id="edge34" class="edge">
<title>Node18&#45;&gt;Node7</title>
<path fill="none" stroke="midnightblue" d="M898.91,-112.22C890.54,-98.47 872.63,-71.81 851,-56 827.7,-38.97 797.1,-27.35 773.46,-20.19"/>
<polygon fill="midnightblue" stroke="midnightblue" points="774.38,-16.82 763.8,-17.4 772.43,-23.54 774.38,-16.82"/>
</g>
<!-- Node18&#45;&gt;Node16 -->
<g id="edge35" class="edge">
<title>Node18&#45;&gt;Node16</title>
<path fill="none" stroke="midnightblue" d="M889.06,-112.32C874.41,-103.82 851.87,-90.73 834.76,-80.8"/>
<polygon fill="midnightblue" stroke="midnightblue" points="836.31,-77.65 825.9,-75.65 832.8,-83.7 836.31,-77.65"/>
</g>
<!-- Node19&#45;&gt;Node6 -->
<g id="edge39" class="edge">
<title>Node19&#45;&gt;Node6</title>
<path fill="none" stroke="midnightblue" d="M87.69,-224.42C111.37,-201.64 179.92,-139.51 250,-112 343.82,-75.17 462.35,-67.42 531.23,-66.37"/>
<polygon fill="midnightblue" stroke="midnightblue" points="531.47,-69.87 541.43,-66.25 531.39,-62.87 531.47,-69.87"/>
</g>
</g>
</svg>
