<?xml version="1.0" encoding="UTF-8" standalone="no"?>
<!DOCTYPE svg PUBLIC "-//W3C//DTD SVG 1.1//EN"
 "http://www.w3.org/Graphics/SVG/1.1/DTD/svg11.dtd">
<!-- Generated by graphviz version 2.43.0 (0)
 -->
<!-- Title: /home/build/sdk/c/ifxBase/Complex.h Pages: 1 -->
<svg width="180pt" height="319pt"
 viewBox="0.00 0.00 179.50 319.00" xmlns="http://www.w3.org/2000/svg" xmlns:xlink="http://www.w3.org/1999/xlink">
<g id="graph0" class="graph" transform="scale(1 1) rotate(0) translate(4 315)">
<title>/home/build/sdk/c/ifxBase/Complex.h</title>
<polygon fill="white" stroke="transparent" points="-4,4 -4,-315 175.5,-315 175.5,4 -4,4"/>
<!-- Node1 -->
<g id="node1" class="node">
<title>Node1</title>
<g id="a_node1"><a xlink:title="API for operations on complex numbers.">
<polygon fill="#bfbfbf" stroke="black" points="28.5,-280.5 28.5,-310.5 171.5,-310.5 171.5,-280.5 28.5,-280.5"/>
<text text-anchor="start" x="36.5" y="-298.5" font-family="Helvetica,sans-Serif" font-size="10.00">/home/build/sdk/c/ifxBase</text>
<text text-anchor="middle" x="100" y="-287.5" font-family="Helvetica,sans-Serif" font-size="10.00">/Complex.h</text>
</a>
</g>
</g>
<!-- Node2 -->
<g id="node2" class="node">
<title>Node2</title>
<g id="a_node2"><a xlink:href="_defines_8h.html" target="_top" xlink:title="Internal definitions used by standard math.h functions as Macros, to use float or double precision.">
<polygon fill="white" stroke="black" points="10,-224.5 10,-243.5 112,-243.5 112,-224.5 10,-224.5"/>
<text text-anchor="middle" x="61" y="-231.5" font-family="Helvetica,sans-Serif" font-size="10.00">ifxBase/Defines.h</text>
</a>
</g>
</g>
<!-- Node1&#45;&gt;Node2 -->
<g id="edge1" class="edge">
<title>Node1&#45;&gt;Node2</title>
<path fill="none" stroke="midnightblue" d="M90.76,-280.4C85.21,-271.93 78.11,-261.1 72.23,-252.14"/>
<polygon fill="midnightblue" stroke="midnightblue" points="75.08,-250.1 66.67,-243.66 69.23,-253.94 75.08,-250.1"/>
</g>
<!-- Node4 -->
<g id="node4" class="node">
<title>Node4</title>
<g id="a_node4"><a xlink:href="_types_8h.html" target="_top" xlink:title="Definitions of data types used within the SDK.">
<polygon fill="white" stroke="black" points="17.5,-56.5 17.5,-75.5 110.5,-75.5 110.5,-56.5 17.5,-56.5"/>
<text text-anchor="middle" x="64" y="-63.5" font-family="Helvetica,sans-Serif" font-size="10.00">ifxBase/Types.h</text>
</a>
</g>
</g>
<!-- Node1&#45;&gt;Node4 -->
<g id="edge8" class="edge">
<title>Node1&#45;&gt;Node4</title>
<path fill="none" stroke="midnightblue" d="M107.64,-280.39C112.53,-270.52 118.43,-256.85 121,-244 132.49,-186.47 146.58,-164.79 121,-112 114.6,-98.8 102.25,-88.3 90.67,-80.78"/>
<polygon fill="midnightblue" stroke="midnightblue" points="92.45,-77.77 82.08,-75.61 88.84,-83.77 92.45,-77.77"/>
</g>
<!-- Node3 -->
<g id="node3" class="node">
<title>Node3</title>
<g id="a_node3"><a xlink:href="_math_8h.html" target="_top" xlink:title="API for Mathematical operations.">
<polygon fill="white" stroke="black" points="35.5,-168.5 35.5,-187.5 86.5,-187.5 86.5,-168.5 35.5,-168.5"/>
<text text-anchor="middle" x="61" y="-175.5" font-family="Helvetica,sans-Serif" font-size="10.00">math.h</text>
</a>
</g>
</g>
<!-- Node2&#45;&gt;Node3 -->
<g id="edge2" class="edge">
<title>Node2&#45;&gt;Node3</title>
<path fill="none" stroke="midnightblue" d="M61,-224.08C61,-217.01 61,-206.86 61,-197.99"/>
<polygon fill="midnightblue" stroke="midnightblue" points="64.5,-197.75 61,-187.75 57.5,-197.75 64.5,-197.75"/>
</g>
<!-- Node3&#45;&gt;Node4 -->
<g id="edge3" class="edge">
<title>Node3&#45;&gt;Node4</title>
<path fill="none" stroke="midnightblue" d="M44.5,-168.34C24.82,-156.74 -4.13,-134.97 7,-112 13.4,-98.8 25.75,-88.3 37.33,-80.78"/>
<polygon fill="midnightblue" stroke="midnightblue" points="39.16,-83.77 45.92,-75.61 35.55,-77.77 39.16,-83.77"/>
</g>
<!-- Node7 -->
<g id="node7" class="node">
<title>Node7</title>
<g id="a_node7"><a xlink:href="_vector_8h.html" target="_top" xlink:title="API for operations on Vector data structures.">
<polygon fill="white" stroke="black" points="16.5,-112.5 16.5,-131.5 111.5,-131.5 111.5,-112.5 16.5,-112.5"/>
<text text-anchor="middle" x="64" y="-119.5" font-family="Helvetica,sans-Serif" font-size="10.00">ifxBase/Vector.h</text>
</a>
</g>
</g>
<!-- Node3&#45;&gt;Node7 -->
<g id="edge6" class="edge">
<title>Node3&#45;&gt;Node7</title>
<path fill="none" stroke="midnightblue" d="M61.5,-168.08C61.89,-161.01 62.45,-150.86 62.95,-141.99"/>
<polygon fill="midnightblue" stroke="midnightblue" points="66.45,-141.93 63.51,-131.75 59.46,-141.54 66.45,-141.93"/>
</g>
<!-- Node5 -->
<g id="node5" class="node">
<title>Node5</title>
<g id="a_node5"><a xlink:title=" ">
<polygon fill="white" stroke="#bfbfbf" points="0,-0.5 0,-19.5 56,-19.5 56,-0.5 0,-0.5"/>
<text text-anchor="middle" x="28" y="-7.5" font-family="Helvetica,sans-Serif" font-size="10.00">stddef.h</text>
</a>
</g>
</g>
<!-- Node4&#45;&gt;Node5 -->
<g id="edge4" class="edge">
<title>Node4&#45;&gt;Node5</title>
<path fill="none" stroke="midnightblue" d="M58.06,-56.08C53.02,-48.53 45.66,-37.49 39.49,-28.23"/>
<polygon fill="midnightblue" stroke="midnightblue" points="42.29,-26.13 33.83,-19.75 36.47,-30.01 42.29,-26.13"/>
</g>
<!-- Node6 -->
<g id="node6" class="node">
<title>Node6</title>
<g id="a_node6"><a xlink:title=" ">
<polygon fill="white" stroke="#bfbfbf" points="74.5,-0.5 74.5,-19.5 127.5,-19.5 127.5,-0.5 74.5,-0.5"/>
<text text-anchor="middle" x="101" y="-7.5" font-family="Helvetica,sans-Serif" font-size="10.00">stdint.h</text>
</a>
</g>
</g>
<!-- Node4&#45;&gt;Node6 -->
<g id="edge5" class="edge">
<title>Node4&#45;&gt;Node6</title>
<path fill="none" stroke="midnightblue" d="M70.11,-56.08C75.28,-48.53 82.85,-37.49 89.19,-28.23"/>
<polygon fill="midnightblue" stroke="midnightblue" points="92.24,-29.98 95,-19.75 86.46,-26.02 92.24,-29.98"/>
</g>
<!-- Node7&#45;&gt;Node4 -->
<g id="edge7" class="edge">
<title>Node7&#45;&gt;Node4</title>
<path fill="none" stroke="midnightblue" d="M64,-112.08C64,-105.01 64,-94.86 64,-85.99"/>
<polygon fill="midnightblue" stroke="midnightblue" points="67.5,-85.75 64,-75.75 60.5,-85.75 67.5,-85.75"/>
</g>
</g>
</svg>
