<?xml version="1.0" encoding="UTF-8" standalone="no"?>
<!DOCTYPE svg PUBLIC "-//W3C//DTD SVG 1.1//EN"
 "http://www.w3.org/Graphics/SVG/1.1/DTD/svg11.dtd">
<!-- Generated by graphviz version 2.43.0 (0)
 -->
<!-- Title: /home/build/sdk/c/ifxDevice/ConstantWaveControl.h Pages: 1 -->
<svg width="615pt" height="375pt"
 viewBox="0.00 0.00 614.92 375.00" xmlns="http://www.w3.org/2000/svg" xmlns:xlink="http://www.w3.org/1999/xlink">
<g id="graph0" class="graph" transform="scale(1 1) rotate(0) translate(4 371)">
<title>/home/build/sdk/c/ifxDevice/ConstantWaveControl.h</title>
<polygon fill="white" stroke="transparent" points="-4,4 -4,-371 610.92,-371 610.92,4 -4,4"/>
<!-- Node1 -->
<g id="node1" class="node">
<title>Node1</title>
<g id="a_node1"><a xlink:title="Header for Constant Wave Control. It provides APIs to use an Avian device in constant wave mode....">
<polygon fill="#bfbfbf" stroke="black" points="338.92,-336.5 338.92,-366.5 490.92,-366.5 490.92,-336.5 338.92,-336.5"/>
<text text-anchor="start" x="346.92" y="-354.5" font-family="Helvetica,sans-Serif" font-size="10.00">/home/build/sdk/c/ifxDevice</text>
<text text-anchor="middle" x="414.92" y="-343.5" font-family="Helvetica,sans-Serif" font-size="10.00">/ConstantWaveControl.h</text>
</a>
</g>
</g>
<!-- Node2 -->
<g id="node2" class="node">
<title>Node2</title>
<g id="a_node2"><a xlink:href="_device_control_8h.html" target="_top" xlink:title="API for Radar device control operations.">
<polygon fill="white" stroke="black" points="292.92,-280.5 292.92,-299.5 436.92,-299.5 436.92,-280.5 292.92,-280.5"/>
<text text-anchor="middle" x="364.92" y="-287.5" font-family="Helvetica,sans-Serif" font-size="10.00">ifxDevice/DeviceControl.h</text>
</a>
</g>
</g>
<!-- Node1&#45;&gt;Node2 -->
<g id="edge1" class="edge">
<title>Node1&#45;&gt;Node2</title>
<path fill="none" stroke="midnightblue" d="M403.07,-336.4C395.8,-327.75 386.47,-316.64 378.85,-307.58"/>
<polygon fill="midnightblue" stroke="midnightblue" points="381.31,-305.06 372.19,-299.66 375.95,-309.57 381.31,-305.06"/>
</g>
<!-- Node11 -->
<g id="node11" class="node">
<title>Node11</title>
<g id="a_node11"><a xlink:href="_device_config_8h.html" target="_top" xlink:title="API for Radar device configuration.">
<polygon fill="white" stroke="black" points="466.92,-224.5 466.92,-243.5 606.92,-243.5 606.92,-224.5 466.92,-224.5"/>
<text text-anchor="middle" x="536.92" y="-231.5" font-family="Helvetica,sans-Serif" font-size="10.00">ifxDevice/DeviceConfig.h</text>
</a>
</g>
</g>
<!-- Node1&#45;&gt;Node11 -->
<g id="edge26" class="edge">
<title>Node1&#45;&gt;Node11</title>
<path fill="none" stroke="midnightblue" d="M429.88,-336.34C452.76,-314.68 496.3,-273.45 520.19,-250.83"/>
<polygon fill="midnightblue" stroke="midnightblue" points="522.9,-253.09 527.76,-243.67 518.09,-248 522.9,-253.09"/>
</g>
<!-- Node3 -->
<g id="node3" class="node">
<title>Node3</title>
<g id="a_node3"><a xlink:title=" ">
<polygon fill="white" stroke="#bfbfbf" points="165.92,-168.5 165.92,-187.5 227.92,-187.5 227.92,-168.5 165.92,-168.5"/>
<text text-anchor="middle" x="196.92" y="-175.5" font-family="Helvetica,sans-Serif" font-size="10.00">stdbool.h</text>
</a>
</g>
</g>
<!-- Node2&#45;&gt;Node3 -->
<g id="edge2" class="edge">
<title>Node2&#45;&gt;Node3</title>
<path fill="none" stroke="midnightblue" d="M292.81,-281.19C245.48,-274.41 189.69,-262.68 174.92,-244 163.89,-230.05 173.2,-210.26 182.89,-196.19"/>
<polygon fill="midnightblue" stroke="midnightblue" points="185.91,-198 189.09,-187.89 180.3,-193.8 185.91,-198"/>
</g>
<!-- Node4 -->
<g id="node4" class="node">
<title>Node4</title>
<g id="a_node4"><a xlink:href="_types_8h.html" target="_top" xlink:title="Definitions of data types used within the SDK.">
<polygon fill="white" stroke="black" points="262.42,-56.5 262.42,-75.5 355.42,-75.5 355.42,-56.5 262.42,-56.5"/>
<text text-anchor="middle" x="308.92" y="-63.5" font-family="Helvetica,sans-Serif" font-size="10.00">ifxBase/Types.h</text>
</a>
</g>
</g>
<!-- Node2&#45;&gt;Node4 -->
<g id="edge3" class="edge">
<title>Node2&#45;&gt;Node4</title>
<path fill="none" stroke="midnightblue" d="M369.28,-280.31C373.48,-271.44 379.52,-257.14 381.92,-244 384.53,-229.69 384.25,-188.85 379.92,-168 374.47,-141.82 373.04,-134.05 357.92,-112 350.14,-100.65 338.99,-90.12 329.29,-82.11"/>
<polygon fill="midnightblue" stroke="midnightblue" points="331.28,-79.22 321.26,-75.75 326.93,-84.7 331.28,-79.22"/>
</g>
<!-- Node7 -->
<g id="node7" class="node">
<title>Node7</title>
<g id="a_node7"><a xlink:href="_error_8h.html" target="_top" xlink:title="API for error handling.">
<polygon fill="white" stroke="black" points="284.92,-224.5 284.92,-243.5 372.92,-243.5 372.92,-224.5 284.92,-224.5"/>
<text text-anchor="middle" x="328.92" y="-231.5" font-family="Helvetica,sans-Serif" font-size="10.00">ifxBase/Error.h</text>
</a>
</g>
</g>
<!-- Node2&#45;&gt;Node7 -->
<g id="edge6" class="edge">
<title>Node2&#45;&gt;Node7</title>
<path fill="none" stroke="midnightblue" d="M358.97,-280.08C353.94,-272.53 346.58,-261.49 340.4,-252.23"/>
<polygon fill="midnightblue" stroke="midnightblue" points="343.21,-250.13 334.75,-243.75 337.39,-254.01 343.21,-250.13"/>
</g>
<!-- Node10 -->
<g id="node10" class="node">
<title>Node10</title>
<g id="a_node10"><a xlink:href="_list_8h.html" target="_top" xlink:title=" ">
<polygon fill="white" stroke="black" points="183.42,-224.5 183.42,-243.5 266.42,-243.5 266.42,-224.5 183.42,-224.5"/>
<text text-anchor="middle" x="224.92" y="-231.5" font-family="Helvetica,sans-Serif" font-size="10.00">ifxBase/List.h</text>
</a>
</g>
</g>
<!-- Node2&#45;&gt;Node10 -->
<g id="edge10" class="edge">
<title>Node2&#45;&gt;Node10</title>
<path fill="none" stroke="midnightblue" d="M342.73,-280.44C319.49,-271.48 282.77,-257.31 256.5,-247.18"/>
<polygon fill="midnightblue" stroke="midnightblue" points="257.59,-243.85 247,-243.52 255.07,-250.38 257.59,-243.85"/>
</g>
<!-- Node2&#45;&gt;Node11 -->
<g id="edge13" class="edge">
<title>Node2&#45;&gt;Node11</title>
<path fill="none" stroke="midnightblue" d="M392.17,-280.44C421.36,-271.28 467.84,-256.69 500.23,-246.52"/>
<polygon fill="midnightblue" stroke="midnightblue" points="501.3,-249.85 509.79,-243.52 499.2,-243.17 501.3,-249.85"/>
</g>
<!-- Node12 -->
<g id="node12" class="node">
<title>Node12</title>
<g id="a_node12"><a xlink:href="_shield_8h.html" target="_top" xlink:title="Defines the Enumeration for the presence of the available Shield.">
<polygon fill="white" stroke="black" points="428.42,-168.5 428.42,-187.5 533.42,-187.5 533.42,-168.5 428.42,-168.5"/>
<text text-anchor="middle" x="480.92" y="-175.5" font-family="Helvetica,sans-Serif" font-size="10.00">ifxDevice/Shield.h</text>
</a>
</g>
</g>
<!-- Node2&#45;&gt;Node12 -->
<g id="edge25" class="edge">
<title>Node2&#45;&gt;Node12</title>
<path fill="none" stroke="midnightblue" d="M374.62,-280.5C384.78,-271.54 401.14,-256.97 414.92,-244 432.37,-227.57 451.88,-208.23 465.13,-194.95"/>
<polygon fill="midnightblue" stroke="midnightblue" points="467.93,-197.1 472.49,-187.54 462.96,-192.16 467.93,-197.1"/>
</g>
<!-- Node13 -->
<g id="node13" class="node">
<title>Node13</title>
<g id="a_node13"><a xlink:href="_frame_8h.html" target="_top" xlink:title="API for Measurement Frame handling.">
<polygon fill="white" stroke="black" points="20.92,-224.5 20.92,-243.5 126.92,-243.5 126.92,-224.5 20.92,-224.5"/>
<text text-anchor="middle" x="73.92" y="-231.5" font-family="Helvetica,sans-Serif" font-size="10.00">ifxDevice/Frame.h</text>
</a>
</g>
</g>
<!-- Node2&#45;&gt;Node13 -->
<g id="edge18" class="edge">
<title>Node2&#45;&gt;Node13</title>
<path fill="none" stroke="midnightblue" d="M318.81,-280.44C267.51,-270.92 184.64,-255.55 129.73,-245.36"/>
<polygon fill="midnightblue" stroke="midnightblue" points="130.28,-241.9 119.81,-243.52 129.01,-248.78 130.28,-241.9"/>
</g>
<!-- Node5 -->
<g id="node5" class="node">
<title>Node5</title>
<g id="a_node5"><a xlink:title=" ">
<polygon fill="white" stroke="#bfbfbf" points="280.92,-0.5 280.92,-19.5 336.92,-19.5 336.92,-0.5 280.92,-0.5"/>
<text text-anchor="middle" x="308.92" y="-7.5" font-family="Helvetica,sans-Serif" font-size="10.00">stddef.h</text>
</a>
</g>
</g>
<!-- Node4&#45;&gt;Node5 -->
<g id="edge4" class="edge">
<title>Node4&#45;&gt;Node5</title>
<path fill="none" stroke="midnightblue" d="M308.92,-56.08C308.92,-49.01 308.92,-38.86 308.92,-29.99"/>
<polygon fill="midnightblue" stroke="midnightblue" points="312.42,-29.75 308.92,-19.75 305.42,-29.75 312.42,-29.75"/>
</g>
<!-- Node6 -->
<g id="node6" class="node">
<title>Node6</title>
<g id="a_node6"><a xlink:title=" ">
<polygon fill="white" stroke="#bfbfbf" points="454.42,-0.5 454.42,-19.5 507.42,-19.5 507.42,-0.5 454.42,-0.5"/>
<text text-anchor="middle" x="480.92" y="-7.5" font-family="Helvetica,sans-Serif" font-size="10.00">stdint.h</text>
</a>
</g>
</g>
<!-- Node4&#45;&gt;Node6 -->
<g id="edge5" class="edge">
<title>Node4&#45;&gt;Node6</title>
<path fill="none" stroke="midnightblue" d="M336.17,-56.44C365.53,-47.23 412.39,-32.52 444.8,-22.34"/>
<polygon fill="midnightblue" stroke="midnightblue" points="445.86,-25.67 454.36,-19.34 443.77,-19 445.86,-25.67"/>
</g>
<!-- Node8 -->
<g id="node8" class="node">
<title>Node8</title>
<g id="a_node8"><a xlink:href="_log_8h.html" target="_top" xlink:title="API for logging.">
<polygon fill="white" stroke="black" points="287.42,-168.5 287.42,-187.5 370.42,-187.5 370.42,-168.5 287.42,-168.5"/>
<text text-anchor="middle" x="328.92" y="-175.5" font-family="Helvetica,sans-Serif" font-size="10.00">ifxBase/Log.h</text>
</a>
</g>
</g>
<!-- Node7&#45;&gt;Node8 -->
<g id="edge7" class="edge">
<title>Node7&#45;&gt;Node8</title>
<path fill="none" stroke="midnightblue" d="M328.92,-224.08C328.92,-217.01 328.92,-206.86 328.92,-197.99"/>
<polygon fill="midnightblue" stroke="midnightblue" points="332.42,-197.75 328.92,-187.75 325.42,-197.75 332.42,-197.75"/>
</g>
<!-- Node8&#45;&gt;Node4 -->
<g id="edge9" class="edge">
<title>Node8&#45;&gt;Node4</title>
<path fill="none" stroke="midnightblue" d="M333.63,-168.42C339.92,-155.83 349.52,-131.7 342.92,-112 339.31,-101.25 332.02,-91.02 325.1,-83.04"/>
<polygon fill="midnightblue" stroke="midnightblue" points="327.57,-80.56 318.21,-75.61 322.44,-85.32 327.57,-80.56"/>
</g>
<!-- Node9 -->
<g id="node9" class="node">
<title>Node9</title>
<g id="a_node9"><a xlink:title=" ">
<polygon fill="white" stroke="#bfbfbf" points="283.92,-112.5 283.92,-131.5 333.92,-131.5 333.92,-112.5 283.92,-112.5"/>
<text text-anchor="middle" x="308.92" y="-119.5" font-family="Helvetica,sans-Serif" font-size="10.00">stdio.h</text>
</a>
</g>
</g>
<!-- Node8&#45;&gt;Node9 -->
<g id="edge8" class="edge">
<title>Node8&#45;&gt;Node9</title>
<path fill="none" stroke="midnightblue" d="M325.62,-168.08C322.94,-160.85 319.07,-150.41 315.73,-141.4"/>
<polygon fill="midnightblue" stroke="midnightblue" points="318.91,-139.91 312.16,-131.75 312.35,-142.34 318.91,-139.91"/>
</g>
<!-- Node10&#45;&gt;Node3 -->
<g id="edge12" class="edge">
<title>Node10&#45;&gt;Node3</title>
<path fill="none" stroke="midnightblue" d="M220.29,-224.08C216.46,-216.69 210.89,-205.95 206.15,-196.81"/>
<polygon fill="midnightblue" stroke="midnightblue" points="209.17,-195.02 201.46,-187.75 202.95,-198.24 209.17,-195.02"/>
</g>
<!-- Node10&#45;&gt;Node4 -->
<g id="edge11" class="edge">
<title>Node10&#45;&gt;Node4</title>
<path fill="none" stroke="midnightblue" d="M227.61,-224.44C234.17,-204.15 252.13,-151.86 274.92,-112 280.69,-101.91 288.42,-91.49 295.06,-83.23"/>
<polygon fill="midnightblue" stroke="midnightblue" points="297.77,-85.44 301.44,-75.5 292.37,-80.98 297.77,-85.44"/>
</g>
<!-- Node11&#45;&gt;Node4 -->
<g id="edge15" class="edge">
<title>Node11&#45;&gt;Node4</title>
<path fill="none" stroke="midnightblue" d="M540.97,-224.17C546.43,-210.82 554.23,-185.25 542.92,-168 503.85,-108.44 421.38,-83.85 365.55,-73.8"/>
<polygon fill="midnightblue" stroke="midnightblue" points="365.9,-70.31 355.45,-72.09 364.73,-77.21 365.9,-70.31"/>
</g>
<!-- Node11&#45;&gt;Node6 -->
<g id="edge14" class="edge">
<title>Node11&#45;&gt;Node6</title>
<path fill="none" stroke="midnightblue" d="M543.15,-224.32C551.23,-212.01 563.76,-188.65 558.92,-168 546.1,-113.4 511.32,-56.06 492.84,-28.21"/>
<polygon fill="midnightblue" stroke="midnightblue" points="495.54,-25.96 487.04,-19.64 489.75,-29.89 495.54,-25.96"/>
</g>
<!-- Node11&#45;&gt;Node12 -->
<g id="edge16" class="edge">
<title>Node11&#45;&gt;Node12</title>
<path fill="none" stroke="midnightblue" d="M527.92,-224.32C519.72,-216.42 507.41,-204.55 497.45,-194.94"/>
<polygon fill="midnightblue" stroke="midnightblue" points="499.71,-192.26 490.08,-187.83 494.85,-197.29 499.71,-192.26"/>
</g>
<!-- Node12&#45;&gt;Node6 -->
<g id="edge17" class="edge">
<title>Node12&#45;&gt;Node6</title>
<path fill="none" stroke="midnightblue" d="M480.92,-168.08C480.92,-141.95 480.92,-65.21 480.92,-29.58"/>
<polygon fill="midnightblue" stroke="midnightblue" points="484.42,-29.57 480.92,-19.57 477.42,-29.57 484.42,-29.57"/>
</g>
<!-- Node13&#45;&gt;Node3 -->
<g id="edge19" class="edge">
<title>Node13&#45;&gt;Node3</title>
<path fill="none" stroke="midnightblue" d="M93.41,-224.44C113.56,-215.6 145.24,-201.69 168.25,-191.59"/>
<polygon fill="midnightblue" stroke="midnightblue" points="169.77,-194.74 177.52,-187.52 166.96,-188.33 169.77,-194.74"/>
</g>
<!-- Node13&#45;&gt;Node4 -->
<g id="edge20" class="edge">
<title>Node13&#45;&gt;Node4</title>
<path fill="none" stroke="midnightblue" d="M84.46,-224.31C100.03,-211.59 130.21,-187.29 156.92,-168 201.88,-135.53 256.43,-100.24 286.42,-81.17"/>
<polygon fill="midnightblue" stroke="midnightblue" points="288.68,-83.88 295.26,-75.57 284.94,-77.97 288.68,-83.88"/>
</g>
<!-- Node14 -->
<g id="node14" class="node">
<title>Node14</title>
<g id="a_node14"><a xlink:href="_matrix_8h.html" target="_top" xlink:title="API for operations on Matrix data structures.">
<polygon fill="white" stroke="black" points="12.42,-168.5 12.42,-187.5 109.42,-187.5 109.42,-168.5 12.42,-168.5"/>
<text text-anchor="middle" x="60.92" y="-175.5" font-family="Helvetica,sans-Serif" font-size="10.00">ifxBase/Matrix.h</text>
</a>
</g>
</g>
<!-- Node13&#45;&gt;Node14 -->
<g id="edge21" class="edge">
<title>Node13&#45;&gt;Node14</title>
<path fill="none" stroke="midnightblue" d="M71.77,-224.08C70.05,-216.93 67.57,-206.64 65.42,-197.69"/>
<polygon fill="midnightblue" stroke="midnightblue" points="68.77,-196.65 63.02,-187.75 61.96,-198.29 68.77,-196.65"/>
</g>
<!-- Node14&#45;&gt;Node4 -->
<g id="edge22" class="edge">
<title>Node14&#45;&gt;Node4</title>
<path fill="none" stroke="midnightblue" d="M44.04,-168.37C21.82,-155.92 -12.5,-132.19 4.92,-112 36.19,-75.76 172.99,-68.21 252.01,-66.94"/>
<polygon fill="midnightblue" stroke="midnightblue" points="252.33,-70.44 262.29,-66.81 252.24,-63.44 252.33,-70.44"/>
</g>
<!-- Node15 -->
<g id="node15" class="node">
<title>Node15</title>
<g id="a_node15"><a xlink:href="_vector_8h.html" target="_top" xlink:title="API for operations on Vector data structures.">
<polygon fill="white" stroke="black" points="14.42,-112.5 14.42,-131.5 109.42,-131.5 109.42,-112.5 14.42,-112.5"/>
<text text-anchor="middle" x="61.92" y="-119.5" font-family="Helvetica,sans-Serif" font-size="10.00">ifxBase/Vector.h</text>
</a>
</g>
</g>
<!-- Node14&#45;&gt;Node15 -->
<g id="edge23" class="edge">
<title>Node14&#45;&gt;Node15</title>
<path fill="none" stroke="midnightblue" d="M61.08,-168.08C61.21,-161.01 61.4,-150.86 61.57,-141.99"/>
<polygon fill="midnightblue" stroke="midnightblue" points="65.07,-141.81 61.76,-131.75 58.07,-141.68 65.07,-141.81"/>
</g>
<!-- Node15&#45;&gt;Node4 -->
<g id="edge24" class="edge">
<title>Node15&#45;&gt;Node4</title>
<path fill="none" stroke="midnightblue" d="M101.06,-112.44C144.14,-103.02 213.48,-87.87 260.09,-77.68"/>
<polygon fill="midnightblue" stroke="midnightblue" points="260.94,-81.07 269.96,-75.52 259.45,-74.23 260.94,-81.07"/>
</g>
</g>
</svg>
