<?xml version="1.0" encoding="UTF-8" standalone="no"?>
<!DOCTYPE svg PUBLIC "-//W3C//DTD SVG 1.1//EN"
 "http://www.w3.org/Graphics/SVG/1.1/DTD/svg11.dtd">
<!-- Generated by graphviz version 2.43.0 (0)
 -->
<!-- Title: /home/build/sdk/c/ifxBase/Cube.h Pages: 1 -->
<svg width="194pt" height="319pt"
 viewBox="0.00 0.00 193.50 319.00" xmlns="http://www.w3.org/2000/svg" xmlns:xlink="http://www.w3.org/1999/xlink">
<g id="graph0" class="graph" transform="scale(1 1) rotate(0) translate(4 315)">
<title>/home/build/sdk/c/ifxBase/Cube.h</title>
<polygon fill="white" stroke="transparent" points="-4,4 -4,-315 189.5,-315 189.5,4 -4,4"/>
<!-- Node1 -->
<g id="node1" class="node">
<title>Node1</title>
<g id="a_node1"><a xlink:title="API for operations on Cube data structures.">
<polygon fill="#bfbfbf" stroke="black" points="18.5,-280.5 18.5,-310.5 161.5,-310.5 161.5,-280.5 18.5,-280.5"/>
<text text-anchor="start" x="26.5" y="-298.5" font-family="Helvetica,sans-Serif" font-size="10.00">/home/build/sdk/c/ifxBase</text>
<text text-anchor="middle" x="90" y="-287.5" font-family="Helvetica,sans-Serif" font-size="10.00">/Cube.h</text>
</a>
</g>
</g>
<!-- Node2 -->
<g id="node2" class="node">
<title>Node2</title>
<g id="a_node2"><a xlink:href="_defines_8h.html" target="_top" xlink:title="Internal definitions used by standard math.h functions as Macros, to use float or double precision.">
<polygon fill="white" stroke="black" points="0,-224.5 0,-243.5 102,-243.5 102,-224.5 0,-224.5"/>
<text text-anchor="middle" x="51" y="-231.5" font-family="Helvetica,sans-Serif" font-size="10.00">ifxBase/Defines.h</text>
</a>
</g>
</g>
<!-- Node1&#45;&gt;Node2 -->
<g id="edge1" class="edge">
<title>Node1&#45;&gt;Node2</title>
<path fill="none" stroke="midnightblue" d="M80.76,-280.4C75.21,-271.93 68.11,-261.1 62.23,-252.14"/>
<polygon fill="midnightblue" stroke="midnightblue" points="65.08,-250.1 56.67,-243.66 59.23,-253.94 65.08,-250.1"/>
</g>
<!-- Node8 -->
<g id="node8" class="node">
<title>Node8</title>
<g id="a_node8"><a xlink:href="_matrix_8h.html" target="_top" xlink:title="API for operations on Matrix data structures.">
<polygon fill="white" stroke="black" points="88.5,-168.5 88.5,-187.5 185.5,-187.5 185.5,-168.5 88.5,-168.5"/>
<text text-anchor="middle" x="137" y="-175.5" font-family="Helvetica,sans-Serif" font-size="10.00">ifxBase/Matrix.h</text>
</a>
</g>
</g>
<!-- Node1&#45;&gt;Node8 -->
<g id="edge8" class="edge">
<title>Node1&#45;&gt;Node8</title>
<path fill="none" stroke="midnightblue" d="M95.94,-280.37C100.17,-270.26 105.98,-256.31 111,-244 117.38,-228.35 124.5,-210.52 129.68,-197.5"/>
<polygon fill="midnightblue" stroke="midnightblue" points="133.07,-198.43 133.51,-187.85 126.57,-195.85 133.07,-198.43"/>
</g>
<!-- Node3 -->
<g id="node3" class="node">
<title>Node3</title>
<g id="a_node3"><a xlink:href="_math_8h.html" target="_top" xlink:title="API for Mathematical operations.">
<polygon fill="white" stroke="black" points="19.5,-168.5 19.5,-187.5 70.5,-187.5 70.5,-168.5 19.5,-168.5"/>
<text text-anchor="middle" x="45" y="-175.5" font-family="Helvetica,sans-Serif" font-size="10.00">math.h</text>
</a>
</g>
</g>
<!-- Node2&#45;&gt;Node3 -->
<g id="edge2" class="edge">
<title>Node2&#45;&gt;Node3</title>
<path fill="none" stroke="midnightblue" d="M50.01,-224.08C49.21,-216.93 48.07,-206.64 47.08,-197.69"/>
<polygon fill="midnightblue" stroke="midnightblue" points="50.56,-197.3 45.97,-187.75 43.6,-198.08 50.56,-197.3"/>
</g>
<!-- Node4 -->
<g id="node4" class="node">
<title>Node4</title>
<g id="a_node4"><a xlink:href="_types_8h.html" target="_top" xlink:title="Definitions of data types used within the SDK.">
<polygon fill="white" stroke="black" points="44.5,-56.5 44.5,-75.5 137.5,-75.5 137.5,-56.5 44.5,-56.5"/>
<text text-anchor="middle" x="91" y="-63.5" font-family="Helvetica,sans-Serif" font-size="10.00">ifxBase/Types.h</text>
</a>
</g>
</g>
<!-- Node3&#45;&gt;Node4 -->
<g id="edge3" class="edge">
<title>Node3&#45;&gt;Node4</title>
<path fill="none" stroke="midnightblue" d="M40.29,-168.12C34.1,-155.14 25.02,-130.54 34,-112 40.4,-98.8 52.75,-88.3 64.33,-80.78"/>
<polygon fill="midnightblue" stroke="midnightblue" points="66.16,-83.77 72.92,-75.61 62.55,-77.77 66.16,-83.77"/>
</g>
<!-- Node7 -->
<g id="node7" class="node">
<title>Node7</title>
<g id="a_node7"><a xlink:href="_vector_8h.html" target="_top" xlink:title="API for operations on Vector data structures.">
<polygon fill="white" stroke="black" points="43.5,-112.5 43.5,-131.5 138.5,-131.5 138.5,-112.5 43.5,-112.5"/>
<text text-anchor="middle" x="91" y="-119.5" font-family="Helvetica,sans-Serif" font-size="10.00">ifxBase/Vector.h</text>
</a>
</g>
</g>
<!-- Node3&#45;&gt;Node7 -->
<g id="edge6" class="edge">
<title>Node3&#45;&gt;Node7</title>
<path fill="none" stroke="midnightblue" d="M52.6,-168.08C59.23,-160.3 69.02,-148.8 77.06,-139.37"/>
<polygon fill="midnightblue" stroke="midnightblue" points="79.73,-141.63 83.55,-131.75 74.4,-137.09 79.73,-141.63"/>
</g>
<!-- Node5 -->
<g id="node5" class="node">
<title>Node5</title>
<g id="a_node5"><a xlink:title=" ">
<polygon fill="white" stroke="#bfbfbf" points="27,-0.5 27,-19.5 83,-19.5 83,-0.5 27,-0.5"/>
<text text-anchor="middle" x="55" y="-7.5" font-family="Helvetica,sans-Serif" font-size="10.00">stddef.h</text>
</a>
</g>
</g>
<!-- Node4&#45;&gt;Node5 -->
<g id="edge4" class="edge">
<title>Node4&#45;&gt;Node5</title>
<path fill="none" stroke="midnightblue" d="M85.06,-56.08C80.02,-48.53 72.66,-37.49 66.49,-28.23"/>
<polygon fill="midnightblue" stroke="midnightblue" points="69.29,-26.13 60.83,-19.75 63.47,-30.01 69.29,-26.13"/>
</g>
<!-- Node6 -->
<g id="node6" class="node">
<title>Node6</title>
<g id="a_node6"><a xlink:title=" ">
<polygon fill="white" stroke="#bfbfbf" points="101.5,-0.5 101.5,-19.5 154.5,-19.5 154.5,-0.5 101.5,-0.5"/>
<text text-anchor="middle" x="128" y="-7.5" font-family="Helvetica,sans-Serif" font-size="10.00">stdint.h</text>
</a>
</g>
</g>
<!-- Node4&#45;&gt;Node6 -->
<g id="edge5" class="edge">
<title>Node4&#45;&gt;Node6</title>
<path fill="none" stroke="midnightblue" d="M97.11,-56.08C102.28,-48.53 109.85,-37.49 116.19,-28.23"/>
<polygon fill="midnightblue" stroke="midnightblue" points="119.24,-29.98 122,-19.75 113.46,-26.02 119.24,-29.98"/>
</g>
<!-- Node7&#45;&gt;Node4 -->
<g id="edge7" class="edge">
<title>Node7&#45;&gt;Node4</title>
<path fill="none" stroke="midnightblue" d="M91,-112.08C91,-105.01 91,-94.86 91,-85.99"/>
<polygon fill="midnightblue" stroke="midnightblue" points="94.5,-85.75 91,-75.75 87.5,-85.75 94.5,-85.75"/>
</g>
<!-- Node8&#45;&gt;Node4 -->
<g id="edge9" class="edge">
<title>Node8&#45;&gt;Node4</title>
<path fill="none" stroke="midnightblue" d="M141.71,-168.12C147.9,-155.14 156.98,-130.54 148,-112 141.6,-98.8 129.25,-88.3 117.67,-80.78"/>
<polygon fill="midnightblue" stroke="midnightblue" points="119.45,-77.77 109.08,-75.61 115.84,-83.77 119.45,-77.77"/>
</g>
<!-- Node8&#45;&gt;Node7 -->
<g id="edge10" class="edge">
<title>Node8&#45;&gt;Node7</title>
<path fill="none" stroke="midnightblue" d="M129.4,-168.08C122.77,-160.3 112.98,-148.8 104.94,-139.37"/>
<polygon fill="midnightblue" stroke="midnightblue" points="107.6,-137.09 98.45,-131.75 102.27,-141.63 107.6,-137.09"/>
</g>
</g>
</svg>
