<?xml version="1.0" encoding="UTF-8" standalone="no"?>
<!DOCTYPE svg PUBLIC "-//W3C//DTD SVG 1.1//EN"
 "http://www.w3.org/Graphics/SVG/1.1/DTD/svg11.dtd">
<!-- Generated by graphviz version 2.43.0 (0)
 -->
<!-- Title: /home/build/sdk/c/ifxBase/Cube.h Pages: 1 -->
<svg width="756pt" height="307pt"
 viewBox="0.00 0.00 756.00 307.00" xmlns="http://www.w3.org/2000/svg" xmlns:xlink="http://www.w3.org/1999/xlink">
<g id="graph0" class="graph" transform="scale(1 1) rotate(0) translate(4 303)">
<title>/home/build/sdk/c/ifxBase/Cube.h</title>
<polygon fill="white" stroke="transparent" points="-4,4 -4,-303 752,-303 752,4 -4,4"/>
<!-- Node1 -->
<g id="node1" class="node">
<title>Node1</title>
<g id="a_node1"><a xlink:title="API for operations on Cube data structures.">
<polygon fill="#bfbfbf" stroke="black" points="234,-268.5 234,-298.5 377,-298.5 377,-268.5 234,-268.5"/>
<text text-anchor="start" x="242" y="-286.5" font-family="Helvetica,sans-Serif" font-size="10.00">/home/build/sdk/c/ifxBase</text>
<text text-anchor="middle" x="305.5" y="-275.5" font-family="Helvetica,sans-Serif" font-size="10.00">/Cube.h</text>
</a>
</g>
</g>
<!-- Node2 -->
<g id="node2" class="node">
<title>Node2</title>
<g id="a_node2"><a xlink:href="_base_8h.html" target="_top" xlink:title="Header for ifxBase.">
<polygon fill="white" stroke="black" points="0,-67.5 0,-97.5 143,-97.5 143,-67.5 0,-67.5"/>
<text text-anchor="start" x="8" y="-85.5" font-family="Helvetica,sans-Serif" font-size="10.00">/home/build/sdk/c/ifxBase</text>
<text text-anchor="middle" x="71.5" y="-74.5" font-family="Helvetica,sans-Serif" font-size="10.00">/Base.h</text>
</a>
</g>
</g>
<!-- Node1&#45;&gt;Node2 -->
<g id="edge1" class="edge">
<title>Node1&#45;&gt;Node2</title>
<path fill="none" stroke="midnightblue" d="M223.81,-268.25C167.43,-253.39 97.74,-223.64 69.5,-165 59.06,-143.32 63.37,-114.49 67.44,-97.57"/>
<polygon fill="midnightblue" stroke="midnightblue" points="223.26,-271.72 233.81,-270.77 224.96,-264.94 223.26,-271.72"/>
</g>
<!-- Node4 -->
<g id="node4" class="node">
<title>Node4</title>
<g id="a_node4"><a xlink:href="_angle_capon_8h.html" target="_top" xlink:title="API for Angle Capon algorithm.">
<polygon fill="white" stroke="black" points="79,-134.5 79,-164.5 226,-164.5 226,-134.5 79,-134.5"/>
<text text-anchor="start" x="87" y="-152.5" font-family="Helvetica,sans-Serif" font-size="10.00">/home/build/sdk/c/ifxRadar</text>
<text text-anchor="middle" x="152.5" y="-141.5" font-family="Helvetica,sans-Serif" font-size="10.00">/AngleCapon.h</text>
</a>
</g>
</g>
<!-- Node1&#45;&gt;Node4 -->
<g id="edge3" class="edge">
<title>Node1&#45;&gt;Node4</title>
<path fill="none" stroke="midnightblue" d="M224.11,-266.07C204.52,-258.6 185.3,-247.75 171.5,-232 154.93,-213.1 152.08,-182.52 151.97,-164.69"/>
<polygon fill="midnightblue" stroke="midnightblue" points="223.13,-269.44 233.73,-269.47 225.47,-262.84 223.13,-269.44"/>
</g>
<!-- Node6 -->
<g id="node6" class="node">
<title>Node6</title>
<g id="a_node6"><a xlink:href="_d_b_f_8h.html" target="_top" xlink:title="API for Digital Beamforming (DBF) algorithm.">
<polygon fill="white" stroke="black" points="181,-201.5 181,-231.5 328,-231.5 328,-201.5 181,-201.5"/>
<text text-anchor="start" x="189" y="-219.5" font-family="Helvetica,sans-Serif" font-size="10.00">/home/build/sdk/c/ifxRadar</text>
<text text-anchor="middle" x="254.5" y="-208.5" font-family="Helvetica,sans-Serif" font-size="10.00">/DBF.h</text>
</a>
</g>
</g>
<!-- Node1&#45;&gt;Node6 -->
<g id="edge6" class="edge">
<title>Node1&#45;&gt;Node6</title>
<path fill="none" stroke="midnightblue" d="M288.2,-260.45C280.71,-250.9 272.16,-240 265.54,-231.58"/>
<polygon fill="midnightblue" stroke="midnightblue" points="285.51,-262.69 294.43,-268.4 291.01,-258.37 285.51,-262.69"/>
</g>
<!-- Node7 -->
<g id="node7" class="node">
<title>Node7</title>
<g id="a_node7"><a xlink:href="_range_angle_image_8h.html" target="_top" xlink:title="API for Range Angle Image algorithm.">
<polygon fill="white" stroke="black" points="283,-134.5 283,-164.5 430,-164.5 430,-134.5 283,-134.5"/>
<text text-anchor="start" x="291" y="-152.5" font-family="Helvetica,sans-Serif" font-size="10.00">/home/build/sdk/c/ifxRadar</text>
<text text-anchor="middle" x="356.5" y="-141.5" font-family="Helvetica,sans-Serif" font-size="10.00">/RangeAngleImage.h</text>
</a>
</g>
</g>
<!-- Node1&#45;&gt;Node7 -->
<g id="edge10" class="edge">
<title>Node1&#45;&gt;Node7</title>
<path fill="none" stroke="midnightblue" d="M321.61,-259.64C326.95,-251.25 332.54,-241.48 336.5,-232 345.93,-209.41 351.6,-181.37 354.38,-164.76"/>
<polygon fill="midnightblue" stroke="midnightblue" points="318.59,-257.85 315.99,-268.12 324.43,-261.72 318.59,-257.85"/>
</g>
<!-- Node8 -->
<g id="node8" class="node">
<title>Node8</title>
<g id="a_node8"><a xlink:href="_param_estimation_8h.html" target="_top" xlink:title="API for Parameter estimation algorithm.">
<polygon fill="white" stroke="black" points="384.5,-201.5 384.5,-231.5 564.5,-231.5 564.5,-201.5 384.5,-201.5"/>
<text text-anchor="start" x="392.5" y="-219.5" font-family="Helvetica,sans-Serif" font-size="10.00">/home/build/sdk/c/ifxRadar</text>
<text text-anchor="middle" x="474.5" y="-208.5" font-family="Helvetica,sans-Serif" font-size="10.00">Segmentation/ParamEstimation.h</text>
</a>
</g>
</g>
<!-- Node1&#45;&gt;Node8 -->
<g id="edge11" class="edge">
<title>Node1&#45;&gt;Node8</title>
<path fill="none" stroke="midnightblue" d="M351.83,-264.68C378.93,-254.26 412.67,-241.28 437.9,-231.58"/>
<polygon fill="midnightblue" stroke="midnightblue" points="350.25,-261.54 342.17,-268.4 352.76,-268.07 350.25,-261.54"/>
</g>
<!-- Node10 -->
<g id="node10" class="node">
<title>Node10</title>
<g id="a_node10"><a xlink:href="_segmentation_8h.html" target="_top" xlink:title="API for Segmentation algorithm.">
<polygon fill="white" stroke="black" points="583,-201.5 583,-231.5 748,-231.5 748,-201.5 583,-201.5"/>
<text text-anchor="start" x="591" y="-219.5" font-family="Helvetica,sans-Serif" font-size="10.00">/home/build/sdk/c/ifxRadar</text>
<text text-anchor="middle" x="665.5" y="-208.5" font-family="Helvetica,sans-Serif" font-size="10.00">Segmentation/Segmentation.h</text>
</a>
</g>
</g>
<!-- Node1&#45;&gt;Node10 -->
<g id="edge14" class="edge">
<title>Node1&#45;&gt;Node10</title>
<path fill="none" stroke="midnightblue" d="M386.9,-267.8C447.09,-256.93 528.56,-242.23 587.85,-231.52"/>
<polygon fill="midnightblue" stroke="midnightblue" points="386.27,-264.36 377.05,-269.58 387.52,-271.25 386.27,-264.36"/>
</g>
<!-- Node3 -->
<g id="node3" class="node">
<title>Node3</title>
<g id="a_node3"><a xlink:href="_s_d_k_8h.html" target="_top" xlink:title="Master header file for Radar SDK.">
<polygon fill="white" stroke="black" points="181,-0.5 181,-30.5 328,-30.5 328,-0.5 181,-0.5"/>
<text text-anchor="start" x="189" y="-18.5" font-family="Helvetica,sans-Serif" font-size="10.00">/home/build/sdk/c/ifxRadar</text>
<text text-anchor="middle" x="254.5" y="-7.5" font-family="Helvetica,sans-Serif" font-size="10.00">/SDK.h</text>
</a>
</g>
</g>
<!-- Node2&#45;&gt;Node3 -->
<g id="edge2" class="edge">
<title>Node2&#45;&gt;Node3</title>
<path fill="none" stroke="midnightblue" d="M120.9,-63.96C150.37,-53.48 187.31,-40.37 214.87,-30.58"/>
<polygon fill="midnightblue" stroke="midnightblue" points="119.46,-60.75 111.21,-67.4 121.8,-67.35 119.46,-60.75"/>
</g>
<!-- Node5 -->
<g id="node5" class="node">
<title>Node5</title>
<g id="a_node5"><a xlink:href="_radar_8h.html" target="_top" xlink:title="Header for ifxRadar.">
<polygon fill="white" stroke="black" points="181,-67.5 181,-97.5 328,-97.5 328,-67.5 181,-67.5"/>
<text text-anchor="start" x="189" y="-85.5" font-family="Helvetica,sans-Serif" font-size="10.00">/home/build/sdk/c/ifxRadar</text>
<text text-anchor="middle" x="254.5" y="-74.5" font-family="Helvetica,sans-Serif" font-size="10.00">/Radar.h</text>
</a>
</g>
</g>
<!-- Node4&#45;&gt;Node5 -->
<g id="edge4" class="edge">
<title>Node4&#45;&gt;Node5</title>
<path fill="none" stroke="midnightblue" d="M183.08,-129.02C198.95,-118.9 217.98,-106.77 232.41,-97.58"/>
<polygon fill="midnightblue" stroke="midnightblue" points="181.18,-126.07 174.63,-134.4 184.95,-131.97 181.18,-126.07"/>
</g>
<!-- Node5&#45;&gt;Node3 -->
<g id="edge5" class="edge">
<title>Node5&#45;&gt;Node3</title>
<path fill="none" stroke="midnightblue" d="M254.5,-57.11C254.5,-48.15 254.5,-38.32 254.5,-30.58"/>
<polygon fill="midnightblue" stroke="midnightblue" points="251,-57.4 254.5,-67.4 258,-57.4 251,-57.4"/>
</g>
<!-- Node6&#45;&gt;Node5 -->
<g id="edge7" class="edge">
<title>Node6&#45;&gt;Node5</title>
<path fill="none" stroke="midnightblue" d="M254.5,-191.02C254.5,-163.51 254.5,-119.79 254.5,-97.52"/>
<polygon fill="midnightblue" stroke="midnightblue" points="251,-191.37 254.5,-201.37 258,-191.37 251,-191.37"/>
</g>
<!-- Node6&#45;&gt;Node7 -->
<g id="edge8" class="edge">
<title>Node6&#45;&gt;Node7</title>
<path fill="none" stroke="midnightblue" d="M285.08,-196.02C300.95,-185.9 319.98,-173.77 334.41,-164.58"/>
<polygon fill="midnightblue" stroke="midnightblue" points="283.18,-193.07 276.63,-201.4 286.95,-198.97 283.18,-193.07"/>
</g>
<!-- Node7&#45;&gt;Node5 -->
<g id="edge9" class="edge">
<title>Node7&#45;&gt;Node5</title>
<path fill="none" stroke="midnightblue" d="M325.92,-129.02C310.05,-118.9 291.02,-106.77 276.59,-97.58"/>
<polygon fill="midnightblue" stroke="midnightblue" points="324.05,-131.97 334.37,-134.4 327.82,-126.07 324.05,-131.97"/>
</g>
<!-- Node9 -->
<g id="node9" class="node">
<title>Node9</title>
<g id="a_node9"><a xlink:href="_radar_segmentation_8h.html" target="_top" xlink:title="Header for ifxRadarSegmentation.">
<polygon fill="white" stroke="black" points="448.5,-134.5 448.5,-164.5 642.5,-164.5 642.5,-134.5 448.5,-134.5"/>
<text text-anchor="start" x="456.5" y="-152.5" font-family="Helvetica,sans-Serif" font-size="10.00">/home/build/sdk/c/ifxRadar</text>
<text text-anchor="middle" x="545.5" y="-141.5" font-family="Helvetica,sans-Serif" font-size="10.00">Segmentation/RadarSegmentation.h</text>
</a>
</g>
</g>
<!-- Node8&#45;&gt;Node9 -->
<g id="edge12" class="edge">
<title>Node8&#45;&gt;Node9</title>
<path fill="none" stroke="midnightblue" d="M497.33,-194.6C508.05,-184.78 520.55,-173.34 530.12,-164.58"/>
<polygon fill="midnightblue" stroke="midnightblue" points="494.92,-192.06 489.91,-201.4 499.65,-197.22 494.92,-192.06"/>
</g>
<!-- Node9&#45;&gt;Node3 -->
<g id="edge13" class="edge">
<title>Node9&#45;&gt;Node3</title>
<path fill="none" stroke="midnightblue" d="M505.3,-130.26C446.56,-103.62 338.5,-54.6 285.49,-30.56"/>
<polygon fill="midnightblue" stroke="midnightblue" points="504.08,-133.56 514.63,-134.5 506.97,-127.18 504.08,-133.56"/>
</g>
<!-- Node10&#45;&gt;Node9 -->
<g id="edge15" class="edge">
<title>Node10&#45;&gt;Node9</title>
<path fill="none" stroke="midnightblue" d="M630.56,-196.57C611.68,-186.35 588.77,-173.94 571.49,-164.58"/>
<polygon fill="midnightblue" stroke="midnightblue" points="629,-199.71 639.46,-201.4 632.34,-193.56 629,-199.71"/>
</g>
</g>
</svg>
