<?xml version="1.0" encoding="UTF-8" standalone="no"?>
<!DOCTYPE svg PUBLIC "-//W3C//DTD SVG 1.1//EN"
 "http://www.w3.org/Graphics/SVG/1.1/DTD/svg11.dtd">
<!-- Generated by graphviz version 2.43.0 (0)
 -->
<!-- Title: /home/build/sdk/c/ifxRadar/DBF.h Pages: 1 -->
<svg width="258pt" height="375pt"
 viewBox="0.00 0.00 258.00 375.00" xmlns="http://www.w3.org/2000/svg" xmlns:xlink="http://www.w3.org/1999/xlink">
<g id="graph0" class="graph" transform="scale(1 1) rotate(0) translate(4 371)">
<title>/home/build/sdk/c/ifxRadar/DBF.h</title>
<polygon fill="white" stroke="transparent" points="-4,4 -4,-371 254,-371 254,4 -4,4"/>
<!-- Node1 -->
<g id="node1" class="node">
<title>Node1</title>
<g id="a_node1"><a xlink:title="API for Digital Beamforming (DBF) algorithm.">
<polygon fill="#bfbfbf" stroke="black" points="0,-336.5 0,-366.5 147,-366.5 147,-336.5 0,-336.5"/>
<text text-anchor="start" x="8" y="-354.5" font-family="Helvetica,sans-Serif" font-size="10.00">/home/build/sdk/c/ifxRadar</text>
<text text-anchor="middle" x="73.5" y="-343.5" font-family="Helvetica,sans-Serif" font-size="10.00">/DBF.h</text>
</a>
</g>
</g>
<!-- Node2 -->
<g id="node2" class="node">
<title>Node2</title>
<g id="a_node2"><a xlink:href="_types_8h.html" target="_top" xlink:title="Definitions of data types used within the SDK.">
<polygon fill="white" stroke="black" points="64,-56.5 64,-75.5 157,-75.5 157,-56.5 64,-56.5"/>
<text text-anchor="middle" x="110.5" y="-63.5" font-family="Helvetica,sans-Serif" font-size="10.00">ifxBase/Types.h</text>
</a>
</g>
</g>
<!-- Node1&#45;&gt;Node2 -->
<g id="edge1" class="edge">
<title>Node1&#45;&gt;Node2</title>
<path fill="none" stroke="midnightblue" d="M65.42,-336.43C54,-315.18 34.5,-273.31 34.5,-235 34.5,-235 34.5,-235 34.5,-177 34.5,-137.28 68.46,-101.5 90.98,-82.15"/>
<polygon fill="midnightblue" stroke="midnightblue" points="93.48,-84.63 98.96,-75.57 89.02,-79.24 93.48,-84.63"/>
</g>
<!-- Node5 -->
<g id="node5" class="node">
<title>Node5</title>
<g id="a_node5"><a xlink:href="_cube_8h.html" target="_top" xlink:title="API for operations on Cube data structures.">
<polygon fill="white" stroke="black" points="68.5,-280.5 68.5,-299.5 158.5,-299.5 158.5,-280.5 68.5,-280.5"/>
<text text-anchor="middle" x="113.5" y="-287.5" font-family="Helvetica,sans-Serif" font-size="10.00">ifxBase/Cube.h</text>
</a>
</g>
</g>
<!-- Node1&#45;&gt;Node5 -->
<g id="edge4" class="edge">
<title>Node1&#45;&gt;Node5</title>
<path fill="none" stroke="midnightblue" d="M82.98,-336.4C88.67,-327.93 95.95,-317.1 101.98,-308.14"/>
<polygon fill="midnightblue" stroke="midnightblue" points="105.01,-309.91 107.68,-299.66 99.2,-306 105.01,-309.91"/>
</g>
<!-- Node3 -->
<g id="node3" class="node">
<title>Node3</title>
<g id="a_node3"><a xlink:title=" ">
<polygon fill="white" stroke="#bfbfbf" points="46.5,-0.5 46.5,-19.5 102.5,-19.5 102.5,-0.5 46.5,-0.5"/>
<text text-anchor="middle" x="74.5" y="-7.5" font-family="Helvetica,sans-Serif" font-size="10.00">stddef.h</text>
</a>
</g>
</g>
<!-- Node2&#45;&gt;Node3 -->
<g id="edge2" class="edge">
<title>Node2&#45;&gt;Node3</title>
<path fill="none" stroke="midnightblue" d="M104.56,-56.08C99.52,-48.53 92.16,-37.49 85.99,-28.23"/>
<polygon fill="midnightblue" stroke="midnightblue" points="88.79,-26.13 80.33,-19.75 82.97,-30.01 88.79,-26.13"/>
</g>
<!-- Node4 -->
<g id="node4" class="node">
<title>Node4</title>
<g id="a_node4"><a xlink:title=" ">
<polygon fill="white" stroke="#bfbfbf" points="121,-0.5 121,-19.5 174,-19.5 174,-0.5 121,-0.5"/>
<text text-anchor="middle" x="147.5" y="-7.5" font-family="Helvetica,sans-Serif" font-size="10.00">stdint.h</text>
</a>
</g>
</g>
<!-- Node2&#45;&gt;Node4 -->
<g id="edge3" class="edge">
<title>Node2&#45;&gt;Node4</title>
<path fill="none" stroke="midnightblue" d="M116.61,-56.08C121.78,-48.53 129.35,-37.49 135.69,-28.23"/>
<polygon fill="midnightblue" stroke="midnightblue" points="138.74,-29.98 141.5,-19.75 132.96,-26.02 138.74,-29.98"/>
</g>
<!-- Node6 -->
<g id="node6" class="node">
<title>Node6</title>
<g id="a_node6"><a xlink:href="_defines_8h.html" target="_top" xlink:title="Internal definitions used by standard math.h functions as Macros, to use float or double precision.">
<polygon fill="white" stroke="black" points="62.5,-224.5 62.5,-243.5 164.5,-243.5 164.5,-224.5 62.5,-224.5"/>
<text text-anchor="middle" x="113.5" y="-231.5" font-family="Helvetica,sans-Serif" font-size="10.00">ifxBase/Defines.h</text>
</a>
</g>
</g>
<!-- Node5&#45;&gt;Node6 -->
<g id="edge5" class="edge">
<title>Node5&#45;&gt;Node6</title>
<path fill="none" stroke="midnightblue" d="M113.5,-280.08C113.5,-273.01 113.5,-262.86 113.5,-253.99"/>
<polygon fill="midnightblue" stroke="midnightblue" points="117,-253.75 113.5,-243.75 110,-253.75 117,-253.75"/>
</g>
<!-- Node9 -->
<g id="node9" class="node">
<title>Node9</title>
<g id="a_node9"><a xlink:href="_matrix_8h.html" target="_top" xlink:title="API for operations on Matrix data structures.">
<polygon fill="white" stroke="black" points="153,-168.5 153,-187.5 250,-187.5 250,-168.5 153,-168.5"/>
<text text-anchor="middle" x="201.5" y="-175.5" font-family="Helvetica,sans-Serif" font-size="10.00">ifxBase/Matrix.h</text>
</a>
</g>
</g>
<!-- Node5&#45;&gt;Node9 -->
<g id="edge10" class="edge">
<title>Node5&#45;&gt;Node9</title>
<path fill="none" stroke="midnightblue" d="M129.1,-280.45C142.4,-272.5 161.26,-259.55 173.5,-244 184.42,-230.14 191.9,-211.37 196.36,-197.57"/>
<polygon fill="midnightblue" stroke="midnightblue" points="199.78,-198.33 199.3,-187.75 193.08,-196.32 199.78,-198.33"/>
</g>
<!-- Node7 -->
<g id="node7" class="node">
<title>Node7</title>
<g id="a_node7"><a xlink:href="_math_8h.html" target="_top" xlink:title="API for Mathematical operations.">
<polygon fill="white" stroke="black" points="84,-168.5 84,-187.5 135,-187.5 135,-168.5 84,-168.5"/>
<text text-anchor="middle" x="109.5" y="-175.5" font-family="Helvetica,sans-Serif" font-size="10.00">math.h</text>
</a>
</g>
</g>
<!-- Node6&#45;&gt;Node7 -->
<g id="edge6" class="edge">
<title>Node6&#45;&gt;Node7</title>
<path fill="none" stroke="midnightblue" d="M112.84,-224.08C112.32,-217.01 111.56,-206.86 110.91,-197.99"/>
<polygon fill="midnightblue" stroke="midnightblue" points="114.38,-197.47 110.15,-187.75 107.4,-197.98 114.38,-197.47"/>
</g>
<!-- Node7&#45;&gt;Node2 -->
<g id="edge7" class="edge">
<title>Node7&#45;&gt;Node2</title>
<path fill="none" stroke="midnightblue" d="M104.35,-168.26C97.68,-155.87 87.36,-132.43 91.5,-112 93.39,-102.65 97.29,-92.83 101.07,-84.75"/>
<polygon fill="midnightblue" stroke="midnightblue" points="104.29,-86.14 105.62,-75.63 98.03,-83.01 104.29,-86.14"/>
</g>
<!-- Node8 -->
<g id="node8" class="node">
<title>Node8</title>
<g id="a_node8"><a xlink:href="_vector_8h.html" target="_top" xlink:title="API for operations on Vector data structures.">
<polygon fill="white" stroke="black" points="101,-112.5 101,-131.5 196,-131.5 196,-112.5 101,-112.5"/>
<text text-anchor="middle" x="148.5" y="-119.5" font-family="Helvetica,sans-Serif" font-size="10.00">ifxBase/Vector.h</text>
</a>
</g>
</g>
<!-- Node7&#45;&gt;Node8 -->
<g id="edge8" class="edge">
<title>Node7&#45;&gt;Node8</title>
<path fill="none" stroke="midnightblue" d="M115.94,-168.08C121.45,-160.46 129.53,-149.26 136.26,-139.94"/>
<polygon fill="midnightblue" stroke="midnightblue" points="139.16,-141.91 142.18,-131.75 133.49,-137.81 139.16,-141.91"/>
</g>
<!-- Node8&#45;&gt;Node2 -->
<g id="edge9" class="edge">
<title>Node8&#45;&gt;Node2</title>
<path fill="none" stroke="midnightblue" d="M142.23,-112.08C136.86,-104.46 128.98,-93.26 122.42,-83.94"/>
<polygon fill="midnightblue" stroke="midnightblue" points="125.28,-81.91 116.66,-75.75 119.55,-85.94 125.28,-81.91"/>
</g>
<!-- Node9&#45;&gt;Node2 -->
<g id="edge11" class="edge">
<title>Node9&#45;&gt;Node2</title>
<path fill="none" stroke="midnightblue" d="M205.07,-168.2C209.84,-154.91 216.5,-129.39 205.5,-112 195.45,-96.13 178.13,-85.74 161,-79"/>
<polygon fill="midnightblue" stroke="midnightblue" points="162.15,-75.69 151.55,-75.62 159.79,-82.28 162.15,-75.69"/>
</g>
<!-- Node9&#45;&gt;Node8 -->
<g id="edge12" class="edge">
<title>Node9&#45;&gt;Node8</title>
<path fill="none" stroke="midnightblue" d="M192.75,-168.08C185.03,-160.22 173.6,-148.57 164.28,-139.08"/>
<polygon fill="midnightblue" stroke="midnightblue" points="166.59,-136.44 157.09,-131.75 161.6,-141.34 166.59,-136.44"/>
</g>
</g>
</svg>
