<?xml version="1.0" encoding="UTF-8" standalone="no"?>
<!DOCTYPE svg PUBLIC "-//W3C//DTD SVG 1.1//EN"
 "http://www.w3.org/Graphics/SVG/1.1/DTD/svg11.dtd">
<!-- Generated by graphviz version 2.43.0 (0)
 -->
<!-- Title: /home/build/sdk/c/ifxAlgo/DBSCAN.h Pages: 1 -->
<svg width="148pt" height="151pt"
 viewBox="0.00 0.00 148.00 151.00" xmlns="http://www.w3.org/2000/svg" xmlns:xlink="http://www.w3.org/1999/xlink">
<g id="graph0" class="graph" transform="scale(1 1) rotate(0) translate(4 147)">
<title>/home/build/sdk/c/ifxAlgo/DBSCAN.h</title>
<polygon fill="white" stroke="transparent" points="-4,4 -4,-147 144,-147 144,4 -4,4"/>
<!-- Node1 -->
<g id="node1" class="node">
<title>Node1</title>
<g id="a_node1"><a xlink:title="API for Density&#45;based spatial clustering of applications with noise (DBSCAN) algorithm.">
<polygon fill="#bfbfbf" stroke="black" points="0,-112.5 0,-142.5 140,-142.5 140,-112.5 0,-112.5"/>
<text text-anchor="start" x="8" y="-130.5" font-family="Helvetica,sans-Serif" font-size="10.00">/home/build/sdk/c/ifxAlgo</text>
<text text-anchor="middle" x="70" y="-119.5" font-family="Helvetica,sans-Serif" font-size="10.00">/DBSCAN.h</text>
</a>
</g>
</g>
<!-- Node2 -->
<g id="node2" class="node">
<title>Node2</title>
<g id="a_node2"><a xlink:href="_types_8h.html" target="_top" xlink:title="Definitions of data types used within the SDK.">
<polygon fill="white" stroke="black" points="23.5,-56.5 23.5,-75.5 116.5,-75.5 116.5,-56.5 23.5,-56.5"/>
<text text-anchor="middle" x="70" y="-63.5" font-family="Helvetica,sans-Serif" font-size="10.00">ifxBase/Types.h</text>
</a>
</g>
</g>
<!-- Node1&#45;&gt;Node2 -->
<g id="edge1" class="edge">
<title>Node1&#45;&gt;Node2</title>
<path fill="none" stroke="midnightblue" d="M70,-112.4C70,-104.47 70,-94.46 70,-85.86"/>
<polygon fill="midnightblue" stroke="midnightblue" points="73.5,-85.66 70,-75.66 66.5,-85.66 73.5,-85.66"/>
</g>
<!-- Node3 -->
<g id="node3" class="node">
<title>Node3</title>
<g id="a_node3"><a xlink:title=" ">
<polygon fill="white" stroke="#bfbfbf" points="6,-0.5 6,-19.5 62,-19.5 62,-0.5 6,-0.5"/>
<text text-anchor="middle" x="34" y="-7.5" font-family="Helvetica,sans-Serif" font-size="10.00">stddef.h</text>
</a>
</g>
</g>
<!-- Node2&#45;&gt;Node3 -->
<g id="edge2" class="edge">
<title>Node2&#45;&gt;Node3</title>
<path fill="none" stroke="midnightblue" d="M64.06,-56.08C59.02,-48.53 51.66,-37.49 45.49,-28.23"/>
<polygon fill="midnightblue" stroke="midnightblue" points="48.29,-26.13 39.83,-19.75 42.47,-30.01 48.29,-26.13"/>
</g>
<!-- Node4 -->
<g id="node4" class="node">
<title>Node4</title>
<g id="a_node4"><a xlink:title=" ">
<polygon fill="white" stroke="#bfbfbf" points="80.5,-0.5 80.5,-19.5 133.5,-19.5 133.5,-0.5 80.5,-0.5"/>
<text text-anchor="middle" x="107" y="-7.5" font-family="Helvetica,sans-Serif" font-size="10.00">stdint.h</text>
</a>
</g>
</g>
<!-- Node2&#45;&gt;Node4 -->
<g id="edge3" class="edge">
<title>Node2&#45;&gt;Node4</title>
<path fill="none" stroke="midnightblue" d="M76.11,-56.08C81.28,-48.53 88.85,-37.49 95.19,-28.23"/>
<polygon fill="midnightblue" stroke="midnightblue" points="98.24,-29.98 101,-19.75 92.46,-26.02 98.24,-29.98"/>
</g>
</g>
</svg>
