<?xml version="1.0" encoding="UTF-8" standalone="no"?>
<!DOCTYPE svg PUBLIC "-//W3C//DTD SVG 1.1//EN"
 "http://www.w3.org/Graphics/SVG/1.1/DTD/svg11.dtd">
<!-- Generated by graphviz version 2.43.0 (0)
 -->
<!-- Title: /home/build/sdk/c/ifxBase/Defines.h Pages: 1 -->
<svg width="834pt" height="374pt"
 viewBox="0.00 0.00 833.50 374.00" xmlns="http://www.w3.org/2000/svg" xmlns:xlink="http://www.w3.org/1999/xlink">
<g id="graph0" class="graph" transform="scale(1 1) rotate(0) translate(4 370)">
<title>/home/build/sdk/c/ifxBase/Defines.h</title>
<polygon fill="white" stroke="transparent" points="-4,4 -4,-370 829.5,-370 829.5,4 -4,4"/>
<!-- Node1 -->
<g id="node1" class="node">
<title>Node1</title>
<g id="a_node1"><a xlink:title="Internal definitions used by standard math.h functions as Macros, to use float or double precision.">
<polygon fill="#bfbfbf" stroke="black" points="100,-335.5 100,-365.5 243,-365.5 243,-335.5 100,-335.5"/>
<text text-anchor="start" x="108" y="-353.5" font-family="Helvetica,sans-Serif" font-size="10.00">/home/build/sdk/c/ifxBase</text>
<text text-anchor="middle" x="171.5" y="-342.5" font-family="Helvetica,sans-Serif" font-size="10.00">/Defines.h</text>
</a>
</g>
</g>
<!-- Node2 -->
<g id="node2" class="node">
<title>Node2</title>
<g id="a_node2"><a xlink:href="_base_8h.html" target="_top" xlink:title="Header for ifxBase.">
<polygon fill="white" stroke="black" points="0,-201.5 0,-231.5 143,-231.5 143,-201.5 0,-201.5"/>
<text text-anchor="start" x="8" y="-219.5" font-family="Helvetica,sans-Serif" font-size="10.00">/home/build/sdk/c/ifxBase</text>
<text text-anchor="middle" x="71.5" y="-208.5" font-family="Helvetica,sans-Serif" font-size="10.00">/Base.h</text>
</a>
</g>
</g>
<!-- Node1&#45;&gt;Node2 -->
<g id="edge1" class="edge">
<title>Node1&#45;&gt;Node2</title>
<path fill="none" stroke="midnightblue" d="M128.63,-330.57C114.96,-322.62 100.95,-312.12 91.5,-299 76.94,-278.78 72.91,-249.21 71.83,-231.8"/>
<polygon fill="midnightblue" stroke="midnightblue" points="127.06,-333.7 137.51,-335.43 130.42,-327.56 127.06,-333.7"/>
</g>
<!-- Node4 -->
<g id="node4" class="node">
<title>Node4</title>
<g id="a_node4"><a xlink:href="_complex_8h.html" target="_top" xlink:title="API for operations on complex numbers.">
<polygon fill="white" stroke="black" points="100,-268.5 100,-298.5 243,-298.5 243,-268.5 100,-268.5"/>
<text text-anchor="start" x="108" y="-286.5" font-family="Helvetica,sans-Serif" font-size="10.00">/home/build/sdk/c/ifxBase</text>
<text text-anchor="middle" x="171.5" y="-275.5" font-family="Helvetica,sans-Serif" font-size="10.00">/Complex.h</text>
</a>
</g>
</g>
<!-- Node1&#45;&gt;Node4 -->
<g id="edge3" class="edge">
<title>Node1&#45;&gt;Node4</title>
<path fill="none" stroke="midnightblue" d="M171.5,-325.11C171.5,-316.15 171.5,-306.32 171.5,-298.58"/>
<polygon fill="midnightblue" stroke="midnightblue" points="168,-325.4 171.5,-335.4 175,-325.4 168,-325.4"/>
</g>
<!-- Node7 -->
<g id="node7" class="node">
<title>Node7</title>
<g id="a_node7"><a xlink:href="_cube_8h.html" target="_top" xlink:title="API for operations on Cube data structures.">
<polygon fill="white" stroke="black" points="304,-268.5 304,-298.5 447,-298.5 447,-268.5 304,-268.5"/>
<text text-anchor="start" x="312" y="-286.5" font-family="Helvetica,sans-Serif" font-size="10.00">/home/build/sdk/c/ifxBase</text>
<text text-anchor="middle" x="375.5" y="-275.5" font-family="Helvetica,sans-Serif" font-size="10.00">/Cube.h</text>
</a>
</g>
</g>
<!-- Node1&#45;&gt;Node7 -->
<g id="edge8" class="edge">
<title>Node1&#45;&gt;Node7</title>
<path fill="none" stroke="midnightblue" d="M225.46,-332.31C258.46,-321.79 300.16,-308.51 331.21,-298.61"/>
<polygon fill="midnightblue" stroke="midnightblue" points="223.98,-329.11 215.51,-335.48 226.1,-335.77 223.98,-329.11"/>
</g>
<!-- Node3 -->
<g id="node3" class="node">
<title>Node3</title>
<g id="a_node3"><a xlink:href="_s_d_k_8h.html" target="_top" xlink:title="Master header file for Radar SDK.">
<polygon fill="white" stroke="black" points="250,-0.5 250,-30.5 397,-30.5 397,-0.5 250,-0.5"/>
<text text-anchor="start" x="258" y="-18.5" font-family="Helvetica,sans-Serif" font-size="10.00">/home/build/sdk/c/ifxRadar</text>
<text text-anchor="middle" x="323.5" y="-7.5" font-family="Helvetica,sans-Serif" font-size="10.00">/SDK.h</text>
</a>
</g>
</g>
<!-- Node2&#45;&gt;Node3 -->
<g id="edge2" class="edge">
<title>Node2&#45;&gt;Node3</title>
<path fill="none" stroke="midnightblue" d="M71.15,-191.24C72.09,-173.7 75.94,-150.31 88.5,-134 131.86,-77.72 209.44,-46.43 263.56,-30.55"/>
<polygon fill="midnightblue" stroke="midnightblue" points="67.65,-191.21 70.89,-201.3 74.65,-191.39 67.65,-191.21"/>
</g>
<!-- Node4&#45;&gt;Node2 -->
<g id="edge4" class="edge">
<title>Node4&#45;&gt;Node2</title>
<path fill="none" stroke="midnightblue" d="M141.09,-262.73C125.62,-252.68 107.17,-240.68 93.16,-231.58"/>
<polygon fill="midnightblue" stroke="midnightblue" points="139.51,-265.88 149.8,-268.4 143.32,-260.01 139.51,-265.88"/>
</g>
<!-- Node5 -->
<g id="node5" class="node">
<title>Node5</title>
<g id="a_node5"><a xlink:href="_angle_monopulse_8h.html" target="_top" xlink:title="API for Phase Monopulse algorithm.">
<polygon fill="white" stroke="black" points="97,-134.5 97,-164.5 244,-164.5 244,-134.5 97,-134.5"/>
<text text-anchor="start" x="105" y="-152.5" font-family="Helvetica,sans-Serif" font-size="10.00">/home/build/sdk/c/ifxRadar</text>
<text text-anchor="middle" x="170.5" y="-141.5" font-family="Helvetica,sans-Serif" font-size="10.00">/AngleMonopulse.h</text>
</a>
</g>
</g>
<!-- Node4&#45;&gt;Node5 -->
<g id="edge5" class="edge">
<title>Node4&#45;&gt;Node5</title>
<path fill="none" stroke="midnightblue" d="M171.31,-258.02C171.11,-230.51 170.77,-186.79 170.61,-164.52"/>
<polygon fill="midnightblue" stroke="midnightblue" points="167.82,-258.4 171.39,-268.37 174.82,-258.35 167.82,-258.4"/>
</g>
<!-- Node6 -->
<g id="node6" class="node">
<title>Node6</title>
<g id="a_node6"><a xlink:href="_radar_8h.html" target="_top" xlink:title="Header for ifxRadar.">
<polygon fill="white" stroke="black" points="250,-67.5 250,-97.5 397,-97.5 397,-67.5 250,-67.5"/>
<text text-anchor="start" x="258" y="-85.5" font-family="Helvetica,sans-Serif" font-size="10.00">/home/build/sdk/c/ifxRadar</text>
<text text-anchor="middle" x="323.5" y="-74.5" font-family="Helvetica,sans-Serif" font-size="10.00">/Radar.h</text>
</a>
</g>
</g>
<!-- Node5&#45;&gt;Node6 -->
<g id="edge6" class="edge">
<title>Node5&#45;&gt;Node6</title>
<path fill="none" stroke="midnightblue" d="M213.09,-130.41C237.52,-120.03 267.72,-107.2 290.37,-97.58"/>
<polygon fill="midnightblue" stroke="midnightblue" points="211.53,-127.26 203.7,-134.4 214.27,-133.71 211.53,-127.26"/>
</g>
<!-- Node6&#45;&gt;Node3 -->
<g id="edge7" class="edge">
<title>Node6&#45;&gt;Node3</title>
<path fill="none" stroke="midnightblue" d="M323.5,-57.11C323.5,-48.15 323.5,-38.32 323.5,-30.58"/>
<polygon fill="midnightblue" stroke="midnightblue" points="320,-57.4 323.5,-67.4 327,-57.4 320,-57.4"/>
</g>
<!-- Node7&#45;&gt;Node2 -->
<g id="edge9" class="edge">
<title>Node7&#45;&gt;Node2</title>
<path fill="none" stroke="midnightblue" d="M300.12,-266.38C250.12,-255.69 185.13,-241.8 137.23,-231.55"/>
<polygon fill="midnightblue" stroke="midnightblue" points="299.4,-269.81 309.91,-268.48 300.86,-262.96 299.4,-269.81"/>
</g>
<!-- Node8 -->
<g id="node8" class="node">
<title>Node8</title>
<g id="a_node8"><a xlink:href="_angle_capon_8h.html" target="_top" xlink:title="API for Angle Capon algorithm.">
<polygon fill="white" stroke="black" points="466,-134.5 466,-164.5 613,-164.5 613,-134.5 466,-134.5"/>
<text text-anchor="start" x="474" y="-152.5" font-family="Helvetica,sans-Serif" font-size="10.00">/home/build/sdk/c/ifxRadar</text>
<text text-anchor="middle" x="539.5" y="-141.5" font-family="Helvetica,sans-Serif" font-size="10.00">/AngleCapon.h</text>
</a>
</g>
</g>
<!-- Node7&#45;&gt;Node8 -->
<g id="edge10" class="edge">
<title>Node7&#45;&gt;Node8</title>
<path fill="none" stroke="midnightblue" d="M390.67,-259.83C403.28,-242.2 422.51,-217.97 443.5,-201 462.1,-185.96 485.87,-173.42 505.11,-164.59"/>
<polygon fill="midnightblue" stroke="midnightblue" points="387.56,-258.17 384.7,-268.37 393.29,-262.18 387.56,-258.17"/>
</g>
<!-- Node9 -->
<g id="node9" class="node">
<title>Node9</title>
<g id="a_node9"><a xlink:href="_d_b_f_8h.html" target="_top" xlink:title="API for Digital Beamforming (DBF) algorithm.">
<polygon fill="white" stroke="black" points="200,-201.5 200,-231.5 347,-231.5 347,-201.5 200,-201.5"/>
<text text-anchor="start" x="208" y="-219.5" font-family="Helvetica,sans-Serif" font-size="10.00">/home/build/sdk/c/ifxRadar</text>
<text text-anchor="middle" x="273.5" y="-208.5" font-family="Helvetica,sans-Serif" font-size="10.00">/DBF.h</text>
</a>
</g>
</g>
<!-- Node7&#45;&gt;Node9 -->
<g id="edge12" class="edge">
<title>Node7&#45;&gt;Node9</title>
<path fill="none" stroke="midnightblue" d="M344.92,-263.02C329.05,-252.9 310.02,-240.77 295.59,-231.58"/>
<polygon fill="midnightblue" stroke="midnightblue" points="343.05,-265.97 353.37,-268.4 346.82,-260.07 343.05,-265.97"/>
</g>
<!-- Node10 -->
<g id="node10" class="node">
<title>Node10</title>
<g id="a_node10"><a xlink:href="_range_angle_image_8h.html" target="_top" xlink:title="API for Range Angle Image algorithm.">
<polygon fill="white" stroke="black" points="301,-134.5 301,-164.5 448,-164.5 448,-134.5 301,-134.5"/>
<text text-anchor="start" x="309" y="-152.5" font-family="Helvetica,sans-Serif" font-size="10.00">/home/build/sdk/c/ifxRadar</text>
<text text-anchor="middle" x="374.5" y="-141.5" font-family="Helvetica,sans-Serif" font-size="10.00">/RangeAngleImage.h</text>
</a>
</g>
</g>
<!-- Node7&#45;&gt;Node10 -->
<g id="edge16" class="edge">
<title>Node7&#45;&gt;Node10</title>
<path fill="none" stroke="midnightblue" d="M375.31,-258.02C375.11,-230.51 374.77,-186.79 374.61,-164.52"/>
<polygon fill="midnightblue" stroke="midnightblue" points="371.82,-258.4 375.39,-268.37 378.82,-258.35 371.82,-258.4"/>
</g>
<!-- Node11 -->
<g id="node11" class="node">
<title>Node11</title>
<g id="a_node11"><a xlink:href="_param_estimation_8h.html" target="_top" xlink:title="API for Parameter estimation algorithm.">
<polygon fill="white" stroke="black" points="637.5,-201.5 637.5,-231.5 817.5,-231.5 817.5,-201.5 637.5,-201.5"/>
<text text-anchor="start" x="645.5" y="-219.5" font-family="Helvetica,sans-Serif" font-size="10.00">/home/build/sdk/c/ifxRadar</text>
<text text-anchor="middle" x="727.5" y="-208.5" font-family="Helvetica,sans-Serif" font-size="10.00">Segmentation/ParamEstimation.h</text>
</a>
</g>
</g>
<!-- Node7&#45;&gt;Node11 -->
<g id="edge17" class="edge">
<title>Node7&#45;&gt;Node11</title>
<path fill="none" stroke="midnightblue" d="M457.13,-267.43C515.82,-256.59 594.37,-242.08 651.68,-231.5"/>
<polygon fill="midnightblue" stroke="midnightblue" points="456.35,-264.01 447.16,-269.27 457.63,-270.89 456.35,-264.01"/>
</g>
<!-- Node13 -->
<g id="node13" class="node">
<title>Node13</title>
<g id="a_node13"><a xlink:href="_segmentation_8h.html" target="_top" xlink:title="API for Segmentation algorithm.">
<polygon fill="white" stroke="black" points="452,-201.5 452,-231.5 617,-231.5 617,-201.5 452,-201.5"/>
<text text-anchor="start" x="460" y="-219.5" font-family="Helvetica,sans-Serif" font-size="10.00">/home/build/sdk/c/ifxRadar</text>
<text text-anchor="middle" x="534.5" y="-208.5" font-family="Helvetica,sans-Serif" font-size="10.00">Segmentation/Segmentation.h</text>
</a>
</g>
</g>
<!-- Node7&#45;&gt;Node13 -->
<g id="edge20" class="edge">
<title>Node7&#45;&gt;Node13</title>
<path fill="none" stroke="midnightblue" d="M419.42,-264.54C444.87,-254.14 476.43,-241.24 500.07,-231.58"/>
<polygon fill="midnightblue" stroke="midnightblue" points="417.93,-261.37 410,-268.4 420.58,-267.85 417.93,-261.37"/>
</g>
<!-- Node8&#45;&gt;Node6 -->
<g id="edge11" class="edge">
<title>Node8&#45;&gt;Node6</title>
<path fill="none" stroke="midnightblue" d="M483.27,-131.58C448.19,-121.02 403.56,-107.59 370.39,-97.61"/>
<polygon fill="midnightblue" stroke="midnightblue" points="482.31,-134.95 492.9,-134.48 484.33,-128.24 482.31,-134.95"/>
</g>
<!-- Node9&#45;&gt;Node6 -->
<g id="edge13" class="edge">
<title>Node9&#45;&gt;Node6</title>
<path fill="none" stroke="midnightblue" d="M277.04,-191.27C279.97,-174.72 284.89,-152.52 292.5,-134 297.82,-121.06 306.23,-107.61 312.96,-97.86"/>
<polygon fill="midnightblue" stroke="midnightblue" points="273.58,-190.8 275.4,-201.23 280.48,-191.93 273.58,-190.8"/>
</g>
<!-- Node9&#45;&gt;Node10 -->
<g id="edge14" class="edge">
<title>Node9&#45;&gt;Node10</title>
<path fill="none" stroke="midnightblue" d="M304.21,-195.73C319.84,-185.68 338.47,-173.68 352.63,-164.58"/>
<polygon fill="midnightblue" stroke="midnightblue" points="301.93,-193.04 295.42,-201.4 305.72,-198.93 301.93,-193.04"/>
</g>
<!-- Node10&#45;&gt;Node6 -->
<g id="edge15" class="edge">
<title>Node10&#45;&gt;Node6</title>
<path fill="none" stroke="midnightblue" d="M357.2,-126.45C349.71,-116.9 341.16,-106 334.54,-97.58"/>
<polygon fill="midnightblue" stroke="midnightblue" points="354.51,-128.69 363.43,-134.4 360.01,-124.37 354.51,-128.69"/>
</g>
<!-- Node12 -->
<g id="node12" class="node">
<title>Node12</title>
<g id="a_node12"><a xlink:href="_radar_segmentation_8h.html" target="_top" xlink:title="Header for ifxRadarSegmentation.">
<polygon fill="white" stroke="black" points="631.5,-134.5 631.5,-164.5 825.5,-164.5 825.5,-134.5 631.5,-134.5"/>
<text text-anchor="start" x="639.5" y="-152.5" font-family="Helvetica,sans-Serif" font-size="10.00">/home/build/sdk/c/ifxRadar</text>
<text text-anchor="middle" x="728.5" y="-141.5" font-family="Helvetica,sans-Serif" font-size="10.00">Segmentation/RadarSegmentation.h</text>
</a>
</g>
</g>
<!-- Node11&#45;&gt;Node12 -->
<g id="edge18" class="edge">
<title>Node11&#45;&gt;Node12</title>
<path fill="none" stroke="midnightblue" d="M727.88,-191.11C728.01,-182.15 728.16,-172.32 728.28,-164.58"/>
<polygon fill="midnightblue" stroke="midnightblue" points="724.37,-191.34 727.72,-201.4 731.37,-191.45 724.37,-191.34"/>
</g>
<!-- Node12&#45;&gt;Node3 -->
<g id="edge19" class="edge">
<title>Node12&#45;&gt;Node3</title>
<path fill="none" stroke="midnightblue" d="M675.55,-131.24C594.53,-104.83 441.32,-54.9 366.63,-30.56"/>
<polygon fill="midnightblue" stroke="midnightblue" points="674.95,-134.73 685.54,-134.5 677.12,-128.07 674.95,-134.73"/>
</g>
<!-- Node13&#45;&gt;Node12 -->
<g id="edge21" class="edge">
<title>Node13&#45;&gt;Node12</title>
<path fill="none" stroke="midnightblue" d="M586.46,-198.09C617.77,-187.6 657.14,-174.41 686.49,-164.58"/>
<polygon fill="midnightblue" stroke="midnightblue" points="584.97,-194.9 576.6,-201.4 587.19,-201.54 584.97,-194.9"/>
</g>
</g>
</svg>
