<?xml version="1.0" encoding="UTF-8" standalone="no"?>
<!DOCTYPE svg PUBLIC "-//W3C//DTD SVG 1.1//EN"
 "http://www.w3.org/Graphics/SVG/1.1/DTD/svg11.dtd">
<!-- Generated by graphviz version 2.43.0 (0)
 -->
<!-- Title: /home/build/sdk/c/ifxDevice/DeviceControl.h Pages: 1 -->
<svg width="742pt" height="240pt"
 viewBox="0.00 0.00 742.00 240.00" xmlns="http://www.w3.org/2000/svg" xmlns:xlink="http://www.w3.org/1999/xlink">
<g id="graph0" class="graph" transform="scale(1 1) rotate(0) translate(4 236)">
<title>/home/build/sdk/c/ifxDevice/DeviceControl.h</title>
<polygon fill="white" stroke="transparent" points="-4,4 -4,-236 738,-236 738,4 -4,4"/>
<!-- Node1 -->
<g id="node1" class="node">
<title>Node1</title>
<g id="a_node1"><a xlink:title="API for Radar device control operations.">
<polygon fill="#bfbfbf" stroke="black" points="208,-201.5 208,-231.5 360,-231.5 360,-201.5 208,-201.5"/>
<text text-anchor="start" x="216" y="-219.5" font-family="Helvetica,sans-Serif" font-size="10.00">/home/build/sdk/c/ifxDevice</text>
<text text-anchor="middle" x="284" y="-208.5" font-family="Helvetica,sans-Serif" font-size="10.00">/DeviceControl.h</text>
</a>
</g>
</g>
<!-- Node2 -->
<g id="node2" class="node">
<title>Node2</title>
<g id="a_node2"><a xlink:href="_constant_wave_control_8h.html" target="_top" xlink:title="Header for Constant Wave Control. It provides APIs to use an Avian device in constant wave mode....">
<polygon fill="white" stroke="black" points="0,-134.5 0,-164.5 152,-164.5 152,-134.5 0,-134.5"/>
<text text-anchor="start" x="8" y="-152.5" font-family="Helvetica,sans-Serif" font-size="10.00">/home/build/sdk/c/ifxDevice</text>
<text text-anchor="middle" x="76" y="-141.5" font-family="Helvetica,sans-Serif" font-size="10.00">/ConstantWaveControl.h</text>
</a>
</g>
</g>
<!-- Node1&#45;&gt;Node2 -->
<g id="edge1" class="edge">
<title>Node1&#45;&gt;Node2</title>
<path fill="none" stroke="midnightblue" d="M229.42,-198.44C195.7,-187.91 152.96,-174.55 121.15,-164.61"/>
<polygon fill="midnightblue" stroke="midnightblue" points="228.53,-201.83 239.12,-201.48 230.62,-195.15 228.53,-201.83"/>
</g>
<!-- Node3 -->
<g id="node3" class="node">
<title>Node3</title>
<g id="a_node3"><a xlink:href="_device_8h.html" target="_top" xlink:title=" ">
<polygon fill="white" stroke="black" points="204,-67.5 204,-97.5 356,-97.5 356,-67.5 204,-67.5"/>
<text text-anchor="start" x="212" y="-85.5" font-family="Helvetica,sans-Serif" font-size="10.00">/home/build/sdk/c/ifxDevice</text>
<text text-anchor="middle" x="280" y="-74.5" font-family="Helvetica,sans-Serif" font-size="10.00">/Device.h</text>
</a>
</g>
</g>
<!-- Node1&#45;&gt;Node3 -->
<g id="edge2" class="edge">
<title>Node1&#45;&gt;Node3</title>
<path fill="none" stroke="midnightblue" d="M233.6,-196.75C219.95,-189.08 206.8,-178.71 199,-165 192.19,-153.03 192.31,-146.05 199,-134 208.17,-117.48 225.23,-105.66 241.34,-97.63"/>
<polygon fill="midnightblue" stroke="midnightblue" points="232.11,-199.91 242.6,-201.4 235.33,-193.7 232.11,-199.91"/>
</g>
<!-- Node5 -->
<g id="node5" class="node">
<title>Node5</title>
<g id="a_node5"><a xlink:href="_shapes_8h.html" target="_top" xlink:title=" ">
<polygon fill="white" stroke="black" points="208,-134.5 208,-164.5 360,-164.5 360,-134.5 208,-134.5"/>
<text text-anchor="start" x="216" y="-152.5" font-family="Helvetica,sans-Serif" font-size="10.00">/home/build/sdk/c/ifxDevice</text>
<text text-anchor="middle" x="284" y="-141.5" font-family="Helvetica,sans-Serif" font-size="10.00">/Shapes.h</text>
</a>
</g>
</g>
<!-- Node1&#45;&gt;Node5 -->
<g id="edge4" class="edge">
<title>Node1&#45;&gt;Node5</title>
<path fill="none" stroke="midnightblue" d="M284,-191.11C284,-182.15 284,-172.32 284,-164.58"/>
<polygon fill="midnightblue" stroke="midnightblue" points="280.5,-191.4 284,-201.4 287.5,-191.4 280.5,-191.4"/>
</g>
<!-- Node6 -->
<g id="node6" class="node">
<title>Node6</title>
<g id="a_node6"><a xlink:href="_presence_sensing_8h.html" target="_top" xlink:title="API for Presence Sensing algorithm.">
<polygon fill="white" stroke="black" points="378.5,-134.5 378.5,-164.5 525.5,-164.5 525.5,-134.5 378.5,-134.5"/>
<text text-anchor="start" x="386.5" y="-152.5" font-family="Helvetica,sans-Serif" font-size="10.00">/home/build/sdk/c/ifxRadar</text>
<text text-anchor="middle" x="452" y="-141.5" font-family="Helvetica,sans-Serif" font-size="10.00">/PresenceSensing.h</text>
</a>
</g>
</g>
<!-- Node1&#45;&gt;Node6 -->
<g id="edge6" class="edge">
<title>Node1&#45;&gt;Node6</title>
<path fill="none" stroke="midnightblue" d="M330.05,-197.68C357,-187.26 390.54,-174.28 415.62,-164.58"/>
<polygon fill="midnightblue" stroke="midnightblue" points="328.52,-194.52 320.45,-201.4 331.04,-201.05 328.52,-194.52"/>
</g>
<!-- Node8 -->
<g id="node8" class="node">
<title>Node8</title>
<g id="a_node8"><a xlink:href="_segmentation_8h.html" target="_top" xlink:title="API for Segmentation algorithm.">
<polygon fill="white" stroke="black" points="550.5,-134.5 550.5,-164.5 715.5,-164.5 715.5,-134.5 550.5,-134.5"/>
<text text-anchor="start" x="558.5" y="-152.5" font-family="Helvetica,sans-Serif" font-size="10.00">/home/build/sdk/c/ifxRadar</text>
<text text-anchor="middle" x="633" y="-141.5" font-family="Helvetica,sans-Serif" font-size="10.00">Segmentation/Segmentation.h</text>
</a>
</g>
</g>
<!-- Node1&#45;&gt;Node8 -->
<g id="edge9" class="edge">
<title>Node1&#45;&gt;Node8</title>
<path fill="none" stroke="midnightblue" d="M369.46,-199.58C427.01,-188.86 502.2,-174.86 557.54,-164.55"/>
<polygon fill="midnightblue" stroke="midnightblue" points="368.49,-196.2 359.3,-201.48 369.77,-203.09 368.49,-196.2"/>
</g>
<!-- Node4 -->
<g id="node4" class="node">
<title>Node4</title>
<g id="a_node4"><a xlink:href="_s_d_k_8h.html" target="_top" xlink:title="Master header file for Radar SDK.">
<polygon fill="white" stroke="black" points="374.5,-0.5 374.5,-30.5 521.5,-30.5 521.5,-0.5 374.5,-0.5"/>
<text text-anchor="start" x="382.5" y="-18.5" font-family="Helvetica,sans-Serif" font-size="10.00">/home/build/sdk/c/ifxRadar</text>
<text text-anchor="middle" x="448" y="-7.5" font-family="Helvetica,sans-Serif" font-size="10.00">/SDK.h</text>
</a>
</g>
</g>
<!-- Node3&#45;&gt;Node4 -->
<g id="edge3" class="edge">
<title>Node3&#45;&gt;Node4</title>
<path fill="none" stroke="midnightblue" d="M326.05,-63.68C353,-53.26 386.54,-40.28 411.62,-30.58"/>
<polygon fill="midnightblue" stroke="midnightblue" points="324.52,-60.52 316.45,-67.4 327.04,-67.05 324.52,-60.52"/>
</g>
<!-- Node5&#45;&gt;Node3 -->
<g id="edge5" class="edge">
<title>Node5&#45;&gt;Node3</title>
<path fill="none" stroke="midnightblue" d="M282.52,-124.4C281.96,-115.37 281.35,-105.41 280.87,-97.58"/>
<polygon fill="midnightblue" stroke="midnightblue" points="279.02,-124.63 283.13,-134.4 286.01,-124.2 279.02,-124.63"/>
</g>
<!-- Node7 -->
<g id="node7" class="node">
<title>Node7</title>
<g id="a_node7"><a xlink:href="_radar_8h.html" target="_top" xlink:title="Header for ifxRadar.">
<polygon fill="white" stroke="black" points="374.5,-67.5 374.5,-97.5 521.5,-97.5 521.5,-67.5 374.5,-67.5"/>
<text text-anchor="start" x="382.5" y="-85.5" font-family="Helvetica,sans-Serif" font-size="10.00">/home/build/sdk/c/ifxRadar</text>
<text text-anchor="middle" x="448" y="-74.5" font-family="Helvetica,sans-Serif" font-size="10.00">/Radar.h</text>
</a>
</g>
</g>
<!-- Node6&#45;&gt;Node7 -->
<g id="edge7" class="edge">
<title>Node6&#45;&gt;Node7</title>
<path fill="none" stroke="midnightblue" d="M450.52,-124.4C449.96,-115.37 449.35,-105.41 448.87,-97.58"/>
<polygon fill="midnightblue" stroke="midnightblue" points="447.02,-124.63 451.13,-134.4 454.01,-124.2 447.02,-124.63"/>
</g>
<!-- Node7&#45;&gt;Node4 -->
<g id="edge8" class="edge">
<title>Node7&#45;&gt;Node4</title>
<path fill="none" stroke="midnightblue" d="M448,-57.11C448,-48.15 448,-38.32 448,-30.58"/>
<polygon fill="midnightblue" stroke="midnightblue" points="444.5,-57.4 448,-67.4 451.5,-57.4 444.5,-57.4"/>
</g>
<!-- Node9 -->
<g id="node9" class="node">
<title>Node9</title>
<g id="a_node9"><a xlink:href="_radar_segmentation_8h.html" target="_top" xlink:title="Header for ifxRadarSegmentation.">
<polygon fill="white" stroke="black" points="540,-67.5 540,-97.5 734,-97.5 734,-67.5 540,-67.5"/>
<text text-anchor="start" x="548" y="-85.5" font-family="Helvetica,sans-Serif" font-size="10.00">/home/build/sdk/c/ifxRadar</text>
<text text-anchor="middle" x="637" y="-74.5" font-family="Helvetica,sans-Serif" font-size="10.00">Segmentation/RadarSegmentation.h</text>
</a>
</g>
</g>
<!-- Node8&#45;&gt;Node9 -->
<g id="edge10" class="edge">
<title>Node8&#45;&gt;Node9</title>
<path fill="none" stroke="midnightblue" d="M634.48,-124.4C635.04,-115.37 635.65,-105.41 636.13,-97.58"/>
<polygon fill="midnightblue" stroke="midnightblue" points="630.99,-124.2 633.87,-134.4 637.98,-124.63 630.99,-124.2"/>
</g>
<!-- Node9&#45;&gt;Node4 -->
<g id="edge11" class="edge">
<title>Node9&#45;&gt;Node4</title>
<path fill="none" stroke="midnightblue" d="M586.38,-64.09C555.87,-53.6 517.52,-40.41 488.93,-30.58"/>
<polygon fill="midnightblue" stroke="midnightblue" points="585.4,-67.45 595.99,-67.4 587.67,-60.83 585.4,-67.45"/>
</g>
</g>
</svg>
