<?xml version="1.0" encoding="UTF-8" standalone="no"?>
<!DOCTYPE svg PUBLIC "-//W3C//DTD SVG 1.1//EN"
 "http://www.w3.org/Graphics/SVG/1.1/DTD/svg11.dtd">
<!-- Generated by graphviz version 2.43.0 (0)
 -->
<!-- Title: /home/build/sdk/c/ifxDevice/Device.h Pages: 1 -->
<svg width="698pt" height="431pt"
 viewBox="0.00 0.00 697.50 431.00" xmlns="http://www.w3.org/2000/svg" xmlns:xlink="http://www.w3.org/1999/xlink">
<g id="graph0" class="graph" transform="scale(1 1) rotate(0) translate(4 427)">
<title>/home/build/sdk/c/ifxDevice/Device.h</title>
<polygon fill="white" stroke="transparent" points="-4,4 -4,-427 693.5,-427 693.5,4 -4,4"/>
<!-- Node1 -->
<g id="node1" class="node">
<title>Node1</title>
<g id="a_node1"><a xlink:title=" ">
<polygon fill="#bfbfbf" stroke="black" points="295,-392.5 295,-422.5 447,-422.5 447,-392.5 295,-392.5"/>
<text text-anchor="start" x="303" y="-410.5" font-family="Helvetica,sans-Serif" font-size="10.00">/home/build/sdk/c/ifxDevice</text>
<text text-anchor="middle" x="371" y="-399.5" font-family="Helvetica,sans-Serif" font-size="10.00">/Device.h</text>
</a>
</g>
</g>
<!-- Node2 -->
<g id="node2" class="node">
<title>Node2</title>
<g id="a_node2"><a xlink:href="_device_config_8h.html" target="_top" xlink:title="API for Radar device configuration.">
<polygon fill="white" stroke="black" points="0,-224.5 0,-243.5 140,-243.5 140,-224.5 0,-224.5"/>
<text text-anchor="middle" x="70" y="-231.5" font-family="Helvetica,sans-Serif" font-size="10.00">ifxDevice/DeviceConfig.h</text>
</a>
</g>
</g>
<!-- Node1&#45;&gt;Node2 -->
<g id="edge1" class="edge">
<title>Node1&#45;&gt;Node2</title>
<path fill="none" stroke="midnightblue" d="M346.37,-392.47C289.56,-360.1 149.96,-280.56 93.88,-248.61"/>
<polygon fill="midnightblue" stroke="midnightblue" points="95.44,-245.47 85.02,-243.56 91.98,-251.55 95.44,-245.47"/>
</g>
<!-- Node7 -->
<g id="node7" class="node">
<title>Node7</title>
<g id="a_node7"><a xlink:href="_device_control_8h.html" target="_top" xlink:title="API for Radar device control operations.">
<polygon fill="white" stroke="black" points="258,-280.5 258,-299.5 402,-299.5 402,-280.5 258,-280.5"/>
<text text-anchor="middle" x="330" y="-287.5" font-family="Helvetica,sans-Serif" font-size="10.00">ifxDevice/DeviceControl.h</text>
</a>
</g>
</g>
<!-- Node1&#45;&gt;Node7 -->
<g id="edge8" class="edge">
<title>Node1&#45;&gt;Node7</title>
<path fill="none" stroke="midnightblue" d="M364.15,-392.11C359.54,-382.11 353.5,-368.41 349,-356 343.37,-340.46 338.19,-322.38 334.67,-309.24"/>
<polygon fill="midnightblue" stroke="midnightblue" points="338.04,-308.31 332.12,-299.52 331.27,-310.08 338.04,-308.31"/>
</g>
<!-- Node13 -->
<g id="node13" class="node">
<title>Node13</title>
<g id="a_node13"><a xlink:href="_frame_8h.html" target="_top" xlink:title="API for Measurement Frame handling.">
<polygon fill="white" stroke="black" points="518,-224.5 518,-243.5 624,-243.5 624,-224.5 518,-224.5"/>
<text text-anchor="middle" x="571" y="-231.5" font-family="Helvetica,sans-Serif" font-size="10.00">ifxDevice/Frame.h</text>
</a>
</g>
</g>
<!-- Node1&#45;&gt;Node13 -->
<g id="edge27" class="edge">
<title>Node1&#45;&gt;Node13</title>
<path fill="none" stroke="midnightblue" d="M411.28,-392.5C432.23,-383.99 457.46,-371.72 477,-356 514.33,-325.97 545.66,-278.31 560.95,-252.69"/>
<polygon fill="midnightblue" stroke="midnightblue" points="564.16,-254.14 566.17,-243.74 558.11,-250.61 564.16,-254.14"/>
</g>
<!-- Node16 -->
<g id="node16" class="node">
<title>Node16</title>
<g id="a_node16"><a xlink:href="_shapes_8h.html" target="_top" xlink:title=" ">
<polygon fill="white" stroke="black" points="358,-336.5 358,-355.5 468,-355.5 468,-336.5 358,-336.5"/>
<text text-anchor="middle" x="413" y="-343.5" font-family="Helvetica,sans-Serif" font-size="10.00">ifxDevice/Shapes.h</text>
</a>
</g>
</g>
<!-- Node1&#45;&gt;Node16 -->
<g id="edge28" class="edge">
<title>Node1&#45;&gt;Node16</title>
<path fill="none" stroke="midnightblue" d="M380.95,-392.4C386.99,-383.84 394.74,-372.87 401.1,-363.86"/>
<polygon fill="midnightblue" stroke="midnightblue" points="403.98,-365.85 406.89,-355.66 398.26,-361.81 403.98,-365.85"/>
</g>
<!-- Node3 -->
<g id="node3" class="node">
<title>Node3</title>
<g id="a_node3"><a xlink:title=" ">
<polygon fill="white" stroke="#bfbfbf" points="110.5,-0.5 110.5,-19.5 163.5,-19.5 163.5,-0.5 110.5,-0.5"/>
<text text-anchor="middle" x="137" y="-7.5" font-family="Helvetica,sans-Serif" font-size="10.00">stdint.h</text>
</a>
</g>
</g>
<!-- Node2&#45;&gt;Node3 -->
<g id="edge2" class="edge">
<title>Node2&#45;&gt;Node3</title>
<path fill="none" stroke="midnightblue" d="M67.56,-224.48C64.35,-211.96 59.6,-187.92 64,-168 75.96,-113.92 108.53,-56.35 125.84,-28.33"/>
<polygon fill="midnightblue" stroke="midnightblue" points="128.9,-30.04 131.26,-19.71 122.97,-26.31 128.9,-30.04"/>
</g>
<!-- Node4 -->
<g id="node4" class="node">
<title>Node4</title>
<g id="a_node4"><a xlink:href="_types_8h.html" target="_top" xlink:title="Definitions of data types used within the SDK.">
<polygon fill="white" stroke="black" points="325.5,-56.5 325.5,-75.5 418.5,-75.5 418.5,-56.5 325.5,-56.5"/>
<text text-anchor="middle" x="372" y="-63.5" font-family="Helvetica,sans-Serif" font-size="10.00">ifxBase/Types.h</text>
</a>
</g>
</g>
<!-- Node2&#45;&gt;Node4 -->
<g id="edge3" class="edge">
<title>Node2&#45;&gt;Node4</title>
<path fill="none" stroke="midnightblue" d="M68.1,-224.49C65.62,-211.12 62.92,-184.96 75,-168 129.48,-91.53 245.28,-72.25 315.1,-67.81"/>
<polygon fill="midnightblue" stroke="midnightblue" points="315.68,-71.29 325.47,-67.24 315.29,-64.3 315.68,-71.29"/>
</g>
<!-- Node6 -->
<g id="node6" class="node">
<title>Node6</title>
<g id="a_node6"><a xlink:href="_shield_8h.html" target="_top" xlink:title="Defines the Enumeration for the presence of the available Shield.">
<polygon fill="white" stroke="black" points="84.5,-168.5 84.5,-187.5 189.5,-187.5 189.5,-168.5 84.5,-168.5"/>
<text text-anchor="middle" x="137" y="-175.5" font-family="Helvetica,sans-Serif" font-size="10.00">ifxDevice/Shield.h</text>
</a>
</g>
</g>
<!-- Node2&#45;&gt;Node6 -->
<g id="edge6" class="edge">
<title>Node2&#45;&gt;Node6</title>
<path fill="none" stroke="midnightblue" d="M80.76,-224.32C90.77,-216.26 105.89,-204.08 117.93,-194.37"/>
<polygon fill="midnightblue" stroke="midnightblue" points="120.45,-196.83 126.04,-187.83 116.06,-191.38 120.45,-196.83"/>
</g>
<!-- Node4&#45;&gt;Node3 -->
<g id="edge5" class="edge">
<title>Node4&#45;&gt;Node3</title>
<path fill="none" stroke="midnightblue" d="M334.76,-56.44C290.67,-46.31 217.69,-29.54 173.8,-19.46"/>
<polygon fill="midnightblue" stroke="midnightblue" points="174.36,-15.99 163.83,-17.16 172.79,-22.82 174.36,-15.99"/>
</g>
<!-- Node5 -->
<g id="node5" class="node">
<title>Node5</title>
<g id="a_node5"><a xlink:title=" ">
<polygon fill="white" stroke="#bfbfbf" points="344,-0.5 344,-19.5 400,-19.5 400,-0.5 344,-0.5"/>
<text text-anchor="middle" x="372" y="-7.5" font-family="Helvetica,sans-Serif" font-size="10.00">stddef.h</text>
</a>
</g>
</g>
<!-- Node4&#45;&gt;Node5 -->
<g id="edge4" class="edge">
<title>Node4&#45;&gt;Node5</title>
<path fill="none" stroke="midnightblue" d="M372,-56.08C372,-49.01 372,-38.86 372,-29.99"/>
<polygon fill="midnightblue" stroke="midnightblue" points="375.5,-29.75 372,-19.75 368.5,-29.75 375.5,-29.75"/>
</g>
<!-- Node6&#45;&gt;Node3 -->
<g id="edge7" class="edge">
<title>Node6&#45;&gt;Node3</title>
<path fill="none" stroke="midnightblue" d="M137,-168.08C137,-141.95 137,-65.21 137,-29.58"/>
<polygon fill="midnightblue" stroke="midnightblue" points="140.5,-29.57 137,-19.57 133.5,-29.57 140.5,-29.57"/>
</g>
<!-- Node7&#45;&gt;Node2 -->
<g id="edge18" class="edge">
<title>Node7&#45;&gt;Node2</title>
<path fill="none" stroke="midnightblue" d="M288.8,-280.44C243.35,-271 170.16,-255.8 121.09,-245.61"/>
<polygon fill="midnightblue" stroke="midnightblue" points="121.51,-242.12 111.01,-243.52 120.08,-248.98 121.51,-242.12"/>
</g>
<!-- Node7&#45;&gt;Node4 -->
<g id="edge10" class="edge">
<title>Node7&#45;&gt;Node4</title>
<path fill="none" stroke="midnightblue" d="M281.23,-280.5C260.21,-274.15 237.61,-263.12 225,-244 220.11,-236.58 224.06,-232.84 225,-224 230.76,-169.61 234.18,-147.25 276,-112 293.14,-97.55 315.69,-86.67 334.63,-79.23"/>
<polygon fill="midnightblue" stroke="midnightblue" points="336.03,-82.44 344.16,-75.65 333.57,-75.89 336.03,-82.44"/>
</g>
<!-- Node7&#45;&gt;Node6 -->
<g id="edge26" class="edge">
<title>Node7&#45;&gt;Node6</title>
<path fill="none" stroke="midnightblue" d="M283.02,-280.46C254.89,-273.77 219.4,-262.42 192,-244 173.48,-231.55 157.68,-211.19 147.83,-196.57"/>
<polygon fill="midnightblue" stroke="midnightblue" points="150.62,-194.43 142.25,-187.93 144.74,-198.23 150.62,-194.43"/>
</g>
<!-- Node8 -->
<g id="node8" class="node">
<title>Node8</title>
<g id="a_node8"><a xlink:title=" ">
<polygon fill="white" stroke="#bfbfbf" points="400,-168.5 400,-187.5 462,-187.5 462,-168.5 400,-168.5"/>
<text text-anchor="middle" x="431" y="-175.5" font-family="Helvetica,sans-Serif" font-size="10.00">stdbool.h</text>
</a>
</g>
</g>
<!-- Node7&#45;&gt;Node8 -->
<g id="edge9" class="edge">
<title>Node7&#45;&gt;Node8</title>
<path fill="none" stroke="midnightblue" d="M376.36,-280.47C397.07,-274.1 419.58,-263.05 432,-244 440.85,-230.42 439.46,-211.62 436.53,-197.73"/>
<polygon fill="midnightblue" stroke="midnightblue" points="439.87,-196.67 434.01,-187.84 433.08,-198.39 439.87,-196.67"/>
</g>
<!-- Node9 -->
<g id="node9" class="node">
<title>Node9</title>
<g id="a_node9"><a xlink:href="_error_8h.html" target="_top" xlink:title="API for error handling.">
<polygon fill="white" stroke="black" points="234,-224.5 234,-243.5 322,-243.5 322,-224.5 234,-224.5"/>
<text text-anchor="middle" x="278" y="-231.5" font-family="Helvetica,sans-Serif" font-size="10.00">ifxBase/Error.h</text>
</a>
</g>
</g>
<!-- Node7&#45;&gt;Node9 -->
<g id="edge11" class="edge">
<title>Node7&#45;&gt;Node9</title>
<path fill="none" stroke="midnightblue" d="M321.41,-280.08C313.84,-272.22 302.62,-260.57 293.49,-251.08"/>
<polygon fill="midnightblue" stroke="midnightblue" points="295.88,-248.53 286.43,-243.75 290.84,-253.38 295.88,-248.53"/>
</g>
<!-- Node12 -->
<g id="node12" class="node">
<title>Node12</title>
<g id="a_node12"><a xlink:href="_list_8h.html" target="_top" xlink:title=" ">
<polygon fill="white" stroke="black" points="340.5,-224.5 340.5,-243.5 423.5,-243.5 423.5,-224.5 340.5,-224.5"/>
<text text-anchor="middle" x="382" y="-231.5" font-family="Helvetica,sans-Serif" font-size="10.00">ifxBase/List.h</text>
</a>
</g>
</g>
<!-- Node7&#45;&gt;Node12 -->
<g id="edge15" class="edge">
<title>Node7&#45;&gt;Node12</title>
<path fill="none" stroke="midnightblue" d="M338.59,-280.08C346.16,-272.22 357.38,-260.57 366.51,-251.08"/>
<polygon fill="midnightblue" stroke="midnightblue" points="369.16,-253.38 373.57,-243.75 364.12,-248.53 369.16,-253.38"/>
</g>
<!-- Node7&#45;&gt;Node13 -->
<g id="edge19" class="edge">
<title>Node7&#45;&gt;Node13</title>
<path fill="none" stroke="midnightblue" d="M368.19,-280.44C410.14,-271.04 477.59,-255.93 523.07,-245.74"/>
<polygon fill="midnightblue" stroke="midnightblue" points="524,-249.12 532.99,-243.52 522.47,-242.29 524,-249.12"/>
</g>
<!-- Node10 -->
<g id="node10" class="node">
<title>Node10</title>
<g id="a_node10"><a xlink:href="_log_8h.html" target="_top" xlink:title="API for logging.">
<polygon fill="white" stroke="black" points="246.5,-168.5 246.5,-187.5 329.5,-187.5 329.5,-168.5 246.5,-168.5"/>
<text text-anchor="middle" x="288" y="-175.5" font-family="Helvetica,sans-Serif" font-size="10.00">ifxBase/Log.h</text>
</a>
</g>
</g>
<!-- Node9&#45;&gt;Node10 -->
<g id="edge12" class="edge">
<title>Node9&#45;&gt;Node10</title>
<path fill="none" stroke="midnightblue" d="M279.65,-224.08C280.98,-216.93 282.88,-206.64 284.54,-197.69"/>
<polygon fill="midnightblue" stroke="midnightblue" points="288,-198.22 286.38,-187.75 281.12,-196.95 288,-198.22"/>
</g>
<!-- Node10&#45;&gt;Node4 -->
<g id="edge14" class="edge">
<title>Node10&#45;&gt;Node4</title>
<path fill="none" stroke="midnightblue" d="M284.71,-168.25C280.34,-155.01 274.31,-129.56 285,-112 294.46,-96.46 311.21,-86.05 327.5,-79.19"/>
<polygon fill="midnightblue" stroke="midnightblue" points="328.9,-82.4 336.99,-75.55 326.4,-75.87 328.9,-82.4"/>
</g>
<!-- Node11 -->
<g id="node11" class="node">
<title>Node11</title>
<g id="a_node11"><a xlink:title=" ">
<polygon fill="white" stroke="#bfbfbf" points="294,-112.5 294,-131.5 344,-131.5 344,-112.5 294,-112.5"/>
<text text-anchor="middle" x="319" y="-119.5" font-family="Helvetica,sans-Serif" font-size="10.00">stdio.h</text>
</a>
</g>
</g>
<!-- Node10&#45;&gt;Node11 -->
<g id="edge13" class="edge">
<title>Node10&#45;&gt;Node11</title>
<path fill="none" stroke="midnightblue" d="M293.12,-168.08C297.41,-160.61 303.66,-149.72 308.94,-140.52"/>
<polygon fill="midnightblue" stroke="midnightblue" points="312.03,-142.17 313.98,-131.75 305.96,-138.68 312.03,-142.17"/>
</g>
<!-- Node12&#45;&gt;Node4 -->
<g id="edge16" class="edge">
<title>Node12&#45;&gt;Node4</title>
<path fill="none" stroke="midnightblue" d="M381.46,-224.08C379.89,-197.95 375.27,-121.21 373.12,-85.58"/>
<polygon fill="midnightblue" stroke="midnightblue" points="376.61,-85.34 372.52,-75.57 369.62,-85.76 376.61,-85.34"/>
</g>
<!-- Node12&#45;&gt;Node8 -->
<g id="edge17" class="edge">
<title>Node12&#45;&gt;Node8</title>
<path fill="none" stroke="midnightblue" d="M390.09,-224.08C397.16,-216.3 407.59,-204.8 416.15,-195.37"/>
<polygon fill="midnightblue" stroke="midnightblue" points="418.93,-197.51 423.06,-187.75 413.75,-192.8 418.93,-197.51"/>
</g>
<!-- Node13&#45;&gt;Node4 -->
<g id="edge21" class="edge">
<title>Node13&#45;&gt;Node4</title>
<path fill="none" stroke="midnightblue" d="M566.38,-224.25C552.03,-197.14 508.9,-116.1 504,-112 482.61,-94.1 453.74,-83.2 428.45,-76.62"/>
<polygon fill="midnightblue" stroke="midnightblue" points="429.14,-73.18 418.6,-74.22 427.49,-79.99 429.14,-73.18"/>
</g>
<!-- Node13&#45;&gt;Node8 -->
<g id="edge20" class="edge">
<title>Node13&#45;&gt;Node8</title>
<path fill="none" stroke="midnightblue" d="M548.82,-224.44C525.57,-215.48 488.85,-201.31 462.58,-191.18"/>
<polygon fill="midnightblue" stroke="midnightblue" points="463.67,-187.85 453.08,-187.52 461.15,-194.38 463.67,-187.85"/>
</g>
<!-- Node14 -->
<g id="node14" class="node">
<title>Node14</title>
<g id="a_node14"><a xlink:href="_matrix_8h.html" target="_top" xlink:title="API for operations on Matrix data structures.">
<polygon fill="white" stroke="black" points="556.5,-168.5 556.5,-187.5 653.5,-187.5 653.5,-168.5 556.5,-168.5"/>
<text text-anchor="middle" x="605" y="-175.5" font-family="Helvetica,sans-Serif" font-size="10.00">ifxBase/Matrix.h</text>
</a>
</g>
</g>
<!-- Node13&#45;&gt;Node14 -->
<g id="edge22" class="edge">
<title>Node13&#45;&gt;Node14</title>
<path fill="none" stroke="midnightblue" d="M576.61,-224.08C581.37,-216.53 588.32,-205.49 594.15,-196.23"/>
<polygon fill="midnightblue" stroke="midnightblue" points="597.12,-198.08 599.49,-187.75 591.2,-194.35 597.12,-198.08"/>
</g>
<!-- Node14&#45;&gt;Node4 -->
<g id="edge23" class="edge">
<title>Node14&#45;&gt;Node4</title>
<path fill="none" stroke="midnightblue" d="M599.1,-168.39C589.05,-154.39 567.22,-126.77 542,-112 507.23,-91.63 463.13,-80.31 428.56,-74.11"/>
<polygon fill="midnightblue" stroke="midnightblue" points="429.07,-70.65 418.62,-72.42 427.89,-77.55 429.07,-70.65"/>
</g>
<!-- Node15 -->
<g id="node15" class="node">
<title>Node15</title>
<g id="a_node15"><a xlink:href="_vector_8h.html" target="_top" xlink:title="API for operations on Vector data structures.">
<polygon fill="white" stroke="black" points="594.5,-112.5 594.5,-131.5 689.5,-131.5 689.5,-112.5 594.5,-112.5"/>
<text text-anchor="middle" x="642" y="-119.5" font-family="Helvetica,sans-Serif" font-size="10.00">ifxBase/Vector.h</text>
</a>
</g>
</g>
<!-- Node14&#45;&gt;Node15 -->
<g id="edge24" class="edge">
<title>Node14&#45;&gt;Node15</title>
<path fill="none" stroke="midnightblue" d="M611.11,-168.08C616.28,-160.53 623.85,-149.49 630.19,-140.23"/>
<polygon fill="midnightblue" stroke="midnightblue" points="633.24,-141.98 636,-131.75 627.46,-138.02 633.24,-141.98"/>
</g>
<!-- Node15&#45;&gt;Node4 -->
<g id="edge25" class="edge">
<title>Node15&#45;&gt;Node4</title>
<path fill="none" stroke="midnightblue" d="M599.22,-112.44C551.82,-102.96 475.37,-87.67 424.42,-77.48"/>
<polygon fill="midnightblue" stroke="midnightblue" points="425.07,-74.05 414.58,-75.52 423.7,-80.91 425.07,-74.05"/>
</g>
<!-- Node16&#45;&gt;Node4 -->
<g id="edge29" class="edge">
<title>Node16&#45;&gt;Node4</title>
<path fill="none" stroke="midnightblue" d="M424.69,-336.47C446.24,-319.66 490,-279.99 490,-235 490,-235 490,-235 490,-177 490,-129.51 438.23,-96.67 403.28,-79.91"/>
<polygon fill="midnightblue" stroke="midnightblue" points="404.47,-76.61 393.92,-75.61 401.54,-82.97 404.47,-76.61"/>
</g>
<!-- Node16&#45;&gt;Node7 -->
<g id="edge30" class="edge">
<title>Node16&#45;&gt;Node7</title>
<path fill="none" stroke="midnightblue" d="M399.66,-336.32C386.84,-327.98 367.22,-315.21 352.06,-305.35"/>
<polygon fill="midnightblue" stroke="midnightblue" points="353.59,-302.17 343.3,-299.65 349.78,-308.04 353.59,-302.17"/>
</g>
</g>
</svg>
