<?xml version="1.0" encoding="UTF-8" standalone="no"?>
<!DOCTYPE svg PUBLIC "-//W3C//DTD SVG 1.1//EN"
 "http://www.w3.org/Graphics/SVG/1.1/DTD/svg11.dtd">
<!-- Generated by graphviz version 2.43.0 (0)
 -->
<!-- Title: /home/build/sdk/c/ifxDevice/DeviceControl.h Pages: 1 -->
<svg width="589pt" height="319pt"
 viewBox="0.00 0.00 588.85 319.00" xmlns="http://www.w3.org/2000/svg" xmlns:xlink="http://www.w3.org/1999/xlink">
<g id="graph0" class="graph" transform="scale(1 1) rotate(0) translate(4 315)">
<title>/home/build/sdk/c/ifxDevice/DeviceControl.h</title>
<polygon fill="white" stroke="transparent" points="-4,4 -4,-315 584.85,-315 584.85,4 -4,4"/>
<!-- Node1 -->
<g id="node1" class="node">
<title>Node1</title>
<g id="a_node1"><a xlink:title="API for Radar device control operations.">
<polygon fill="#bfbfbf" stroke="black" points="120.35,-280.5 120.35,-310.5 272.35,-310.5 272.35,-280.5 120.35,-280.5"/>
<text text-anchor="start" x="128.35" y="-298.5" font-family="Helvetica,sans-Serif" font-size="10.00">/home/build/sdk/c/ifxDevice</text>
<text text-anchor="middle" x="196.35" y="-287.5" font-family="Helvetica,sans-Serif" font-size="10.00">/DeviceControl.h</text>
</a>
</g>
</g>
<!-- Node2 -->
<g id="node2" class="node">
<title>Node2</title>
<g id="a_node2"><a xlink:title=" ">
<polygon fill="white" stroke="#bfbfbf" points="62.35,-168.5 62.35,-187.5 124.35,-187.5 124.35,-168.5 62.35,-168.5"/>
<text text-anchor="middle" x="93.35" y="-175.5" font-family="Helvetica,sans-Serif" font-size="10.00">stdbool.h</text>
</a>
</g>
</g>
<!-- Node1&#45;&gt;Node2 -->
<g id="edge1" class="edge">
<title>Node1&#45;&gt;Node2</title>
<path fill="none" stroke="midnightblue" d="M179.95,-280.08C169.14,-270.3 154.91,-256.85 143.35,-244 129.42,-228.52 115.09,-209.51 105.36,-196.06"/>
<polygon fill="midnightblue" stroke="midnightblue" points="108.08,-193.85 99.42,-187.75 102.39,-197.92 108.08,-193.85"/>
</g>
<!-- Node3 -->
<g id="node3" class="node">
<title>Node3</title>
<g id="a_node3"><a xlink:href="_types_8h.html" target="_top" xlink:title="Definitions of data types used within the SDK.">
<polygon fill="white" stroke="black" points="229.85,-56.5 229.85,-75.5 322.85,-75.5 322.85,-56.5 229.85,-56.5"/>
<text text-anchor="middle" x="276.35" y="-63.5" font-family="Helvetica,sans-Serif" font-size="10.00">ifxBase/Types.h</text>
</a>
</g>
</g>
<!-- Node1&#45;&gt;Node3 -->
<g id="edge2" class="edge">
<title>Node1&#45;&gt;Node3</title>
<path fill="none" stroke="midnightblue" d="M120.18,-284.22C72.7,-276.07 17.93,-262.88 3.35,-244 -2.08,-236.96 0.82,-232.52 3.35,-224 20.27,-167.04 27.55,-145.9 76.35,-112 118.47,-82.73 176.55,-72.16 219.27,-68.5"/>
<polygon fill="midnightblue" stroke="midnightblue" points="219.8,-71.97 229.51,-67.73 219.28,-64.99 219.8,-71.97"/>
</g>
<!-- Node6 -->
<g id="node6" class="node">
<title>Node6</title>
<g id="a_node6"><a xlink:href="_error_8h.html" target="_top" xlink:title="API for error handling.">
<polygon fill="white" stroke="black" points="152.35,-224.5 152.35,-243.5 240.35,-243.5 240.35,-224.5 152.35,-224.5"/>
<text text-anchor="middle" x="196.35" y="-231.5" font-family="Helvetica,sans-Serif" font-size="10.00">ifxBase/Error.h</text>
</a>
</g>
</g>
<!-- Node1&#45;&gt;Node6 -->
<g id="edge5" class="edge">
<title>Node1&#45;&gt;Node6</title>
<path fill="none" stroke="midnightblue" d="M196.35,-280.4C196.35,-272.47 196.35,-262.46 196.35,-253.86"/>
<polygon fill="midnightblue" stroke="midnightblue" points="199.85,-253.66 196.35,-243.66 192.85,-253.66 199.85,-253.66"/>
</g>
<!-- Node9 -->
<g id="node9" class="node">
<title>Node9</title>
<g id="a_node9"><a xlink:href="_list_8h.html" target="_top" xlink:title=" ">
<polygon fill="white" stroke="black" points="12.85,-224.5 12.85,-243.5 95.85,-243.5 95.85,-224.5 12.85,-224.5"/>
<text text-anchor="middle" x="54.35" y="-231.5" font-family="Helvetica,sans-Serif" font-size="10.00">ifxBase/List.h</text>
</a>
</g>
</g>
<!-- Node1&#45;&gt;Node9 -->
<g id="edge9" class="edge">
<title>Node1&#45;&gt;Node9</title>
<path fill="none" stroke="midnightblue" d="M162.7,-280.4C138.87,-270.42 107.2,-257.15 84.26,-247.53"/>
<polygon fill="midnightblue" stroke="midnightblue" points="85.59,-244.29 75.01,-243.66 82.88,-250.75 85.59,-244.29"/>
</g>
<!-- Node10 -->
<g id="node10" class="node">
<title>Node10</title>
<g id="a_node10"><a xlink:href="_device_config_8h.html" target="_top" xlink:title="API for Radar device configuration.">
<polygon fill="white" stroke="black" points="418.35,-112.5 418.35,-131.5 558.35,-131.5 558.35,-112.5 418.35,-112.5"/>
<text text-anchor="middle" x="488.35" y="-119.5" font-family="Helvetica,sans-Serif" font-size="10.00">ifxDevice/DeviceConfig.h</text>
</a>
</g>
</g>
<!-- Node1&#45;&gt;Node10 -->
<g id="edge12" class="edge">
<title>Node1&#45;&gt;Node10</title>
<path fill="none" stroke="midnightblue" d="M272.73,-282.03C305.36,-274.41 342.87,-262.45 373.35,-244 418.83,-216.46 458.19,-166.25 476.84,-140"/>
<polygon fill="midnightblue" stroke="midnightblue" points="479.91,-141.71 482.75,-131.51 474.16,-137.72 479.91,-141.71"/>
</g>
<!-- Node11 -->
<g id="node11" class="node">
<title>Node11</title>
<g id="a_node11"><a xlink:href="_shield_8h.html" target="_top" xlink:title="Defines the Enumeration for the presence of the available Shield.">
<polygon fill="white" stroke="black" points="475.85,-56.5 475.85,-75.5 580.85,-75.5 580.85,-56.5 475.85,-56.5"/>
<text text-anchor="middle" x="528.35" y="-63.5" font-family="Helvetica,sans-Serif" font-size="10.00">ifxDevice/Shield.h</text>
</a>
</g>
</g>
<!-- Node1&#45;&gt;Node11 -->
<g id="edge24" class="edge">
<title>Node1&#45;&gt;Node11</title>
<path fill="none" stroke="midnightblue" d="M272.45,-282.38C312,-274.45 360.47,-262.13 401.35,-244 482.7,-207.91 525.57,-210.59 567.35,-132 576.54,-114.71 561.87,-95.56 547.97,-82.55"/>
<polygon fill="midnightblue" stroke="midnightblue" points="549.91,-79.59 540.07,-75.67 545.31,-84.87 549.91,-79.59"/>
</g>
<!-- Node12 -->
<g id="node12" class="node">
<title>Node12</title>
<g id="a_node12"><a xlink:href="_frame_8h.html" target="_top" xlink:title="API for Measurement Frame handling.">
<polygon fill="white" stroke="black" points="258.35,-224.5 258.35,-243.5 364.35,-243.5 364.35,-224.5 258.35,-224.5"/>
<text text-anchor="middle" x="311.35" y="-231.5" font-family="Helvetica,sans-Serif" font-size="10.00">ifxDevice/Frame.h</text>
</a>
</g>
</g>
<!-- Node1&#45;&gt;Node12 -->
<g id="edge17" class="edge">
<title>Node1&#45;&gt;Node12</title>
<path fill="none" stroke="midnightblue" d="M223.6,-280.4C242.38,-270.68 267.18,-257.86 285.62,-248.31"/>
<polygon fill="midnightblue" stroke="midnightblue" points="287.34,-251.36 294.62,-243.66 284.13,-245.14 287.34,-251.36"/>
</g>
<!-- Node4 -->
<g id="node4" class="node">
<title>Node4</title>
<g id="a_node4"><a xlink:title=" ">
<polygon fill="white" stroke="#bfbfbf" points="248.35,-0.5 248.35,-19.5 304.35,-19.5 304.35,-0.5 248.35,-0.5"/>
<text text-anchor="middle" x="276.35" y="-7.5" font-family="Helvetica,sans-Serif" font-size="10.00">stddef.h</text>
</a>
</g>
</g>
<!-- Node3&#45;&gt;Node4 -->
<g id="edge3" class="edge">
<title>Node3&#45;&gt;Node4</title>
<path fill="none" stroke="midnightblue" d="M276.35,-56.08C276.35,-49.01 276.35,-38.86 276.35,-29.99"/>
<polygon fill="midnightblue" stroke="midnightblue" points="279.85,-29.75 276.35,-19.75 272.85,-29.75 279.85,-29.75"/>
</g>
<!-- Node5 -->
<g id="node5" class="node">
<title>Node5</title>
<g id="a_node5"><a xlink:title=" ">
<polygon fill="white" stroke="#bfbfbf" points="420.85,-0.5 420.85,-19.5 473.85,-19.5 473.85,-0.5 420.85,-0.5"/>
<text text-anchor="middle" x="447.35" y="-7.5" font-family="Helvetica,sans-Serif" font-size="10.00">stdint.h</text>
</a>
</g>
</g>
<!-- Node3&#45;&gt;Node5 -->
<g id="edge4" class="edge">
<title>Node3&#45;&gt;Node5</title>
<path fill="none" stroke="midnightblue" d="M303.44,-56.44C332.42,-47.29 378.54,-32.73 410.74,-22.56"/>
<polygon fill="midnightblue" stroke="midnightblue" points="412.18,-25.78 420.66,-19.43 410.07,-19.1 412.18,-25.78"/>
</g>
<!-- Node7 -->
<g id="node7" class="node">
<title>Node7</title>
<g id="a_node7"><a xlink:href="_log_8h.html" target="_top" xlink:title="API for logging.">
<polygon fill="white" stroke="black" points="142.85,-168.5 142.85,-187.5 225.85,-187.5 225.85,-168.5 142.85,-168.5"/>
<text text-anchor="middle" x="184.35" y="-175.5" font-family="Helvetica,sans-Serif" font-size="10.00">ifxBase/Log.h</text>
</a>
</g>
</g>
<!-- Node6&#45;&gt;Node7 -->
<g id="edge6" class="edge">
<title>Node6&#45;&gt;Node7</title>
<path fill="none" stroke="midnightblue" d="M194.37,-224.08C192.78,-216.93 190.49,-206.64 188.5,-197.69"/>
<polygon fill="midnightblue" stroke="midnightblue" points="191.88,-196.75 186.29,-187.75 185.05,-198.27 191.88,-196.75"/>
</g>
<!-- Node7&#45;&gt;Node3 -->
<g id="edge8" class="edge">
<title>Node7&#45;&gt;Node3</title>
<path fill="none" stroke="midnightblue" d="M188.53,-168.45C195.1,-155.48 208.73,-130.37 224.35,-112 233.77,-100.91 246.01,-90.18 256.24,-81.98"/>
<polygon fill="midnightblue" stroke="midnightblue" points="258.53,-84.64 264.27,-75.74 254.23,-79.12 258.53,-84.64"/>
</g>
<!-- Node8 -->
<g id="node8" class="node">
<title>Node8</title>
<g id="a_node8"><a xlink:title=" ">
<polygon fill="white" stroke="#bfbfbf" points="122.35,-112.5 122.35,-131.5 172.35,-131.5 172.35,-112.5 122.35,-112.5"/>
<text text-anchor="middle" x="147.35" y="-119.5" font-family="Helvetica,sans-Serif" font-size="10.00">stdio.h</text>
</a>
</g>
</g>
<!-- Node7&#45;&gt;Node8 -->
<g id="edge7" class="edge">
<title>Node7&#45;&gt;Node8</title>
<path fill="none" stroke="midnightblue" d="M178.24,-168.08C173.07,-160.53 165.5,-149.49 159.15,-140.23"/>
<polygon fill="midnightblue" stroke="midnightblue" points="161.88,-138.02 153.34,-131.75 156.11,-141.98 161.88,-138.02"/>
</g>
<!-- Node9&#45;&gt;Node2 -->
<g id="edge11" class="edge">
<title>Node9&#45;&gt;Node2</title>
<path fill="none" stroke="midnightblue" d="M60.79,-224.08C66.3,-216.46 74.38,-205.26 81.11,-195.94"/>
<polygon fill="midnightblue" stroke="midnightblue" points="84.01,-197.91 87.03,-187.75 78.34,-193.81 84.01,-197.91"/>
</g>
<!-- Node9&#45;&gt;Node3 -->
<g id="edge10" class="edge">
<title>Node9&#45;&gt;Node3</title>
<path fill="none" stroke="midnightblue" d="M52,-224.14C49.04,-211.2 45.25,-186.63 53.35,-168 67.89,-134.55 81.52,-129.81 113.35,-112 146.32,-93.55 187.33,-82.28 219.97,-75.63"/>
<polygon fill="midnightblue" stroke="midnightblue" points="220.66,-79.06 229.81,-73.71 219.32,-72.19 220.66,-79.06"/>
</g>
<!-- Node10&#45;&gt;Node3 -->
<g id="edge14" class="edge">
<title>Node10&#45;&gt;Node3</title>
<path fill="none" stroke="midnightblue" d="M454.76,-112.44C418.16,-103.12 359.51,-88.18 319.52,-78"/>
<polygon fill="midnightblue" stroke="midnightblue" points="320.34,-74.59 309.78,-75.52 318.61,-81.38 320.34,-74.59"/>
</g>
<!-- Node10&#45;&gt;Node5 -->
<g id="edge13" class="edge">
<title>Node10&#45;&gt;Node5</title>
<path fill="none" stroke="midnightblue" d="M483.51,-112.24C478.71,-103.31 471.37,-88.97 466.35,-76 460.38,-60.58 455.23,-42.49 451.81,-29.31"/>
<polygon fill="midnightblue" stroke="midnightblue" points="455.19,-28.41 449.36,-19.57 448.4,-30.12 455.19,-28.41"/>
</g>
<!-- Node10&#45;&gt;Node11 -->
<g id="edge15" class="edge">
<title>Node10&#45;&gt;Node11</title>
<path fill="none" stroke="midnightblue" d="M494.95,-112.08C500.6,-104.46 508.89,-93.26 515.8,-83.94"/>
<polygon fill="midnightblue" stroke="midnightblue" points="518.73,-85.87 521.87,-75.75 513.1,-81.7 518.73,-85.87"/>
</g>
<!-- Node11&#45;&gt;Node5 -->
<g id="edge16" class="edge">
<title>Node11&#45;&gt;Node5</title>
<path fill="none" stroke="midnightblue" d="M515.33,-56.32C502.82,-47.98 483.67,-35.21 468.88,-25.35"/>
<polygon fill="midnightblue" stroke="midnightblue" points="470.59,-22.29 460.33,-19.65 466.71,-28.11 470.59,-22.29"/>
</g>
<!-- Node12&#45;&gt;Node2 -->
<g id="edge18" class="edge">
<title>Node12&#45;&gt;Node2</title>
<path fill="none" stroke="midnightblue" d="M276.81,-224.44C238.1,-214.86 175.39,-199.32 134.26,-189.13"/>
<polygon fill="midnightblue" stroke="midnightblue" points="135.1,-185.74 124.55,-186.73 133.42,-192.53 135.1,-185.74"/>
</g>
<!-- Node12&#45;&gt;Node3 -->
<g id="edge19" class="edge">
<title>Node12&#45;&gt;Node3</title>
<path fill="none" stroke="midnightblue" d="M301.92,-224.21C293.32,-215.71 280.85,-202.08 273.35,-188 261.17,-165.16 260.94,-157.63 257.35,-132 256.12,-123.2 255.59,-120.71 257.35,-112 259.24,-102.65 263.14,-92.83 266.92,-84.75"/>
<polygon fill="midnightblue" stroke="midnightblue" points="270.14,-86.14 271.47,-75.63 263.87,-83.01 270.14,-86.14"/>
</g>
<!-- Node13 -->
<g id="node13" class="node">
<title>Node13</title>
<g id="a_node13"><a xlink:href="_matrix_8h.html" target="_top" xlink:title="API for operations on Matrix data structures.">
<polygon fill="white" stroke="black" points="282.85,-168.5 282.85,-187.5 379.85,-187.5 379.85,-168.5 282.85,-168.5"/>
<text text-anchor="middle" x="331.35" y="-175.5" font-family="Helvetica,sans-Serif" font-size="10.00">ifxBase/Matrix.h</text>
</a>
</g>
</g>
<!-- Node12&#45;&gt;Node13 -->
<g id="edge20" class="edge">
<title>Node12&#45;&gt;Node13</title>
<path fill="none" stroke="midnightblue" d="M314.65,-224.08C317.33,-216.85 321.2,-206.41 324.54,-197.4"/>
<polygon fill="midnightblue" stroke="midnightblue" points="327.92,-198.34 328.11,-187.75 321.35,-195.91 327.92,-198.34"/>
</g>
<!-- Node13&#45;&gt;Node3 -->
<g id="edge21" class="edge">
<title>Node13&#45;&gt;Node3</title>
<path fill="none" stroke="midnightblue" d="M343.22,-168.31C358.83,-155.77 382.9,-131.93 370.35,-112 360.34,-96.11 343,-85.71 325.91,-78.96"/>
<polygon fill="midnightblue" stroke="midnightblue" points="327.09,-75.66 316.5,-75.57 324.72,-82.25 327.09,-75.66"/>
</g>
<!-- Node14 -->
<g id="node14" class="node">
<title>Node14</title>
<g id="a_node14"><a xlink:href="_vector_8h.html" target="_top" xlink:title="API for operations on Vector data structures.">
<polygon fill="white" stroke="black" points="266.85,-112.5 266.85,-131.5 361.85,-131.5 361.85,-112.5 266.85,-112.5"/>
<text text-anchor="middle" x="314.35" y="-119.5" font-family="Helvetica,sans-Serif" font-size="10.00">ifxBase/Vector.h</text>
</a>
</g>
</g>
<!-- Node13&#45;&gt;Node14 -->
<g id="edge22" class="edge">
<title>Node13&#45;&gt;Node14</title>
<path fill="none" stroke="midnightblue" d="M328.54,-168.08C326.26,-160.85 322.98,-150.41 320.14,-141.4"/>
<polygon fill="midnightblue" stroke="midnightblue" points="323.45,-140.24 317.1,-131.75 316.77,-142.34 323.45,-140.24"/>
</g>
<!-- Node14&#45;&gt;Node3 -->
<g id="edge23" class="edge">
<title>Node14&#45;&gt;Node3</title>
<path fill="none" stroke="midnightblue" d="M308.07,-112.08C302.71,-104.46 294.83,-93.26 288.27,-83.94"/>
<polygon fill="midnightblue" stroke="midnightblue" points="291.12,-81.91 282.51,-75.75 285.4,-85.94 291.12,-81.91"/>
</g>
</g>
</svg>
