<?xml version="1.0" encoding="UTF-8" standalone="no"?>
<!DOCTYPE svg PUBLIC "-//W3C//DTD SVG 1.1//EN"
 "http://www.w3.org/Graphics/SVG/1.1/DTD/svg11.dtd">
<!-- Generated by graphviz version 2.43.0 (0)
 -->
<!-- Title: /home/build/sdk/c/ifxDevice/DeviceConfig.h Pages: 1 -->
<svg width="748pt" height="307pt"
 viewBox="0.00 0.00 748.40 307.00" xmlns="http://www.w3.org/2000/svg" xmlns:xlink="http://www.w3.org/1999/xlink">
<g id="graph0" class="graph" transform="scale(1 1) rotate(0) translate(4 303)">
<title>/home/build/sdk/c/ifxDevice/DeviceConfig.h</title>
<polygon fill="white" stroke="transparent" points="-4,4 -4,-303 744.4,-303 744.4,4 -4,4"/>
<!-- Node1 -->
<g id="node1" class="node">
<title>Node1</title>
<g id="a_node1"><a xlink:title="API for Radar device configuration.">
<polygon fill="#bfbfbf" stroke="black" points="225.4,-268.5 225.4,-298.5 377.4,-298.5 377.4,-268.5 225.4,-268.5"/>
<text text-anchor="start" x="233.4" y="-286.5" font-family="Helvetica,sans-Serif" font-size="10.00">/home/build/sdk/c/ifxDevice</text>
<text text-anchor="middle" x="301.4" y="-275.5" font-family="Helvetica,sans-Serif" font-size="10.00">/DeviceConfig.h</text>
</a>
</g>
</g>
<!-- Node2 -->
<g id="node2" class="node">
<title>Node2</title>
<g id="a_node2"><a xlink:href="_constant_wave_control_8h.html" target="_top" xlink:title="Header for Constant Wave Control. It provides APIs to use an Avian device in constant wave mode....">
<polygon fill="white" stroke="black" points="17.4,-134.5 17.4,-164.5 169.4,-164.5 169.4,-134.5 17.4,-134.5"/>
<text text-anchor="start" x="25.4" y="-152.5" font-family="Helvetica,sans-Serif" font-size="10.00">/home/build/sdk/c/ifxDevice</text>
<text text-anchor="middle" x="93.4" y="-141.5" font-family="Helvetica,sans-Serif" font-size="10.00">/ConstantWaveControl.h</text>
</a>
</g>
</g>
<!-- Node1&#45;&gt;Node2 -->
<g id="edge1" class="edge">
<title>Node1&#45;&gt;Node2</title>
<path fill="none" stroke="midnightblue" d="M268.15,-263.26C252.36,-253.99 233.29,-242.61 216.4,-232 179.95,-209.12 138.37,-181.17 114.09,-164.66"/>
<polygon fill="midnightblue" stroke="midnightblue" points="266.63,-266.42 277.02,-268.45 270.16,-260.38 266.63,-266.42"/>
</g>
<!-- Node3 -->
<g id="node3" class="node">
<title>Node3</title>
<g id="a_node3"><a xlink:href="_device_8h.html" target="_top" xlink:title=" ">
<polygon fill="white" stroke="black" points="166.4,-67.5 166.4,-97.5 318.4,-97.5 318.4,-67.5 166.4,-67.5"/>
<text text-anchor="start" x="174.4" y="-85.5" font-family="Helvetica,sans-Serif" font-size="10.00">/home/build/sdk/c/ifxDevice</text>
<text text-anchor="middle" x="242.4" y="-74.5" font-family="Helvetica,sans-Serif" font-size="10.00">/Device.h</text>
</a>
</g>
</g>
<!-- Node1&#45;&gt;Node3 -->
<g id="edge2" class="edge">
<title>Node1&#45;&gt;Node3</title>
<path fill="none" stroke="midnightblue" d="M215.1,-273.94C146.07,-262.01 53.6,-233.43 8.4,-165 -31.73,-104.25 83.48,-88.2 166.17,-84.3"/>
<polygon fill="midnightblue" stroke="midnightblue" points="214.67,-277.42 225.11,-275.59 215.81,-270.51 214.67,-277.42"/>
</g>
<!-- Node5 -->
<g id="node5" class="node">
<title>Node5</title>
<g id="a_node5"><a xlink:href="_device_control_8h.html" target="_top" xlink:title="API for Radar device control operations.">
<polygon fill="white" stroke="black" points="225.4,-201.5 225.4,-231.5 377.4,-231.5 377.4,-201.5 225.4,-201.5"/>
<text text-anchor="start" x="233.4" y="-219.5" font-family="Helvetica,sans-Serif" font-size="10.00">/home/build/sdk/c/ifxDevice</text>
<text text-anchor="middle" x="301.4" y="-208.5" font-family="Helvetica,sans-Serif" font-size="10.00">/DeviceControl.h</text>
</a>
</g>
</g>
<!-- Node1&#45;&gt;Node5 -->
<g id="edge4" class="edge">
<title>Node1&#45;&gt;Node5</title>
<path fill="none" stroke="midnightblue" d="M301.4,-258.11C301.4,-249.15 301.4,-239.32 301.4,-231.58"/>
<polygon fill="midnightblue" stroke="midnightblue" points="297.9,-258.4 301.4,-268.4 304.9,-258.4 297.9,-258.4"/>
</g>
<!-- Node7 -->
<g id="node7" class="node">
<title>Node7</title>
<g id="a_node7"><a xlink:href="_presence_sensing_8h.html" target="_top" xlink:title="API for Presence Sensing algorithm.">
<polygon fill="white" stroke="black" points="395.9,-134.5 395.9,-164.5 542.9,-164.5 542.9,-134.5 395.9,-134.5"/>
<text text-anchor="start" x="403.9" y="-152.5" font-family="Helvetica,sans-Serif" font-size="10.00">/home/build/sdk/c/ifxRadar</text>
<text text-anchor="middle" x="469.4" y="-141.5" font-family="Helvetica,sans-Serif" font-size="10.00">/PresenceSensing.h</text>
</a>
</g>
</g>
<!-- Node1&#45;&gt;Node7 -->
<g id="edge15" class="edge">
<title>Node1&#45;&gt;Node7</title>
<path fill="none" stroke="midnightblue" d="M337.71,-263.48C353.26,-254.7 371.28,-243.64 386.4,-232 413.76,-210.93 441.6,-181.65 457.07,-164.52"/>
<polygon fill="midnightblue" stroke="midnightblue" points="335.93,-260.46 328.88,-268.37 339.32,-266.59 335.93,-260.46"/>
</g>
<!-- Node9 -->
<g id="node9" class="node">
<title>Node9</title>
<g id="a_node9"><a xlink:href="_segmentation_8h.html" target="_top" xlink:title="API for Segmentation algorithm.">
<polygon fill="white" stroke="black" points="560.9,-134.5 560.9,-164.5 725.9,-164.5 725.9,-134.5 560.9,-134.5"/>
<text text-anchor="start" x="568.9" y="-152.5" font-family="Helvetica,sans-Serif" font-size="10.00">/home/build/sdk/c/ifxRadar</text>
<text text-anchor="middle" x="643.4" y="-141.5" font-family="Helvetica,sans-Serif" font-size="10.00">Segmentation/Segmentation.h</text>
</a>
</g>
</g>
<!-- Node1&#45;&gt;Node9 -->
<g id="edge16" class="edge">
<title>Node1&#45;&gt;Node9</title>
<path fill="none" stroke="midnightblue" d="M347.37,-264.76C416.11,-238.23 544.29,-188.75 606.98,-164.56"/>
<polygon fill="midnightblue" stroke="midnightblue" points="345.74,-261.63 337.67,-268.5 348.26,-268.16 345.74,-261.63"/>
</g>
<!-- Node4 -->
<g id="node4" class="node">
<title>Node4</title>
<g id="a_node4"><a xlink:href="_s_d_k_8h.html" target="_top" xlink:title="Master header file for Radar SDK.">
<polygon fill="white" stroke="black" points="380.9,-0.5 380.9,-30.5 527.9,-30.5 527.9,-0.5 380.9,-0.5"/>
<text text-anchor="start" x="388.9" y="-18.5" font-family="Helvetica,sans-Serif" font-size="10.00">/home/build/sdk/c/ifxRadar</text>
<text text-anchor="middle" x="454.4" y="-7.5" font-family="Helvetica,sans-Serif" font-size="10.00">/SDK.h</text>
</a>
</g>
</g>
<!-- Node3&#45;&gt;Node4 -->
<g id="edge3" class="edge">
<title>Node3&#45;&gt;Node4</title>
<path fill="none" stroke="midnightblue" d="M298.03,-64.44C332.39,-53.91 375.96,-40.55 408.37,-30.61"/>
<polygon fill="midnightblue" stroke="midnightblue" points="296.67,-61.2 288.14,-67.48 298.72,-67.89 296.67,-61.2"/>
</g>
<!-- Node5&#45;&gt;Node2 -->
<g id="edge5" class="edge">
<title>Node5&#45;&gt;Node2</title>
<path fill="none" stroke="midnightblue" d="M246.82,-198.44C213.1,-187.91 170.36,-174.55 138.55,-164.61"/>
<polygon fill="midnightblue" stroke="midnightblue" points="245.93,-201.83 256.52,-201.48 248.02,-195.15 245.93,-201.83"/>
</g>
<!-- Node5&#45;&gt;Node3 -->
<g id="edge6" class="edge">
<title>Node5&#45;&gt;Node3</title>
<path fill="none" stroke="midnightblue" d="M251,-196.75C237.35,-189.08 224.2,-178.71 216.4,-165 203.98,-143.19 219.29,-114.65 231.13,-97.78"/>
<polygon fill="midnightblue" stroke="midnightblue" points="249.51,-199.91 260,-201.4 252.72,-193.7 249.51,-199.91"/>
</g>
<!-- Node6 -->
<g id="node6" class="node">
<title>Node6</title>
<g id="a_node6"><a xlink:href="_shapes_8h.html" target="_top" xlink:title=" ">
<polygon fill="white" stroke="black" points="225.4,-134.5 225.4,-164.5 377.4,-164.5 377.4,-134.5 225.4,-134.5"/>
<text text-anchor="start" x="233.4" y="-152.5" font-family="Helvetica,sans-Serif" font-size="10.00">/home/build/sdk/c/ifxDevice</text>
<text text-anchor="middle" x="301.4" y="-141.5" font-family="Helvetica,sans-Serif" font-size="10.00">/Shapes.h</text>
</a>
</g>
</g>
<!-- Node5&#45;&gt;Node6 -->
<g id="edge7" class="edge">
<title>Node5&#45;&gt;Node6</title>
<path fill="none" stroke="midnightblue" d="M301.4,-191.11C301.4,-182.15 301.4,-172.32 301.4,-164.58"/>
<polygon fill="midnightblue" stroke="midnightblue" points="297.9,-191.4 301.4,-201.4 304.9,-191.4 297.9,-191.4"/>
</g>
<!-- Node5&#45;&gt;Node7 -->
<g id="edge9" class="edge">
<title>Node5&#45;&gt;Node7</title>
<path fill="none" stroke="midnightblue" d="M347.45,-197.68C374.4,-187.26 407.93,-174.28 433.02,-164.58"/>
<polygon fill="midnightblue" stroke="midnightblue" points="345.91,-194.52 337.85,-201.4 348.44,-201.05 345.91,-194.52"/>
</g>
<!-- Node5&#45;&gt;Node9 -->
<g id="edge12" class="edge">
<title>Node5&#45;&gt;Node9</title>
<path fill="none" stroke="midnightblue" d="M385.15,-199.58C441.54,-188.86 515.22,-174.86 569.45,-164.55"/>
<polygon fill="midnightblue" stroke="midnightblue" points="384.36,-196.17 375.19,-201.48 385.66,-203.05 384.36,-196.17"/>
</g>
<!-- Node6&#45;&gt;Node3 -->
<g id="edge8" class="edge">
<title>Node6&#45;&gt;Node3</title>
<path fill="none" stroke="midnightblue" d="M281.64,-126.74C272.91,-117.12 262.9,-106.09 255.17,-97.58"/>
<polygon fill="midnightblue" stroke="midnightblue" points="279.28,-129.34 288.6,-134.4 284.47,-124.64 279.28,-129.34"/>
</g>
<!-- Node8 -->
<g id="node8" class="node">
<title>Node8</title>
<g id="a_node8"><a xlink:href="_radar_8h.html" target="_top" xlink:title="Header for ifxRadar.">
<polygon fill="white" stroke="black" points="380.9,-67.5 380.9,-97.5 527.9,-97.5 527.9,-67.5 380.9,-67.5"/>
<text text-anchor="start" x="388.9" y="-85.5" font-family="Helvetica,sans-Serif" font-size="10.00">/home/build/sdk/c/ifxRadar</text>
<text text-anchor="middle" x="454.4" y="-74.5" font-family="Helvetica,sans-Serif" font-size="10.00">/Radar.h</text>
</a>
</g>
</g>
<!-- Node7&#45;&gt;Node8 -->
<g id="edge10" class="edge">
<title>Node7&#45;&gt;Node8</title>
<path fill="none" stroke="midnightblue" d="M463.84,-124.4C461.75,-115.37 459.45,-105.41 457.65,-97.58"/>
<polygon fill="midnightblue" stroke="midnightblue" points="460.48,-125.44 466.14,-134.4 467.3,-123.87 460.48,-125.44"/>
</g>
<!-- Node8&#45;&gt;Node4 -->
<g id="edge11" class="edge">
<title>Node8&#45;&gt;Node4</title>
<path fill="none" stroke="midnightblue" d="M454.4,-57.11C454.4,-48.15 454.4,-38.32 454.4,-30.58"/>
<polygon fill="midnightblue" stroke="midnightblue" points="450.9,-57.4 454.4,-67.4 457.9,-57.4 450.9,-57.4"/>
</g>
<!-- Node10 -->
<g id="node10" class="node">
<title>Node10</title>
<g id="a_node10"><a xlink:href="_radar_segmentation_8h.html" target="_top" xlink:title="Header for ifxRadarSegmentation.">
<polygon fill="white" stroke="black" points="546.4,-67.5 546.4,-97.5 740.4,-97.5 740.4,-67.5 546.4,-67.5"/>
<text text-anchor="start" x="554.4" y="-85.5" font-family="Helvetica,sans-Serif" font-size="10.00">/home/build/sdk/c/ifxRadar</text>
<text text-anchor="middle" x="643.4" y="-74.5" font-family="Helvetica,sans-Serif" font-size="10.00">Segmentation/RadarSegmentation.h</text>
</a>
</g>
</g>
<!-- Node9&#45;&gt;Node10 -->
<g id="edge13" class="edge">
<title>Node9&#45;&gt;Node10</title>
<path fill="none" stroke="midnightblue" d="M643.4,-124.11C643.4,-115.15 643.4,-105.32 643.4,-97.58"/>
<polygon fill="midnightblue" stroke="midnightblue" points="639.9,-124.4 643.4,-134.4 646.9,-124.4 639.9,-124.4"/>
</g>
<!-- Node10&#45;&gt;Node4 -->
<g id="edge14" class="edge">
<title>Node10&#45;&gt;Node4</title>
<path fill="none" stroke="midnightblue" d="M592.78,-64.09C562.27,-53.6 523.92,-40.41 495.33,-30.58"/>
<polygon fill="midnightblue" stroke="midnightblue" points="591.79,-67.45 602.39,-67.4 594.07,-60.83 591.79,-67.45"/>
</g>
</g>
</svg>
