<?xml version="1.0" encoding="UTF-8" standalone="no"?>
<!DOCTYPE svg PUBLIC "-//W3C//DTD SVG 1.1//EN"
 "http://www.w3.org/Graphics/SVG/1.1/DTD/svg11.dtd">
<!-- Generated by graphviz version 2.43.0 (0)
 -->
<!-- Title: /home/build/sdk/c/ifxBase/Error.h Pages: 1 -->
<svg width="187pt" height="207pt"
 viewBox="0.00 0.00 187.00 207.00" xmlns="http://www.w3.org/2000/svg" xmlns:xlink="http://www.w3.org/1999/xlink">
<g id="graph0" class="graph" transform="scale(1 1) rotate(0) translate(4 203)">
<title>/home/build/sdk/c/ifxBase/Error.h</title>
<polygon fill="white" stroke="transparent" points="-4,4 -4,-203 183,-203 183,4 -4,4"/>
<!-- Node1 -->
<g id="node1" class="node">
<title>Node1</title>
<g id="a_node1"><a xlink:title="API for error handling.">
<polygon fill="#bfbfbf" stroke="black" points="0,-168.5 0,-198.5 143,-198.5 143,-168.5 0,-168.5"/>
<text text-anchor="start" x="8" y="-186.5" font-family="Helvetica,sans-Serif" font-size="10.00">/home/build/sdk/c/ifxBase</text>
<text text-anchor="middle" x="71.5" y="-175.5" font-family="Helvetica,sans-Serif" font-size="10.00">/Error.h</text>
</a>
</g>
</g>
<!-- Node2 -->
<g id="node2" class="node">
<title>Node2</title>
<g id="a_node2"><a xlink:href="_log_8h.html" target="_top" xlink:title="API for logging.">
<polygon fill="white" stroke="black" points="30,-112.5 30,-131.5 113,-131.5 113,-112.5 30,-112.5"/>
<text text-anchor="middle" x="71.5" y="-119.5" font-family="Helvetica,sans-Serif" font-size="10.00">ifxBase/Log.h</text>
</a>
</g>
</g>
<!-- Node1&#45;&gt;Node2 -->
<g id="edge1" class="edge">
<title>Node1&#45;&gt;Node2</title>
<path fill="none" stroke="midnightblue" d="M71.5,-168.4C71.5,-160.47 71.5,-150.46 71.5,-141.86"/>
<polygon fill="midnightblue" stroke="midnightblue" points="75,-141.66 71.5,-131.66 68,-141.66 75,-141.66"/>
</g>
<!-- Node3 -->
<g id="node3" class="node">
<title>Node3</title>
<g id="a_node3"><a xlink:title=" ">
<polygon fill="white" stroke="#bfbfbf" points="1.5,-56.5 1.5,-75.5 51.5,-75.5 51.5,-56.5 1.5,-56.5"/>
<text text-anchor="middle" x="26.5" y="-63.5" font-family="Helvetica,sans-Serif" font-size="10.00">stdio.h</text>
</a>
</g>
</g>
<!-- Node2&#45;&gt;Node3 -->
<g id="edge2" class="edge">
<title>Node2&#45;&gt;Node3</title>
<path fill="none" stroke="midnightblue" d="M64.07,-112.08C57.65,-104.38 48.19,-93.03 40.38,-83.65"/>
<polygon fill="midnightblue" stroke="midnightblue" points="42.88,-81.19 33.79,-75.75 37.51,-85.67 42.88,-81.19"/>
</g>
<!-- Node4 -->
<g id="node4" class="node">
<title>Node4</title>
<g id="a_node4"><a xlink:href="_types_8h.html" target="_top" xlink:title="Definitions of data types used within the SDK.">
<polygon fill="white" stroke="black" points="70,-56.5 70,-75.5 163,-75.5 163,-56.5 70,-56.5"/>
<text text-anchor="middle" x="116.5" y="-63.5" font-family="Helvetica,sans-Serif" font-size="10.00">ifxBase/Types.h</text>
</a>
</g>
</g>
<!-- Node2&#45;&gt;Node4 -->
<g id="edge3" class="edge">
<title>Node2&#45;&gt;Node4</title>
<path fill="none" stroke="midnightblue" d="M78.93,-112.08C85.35,-104.38 94.81,-93.03 102.62,-83.65"/>
<polygon fill="midnightblue" stroke="midnightblue" points="105.49,-85.67 109.21,-75.75 100.12,-81.19 105.49,-85.67"/>
</g>
<!-- Node5 -->
<g id="node5" class="node">
<title>Node5</title>
<g id="a_node5"><a xlink:title=" ">
<polygon fill="white" stroke="#bfbfbf" points="51.5,-0.5 51.5,-19.5 107.5,-19.5 107.5,-0.5 51.5,-0.5"/>
<text text-anchor="middle" x="79.5" y="-7.5" font-family="Helvetica,sans-Serif" font-size="10.00">stddef.h</text>
</a>
</g>
</g>
<!-- Node4&#45;&gt;Node5 -->
<g id="edge4" class="edge">
<title>Node4&#45;&gt;Node5</title>
<path fill="none" stroke="midnightblue" d="M110.39,-56.08C105.22,-48.53 97.65,-37.49 91.31,-28.23"/>
<polygon fill="midnightblue" stroke="midnightblue" points="94.04,-26.02 85.5,-19.75 88.26,-29.98 94.04,-26.02"/>
</g>
<!-- Node6 -->
<g id="node6" class="node">
<title>Node6</title>
<g id="a_node6"><a xlink:title=" ">
<polygon fill="white" stroke="#bfbfbf" points="126,-0.5 126,-19.5 179,-19.5 179,-0.5 126,-0.5"/>
<text text-anchor="middle" x="152.5" y="-7.5" font-family="Helvetica,sans-Serif" font-size="10.00">stdint.h</text>
</a>
</g>
</g>
<!-- Node4&#45;&gt;Node6 -->
<g id="edge5" class="edge">
<title>Node4&#45;&gt;Node6</title>
<path fill="none" stroke="midnightblue" d="M122.44,-56.08C127.48,-48.53 134.84,-37.49 141.01,-28.23"/>
<polygon fill="midnightblue" stroke="midnightblue" points="144.03,-30.01 146.67,-19.75 138.21,-26.13 144.03,-30.01"/>
</g>
</g>
</svg>
