<?xml version="1.0" encoding="UTF-8" standalone="no"?>
<!DOCTYPE svg PUBLIC "-//W3C//DTD SVG 1.1//EN"
 "http://www.w3.org/Graphics/SVG/1.1/DTD/svg11.dtd">
<!-- Generated by graphviz version 2.43.0 (0)
 -->
<!-- Title: /home/build/sdk/c/ifxAlgo/FFT.h Pages: 1 -->
<svg width="537pt" height="374pt"
 viewBox="0.00 0.00 536.50 374.00" xmlns="http://www.w3.org/2000/svg" xmlns:xlink="http://www.w3.org/1999/xlink">
<g id="graph0" class="graph" transform="scale(1 1) rotate(0) translate(4 370)">
<title>/home/build/sdk/c/ifxAlgo/FFT.h</title>
<polygon fill="white" stroke="transparent" points="-4,4 -4,-370 532.5,-370 532.5,4 -4,4"/>
<!-- Node1 -->
<g id="node1" class="node">
<title>Node1</title>
<g id="a_node1"><a xlink:title="API for Fast Fourier Transform (FFT)">
<polygon fill="#bfbfbf" stroke="black" points="162,-335.5 162,-365.5 302,-365.5 302,-335.5 162,-335.5"/>
<text text-anchor="start" x="170" y="-353.5" font-family="Helvetica,sans-Serif" font-size="10.00">/home/build/sdk/c/ifxAlgo</text>
<text text-anchor="middle" x="232" y="-342.5" font-family="Helvetica,sans-Serif" font-size="10.00">/FFT.h</text>
</a>
</g>
</g>
<!-- Node2 -->
<g id="node2" class="node">
<title>Node2</title>
<g id="a_node2"><a xlink:href="_algo_8h.html" target="_top" xlink:title="Header for ifxAlgo.">
<polygon fill="white" stroke="black" points="0,-201.5 0,-231.5 140,-231.5 140,-201.5 0,-201.5"/>
<text text-anchor="start" x="8" y="-219.5" font-family="Helvetica,sans-Serif" font-size="10.00">/home/build/sdk/c/ifxAlgo</text>
<text text-anchor="middle" x="70" y="-208.5" font-family="Helvetica,sans-Serif" font-size="10.00">/Algo.h</text>
</a>
</g>
</g>
<!-- Node1&#45;&gt;Node2 -->
<g id="edge1" class="edge">
<title>Node1&#45;&gt;Node2</title>
<path fill="none" stroke="midnightblue" d="M198.59,-330.27C184.1,-321.4 167.24,-310.34 153,-299 126.14,-277.61 98.35,-248.69 82.71,-231.67"/>
<polygon fill="midnightblue" stroke="midnightblue" points="196.89,-333.33 207.26,-335.49 200.5,-327.34 196.89,-333.33"/>
</g>
<!-- Node4 -->
<g id="node4" class="node">
<title>Node4</title>
<g id="a_node4"><a xlink:href="_preprocessed_f_f_t_8h.html" target="_top" xlink:title="API for Pre&#45;processed FFT.">
<polygon fill="white" stroke="black" points="162,-268.5 162,-298.5 302,-298.5 302,-268.5 162,-268.5"/>
<text text-anchor="start" x="170" y="-286.5" font-family="Helvetica,sans-Serif" font-size="10.00">/home/build/sdk/c/ifxAlgo</text>
<text text-anchor="middle" x="232" y="-275.5" font-family="Helvetica,sans-Serif" font-size="10.00">/PreprocessedFFT.h</text>
</a>
</g>
</g>
<!-- Node1&#45;&gt;Node4 -->
<g id="edge3" class="edge">
<title>Node1&#45;&gt;Node4</title>
<path fill="none" stroke="midnightblue" d="M232,-325.11C232,-316.15 232,-306.32 232,-298.58"/>
<polygon fill="midnightblue" stroke="midnightblue" points="228.5,-325.4 232,-335.4 235.5,-325.4 228.5,-325.4"/>
</g>
<!-- Node10 -->
<g id="node10" class="node">
<title>Node10</title>
<g id="a_node10"><a xlink:href="_spectrum_axis_8h.html" target="_top" xlink:title="API for Spectrum Axis used by Range spectrum, Range Doppler and Range Angle Map modules.">
<polygon fill="white" stroke="black" points="381.5,-268.5 381.5,-298.5 528.5,-298.5 528.5,-268.5 381.5,-268.5"/>
<text text-anchor="start" x="389.5" y="-286.5" font-family="Helvetica,sans-Serif" font-size="10.00">/home/build/sdk/c/ifxRadar</text>
<text text-anchor="middle" x="455" y="-275.5" font-family="Helvetica,sans-Serif" font-size="10.00">/SpectrumAxis.h</text>
</a>
</g>
</g>
<!-- Node1&#45;&gt;Node10 -->
<g id="edge14" class="edge">
<title>Node1&#45;&gt;Node10</title>
<path fill="none" stroke="midnightblue" d="M290.05,-332.58C326.27,-322.02 372.35,-308.59 406.59,-298.61"/>
<polygon fill="midnightblue" stroke="midnightblue" points="288.73,-329.32 280.11,-335.48 290.69,-336.04 288.73,-329.32"/>
</g>
<!-- Node3 -->
<g id="node3" class="node">
<title>Node3</title>
<g id="a_node3"><a xlink:href="_s_d_k_8h.html" target="_top" xlink:title="Master header file for Radar SDK.">
<polygon fill="white" stroke="black" points="77.5,-0.5 77.5,-30.5 224.5,-30.5 224.5,-0.5 77.5,-0.5"/>
<text text-anchor="start" x="85.5" y="-18.5" font-family="Helvetica,sans-Serif" font-size="10.00">/home/build/sdk/c/ifxRadar</text>
<text text-anchor="middle" x="151" y="-7.5" font-family="Helvetica,sans-Serif" font-size="10.00">/SDK.h</text>
</a>
</g>
</g>
<!-- Node2&#45;&gt;Node3 -->
<g id="edge2" class="edge">
<title>Node2&#45;&gt;Node3</title>
<path fill="none" stroke="midnightblue" d="M79.65,-191.8C96.66,-150.01 131.47,-64.47 145.23,-30.68"/>
<polygon fill="midnightblue" stroke="midnightblue" points="76.35,-190.61 75.83,-201.19 82.84,-193.25 76.35,-190.61"/>
</g>
<!-- Node4&#45;&gt;Node2 -->
<g id="edge4" class="edge">
<title>Node4&#45;&gt;Node2</title>
<path fill="none" stroke="midnightblue" d="M187.25,-264.54C161.33,-254.14 129.16,-241.24 105.08,-231.58"/>
<polygon fill="midnightblue" stroke="midnightblue" points="186.26,-267.92 196.85,-268.4 188.87,-261.42 186.26,-267.92"/>
</g>
<!-- Node5 -->
<g id="node5" class="node">
<title>Node5</title>
<g id="a_node5"><a xlink:href="_range_doppler_map_8h.html" target="_top" xlink:title="API for Range Doppler Map.">
<polygon fill="white" stroke="black" points="158.5,-201.5 158.5,-231.5 305.5,-231.5 305.5,-201.5 158.5,-201.5"/>
<text text-anchor="start" x="166.5" y="-219.5" font-family="Helvetica,sans-Serif" font-size="10.00">/home/build/sdk/c/ifxRadar</text>
<text text-anchor="middle" x="232" y="-208.5" font-family="Helvetica,sans-Serif" font-size="10.00">/RangeDopplerMap.h</text>
</a>
</g>
</g>
<!-- Node4&#45;&gt;Node5 -->
<g id="edge5" class="edge">
<title>Node4&#45;&gt;Node5</title>
<path fill="none" stroke="midnightblue" d="M232,-258.11C232,-249.15 232,-239.32 232,-231.58"/>
<polygon fill="midnightblue" stroke="midnightblue" points="228.5,-258.4 232,-268.4 235.5,-258.4 228.5,-258.4"/>
</g>
<!-- Node8 -->
<g id="node8" class="node">
<title>Node8</title>
<g id="a_node8"><a xlink:href="_range_spectrum_8h.html" target="_top" xlink:title="API for Range Spectrum.">
<polygon fill="white" stroke="black" points="323.5,-201.5 323.5,-231.5 470.5,-231.5 470.5,-201.5 323.5,-201.5"/>
<text text-anchor="start" x="331.5" y="-219.5" font-family="Helvetica,sans-Serif" font-size="10.00">/home/build/sdk/c/ifxRadar</text>
<text text-anchor="middle" x="397" y="-208.5" font-family="Helvetica,sans-Serif" font-size="10.00">/RangeSpectrum.h</text>
</a>
</g>
</g>
<!-- Node4&#45;&gt;Node8 -->
<g id="edge10" class="edge">
<title>Node4&#45;&gt;Node8</title>
<path fill="none" stroke="midnightblue" d="M277.23,-264.68C303.69,-254.26 336.63,-241.28 361.27,-231.58"/>
<polygon fill="midnightblue" stroke="midnightblue" points="275.82,-261.47 267.8,-268.4 278.39,-267.99 275.82,-261.47"/>
</g>
<!-- Node6 -->
<g id="node6" class="node">
<title>Node6</title>
<g id="a_node6"><a xlink:href="_radar_8h.html" target="_top" xlink:title="Header for ifxRadar.">
<polygon fill="white" stroke="black" points="203.5,-67.5 203.5,-97.5 350.5,-97.5 350.5,-67.5 203.5,-67.5"/>
<text text-anchor="start" x="211.5" y="-85.5" font-family="Helvetica,sans-Serif" font-size="10.00">/home/build/sdk/c/ifxRadar</text>
<text text-anchor="middle" x="277" y="-74.5" font-family="Helvetica,sans-Serif" font-size="10.00">/Radar.h</text>
</a>
</g>
</g>
<!-- Node5&#45;&gt;Node6 -->
<g id="edge6" class="edge">
<title>Node5&#45;&gt;Node6</title>
<path fill="none" stroke="midnightblue" d="M178.52,-196.82C164.5,-189.21 151.07,-178.85 143,-165 136.07,-153.09 135.16,-145.33 143,-134 157,-113.76 180.21,-101.62 203.42,-94.35"/>
<polygon fill="midnightblue" stroke="midnightblue" points="177.26,-200.1 187.77,-201.44 180.39,-193.84 177.26,-200.1"/>
</g>
<!-- Node7 -->
<g id="node7" class="node">
<title>Node7</title>
<g id="a_node7"><a xlink:href="_range_angle_image_8h.html" target="_top" xlink:title="API for Range Angle Image algorithm.">
<polygon fill="white" stroke="black" points="152.5,-134.5 152.5,-164.5 299.5,-164.5 299.5,-134.5 152.5,-134.5"/>
<text text-anchor="start" x="160.5" y="-152.5" font-family="Helvetica,sans-Serif" font-size="10.00">/home/build/sdk/c/ifxRadar</text>
<text text-anchor="middle" x="226" y="-141.5" font-family="Helvetica,sans-Serif" font-size="10.00">/RangeAngleImage.h</text>
</a>
</g>
</g>
<!-- Node5&#45;&gt;Node7 -->
<g id="edge8" class="edge">
<title>Node5&#45;&gt;Node7</title>
<path fill="none" stroke="midnightblue" d="M229.78,-191.4C228.94,-182.37 228.02,-172.41 227.3,-164.58"/>
<polygon fill="midnightblue" stroke="midnightblue" points="226.29,-191.76 230.7,-201.4 233.26,-191.12 226.29,-191.76"/>
</g>
<!-- Node6&#45;&gt;Node3 -->
<g id="edge7" class="edge">
<title>Node6&#45;&gt;Node3</title>
<path fill="none" stroke="midnightblue" d="M240.58,-62.71C220.71,-52.46 196.52,-39.98 178.29,-30.58"/>
<polygon fill="midnightblue" stroke="midnightblue" points="239.17,-65.92 249.66,-67.4 242.38,-59.7 239.17,-65.92"/>
</g>
<!-- Node7&#45;&gt;Node6 -->
<g id="edge9" class="edge">
<title>Node7&#45;&gt;Node6</title>
<path fill="none" stroke="midnightblue" d="M243.3,-126.45C250.79,-116.9 259.34,-106 265.96,-97.58"/>
<polygon fill="midnightblue" stroke="midnightblue" points="240.49,-124.37 237.07,-134.4 245.99,-128.69 240.49,-124.37"/>
</g>
<!-- Node8&#45;&gt;Node6 -->
<g id="edge13" class="edge">
<title>Node8&#45;&gt;Node6</title>
<path fill="none" stroke="midnightblue" d="M374.93,-193.89C366.1,-185.07 355.93,-174.68 347,-165 325.75,-141.97 302.25,-114.07 288.6,-97.61"/>
<polygon fill="midnightblue" stroke="midnightblue" points="372.72,-196.62 382.28,-201.18 377.65,-191.65 372.72,-196.62"/>
</g>
<!-- Node9 -->
<g id="node9" class="node">
<title>Node9</title>
<g id="a_node9"><a xlink:href="_presence_sensing_8h.html" target="_top" xlink:title="API for Presence Sensing algorithm.">
<polygon fill="white" stroke="black" points="356.5,-134.5 356.5,-164.5 503.5,-164.5 503.5,-134.5 356.5,-134.5"/>
<text text-anchor="start" x="364.5" y="-152.5" font-family="Helvetica,sans-Serif" font-size="10.00">/home/build/sdk/c/ifxRadar</text>
<text text-anchor="middle" x="430" y="-141.5" font-family="Helvetica,sans-Serif" font-size="10.00">/PresenceSensing.h</text>
</a>
</g>
</g>
<!-- Node8&#45;&gt;Node9 -->
<g id="edge11" class="edge">
<title>Node8&#45;&gt;Node9</title>
<path fill="none" stroke="midnightblue" d="M408.79,-192.28C413.49,-183.02 418.75,-172.66 422.85,-164.58"/>
<polygon fill="midnightblue" stroke="midnightblue" points="405.57,-190.89 404.16,-201.4 411.81,-194.06 405.57,-190.89"/>
</g>
<!-- Node9&#45;&gt;Node6 -->
<g id="edge12" class="edge">
<title>Node9&#45;&gt;Node6</title>
<path fill="none" stroke="midnightblue" d="M387.41,-130.41C362.98,-120.03 332.78,-107.2 310.13,-97.58"/>
<polygon fill="midnightblue" stroke="midnightblue" points="386.23,-133.71 396.8,-134.4 388.97,-127.26 386.23,-133.71"/>
</g>
<!-- Node10&#45;&gt;Node6 -->
<g id="edge15" class="edge">
<title>Node10&#45;&gt;Node6</title>
<path fill="none" stroke="midnightblue" d="M475.8,-260.72C502.82,-229.74 543.07,-172.45 512,-134 491.94,-109.17 411.92,-95.98 350.77,-89.39"/>
<polygon fill="midnightblue" stroke="midnightblue" points="473.01,-258.58 468.93,-268.36 478.22,-263.26 473.01,-258.58"/>
</g>
</g>
</svg>
