<?xml version="1.0" encoding="UTF-8" standalone="no"?>
<!DOCTYPE svg PUBLIC "-//W3C//DTD SVG 1.1//EN"
 "http://www.w3.org/Graphics/SVG/1.1/DTD/svg11.dtd">
<!-- Generated by graphviz version 2.43.0 (0)
 -->
<!-- Title: /home/build/sdk/c/ifxDevice/Frame.h Pages: 1 -->
<svg width="764pt" height="307pt"
 viewBox="0.00 0.00 764.00 307.00" xmlns="http://www.w3.org/2000/svg" xmlns:xlink="http://www.w3.org/1999/xlink">
<g id="graph0" class="graph" transform="scale(1 1) rotate(0) translate(4 303)">
<title>/home/build/sdk/c/ifxDevice/Frame.h</title>
<polygon fill="white" stroke="transparent" points="-4,4 -4,-303 760,-303 760,4 -4,4"/>
<!-- Node1 -->
<g id="node1" class="node">
<title>Node1</title>
<g id="a_node1"><a xlink:title="API for Measurement Frame handling.">
<polygon fill="#bfbfbf" stroke="black" points="0,-268.5 0,-298.5 152,-298.5 152,-268.5 0,-268.5"/>
<text text-anchor="start" x="8" y="-286.5" font-family="Helvetica,sans-Serif" font-size="10.00">/home/build/sdk/c/ifxDevice</text>
<text text-anchor="middle" x="76" y="-275.5" font-family="Helvetica,sans-Serif" font-size="10.00">/Frame.h</text>
</a>
</g>
</g>
<!-- Node2 -->
<g id="node2" class="node">
<title>Node2</title>
<g id="a_node2"><a xlink:href="_device_8h.html" target="_top" xlink:title=" ">
<polygon fill="white" stroke="black" points="97,-67.5 97,-97.5 249,-97.5 249,-67.5 97,-67.5"/>
<text text-anchor="start" x="105" y="-85.5" font-family="Helvetica,sans-Serif" font-size="10.00">/home/build/sdk/c/ifxDevice</text>
<text text-anchor="middle" x="173" y="-74.5" font-family="Helvetica,sans-Serif" font-size="10.00">/Device.h</text>
</a>
</g>
</g>
<!-- Node1&#45;&gt;Node2 -->
<g id="edge1" class="edge">
<title>Node1&#45;&gt;Node2</title>
<path fill="none" stroke="midnightblue" d="M63.21,-259.24C47.98,-228.07 27.6,-172.24 53,-134 64.63,-116.49 83.65,-105.04 103.15,-97.55"/>
<polygon fill="midnightblue" stroke="midnightblue" points="60.25,-261.13 67.91,-268.44 66.48,-257.94 60.25,-261.13"/>
</g>
<!-- Node4 -->
<g id="node4" class="node">
<title>Node4</title>
<g id="a_node4"><a xlink:href="_device_control_8h.html" target="_top" xlink:title="API for Radar device control operations.">
<polygon fill="white" stroke="black" points="156,-201.5 156,-231.5 308,-231.5 308,-201.5 156,-201.5"/>
<text text-anchor="start" x="164" y="-219.5" font-family="Helvetica,sans-Serif" font-size="10.00">/home/build/sdk/c/ifxDevice</text>
<text text-anchor="middle" x="232" y="-208.5" font-family="Helvetica,sans-Serif" font-size="10.00">/DeviceControl.h</text>
</a>
</g>
</g>
<!-- Node1&#45;&gt;Node4 -->
<g id="edge3" class="edge">
<title>Node1&#45;&gt;Node4</title>
<path fill="none" stroke="midnightblue" d="M119.09,-264.54C144.06,-254.14 175.03,-241.24 198.22,-231.58"/>
<polygon fill="midnightblue" stroke="midnightblue" points="117.73,-261.32 109.85,-268.4 120.43,-267.78 117.73,-261.32"/>
</g>
<!-- Node3 -->
<g id="node3" class="node">
<title>Node3</title>
<g id="a_node3"><a xlink:href="_s_d_k_8h.html" target="_top" xlink:title="Master header file for Radar SDK.">
<polygon fill="white" stroke="black" points="396.5,-0.5 396.5,-30.5 543.5,-30.5 543.5,-0.5 396.5,-0.5"/>
<text text-anchor="start" x="404.5" y="-18.5" font-family="Helvetica,sans-Serif" font-size="10.00">/home/build/sdk/c/ifxRadar</text>
<text text-anchor="middle" x="470" y="-7.5" font-family="Helvetica,sans-Serif" font-size="10.00">/SDK.h</text>
</a>
</g>
</g>
<!-- Node2&#45;&gt;Node3 -->
<g id="edge2" class="edge">
<title>Node2&#45;&gt;Node3</title>
<path fill="none" stroke="midnightblue" d="M246.95,-65.32C295.76,-54.63 359.08,-40.77 405.78,-30.55"/>
<polygon fill="midnightblue" stroke="midnightblue" points="246.1,-61.92 237.08,-67.48 247.6,-68.76 246.1,-61.92"/>
</g>
<!-- Node4&#45;&gt;Node2 -->
<g id="edge5" class="edge">
<title>Node4&#45;&gt;Node2</title>
<path fill="none" stroke="midnightblue" d="M146.06,-199.88C109.52,-191.33 72.82,-179.5 62,-165 39.77,-135.2 85.5,-111.54 124.83,-97.54"/>
<polygon fill="midnightblue" stroke="midnightblue" points="145.31,-203.3 155.84,-202.09 146.86,-196.47 145.31,-203.3"/>
</g>
<!-- Node5 -->
<g id="node5" class="node">
<title>Node5</title>
<g id="a_node5"><a xlink:href="_constant_wave_control_8h.html" target="_top" xlink:title="Header for Constant Wave Control. It provides APIs to use an Avian device in constant wave mode....">
<polygon fill="white" stroke="black" points="71,-134.5 71,-164.5 223,-164.5 223,-134.5 71,-134.5"/>
<text text-anchor="start" x="79" y="-152.5" font-family="Helvetica,sans-Serif" font-size="10.00">/home/build/sdk/c/ifxDevice</text>
<text text-anchor="middle" x="147" y="-141.5" font-family="Helvetica,sans-Serif" font-size="10.00">/ConstantWaveControl.h</text>
</a>
</g>
</g>
<!-- Node4&#45;&gt;Node5 -->
<g id="edge4" class="edge">
<title>Node4&#45;&gt;Node5</title>
<path fill="none" stroke="midnightblue" d="M205.41,-195.17C192.41,-185.23 177.1,-173.51 165.41,-164.58"/>
<polygon fill="midnightblue" stroke="midnightblue" points="203.49,-198.1 213.56,-201.4 207.74,-192.54 203.49,-198.1"/>
</g>
<!-- Node6 -->
<g id="node6" class="node">
<title>Node6</title>
<g id="a_node6"><a xlink:href="_shapes_8h.html" target="_top" xlink:title=" ">
<polygon fill="white" stroke="black" points="241,-134.5 241,-164.5 393,-164.5 393,-134.5 241,-134.5"/>
<text text-anchor="start" x="249" y="-152.5" font-family="Helvetica,sans-Serif" font-size="10.00">/home/build/sdk/c/ifxDevice</text>
<text text-anchor="middle" x="317" y="-141.5" font-family="Helvetica,sans-Serif" font-size="10.00">/Shapes.h</text>
</a>
</g>
</g>
<!-- Node4&#45;&gt;Node6 -->
<g id="edge6" class="edge">
<title>Node4&#45;&gt;Node6</title>
<path fill="none" stroke="midnightblue" d="M258.59,-195.17C271.59,-185.23 286.9,-173.51 298.59,-164.58"/>
<polygon fill="midnightblue" stroke="midnightblue" points="256.26,-192.54 250.44,-201.4 260.51,-198.1 256.26,-192.54"/>
</g>
<!-- Node7 -->
<g id="node7" class="node">
<title>Node7</title>
<g id="a_node7"><a xlink:href="_presence_sensing_8h.html" target="_top" xlink:title="API for Presence Sensing algorithm.">
<polygon fill="white" stroke="black" points="411.5,-134.5 411.5,-164.5 558.5,-164.5 558.5,-134.5 411.5,-134.5"/>
<text text-anchor="start" x="419.5" y="-152.5" font-family="Helvetica,sans-Serif" font-size="10.00">/home/build/sdk/c/ifxRadar</text>
<text text-anchor="middle" x="485" y="-141.5" font-family="Helvetica,sans-Serif" font-size="10.00">/PresenceSensing.h</text>
</a>
</g>
</g>
<!-- Node4&#45;&gt;Node7 -->
<g id="edge8" class="edge">
<title>Node4&#45;&gt;Node7</title>
<path fill="none" stroke="midnightblue" d="M296.28,-198.98C337.61,-188.37 390.73,-174.72 430.08,-164.61"/>
<polygon fill="midnightblue" stroke="midnightblue" points="295.4,-195.6 286.59,-201.48 297.14,-202.38 295.4,-195.6"/>
</g>
<!-- Node9 -->
<g id="node9" class="node">
<title>Node9</title>
<g id="a_node9"><a xlink:href="_segmentation_8h.html" target="_top" xlink:title="API for Segmentation algorithm.">
<polygon fill="white" stroke="black" points="576.5,-134.5 576.5,-164.5 741.5,-164.5 741.5,-134.5 576.5,-134.5"/>
<text text-anchor="start" x="584.5" y="-152.5" font-family="Helvetica,sans-Serif" font-size="10.00">/home/build/sdk/c/ifxRadar</text>
<text text-anchor="middle" x="659" y="-141.5" font-family="Helvetica,sans-Serif" font-size="10.00">Segmentation/Segmentation.h</text>
</a>
</g>
</g>
<!-- Node4&#45;&gt;Node9 -->
<g id="edge11" class="edge">
<title>Node4&#45;&gt;Node9</title>
<path fill="none" stroke="midnightblue" d="M318.38,-202.64C386.05,-192.53 482.54,-178.02 567,-165 570.04,-164.53 573.13,-164.05 576.25,-163.57"/>
<polygon fill="midnightblue" stroke="midnightblue" points="317.57,-199.22 308.19,-204.16 318.6,-206.15 317.57,-199.22"/>
</g>
<!-- Node6&#45;&gt;Node2 -->
<g id="edge7" class="edge">
<title>Node6&#45;&gt;Node2</title>
<path fill="none" stroke="midnightblue" d="M276.61,-130.27C253.68,-119.92 225.4,-107.15 204.18,-97.58"/>
<polygon fill="midnightblue" stroke="midnightblue" points="275.2,-133.47 285.75,-134.4 278.08,-127.09 275.2,-133.47"/>
</g>
<!-- Node8 -->
<g id="node8" class="node">
<title>Node8</title>
<g id="a_node8"><a xlink:href="_radar_8h.html" target="_top" xlink:title="Header for ifxRadar.">
<polygon fill="white" stroke="black" points="396.5,-67.5 396.5,-97.5 543.5,-97.5 543.5,-67.5 396.5,-67.5"/>
<text text-anchor="start" x="404.5" y="-85.5" font-family="Helvetica,sans-Serif" font-size="10.00">/home/build/sdk/c/ifxRadar</text>
<text text-anchor="middle" x="470" y="-74.5" font-family="Helvetica,sans-Serif" font-size="10.00">/Radar.h</text>
</a>
</g>
</g>
<!-- Node7&#45;&gt;Node8 -->
<g id="edge9" class="edge">
<title>Node7&#45;&gt;Node8</title>
<path fill="none" stroke="midnightblue" d="M479.44,-124.4C477.35,-115.37 475.06,-105.41 473.25,-97.58"/>
<polygon fill="midnightblue" stroke="midnightblue" points="476.09,-125.44 481.75,-134.4 482.91,-123.87 476.09,-125.44"/>
</g>
<!-- Node8&#45;&gt;Node3 -->
<g id="edge10" class="edge">
<title>Node8&#45;&gt;Node3</title>
<path fill="none" stroke="midnightblue" d="M470,-57.11C470,-48.15 470,-38.32 470,-30.58"/>
<polygon fill="midnightblue" stroke="midnightblue" points="466.5,-57.4 470,-67.4 473.5,-57.4 466.5,-57.4"/>
</g>
<!-- Node10 -->
<g id="node10" class="node">
<title>Node10</title>
<g id="a_node10"><a xlink:href="_radar_segmentation_8h.html" target="_top" xlink:title="Header for ifxRadarSegmentation.">
<polygon fill="white" stroke="black" points="562,-67.5 562,-97.5 756,-97.5 756,-67.5 562,-67.5"/>
<text text-anchor="start" x="570" y="-85.5" font-family="Helvetica,sans-Serif" font-size="10.00">/home/build/sdk/c/ifxRadar</text>
<text text-anchor="middle" x="659" y="-74.5" font-family="Helvetica,sans-Serif" font-size="10.00">Segmentation/RadarSegmentation.h</text>
</a>
</g>
</g>
<!-- Node9&#45;&gt;Node10 -->
<g id="edge12" class="edge">
<title>Node9&#45;&gt;Node10</title>
<path fill="none" stroke="midnightblue" d="M659,-124.11C659,-115.15 659,-105.32 659,-97.58"/>
<polygon fill="midnightblue" stroke="midnightblue" points="655.5,-124.4 659,-134.4 662.5,-124.4 655.5,-124.4"/>
</g>
<!-- Node10&#45;&gt;Node3 -->
<g id="edge13" class="edge">
<title>Node10&#45;&gt;Node3</title>
<path fill="none" stroke="midnightblue" d="M608.38,-64.09C577.87,-53.6 539.52,-40.41 510.93,-30.58"/>
<polygon fill="midnightblue" stroke="midnightblue" points="607.4,-67.45 617.99,-67.4 609.67,-60.83 607.4,-67.45"/>
</g>
</g>
</svg>
