<?xml version="1.0" encoding="UTF-8" standalone="no"?>
<!DOCTYPE svg PUBLIC "-//W3C//DTD SVG 1.1//EN"
 "http://www.w3.org/Graphics/SVG/1.1/DTD/svg11.dtd">
<!-- Generated by graphviz version 2.43.0 (0)
 -->
<!-- Title: /home/build/sdk/c/ifxDevice/Frame.h Pages: 1 -->
<svg width="260pt" height="263pt"
 viewBox="0.00 0.00 259.50 263.00" xmlns="http://www.w3.org/2000/svg" xmlns:xlink="http://www.w3.org/1999/xlink">
<g id="graph0" class="graph" transform="scale(1 1) rotate(0) translate(4 259)">
<title>/home/build/sdk/c/ifxDevice/Frame.h</title>
<polygon fill="white" stroke="transparent" points="-4,4 -4,-259 255.5,-259 255.5,4 -4,4"/>
<!-- Node1 -->
<g id="node1" class="node">
<title>Node1</title>
<g id="a_node1"><a xlink:title="API for Measurement Frame handling.">
<polygon fill="#bfbfbf" stroke="black" points="14,-224.5 14,-254.5 166,-254.5 166,-224.5 14,-224.5"/>
<text text-anchor="start" x="22" y="-242.5" font-family="Helvetica,sans-Serif" font-size="10.00">/home/build/sdk/c/ifxDevice</text>
<text text-anchor="middle" x="90" y="-231.5" font-family="Helvetica,sans-Serif" font-size="10.00">/Frame.h</text>
</a>
</g>
</g>
<!-- Node2 -->
<g id="node2" class="node">
<title>Node2</title>
<g id="a_node2"><a xlink:title=" ">
<polygon fill="white" stroke="#bfbfbf" points="0,-168.5 0,-187.5 62,-187.5 62,-168.5 0,-168.5"/>
<text text-anchor="middle" x="31" y="-175.5" font-family="Helvetica,sans-Serif" font-size="10.00">stdbool.h</text>
</a>
</g>
</g>
<!-- Node1&#45;&gt;Node2 -->
<g id="edge1" class="edge">
<title>Node1&#45;&gt;Node2</title>
<path fill="none" stroke="midnightblue" d="M76.02,-224.4C67.27,-215.58 55.97,-204.18 46.88,-195.02"/>
<polygon fill="midnightblue" stroke="midnightblue" points="49.11,-192.29 39.59,-187.66 44.14,-197.22 49.11,-192.29"/>
</g>
<!-- Node3 -->
<g id="node3" class="node">
<title>Node3</title>
<g id="a_node3"><a xlink:href="_types_8h.html" target="_top" xlink:title="Definitions of data types used within the SDK.">
<polygon fill="white" stroke="black" points="81.5,-56.5 81.5,-75.5 174.5,-75.5 174.5,-56.5 81.5,-56.5"/>
<text text-anchor="middle" x="128" y="-63.5" font-family="Helvetica,sans-Serif" font-size="10.00">ifxBase/Types.h</text>
</a>
</g>
</g>
<!-- Node1&#45;&gt;Node3 -->
<g id="edge2" class="edge">
<title>Node1&#45;&gt;Node3</title>
<path fill="none" stroke="midnightblue" d="M93.11,-224.47C99.93,-193.7 116.18,-120.33 123.86,-85.7"/>
<polygon fill="midnightblue" stroke="midnightblue" points="127.36,-86.08 126.1,-75.56 120.52,-84.57 127.36,-86.08"/>
</g>
<!-- Node6 -->
<g id="node6" class="node">
<title>Node6</title>
<g id="a_node6"><a xlink:href="_matrix_8h.html" target="_top" xlink:title="API for operations on Matrix data structures.">
<polygon fill="white" stroke="black" points="118.5,-168.5 118.5,-187.5 215.5,-187.5 215.5,-168.5 118.5,-168.5"/>
<text text-anchor="middle" x="167" y="-175.5" font-family="Helvetica,sans-Serif" font-size="10.00">ifxBase/Matrix.h</text>
</a>
</g>
</g>
<!-- Node1&#45;&gt;Node6 -->
<g id="edge5" class="edge">
<title>Node1&#45;&gt;Node6</title>
<path fill="none" stroke="midnightblue" d="M108.25,-224.4C120.13,-215.22 135.61,-203.26 147.69,-193.92"/>
<polygon fill="midnightblue" stroke="midnightblue" points="150.02,-196.54 155.8,-187.66 145.74,-191 150.02,-196.54"/>
</g>
<!-- Node4 -->
<g id="node4" class="node">
<title>Node4</title>
<g id="a_node4"><a xlink:title=" ">
<polygon fill="white" stroke="#bfbfbf" points="64,-0.5 64,-19.5 120,-19.5 120,-0.5 64,-0.5"/>
<text text-anchor="middle" x="92" y="-7.5" font-family="Helvetica,sans-Serif" font-size="10.00">stddef.h</text>
</a>
</g>
</g>
<!-- Node3&#45;&gt;Node4 -->
<g id="edge3" class="edge">
<title>Node3&#45;&gt;Node4</title>
<path fill="none" stroke="midnightblue" d="M122.06,-56.08C117.02,-48.53 109.66,-37.49 103.49,-28.23"/>
<polygon fill="midnightblue" stroke="midnightblue" points="106.29,-26.13 97.83,-19.75 100.47,-30.01 106.29,-26.13"/>
</g>
<!-- Node5 -->
<g id="node5" class="node">
<title>Node5</title>
<g id="a_node5"><a xlink:title=" ">
<polygon fill="white" stroke="#bfbfbf" points="138.5,-0.5 138.5,-19.5 191.5,-19.5 191.5,-0.5 138.5,-0.5"/>
<text text-anchor="middle" x="165" y="-7.5" font-family="Helvetica,sans-Serif" font-size="10.00">stdint.h</text>
</a>
</g>
</g>
<!-- Node3&#45;&gt;Node5 -->
<g id="edge4" class="edge">
<title>Node3&#45;&gt;Node5</title>
<path fill="none" stroke="midnightblue" d="M134.11,-56.08C139.28,-48.53 146.85,-37.49 153.19,-28.23"/>
<polygon fill="midnightblue" stroke="midnightblue" points="156.24,-29.98 159,-19.75 150.46,-26.02 156.24,-29.98"/>
</g>
<!-- Node6&#45;&gt;Node3 -->
<g id="edge6" class="edge">
<title>Node6&#45;&gt;Node3</title>
<path fill="none" stroke="midnightblue" d="M162.66,-168.18C158.34,-159.21 151.71,-144.84 147,-132 141.31,-116.48 136.14,-98.39 132.63,-85.25"/>
<polygon fill="midnightblue" stroke="midnightblue" points="136.01,-84.33 130.1,-75.53 129.23,-86.09 136.01,-84.33"/>
</g>
<!-- Node7 -->
<g id="node7" class="node">
<title>Node7</title>
<g id="a_node7"><a xlink:href="_vector_8h.html" target="_top" xlink:title="API for operations on Vector data structures.">
<polygon fill="white" stroke="black" points="156.5,-112.5 156.5,-131.5 251.5,-131.5 251.5,-112.5 156.5,-112.5"/>
<text text-anchor="middle" x="204" y="-119.5" font-family="Helvetica,sans-Serif" font-size="10.00">ifxBase/Vector.h</text>
</a>
</g>
</g>
<!-- Node6&#45;&gt;Node7 -->
<g id="edge7" class="edge">
<title>Node6&#45;&gt;Node7</title>
<path fill="none" stroke="midnightblue" d="M173.11,-168.08C178.28,-160.53 185.85,-149.49 192.19,-140.23"/>
<polygon fill="midnightblue" stroke="midnightblue" points="195.24,-141.98 198,-131.75 189.46,-138.02 195.24,-141.98"/>
</g>
<!-- Node7&#45;&gt;Node3 -->
<g id="edge8" class="edge">
<title>Node7&#45;&gt;Node3</title>
<path fill="none" stroke="midnightblue" d="M191.79,-112.32C180.22,-104.11 162.62,-91.6 148.84,-81.81"/>
<polygon fill="midnightblue" stroke="midnightblue" points="150.61,-78.77 140.43,-75.83 146.56,-84.48 150.61,-78.77"/>
</g>
</g>
</svg>
