<?xml version="1.0" encoding="UTF-8" standalone="no"?>
<!DOCTYPE svg PUBLIC "-//W3C//DTD SVG 1.1//EN"
 "http://www.w3.org/Graphics/SVG/1.1/DTD/svg11.dtd">
<!-- Generated by graphviz version 2.43.0 (0)
 -->
<!-- Title: /home/build/sdk/c/ifxBase/LA.h Pages: 1 -->
<svg width="215pt" height="252pt"
 viewBox="0.00 0.00 215.00 252.00" xmlns="http://www.w3.org/2000/svg" xmlns:xlink="http://www.w3.org/1999/xlink">
<g id="graph0" class="graph" transform="scale(1 1) rotate(0) translate(4 248)">
<title>/home/build/sdk/c/ifxBase/LA.h</title>
<polygon fill="white" stroke="transparent" points="-4,4 -4,-248 211,-248 211,4 -4,4"/>
<!-- Node1 -->
<g id="node1" class="node">
<title>Node1</title>
<g id="a_node1"><a xlink:title="API for Linear Algebra (LA)">
<polygon fill="#bfbfbf" stroke="black" points="0,-224.5 0,-243.5 167,-243.5 167,-224.5 0,-224.5"/>
<text text-anchor="middle" x="83.5" y="-231.5" font-family="Helvetica,sans-Serif" font-size="10.00">/home/build/sdk/c/ifxBase/LA.h</text>
</a>
</g>
</g>
<!-- Node2 -->
<g id="node2" class="node">
<title>Node2</title>
<g id="a_node2"><a xlink:href="_types_8h.html" target="_top" xlink:title="Definitions of data types used within the SDK.">
<polygon fill="white" stroke="black" points="37,-56.5 37,-75.5 130,-75.5 130,-56.5 37,-56.5"/>
<text text-anchor="middle" x="83.5" y="-63.5" font-family="Helvetica,sans-Serif" font-size="10.00">ifxBase/Types.h</text>
</a>
</g>
</g>
<!-- Node1&#45;&gt;Node2 -->
<g id="edge1" class="edge">
<title>Node1&#45;&gt;Node2</title>
<path fill="none" stroke="midnightblue" d="M78.62,-224.37C73.94,-215.55 67.19,-201.3 64.5,-188 57.15,-151.67 68.61,-108.72 76.68,-85"/>
<polygon fill="midnightblue" stroke="midnightblue" points="79.99,-86.15 80.07,-75.55 73.4,-83.79 79.99,-86.15"/>
</g>
<!-- Node5 -->
<g id="node5" class="node">
<title>Node5</title>
<g id="a_node5"><a xlink:href="_matrix_8h.html" target="_top" xlink:title="API for operations on Matrix data structures.">
<polygon fill="white" stroke="black" points="74,-168.5 74,-187.5 171,-187.5 171,-168.5 74,-168.5"/>
<text text-anchor="middle" x="122.5" y="-175.5" font-family="Helvetica,sans-Serif" font-size="10.00">ifxBase/Matrix.h</text>
</a>
</g>
</g>
<!-- Node1&#45;&gt;Node5 -->
<g id="edge4" class="edge">
<title>Node1&#45;&gt;Node5</title>
<path fill="none" stroke="midnightblue" d="M89.94,-224.08C95.45,-216.46 103.53,-205.26 110.26,-195.94"/>
<polygon fill="midnightblue" stroke="midnightblue" points="113.16,-197.91 116.18,-187.75 107.49,-193.81 113.16,-197.91"/>
</g>
<!-- Node3 -->
<g id="node3" class="node">
<title>Node3</title>
<g id="a_node3"><a xlink:title=" ">
<polygon fill="white" stroke="#bfbfbf" points="19.5,-0.5 19.5,-19.5 75.5,-19.5 75.5,-0.5 19.5,-0.5"/>
<text text-anchor="middle" x="47.5" y="-7.5" font-family="Helvetica,sans-Serif" font-size="10.00">stddef.h</text>
</a>
</g>
</g>
<!-- Node2&#45;&gt;Node3 -->
<g id="edge2" class="edge">
<title>Node2&#45;&gt;Node3</title>
<path fill="none" stroke="midnightblue" d="M77.56,-56.08C72.52,-48.53 65.16,-37.49 58.99,-28.23"/>
<polygon fill="midnightblue" stroke="midnightblue" points="61.79,-26.13 53.33,-19.75 55.97,-30.01 61.79,-26.13"/>
</g>
<!-- Node4 -->
<g id="node4" class="node">
<title>Node4</title>
<g id="a_node4"><a xlink:title=" ">
<polygon fill="white" stroke="#bfbfbf" points="94,-0.5 94,-19.5 147,-19.5 147,-0.5 94,-0.5"/>
<text text-anchor="middle" x="120.5" y="-7.5" font-family="Helvetica,sans-Serif" font-size="10.00">stdint.h</text>
</a>
</g>
</g>
<!-- Node2&#45;&gt;Node4 -->
<g id="edge3" class="edge">
<title>Node2&#45;&gt;Node4</title>
<path fill="none" stroke="midnightblue" d="M89.61,-56.08C94.78,-48.53 102.35,-37.49 108.69,-28.23"/>
<polygon fill="midnightblue" stroke="midnightblue" points="111.74,-29.98 114.5,-19.75 105.96,-26.02 111.74,-29.98"/>
</g>
<!-- Node5&#45;&gt;Node2 -->
<g id="edge5" class="edge">
<title>Node5&#45;&gt;Node2</title>
<path fill="none" stroke="midnightblue" d="M118.16,-168.18C113.84,-159.21 107.21,-144.84 102.5,-132 96.81,-116.48 91.64,-98.39 88.13,-85.25"/>
<polygon fill="midnightblue" stroke="midnightblue" points="91.51,-84.33 85.6,-75.53 84.73,-86.09 91.51,-84.33"/>
</g>
<!-- Node6 -->
<g id="node6" class="node">
<title>Node6</title>
<g id="a_node6"><a xlink:href="_vector_8h.html" target="_top" xlink:title="API for operations on Vector data structures.">
<polygon fill="white" stroke="black" points="112,-112.5 112,-131.5 207,-131.5 207,-112.5 112,-112.5"/>
<text text-anchor="middle" x="159.5" y="-119.5" font-family="Helvetica,sans-Serif" font-size="10.00">ifxBase/Vector.h</text>
</a>
</g>
</g>
<!-- Node5&#45;&gt;Node6 -->
<g id="edge6" class="edge">
<title>Node5&#45;&gt;Node6</title>
<path fill="none" stroke="midnightblue" d="M128.61,-168.08C133.78,-160.53 141.35,-149.49 147.69,-140.23"/>
<polygon fill="midnightblue" stroke="midnightblue" points="150.74,-141.98 153.5,-131.75 144.96,-138.02 150.74,-141.98"/>
</g>
<!-- Node6&#45;&gt;Node2 -->
<g id="edge7" class="edge">
<title>Node6&#45;&gt;Node2</title>
<path fill="none" stroke="midnightblue" d="M147.29,-112.32C135.72,-104.11 118.12,-91.6 104.34,-81.81"/>
<polygon fill="midnightblue" stroke="midnightblue" points="106.11,-78.77 95.93,-75.83 102.06,-84.48 106.11,-78.77"/>
</g>
</g>
</svg>
