<?xml version="1.0" encoding="UTF-8" standalone="no"?>
<!DOCTYPE svg PUBLIC "-//W3C//DTD SVG 1.1//EN"
 "http://www.w3.org/Graphics/SVG/1.1/DTD/svg11.dtd">
<!-- Generated by graphviz version 2.43.0 (0)
 -->
<!-- Title: /home/build/sdk/c/ifxBase/Log.h Pages: 1 -->
<svg width="758pt" height="374pt"
 viewBox="0.00 0.00 757.50 374.00" xmlns="http://www.w3.org/2000/svg" xmlns:xlink="http://www.w3.org/1999/xlink">
<g id="graph0" class="graph" transform="scale(1 1) rotate(0) translate(4 370)">
<title>/home/build/sdk/c/ifxBase/Log.h</title>
<polygon fill="white" stroke="transparent" points="-4,4 -4,-370 753.5,-370 753.5,4 -4,4"/>
<!-- Node1 -->
<g id="node1" class="node">
<title>Node1</title>
<g id="a_node1"><a xlink:title="API for logging.">
<polygon fill="#bfbfbf" stroke="black" points="50,-335.5 50,-365.5 193,-365.5 193,-335.5 50,-335.5"/>
<text text-anchor="start" x="58" y="-353.5" font-family="Helvetica,sans-Serif" font-size="10.00">/home/build/sdk/c/ifxBase</text>
<text text-anchor="middle" x="121.5" y="-342.5" font-family="Helvetica,sans-Serif" font-size="10.00">/Log.h</text>
</a>
</g>
</g>
<!-- Node2 -->
<g id="node2" class="node">
<title>Node2</title>
<g id="a_node2"><a xlink:href="_base_8h.html" target="_top" xlink:title="Header for ifxBase.">
<polygon fill="white" stroke="black" points="0,-201.5 0,-231.5 143,-231.5 143,-201.5 0,-201.5"/>
<text text-anchor="start" x="8" y="-219.5" font-family="Helvetica,sans-Serif" font-size="10.00">/home/build/sdk/c/ifxBase</text>
<text text-anchor="middle" x="71.5" y="-208.5" font-family="Helvetica,sans-Serif" font-size="10.00">/Base.h</text>
</a>
</g>
</g>
<!-- Node1&#45;&gt;Node2 -->
<g id="edge1" class="edge">
<title>Node1&#45;&gt;Node2</title>
<path fill="none" stroke="midnightblue" d="M105.94,-326.58C100.77,-318.18 95.36,-308.43 91.5,-299 82.23,-276.35 76.51,-248.33 73.68,-231.74"/>
<polygon fill="midnightblue" stroke="midnightblue" points="103.03,-328.53 111.37,-335.08 108.93,-324.76 103.03,-328.53"/>
</g>
<!-- Node4 -->
<g id="node4" class="node">
<title>Node4</title>
<g id="a_node4"><a xlink:href="_error_8h.html" target="_top" xlink:title="API for error handling.">
<polygon fill="white" stroke="black" points="100,-268.5 100,-298.5 243,-298.5 243,-268.5 100,-268.5"/>
<text text-anchor="start" x="108" y="-286.5" font-family="Helvetica,sans-Serif" font-size="10.00">/home/build/sdk/c/ifxBase</text>
<text text-anchor="middle" x="171.5" y="-275.5" font-family="Helvetica,sans-Serif" font-size="10.00">/Error.h</text>
</a>
</g>
</g>
<!-- Node1&#45;&gt;Node4 -->
<g id="edge3" class="edge">
<title>Node1&#45;&gt;Node4</title>
<path fill="none" stroke="midnightblue" d="M138.46,-327.45C145.81,-317.9 154.19,-307 160.67,-298.58"/>
<polygon fill="midnightblue" stroke="midnightblue" points="135.67,-325.34 132.35,-335.4 141.22,-329.6 135.67,-325.34"/>
</g>
<!-- Node3 -->
<g id="node3" class="node">
<title>Node3</title>
<g id="a_node3"><a xlink:href="_s_d_k_8h.html" target="_top" xlink:title="Master header file for Radar SDK.">
<polygon fill="white" stroke="black" points="306,-0.5 306,-30.5 453,-30.5 453,-0.5 306,-0.5"/>
<text text-anchor="start" x="314" y="-18.5" font-family="Helvetica,sans-Serif" font-size="10.00">/home/build/sdk/c/ifxRadar</text>
<text text-anchor="middle" x="379.5" y="-7.5" font-family="Helvetica,sans-Serif" font-size="10.00">/SDK.h</text>
</a>
</g>
</g>
<!-- Node2&#45;&gt;Node3 -->
<g id="edge2" class="edge">
<title>Node2&#45;&gt;Node3</title>
<path fill="none" stroke="midnightblue" d="M42.86,-195.04C23.17,-178.4 2.97,-154.42 17.5,-134 51.25,-86.55 210.12,-48.74 305.82,-29.79"/>
<polygon fill="midnightblue" stroke="midnightblue" points="40.89,-197.94 50.88,-201.47 45.27,-192.48 40.89,-197.94"/>
</g>
<!-- Node4&#45;&gt;Node2 -->
<g id="edge4" class="edge">
<title>Node4&#45;&gt;Node2</title>
<path fill="none" stroke="midnightblue" d="M141.09,-262.73C125.62,-252.68 107.17,-240.68 93.16,-231.58"/>
<polygon fill="midnightblue" stroke="midnightblue" points="139.51,-265.88 149.8,-268.4 143.32,-260.01 139.51,-265.88"/>
</g>
<!-- Node5 -->
<g id="node5" class="node">
<title>Node5</title>
<g id="a_node5"><a xlink:href="_device_control_8h.html" target="_top" xlink:title="API for Radar device control operations.">
<polygon fill="white" stroke="black" points="182.5,-201.5 182.5,-231.5 334.5,-231.5 334.5,-201.5 182.5,-201.5"/>
<text text-anchor="start" x="190.5" y="-219.5" font-family="Helvetica,sans-Serif" font-size="10.00">/home/build/sdk/c/ifxDevice</text>
<text text-anchor="middle" x="258.5" y="-208.5" font-family="Helvetica,sans-Serif" font-size="10.00">/DeviceControl.h</text>
</a>
</g>
</g>
<!-- Node4&#45;&gt;Node5 -->
<g id="edge5" class="edge">
<title>Node4&#45;&gt;Node5</title>
<path fill="none" stroke="midnightblue" d="M198.71,-262.17C212.02,-252.23 227.7,-240.51 239.66,-231.58"/>
<polygon fill="midnightblue" stroke="midnightblue" points="196.29,-259.61 190.38,-268.4 200.48,-265.21 196.29,-259.61"/>
</g>
<!-- Node6 -->
<g id="node6" class="node">
<title>Node6</title>
<g id="a_node6"><a xlink:href="_constant_wave_control_8h.html" target="_top" xlink:title="Header for Constant Wave Control. It provides APIs to use an Avian device in constant wave mode....">
<polygon fill="white" stroke="black" points="26.5,-134.5 26.5,-164.5 178.5,-164.5 178.5,-134.5 26.5,-134.5"/>
<text text-anchor="start" x="34.5" y="-152.5" font-family="Helvetica,sans-Serif" font-size="10.00">/home/build/sdk/c/ifxDevice</text>
<text text-anchor="middle" x="102.5" y="-141.5" font-family="Helvetica,sans-Serif" font-size="10.00">/ConstantWaveControl.h</text>
</a>
</g>
</g>
<!-- Node5&#45;&gt;Node6 -->
<g id="edge6" class="edge">
<title>Node5&#45;&gt;Node6</title>
<path fill="none" stroke="midnightblue" d="M215.41,-197.54C190.44,-187.14 159.47,-174.24 136.28,-164.58"/>
<polygon fill="midnightblue" stroke="midnightblue" points="214.07,-200.78 224.65,-201.4 216.77,-194.32 214.07,-200.78"/>
</g>
<!-- Node7 -->
<g id="node7" class="node">
<title>Node7</title>
<g id="a_node7"><a xlink:href="_device_8h.html" target="_top" xlink:title=" ">
<polygon fill="white" stroke="black" points="219.5,-67.5 219.5,-97.5 371.5,-97.5 371.5,-67.5 219.5,-67.5"/>
<text text-anchor="start" x="227.5" y="-85.5" font-family="Helvetica,sans-Serif" font-size="10.00">/home/build/sdk/c/ifxDevice</text>
<text text-anchor="middle" x="295.5" y="-74.5" font-family="Helvetica,sans-Serif" font-size="10.00">/Device.h</text>
</a>
</g>
</g>
<!-- Node5&#45;&gt;Node7 -->
<g id="edge7" class="edge">
<title>Node5&#45;&gt;Node7</title>
<path fill="none" stroke="midnightblue" d="M239.09,-193.26C227.03,-176.61 215.55,-153.44 225.5,-134 233.69,-117.99 249.58,-105.89 264.16,-97.56"/>
<polygon fill="midnightblue" stroke="midnightblue" points="236.45,-195.56 245.34,-201.32 241.98,-191.28 236.45,-195.56"/>
</g>
<!-- Node8 -->
<g id="node8" class="node">
<title>Node8</title>
<g id="a_node8"><a xlink:href="_shapes_8h.html" target="_top" xlink:title=" ">
<polygon fill="white" stroke="black" points="234.5,-134.5 234.5,-164.5 386.5,-164.5 386.5,-134.5 234.5,-134.5"/>
<text text-anchor="start" x="242.5" y="-152.5" font-family="Helvetica,sans-Serif" font-size="10.00">/home/build/sdk/c/ifxDevice</text>
<text text-anchor="middle" x="310.5" y="-141.5" font-family="Helvetica,sans-Serif" font-size="10.00">/Shapes.h</text>
</a>
</g>
</g>
<!-- Node5&#45;&gt;Node8 -->
<g id="edge9" class="edge">
<title>Node5&#45;&gt;Node8</title>
<path fill="none" stroke="midnightblue" d="M276.14,-193.45C283.78,-183.9 292.5,-173 299.24,-164.58"/>
<polygon fill="midnightblue" stroke="midnightblue" points="273.3,-191.4 269.78,-201.4 278.76,-195.77 273.3,-191.4"/>
</g>
<!-- Node9 -->
<g id="node9" class="node">
<title>Node9</title>
<g id="a_node9"><a xlink:href="_presence_sensing_8h.html" target="_top" xlink:title="API for Presence Sensing algorithm.">
<polygon fill="white" stroke="black" points="405,-134.5 405,-164.5 552,-164.5 552,-134.5 405,-134.5"/>
<text text-anchor="start" x="413" y="-152.5" font-family="Helvetica,sans-Serif" font-size="10.00">/home/build/sdk/c/ifxRadar</text>
<text text-anchor="middle" x="478.5" y="-141.5" font-family="Helvetica,sans-Serif" font-size="10.00">/PresenceSensing.h</text>
</a>
</g>
</g>
<!-- Node5&#45;&gt;Node9 -->
<g id="edge11" class="edge">
<title>Node5&#45;&gt;Node9</title>
<path fill="none" stroke="midnightblue" d="M315.77,-198.58C351.5,-188.02 396.96,-174.59 430.74,-164.61"/>
<polygon fill="midnightblue" stroke="midnightblue" points="314.56,-195.29 305.97,-201.48 316.55,-202 314.56,-195.29"/>
</g>
<!-- Node11 -->
<g id="node11" class="node">
<title>Node11</title>
<g id="a_node11"><a xlink:href="_segmentation_8h.html" target="_top" xlink:title="API for Segmentation algorithm.">
<polygon fill="white" stroke="black" points="570,-134.5 570,-164.5 735,-164.5 735,-134.5 570,-134.5"/>
<text text-anchor="start" x="578" y="-152.5" font-family="Helvetica,sans-Serif" font-size="10.00">/home/build/sdk/c/ifxRadar</text>
<text text-anchor="middle" x="652.5" y="-141.5" font-family="Helvetica,sans-Serif" font-size="10.00">Segmentation/Segmentation.h</text>
</a>
</g>
</g>
<!-- Node5&#45;&gt;Node11 -->
<g id="edge14" class="edge">
<title>Node5&#45;&gt;Node11</title>
<path fill="none" stroke="midnightblue" d="M345.03,-201.22C411.92,-190.19 503.92,-175.01 569.82,-164.14"/>
<polygon fill="midnightblue" stroke="midnightblue" points="344.23,-197.81 334.93,-202.89 345.37,-204.72 344.23,-197.81"/>
</g>
<!-- Node7&#45;&gt;Node3 -->
<g id="edge8" class="edge">
<title>Node7&#45;&gt;Node3</title>
<path fill="none" stroke="midnightblue" d="M321.78,-61.17C334.62,-51.23 349.76,-39.51 361.31,-30.58"/>
<polygon fill="midnightblue" stroke="midnightblue" points="319.49,-58.51 313.73,-67.4 323.78,-64.04 319.49,-58.51"/>
</g>
<!-- Node8&#45;&gt;Node7 -->
<g id="edge10" class="edge">
<title>Node8&#45;&gt;Node7</title>
<path fill="none" stroke="midnightblue" d="M304.94,-124.4C302.85,-115.37 300.56,-105.41 298.75,-97.58"/>
<polygon fill="midnightblue" stroke="midnightblue" points="301.59,-125.44 307.25,-134.4 308.41,-123.87 301.59,-125.44"/>
</g>
<!-- Node10 -->
<g id="node10" class="node">
<title>Node10</title>
<g id="a_node10"><a xlink:href="_radar_8h.html" target="_top" xlink:title="Header for ifxRadar.">
<polygon fill="white" stroke="black" points="390,-67.5 390,-97.5 537,-97.5 537,-67.5 390,-67.5"/>
<text text-anchor="start" x="398" y="-85.5" font-family="Helvetica,sans-Serif" font-size="10.00">/home/build/sdk/c/ifxRadar</text>
<text text-anchor="middle" x="463.5" y="-74.5" font-family="Helvetica,sans-Serif" font-size="10.00">/Radar.h</text>
</a>
</g>
</g>
<!-- Node9&#45;&gt;Node10 -->
<g id="edge12" class="edge">
<title>Node9&#45;&gt;Node10</title>
<path fill="none" stroke="midnightblue" d="M472.94,-124.4C470.85,-115.37 468.56,-105.41 466.75,-97.58"/>
<polygon fill="midnightblue" stroke="midnightblue" points="469.59,-125.44 475.25,-134.4 476.41,-123.87 469.59,-125.44"/>
</g>
<!-- Node10&#45;&gt;Node3 -->
<g id="edge13" class="edge">
<title>Node10&#45;&gt;Node3</title>
<path fill="none" stroke="midnightblue" d="M437.22,-61.17C424.38,-51.23 409.24,-39.51 397.69,-30.58"/>
<polygon fill="midnightblue" stroke="midnightblue" points="435.22,-64.04 445.27,-67.4 439.51,-58.51 435.22,-64.04"/>
</g>
<!-- Node12 -->
<g id="node12" class="node">
<title>Node12</title>
<g id="a_node12"><a xlink:href="_radar_segmentation_8h.html" target="_top" xlink:title="Header for ifxRadarSegmentation.">
<polygon fill="white" stroke="black" points="555.5,-67.5 555.5,-97.5 749.5,-97.5 749.5,-67.5 555.5,-67.5"/>
<text text-anchor="start" x="563.5" y="-85.5" font-family="Helvetica,sans-Serif" font-size="10.00">/home/build/sdk/c/ifxRadar</text>
<text text-anchor="middle" x="652.5" y="-74.5" font-family="Helvetica,sans-Serif" font-size="10.00">Segmentation/RadarSegmentation.h</text>
</a>
</g>
</g>
<!-- Node11&#45;&gt;Node12 -->
<g id="edge15" class="edge">
<title>Node11&#45;&gt;Node12</title>
<path fill="none" stroke="midnightblue" d="M652.5,-124.11C652.5,-115.15 652.5,-105.32 652.5,-97.58"/>
<polygon fill="midnightblue" stroke="midnightblue" points="649,-124.4 652.5,-134.4 656,-124.4 649,-124.4"/>
</g>
<!-- Node12&#45;&gt;Node3 -->
<g id="edge16" class="edge">
<title>Node12&#45;&gt;Node3</title>
<path fill="none" stroke="midnightblue" d="M583.7,-65.12C539.03,-54.48 481.4,-40.76 438.77,-30.61"/>
<polygon fill="midnightblue" stroke="midnightblue" points="583.06,-68.56 593.6,-67.48 584.68,-61.75 583.06,-68.56"/>
</g>
</g>
</svg>
