<?xml version="1.0" encoding="UTF-8" standalone="no"?>
<!DOCTYPE svg PUBLIC "-//W3C//DTD SVG 1.1//EN"
 "http://www.w3.org/Graphics/SVG/1.1/DTD/svg11.dtd">
<!-- Generated by graphviz version 2.43.0 (0)
 -->
<!-- Title: /home/build/sdk/c/ifxBase/Matrix.h Pages: 1 -->
<svg width="165pt" height="207pt"
 viewBox="0.00 0.00 165.00 207.00" xmlns="http://www.w3.org/2000/svg" xmlns:xlink="http://www.w3.org/1999/xlink">
<g id="graph0" class="graph" transform="scale(1 1) rotate(0) translate(4 203)">
<title>/home/build/sdk/c/ifxBase/Matrix.h</title>
<polygon fill="white" stroke="transparent" points="-4,4 -4,-203 161,-203 161,4 -4,4"/>
<!-- Node1 -->
<g id="node1" class="node">
<title>Node1</title>
<g id="a_node1"><a xlink:title="API for operations on Matrix data structures.">
<polygon fill="#bfbfbf" stroke="black" points="0,-168.5 0,-198.5 143,-198.5 143,-168.5 0,-168.5"/>
<text text-anchor="start" x="8" y="-186.5" font-family="Helvetica,sans-Serif" font-size="10.00">/home/build/sdk/c/ifxBase</text>
<text text-anchor="middle" x="71.5" y="-175.5" font-family="Helvetica,sans-Serif" font-size="10.00">/Matrix.h</text>
</a>
</g>
</g>
<!-- Node2 -->
<g id="node2" class="node">
<title>Node2</title>
<g id="a_node2"><a xlink:href="_types_8h.html" target="_top" xlink:title="Definitions of data types used within the SDK.">
<polygon fill="white" stroke="black" points="25,-56.5 25,-75.5 118,-75.5 118,-56.5 25,-56.5"/>
<text text-anchor="middle" x="71.5" y="-63.5" font-family="Helvetica,sans-Serif" font-size="10.00">ifxBase/Types.h</text>
</a>
</g>
</g>
<!-- Node1&#45;&gt;Node2 -->
<g id="edge1" class="edge">
<title>Node1&#45;&gt;Node2</title>
<path fill="none" stroke="midnightblue" d="M63.66,-168.31C56.8,-154.17 48.5,-131.75 52.5,-112 54.39,-102.65 58.29,-92.83 62.07,-84.75"/>
<polygon fill="midnightblue" stroke="midnightblue" points="65.29,-86.14 66.62,-75.63 59.03,-83.01 65.29,-86.14"/>
</g>
<!-- Node5 -->
<g id="node5" class="node">
<title>Node5</title>
<g id="a_node5"><a xlink:href="_vector_8h.html" target="_top" xlink:title="API for operations on Vector data structures.">
<polygon fill="white" stroke="black" points="62,-112.5 62,-131.5 157,-131.5 157,-112.5 62,-112.5"/>
<text text-anchor="middle" x="109.5" y="-119.5" font-family="Helvetica,sans-Serif" font-size="10.00">ifxBase/Vector.h</text>
</a>
</g>
</g>
<!-- Node1&#45;&gt;Node5 -->
<g id="edge4" class="edge">
<title>Node1&#45;&gt;Node5</title>
<path fill="none" stroke="midnightblue" d="M80.51,-168.4C85.91,-159.93 92.83,-149.1 98.55,-140.14"/>
<polygon fill="midnightblue" stroke="midnightblue" points="101.54,-141.97 103.97,-131.66 95.64,-138.2 101.54,-141.97"/>
</g>
<!-- Node3 -->
<g id="node3" class="node">
<title>Node3</title>
<g id="a_node3"><a xlink:title=" ">
<polygon fill="white" stroke="#bfbfbf" points="7.5,-0.5 7.5,-19.5 63.5,-19.5 63.5,-0.5 7.5,-0.5"/>
<text text-anchor="middle" x="35.5" y="-7.5" font-family="Helvetica,sans-Serif" font-size="10.00">stddef.h</text>
</a>
</g>
</g>
<!-- Node2&#45;&gt;Node3 -->
<g id="edge2" class="edge">
<title>Node2&#45;&gt;Node3</title>
<path fill="none" stroke="midnightblue" d="M65.56,-56.08C60.52,-48.53 53.16,-37.49 46.99,-28.23"/>
<polygon fill="midnightblue" stroke="midnightblue" points="49.79,-26.13 41.33,-19.75 43.97,-30.01 49.79,-26.13"/>
</g>
<!-- Node4 -->
<g id="node4" class="node">
<title>Node4</title>
<g id="a_node4"><a xlink:title=" ">
<polygon fill="white" stroke="#bfbfbf" points="82,-0.5 82,-19.5 135,-19.5 135,-0.5 82,-0.5"/>
<text text-anchor="middle" x="108.5" y="-7.5" font-family="Helvetica,sans-Serif" font-size="10.00">stdint.h</text>
</a>
</g>
</g>
<!-- Node2&#45;&gt;Node4 -->
<g id="edge3" class="edge">
<title>Node2&#45;&gt;Node4</title>
<path fill="none" stroke="midnightblue" d="M77.61,-56.08C82.78,-48.53 90.35,-37.49 96.69,-28.23"/>
<polygon fill="midnightblue" stroke="midnightblue" points="99.74,-29.98 102.5,-19.75 93.96,-26.02 99.74,-29.98"/>
</g>
<!-- Node5&#45;&gt;Node2 -->
<g id="edge5" class="edge">
<title>Node5&#45;&gt;Node2</title>
<path fill="none" stroke="midnightblue" d="M103.23,-112.08C97.86,-104.46 89.98,-93.26 83.42,-83.94"/>
<polygon fill="midnightblue" stroke="midnightblue" points="86.28,-81.91 77.66,-75.75 80.55,-85.94 86.28,-81.91"/>
</g>
</g>
</svg>
