<?xml version="1.0" encoding="UTF-8" standalone="no"?>
<!DOCTYPE svg PUBLIC "-//W3C//DTD SVG 1.1//EN"
 "http://www.w3.org/Graphics/SVG/1.1/DTD/svg11.dtd">
<!-- Generated by graphviz version 2.43.0 (0)
 -->
<!-- Title: /home/build/sdk/c/ifxBase/Matrix.h Pages: 1 -->
<svg width="1715pt" height="374pt"
 viewBox="0.00 0.00 1715.42 374.00" xmlns="http://www.w3.org/2000/svg" xmlns:xlink="http://www.w3.org/1999/xlink">
<g id="graph0" class="graph" transform="scale(1 1) rotate(0) translate(4 370)">
<title>/home/build/sdk/c/ifxBase/Matrix.h</title>
<polygon fill="white" stroke="transparent" points="-4,4 -4,-370 1711.42,-370 1711.42,4 -4,4"/>
<!-- Node1 -->
<g id="node1" class="node">
<title>Node1</title>
<g id="a_node1"><a xlink:title="API for operations on Matrix data structures.">
<polygon fill="#bfbfbf" stroke="black" points="684.5,-335.5 684.5,-365.5 827.5,-365.5 827.5,-335.5 684.5,-335.5"/>
<text text-anchor="start" x="692.5" y="-353.5" font-family="Helvetica,sans-Serif" font-size="10.00">/home/build/sdk/c/ifxBase</text>
<text text-anchor="middle" x="756" y="-342.5" font-family="Helvetica,sans-Serif" font-size="10.00">/Matrix.h</text>
</a>
</g>
</g>
<!-- Node2 -->
<g id="node2" class="node">
<title>Node2</title>
<g id="a_node2"><a xlink:href="2_d_m_t_i_8h.html" target="_top" xlink:title="API for 2D Moving Target Indicator filter (2DMTI)">
<polygon fill="white" stroke="black" points="0,-268.5 0,-298.5 140,-298.5 140,-268.5 0,-268.5"/>
<text text-anchor="start" x="8" y="-286.5" font-family="Helvetica,sans-Serif" font-size="10.00">/home/build/sdk/c/ifxAlgo</text>
<text text-anchor="middle" x="70" y="-275.5" font-family="Helvetica,sans-Serif" font-size="10.00">/2DMTI.h</text>
</a>
</g>
</g>
<!-- Node1&#45;&gt;Node2 -->
<g id="edge1" class="edge">
<title>Node1&#45;&gt;Node2</title>
<path fill="none" stroke="midnightblue" d="M673.97,-345.25C557.07,-338.6 335.97,-323.87 149,-299 146.1,-298.61 143.14,-298.19 140.15,-297.75"/>
<polygon fill="midnightblue" stroke="midnightblue" points="674.09,-348.76 684.27,-345.83 674.48,-341.77 674.09,-348.76"/>
</g>
<!-- Node5 -->
<g id="node5" class="node">
<title>Node5</title>
<g id="a_node5"><a xlink:href="_o_s_c_f_a_r_8h.html" target="_top" xlink:title="API for 2D ordered statistic constant false alarm rate (OS&#45;CFAR) algorithm.">
<polygon fill="white" stroke="black" points="158,-268.5 158,-298.5 298,-298.5 298,-268.5 158,-268.5"/>
<text text-anchor="start" x="166" y="-286.5" font-family="Helvetica,sans-Serif" font-size="10.00">/home/build/sdk/c/ifxAlgo</text>
<text text-anchor="middle" x="228" y="-275.5" font-family="Helvetica,sans-Serif" font-size="10.00">/OSCFAR.h</text>
</a>
</g>
</g>
<!-- Node1&#45;&gt;Node5 -->
<g id="edge4" class="edge">
<title>Node1&#45;&gt;Node5</title>
<path fill="none" stroke="midnightblue" d="M674.1,-342.01C583.93,-333.37 434.77,-317.89 307,-299 304.1,-298.57 301.15,-298.12 298.17,-297.64"/>
<polygon fill="midnightblue" stroke="midnightblue" points="673.97,-345.52 684.26,-342.98 674.64,-338.55 673.97,-345.52"/>
</g>
<!-- Node6 -->
<g id="node6" class="node">
<title>Node6</title>
<g id="a_node6"><a xlink:href="_signal_8h.html" target="_top" xlink:title="API for digital filtering operations.">
<polygon fill="white" stroke="black" points="316,-268.5 316,-298.5 456,-298.5 456,-268.5 316,-268.5"/>
<text text-anchor="start" x="324" y="-286.5" font-family="Helvetica,sans-Serif" font-size="10.00">/home/build/sdk/c/ifxAlgo</text>
<text text-anchor="middle" x="386" y="-275.5" font-family="Helvetica,sans-Serif" font-size="10.00">/Signal.h</text>
</a>
</g>
</g>
<!-- Node1&#45;&gt;Node6 -->
<g id="edge6" class="edge">
<title>Node1&#45;&gt;Node6</title>
<path fill="none" stroke="midnightblue" d="M674.36,-335.16C608.94,-323.67 518.14,-307.71 456.01,-296.8"/>
<polygon fill="midnightblue" stroke="midnightblue" points="673.77,-338.61 684.22,-336.89 674.98,-331.71 673.77,-338.61"/>
</g>
<!-- Node7 -->
<g id="node7" class="node">
<title>Node7</title>
<g id="a_node7"><a xlink:href="_base_8h.html" target="_top" xlink:title="Header for ifxBase.">
<polygon fill="white" stroke="black" points="265.5,-201.5 265.5,-231.5 408.5,-231.5 408.5,-201.5 265.5,-201.5"/>
<text text-anchor="start" x="273.5" y="-219.5" font-family="Helvetica,sans-Serif" font-size="10.00">/home/build/sdk/c/ifxBase</text>
<text text-anchor="middle" x="337" y="-208.5" font-family="Helvetica,sans-Serif" font-size="10.00">/Base.h</text>
</a>
</g>
</g>
<!-- Node1&#45;&gt;Node7 -->
<g id="edge8" class="edge">
<title>Node1&#45;&gt;Node7</title>
<path fill="none" stroke="midnightblue" d="M674.37,-343.34C623.19,-337.07 556.93,-324.43 503,-299 483.29,-289.7 483.81,-279.02 465,-268 439.03,-252.78 407.62,-240.31 382.41,-231.57"/>
<polygon fill="midnightblue" stroke="midnightblue" points="674.06,-346.83 684.39,-344.51 674.87,-339.88 674.06,-346.83"/>
</g>
<!-- Node8 -->
<g id="node8" class="node">
<title>Node8</title>
<g id="a_node8"><a xlink:href="_cube_8h.html" target="_top" xlink:title="API for operations on Cube data structures.">
<polygon fill="white" stroke="black" points="734.5,-268.5 734.5,-298.5 877.5,-298.5 877.5,-268.5 734.5,-268.5"/>
<text text-anchor="start" x="742.5" y="-286.5" font-family="Helvetica,sans-Serif" font-size="10.00">/home/build/sdk/c/ifxBase</text>
<text text-anchor="middle" x="806" y="-275.5" font-family="Helvetica,sans-Serif" font-size="10.00">/Cube.h</text>
</a>
</g>
</g>
<!-- Node1&#45;&gt;Node8 -->
<g id="edge10" class="edge">
<title>Node1&#45;&gt;Node8</title>
<path fill="none" stroke="midnightblue" d="M772.96,-327.45C780.31,-317.9 788.69,-307 795.17,-298.58"/>
<polygon fill="midnightblue" stroke="midnightblue" points="770.17,-325.34 766.85,-335.4 775.72,-329.6 770.17,-325.34"/>
</g>
<!-- Node13 -->
<g id="node13" class="node">
<title>Node13</title>
<g id="a_node13"><a xlink:href="_param_estimation_8h.html" target="_top" xlink:title="API for Parameter estimation algorithm.">
<polygon fill="white" stroke="black" points="1000,-201.5 1000,-231.5 1180,-231.5 1180,-201.5 1000,-201.5"/>
<text text-anchor="start" x="1008" y="-219.5" font-family="Helvetica,sans-Serif" font-size="10.00">/home/build/sdk/c/ifxRadar</text>
<text text-anchor="middle" x="1090" y="-208.5" font-family="Helvetica,sans-Serif" font-size="10.00">Segmentation/ParamEstimation.h</text>
</a>
</g>
</g>
<!-- Node1&#45;&gt;Node13 -->
<g id="edge45" class="edge">
<title>Node1&#45;&gt;Node13</title>
<path fill="none" stroke="midnightblue" d="M811.86,-332.42C840.8,-323.2 876.57,-311.22 908,-299 963.01,-277.61 1025.48,-248.56 1061.07,-231.54"/>
<polygon fill="midnightblue" stroke="midnightblue" points="810.8,-329.08 802.32,-335.44 812.91,-335.76 810.8,-329.08"/>
</g>
<!-- Node15 -->
<g id="node15" class="node">
<title>Node15</title>
<g id="a_node15"><a xlink:href="_segmentation_8h.html" target="_top" xlink:title="API for Segmentation algorithm.">
<polygon fill="white" stroke="black" points="1139.5,-134.5 1139.5,-164.5 1304.5,-164.5 1304.5,-134.5 1139.5,-134.5"/>
<text text-anchor="start" x="1147.5" y="-152.5" font-family="Helvetica,sans-Serif" font-size="10.00">/home/build/sdk/c/ifxRadar</text>
<text text-anchor="middle" x="1222" y="-141.5" font-family="Helvetica,sans-Serif" font-size="10.00">Segmentation/Segmentation.h</text>
</a>
</g>
</g>
<!-- Node1&#45;&gt;Node15 -->
<g id="edge46" class="edge">
<title>Node1&#45;&gt;Node15</title>
<path fill="none" stroke="midnightblue" d="M837.66,-348.07C910.52,-344.42 1018.98,-333.03 1107,-299 1156.55,-279.84 1176.67,-276.3 1206,-232 1219.61,-211.44 1222.18,-181.98 1222.38,-164.69"/>
<polygon fill="midnightblue" stroke="midnightblue" points="837.45,-344.58 827.62,-348.54 837.77,-351.57 837.45,-344.58"/>
</g>
<!-- Node16 -->
<g id="node16" class="node">
<title>Node16</title>
<g id="a_node16"><a xlink:href="_l_a_8h.html" target="_top" xlink:title="API for Linear Algebra (LA)">
<polygon fill="white" stroke="black" points="511.5,-274 511.5,-293 678.5,-293 678.5,-274 511.5,-274"/>
<text text-anchor="middle" x="595" y="-281" font-family="Helvetica,sans-Serif" font-size="10.00">/home/build/sdk/c/ifxBase/LA.h</text>
</a>
</g>
</g>
<!-- Node1&#45;&gt;Node16 -->
<g id="edge25" class="edge">
<title>Node1&#45;&gt;Node16</title>
<path fill="none" stroke="midnightblue" d="M711.72,-331.62C680.55,-319.04 640.24,-302.77 616.07,-293.01"/>
<polygon fill="midnightblue" stroke="midnightblue" points="710.48,-334.9 721.07,-335.4 713.1,-328.41 710.48,-334.9"/>
</g>
<!-- Node17 -->
<g id="node17" class="node">
<title>Node17</title>
<g id="a_node17"><a xlink:href="_frame_8h.html" target="_top" xlink:title="API for Measurement Frame handling.">
<polygon fill="white" stroke="black" points="1312,-268.5 1312,-298.5 1464,-298.5 1464,-268.5 1312,-268.5"/>
<text text-anchor="start" x="1320" y="-286.5" font-family="Helvetica,sans-Serif" font-size="10.00">/home/build/sdk/c/ifxDevice</text>
<text text-anchor="middle" x="1388" y="-275.5" font-family="Helvetica,sans-Serif" font-size="10.00">/Frame.h</text>
</a>
</g>
</g>
<!-- Node1&#45;&gt;Node17 -->
<g id="edge27" class="edge">
<title>Node1&#45;&gt;Node17</title>
<path fill="none" stroke="midnightblue" d="M837.64,-343.6C943.88,-335.54 1135.2,-319.68 1298,-299 1302.55,-298.42 1307.23,-297.79 1311.94,-297.12"/>
<polygon fill="midnightblue" stroke="midnightblue" points="837.33,-340.12 827.62,-344.36 837.86,-347.1 837.33,-340.12"/>
</g>
<!-- Node22 -->
<g id="node22" class="node">
<title>Node22</title>
<g id="a_node22"><a xlink:href="_presence_sensing_8h.html" target="_top" xlink:title="API for Presence Sensing algorithm.">
<polygon fill="white" stroke="black" points="974.5,-134.5 974.5,-164.5 1121.5,-164.5 1121.5,-134.5 974.5,-134.5"/>
<text text-anchor="start" x="982.5" y="-152.5" font-family="Helvetica,sans-Serif" font-size="10.00">/home/build/sdk/c/ifxRadar</text>
<text text-anchor="middle" x="1048" y="-141.5" font-family="Helvetica,sans-Serif" font-size="10.00">/PresenceSensing.h</text>
</a>
</g>
</g>
<!-- Node1&#45;&gt;Node22 -->
<g id="edge38" class="edge">
<title>Node1&#45;&gt;Node22</title>
<path fill="none" stroke="midnightblue" d="M837.94,-339.22C951.36,-323.1 1147.02,-287.82 1189,-232 1213.73,-199.12 1164.8,-177.29 1117.95,-164.57"/>
<polygon fill="midnightblue" stroke="midnightblue" points="837.32,-335.77 827.9,-340.62 838.29,-342.7 837.32,-335.77"/>
</g>
<!-- Node23 -->
<g id="node23" class="node">
<title>Node23</title>
<g id="a_node23"><a xlink:href="_range_doppler_map_8h.html" target="_top" xlink:title="API for Range Doppler Map.">
<polygon fill="white" stroke="black" points="426.5,-201.5 426.5,-231.5 573.5,-231.5 573.5,-201.5 426.5,-201.5"/>
<text text-anchor="start" x="434.5" y="-219.5" font-family="Helvetica,sans-Serif" font-size="10.00">/home/build/sdk/c/ifxRadar</text>
<text text-anchor="middle" x="500" y="-208.5" font-family="Helvetica,sans-Serif" font-size="10.00">/RangeDopplerMap.h</text>
</a>
</g>
</g>
<!-- Node1&#45;&gt;Node23 -->
<g id="edge39" class="edge">
<title>Node1&#45;&gt;Node23</title>
<path fill="none" stroke="midnightblue" d="M742.59,-326.7C730.55,-308.21 711.24,-282.86 688,-268 653.83,-246.15 610.39,-233.69 573.87,-226.62"/>
<polygon fill="midnightblue" stroke="midnightblue" points="739.77,-328.79 748.04,-335.4 745.69,-325.07 739.77,-328.79"/>
</g>
<!-- Node24 -->
<g id="node24" class="node">
<title>Node24</title>
<g id="a_node24"><a xlink:href="_range_spectrum_8h.html" target="_top" xlink:title="API for Range Spectrum.">
<polygon fill="white" stroke="black" points="834.5,-201.5 834.5,-231.5 981.5,-231.5 981.5,-201.5 834.5,-201.5"/>
<text text-anchor="start" x="842.5" y="-219.5" font-family="Helvetica,sans-Serif" font-size="10.00">/home/build/sdk/c/ifxRadar</text>
<text text-anchor="middle" x="908" y="-208.5" font-family="Helvetica,sans-Serif" font-size="10.00">/RangeSpectrum.h</text>
</a>
</g>
</g>
<!-- Node1&#45;&gt;Node24 -->
<g id="edge42" class="edge">
<title>Node1&#45;&gt;Node24</title>
<path fill="none" stroke="midnightblue" d="M836.78,-331.95C855.44,-324.5 873.69,-313.95 887,-299 903.81,-280.12 907.49,-249.54 908.11,-231.69"/>
<polygon fill="midnightblue" stroke="midnightblue" points="835.47,-328.7 827.32,-335.46 837.91,-335.26 835.47,-328.7"/>
</g>
<!-- Node3 -->
<g id="node3" class="node">
<title>Node3</title>
<g id="a_node3"><a xlink:href="_algo_8h.html" target="_top" xlink:title="Header for ifxAlgo.">
<polygon fill="white" stroke="black" points="107,-201.5 107,-231.5 247,-231.5 247,-201.5 107,-201.5"/>
<text text-anchor="start" x="115" y="-219.5" font-family="Helvetica,sans-Serif" font-size="10.00">/home/build/sdk/c/ifxAlgo</text>
<text text-anchor="middle" x="177" y="-208.5" font-family="Helvetica,sans-Serif" font-size="10.00">/Algo.h</text>
</a>
</g>
</g>
<!-- Node2&#45;&gt;Node3 -->
<g id="edge2" class="edge">
<title>Node2&#45;&gt;Node3</title>
<path fill="none" stroke="midnightblue" d="M102.08,-263.02C118.73,-252.9 138.69,-240.77 153.83,-231.58"/>
<polygon fill="midnightblue" stroke="midnightblue" points="99.95,-260.21 93.22,-268.4 103.58,-266.2 99.95,-260.21"/>
</g>
<!-- Node4 -->
<g id="node4" class="node">
<title>Node4</title>
<g id="a_node4"><a xlink:href="_s_d_k_8h.html" target="_top" xlink:title="Master header file for Radar SDK.">
<polygon fill="white" stroke="black" points="656.5,-0.5 656.5,-30.5 803.5,-30.5 803.5,-0.5 656.5,-0.5"/>
<text text-anchor="start" x="664.5" y="-18.5" font-family="Helvetica,sans-Serif" font-size="10.00">/home/build/sdk/c/ifxRadar</text>
<text text-anchor="middle" x="730" y="-7.5" font-family="Helvetica,sans-Serif" font-size="10.00">/SDK.h</text>
</a>
</g>
</g>
<!-- Node3&#45;&gt;Node4 -->
<g id="edge3" class="edge">
<title>Node3&#45;&gt;Node4</title>
<path fill="none" stroke="midnightblue" d="M221.69,-197.77C294.46,-169.11 443.27,-111.32 571,-67 608.62,-53.95 651.7,-40.35 683.52,-30.55"/>
<polygon fill="midnightblue" stroke="midnightblue" points="220.37,-194.53 212.36,-201.45 222.94,-201.04 220.37,-194.53"/>
</g>
<!-- Node5&#45;&gt;Node3 -->
<g id="edge5" class="edge">
<title>Node5&#45;&gt;Node3</title>
<path fill="none" stroke="midnightblue" d="M210.7,-260.45C203.21,-250.9 194.66,-240 188.04,-231.58"/>
<polygon fill="midnightblue" stroke="midnightblue" points="208.01,-262.69 216.93,-268.4 213.51,-258.37 208.01,-262.69"/>
</g>
<!-- Node6&#45;&gt;Node3 -->
<g id="edge7" class="edge">
<title>Node6&#45;&gt;Node3</title>
<path fill="none" stroke="midnightblue" d="M331.16,-265.44C297.28,-254.91 254.33,-241.55 222.37,-231.61"/>
<polygon fill="midnightblue" stroke="midnightblue" points="330.32,-268.85 340.91,-268.48 332.4,-262.16 330.32,-268.85"/>
</g>
<!-- Node7&#45;&gt;Node4 -->
<g id="edge9" class="edge">
<title>Node7&#45;&gt;Node4</title>
<path fill="none" stroke="midnightblue" d="M373.96,-196.78C452.16,-157.19 632.84,-65.7 702.19,-30.58"/>
<polygon fill="midnightblue" stroke="midnightblue" points="372.29,-193.71 364.95,-201.35 375.45,-199.95 372.29,-193.71"/>
</g>
<!-- Node8&#45;&gt;Node7 -->
<g id="edge11" class="edge">
<title>Node8&#45;&gt;Node7</title>
<path fill="none" stroke="midnightblue" d="M724.17,-272.32C628.28,-260.3 475.22,-240.84 418,-232 414.89,-231.52 411.72,-231.02 408.52,-230.49"/>
<polygon fill="midnightblue" stroke="midnightblue" points="723.77,-275.79 734.13,-273.56 724.64,-268.85 723.77,-275.79"/>
</g>
<!-- Node9 -->
<g id="node9" class="node">
<title>Node9</title>
<g id="a_node9"><a xlink:href="_angle_capon_8h.html" target="_top" xlink:title="API for Angle Capon algorithm.">
<polygon fill="white" stroke="black" points="732.5,-134.5 732.5,-164.5 879.5,-164.5 879.5,-134.5 732.5,-134.5"/>
<text text-anchor="start" x="740.5" y="-152.5" font-family="Helvetica,sans-Serif" font-size="10.00">/home/build/sdk/c/ifxRadar</text>
<text text-anchor="middle" x="806" y="-141.5" font-family="Helvetica,sans-Serif" font-size="10.00">/AngleCapon.h</text>
</a>
</g>
</g>
<!-- Node8&#45;&gt;Node9 -->
<g id="edge12" class="edge">
<title>Node8&#45;&gt;Node9</title>
<path fill="none" stroke="midnightblue" d="M806,-258.02C806,-230.51 806,-186.79 806,-164.52"/>
<polygon fill="midnightblue" stroke="midnightblue" points="802.5,-258.37 806,-268.37 809.5,-258.37 802.5,-258.37"/>
</g>
<!-- Node11 -->
<g id="node11" class="node">
<title>Node11</title>
<g id="a_node11"><a xlink:href="_d_b_f_8h.html" target="_top" xlink:title="API for Digital Beamforming (DBF) algorithm.">
<polygon fill="white" stroke="black" points="630.5,-201.5 630.5,-231.5 777.5,-231.5 777.5,-201.5 630.5,-201.5"/>
<text text-anchor="start" x="638.5" y="-219.5" font-family="Helvetica,sans-Serif" font-size="10.00">/home/build/sdk/c/ifxRadar</text>
<text text-anchor="middle" x="704" y="-208.5" font-family="Helvetica,sans-Serif" font-size="10.00">/DBF.h</text>
</a>
</g>
</g>
<!-- Node8&#45;&gt;Node11 -->
<g id="edge15" class="edge">
<title>Node8&#45;&gt;Node11</title>
<path fill="none" stroke="midnightblue" d="M775.42,-263.02C759.55,-252.9 740.52,-240.77 726.09,-231.58"/>
<polygon fill="midnightblue" stroke="midnightblue" points="773.55,-265.97 783.87,-268.4 777.32,-260.07 773.55,-265.97"/>
</g>
<!-- Node12 -->
<g id="node12" class="node">
<title>Node12</title>
<g id="a_node12"><a xlink:href="_range_angle_image_8h.html" target="_top" xlink:title="API for Range Angle Image algorithm.">
<polygon fill="white" stroke="black" points="528.5,-134.5 528.5,-164.5 675.5,-164.5 675.5,-134.5 528.5,-134.5"/>
<text text-anchor="start" x="536.5" y="-152.5" font-family="Helvetica,sans-Serif" font-size="10.00">/home/build/sdk/c/ifxRadar</text>
<text text-anchor="middle" x="602" y="-141.5" font-family="Helvetica,sans-Serif" font-size="10.00">/RangeAngleImage.h</text>
</a>
</g>
</g>
<!-- Node8&#45;&gt;Node12 -->
<g id="edge19" class="edge">
<title>Node8&#45;&gt;Node12</title>
<path fill="none" stroke="midnightblue" d="M724.39,-268.5C682.28,-259.68 636.7,-247.11 622,-232 604.32,-213.83 601.43,-182.71 601.4,-164.64"/>
<polygon fill="midnightblue" stroke="midnightblue" points="723.94,-271.98 734.43,-270.55 725.33,-265.12 723.94,-271.98"/>
</g>
<!-- Node8&#45;&gt;Node13 -->
<g id="edge20" class="edge">
<title>Node8&#45;&gt;Node13</title>
<path fill="none" stroke="midnightblue" d="M877.28,-266.19C923.79,-255.54 983.9,-241.78 1028.35,-231.61"/>
<polygon fill="midnightblue" stroke="midnightblue" points="876.24,-262.83 867.27,-268.48 877.8,-269.66 876.24,-262.83"/>
</g>
<!-- Node8&#45;&gt;Node15 -->
<g id="edge23" class="edge">
<title>Node8&#45;&gt;Node15</title>
<path fill="none" stroke="midnightblue" d="M888.06,-281.15C986.33,-277.95 1143.41,-267.28 1189,-232 1210.25,-215.56 1217.88,-183.2 1220.57,-164.59"/>
<polygon fill="midnightblue" stroke="midnightblue" points="887.74,-277.66 877.85,-281.47 887.96,-284.66 887.74,-277.66"/>
</g>
<!-- Node10 -->
<g id="node10" class="node">
<title>Node10</title>
<g id="a_node10"><a xlink:href="_radar_8h.html" target="_top" xlink:title="Header for ifxRadar.">
<polygon fill="white" stroke="black" points="656.5,-67.5 656.5,-97.5 803.5,-97.5 803.5,-67.5 656.5,-67.5"/>
<text text-anchor="start" x="664.5" y="-85.5" font-family="Helvetica,sans-Serif" font-size="10.00">/home/build/sdk/c/ifxRadar</text>
<text text-anchor="middle" x="730" y="-74.5" font-family="Helvetica,sans-Serif" font-size="10.00">/Radar.h</text>
</a>
</g>
</g>
<!-- Node9&#45;&gt;Node10 -->
<g id="edge13" class="edge">
<title>Node9&#45;&gt;Node10</title>
<path fill="none" stroke="midnightblue" d="M781.89,-127.88C770.34,-118.01 756.81,-106.43 746.46,-97.58"/>
<polygon fill="midnightblue" stroke="midnightblue" points="779.63,-130.56 789.51,-134.4 784.18,-125.24 779.63,-130.56"/>
</g>
<!-- Node10&#45;&gt;Node4 -->
<g id="edge14" class="edge">
<title>Node10&#45;&gt;Node4</title>
<path fill="none" stroke="midnightblue" d="M730,-57.11C730,-48.15 730,-38.32 730,-30.58"/>
<polygon fill="midnightblue" stroke="midnightblue" points="726.5,-57.4 730,-67.4 733.5,-57.4 726.5,-57.4"/>
</g>
<!-- Node11&#45;&gt;Node10 -->
<g id="edge16" class="edge">
<title>Node11&#45;&gt;Node10</title>
<path fill="none" stroke="midnightblue" d="M708.75,-191.39C714.16,-163.9 722.83,-119.89 727.24,-97.52"/>
<polygon fill="midnightblue" stroke="midnightblue" points="705.28,-190.89 706.78,-201.37 712.15,-192.24 705.28,-190.89"/>
</g>
<!-- Node11&#45;&gt;Node12 -->
<g id="edge17" class="edge">
<title>Node11&#45;&gt;Node12</title>
<path fill="none" stroke="midnightblue" d="M673.42,-196.02C657.55,-185.9 638.52,-173.77 624.09,-164.58"/>
<polygon fill="midnightblue" stroke="midnightblue" points="671.55,-198.97 681.87,-201.4 675.32,-193.07 671.55,-198.97"/>
</g>
<!-- Node12&#45;&gt;Node10 -->
<g id="edge18" class="edge">
<title>Node12&#45;&gt;Node10</title>
<path fill="none" stroke="midnightblue" d="M638.72,-129.85C658.96,-119.58 683.67,-107.03 702.28,-97.58"/>
<polygon fill="midnightblue" stroke="midnightblue" points="637.11,-126.75 629.77,-134.4 640.28,-132.99 637.11,-126.75"/>
</g>
<!-- Node14 -->
<g id="node14" class="node">
<title>Node14</title>
<g id="a_node14"><a xlink:href="_radar_segmentation_8h.html" target="_top" xlink:title="Header for ifxRadarSegmentation.">
<polygon fill="white" stroke="black" points="849,-67.5 849,-97.5 1043,-97.5 1043,-67.5 849,-67.5"/>
<text text-anchor="start" x="857" y="-85.5" font-family="Helvetica,sans-Serif" font-size="10.00">/home/build/sdk/c/ifxRadar</text>
<text text-anchor="middle" x="946" y="-74.5" font-family="Helvetica,sans-Serif" font-size="10.00">Segmentation/RadarSegmentation.h</text>
</a>
</g>
</g>
<!-- Node13&#45;&gt;Node14 -->
<g id="edge21" class="edge">
<title>Node13&#45;&gt;Node14</title>
<path fill="none" stroke="midnightblue" d="M1014.77,-197.84C996.63,-190.37 978.81,-179.83 966,-165 949.53,-145.92 946.18,-115.41 945.75,-97.63"/>
<polygon fill="midnightblue" stroke="midnightblue" points="1013.67,-201.16 1024.26,-201.47 1016.17,-194.63 1013.67,-201.16"/>
</g>
<!-- Node14&#45;&gt;Node4 -->
<g id="edge22" class="edge">
<title>Node14&#45;&gt;Node4</title>
<path fill="none" stroke="midnightblue" d="M889.77,-64.58C854.69,-54.02 810.06,-40.59 776.89,-30.61"/>
<polygon fill="midnightblue" stroke="midnightblue" points="888.81,-67.95 899.4,-67.48 890.83,-61.24 888.81,-67.95"/>
</g>
<!-- Node15&#45;&gt;Node14 -->
<g id="edge24" class="edge">
<title>Node15&#45;&gt;Node14</title>
<path fill="none" stroke="midnightblue" d="M1152.44,-132.12C1107.28,-121.48 1049.02,-107.76 1005.92,-97.61"/>
<polygon fill="midnightblue" stroke="midnightblue" points="1151.92,-135.59 1162.45,-134.48 1153.52,-128.78 1151.92,-135.59"/>
</g>
<!-- Node16&#45;&gt;Node7 -->
<g id="edge26" class="edge">
<title>Node16&#45;&gt;Node7</title>
<path fill="none" stroke="midnightblue" d="M551.25,-271.48C507.58,-260.47 440.3,-243.52 392.8,-231.56"/>
<polygon fill="midnightblue" stroke="midnightblue" points="550.45,-274.89 561.01,-273.94 552.16,-268.1 550.45,-274.89"/>
</g>
<!-- Node18 -->
<g id="node18" class="node">
<title>Node18</title>
<g id="a_node18"><a xlink:href="_device_8h.html" target="_top" xlink:title=" ">
<polygon fill="white" stroke="black" points="1309,-67.5 1309,-97.5 1461,-97.5 1461,-67.5 1309,-67.5"/>
<text text-anchor="start" x="1317" y="-85.5" font-family="Helvetica,sans-Serif" font-size="10.00">/home/build/sdk/c/ifxDevice</text>
<text text-anchor="middle" x="1385" y="-74.5" font-family="Helvetica,sans-Serif" font-size="10.00">/Device.h</text>
</a>
</g>
</g>
<!-- Node17&#45;&gt;Node18 -->
<g id="edge28" class="edge">
<title>Node17&#45;&gt;Node18</title>
<path fill="none" stroke="midnightblue" d="M1474.08,-271.78C1586.02,-254.42 1759.71,-213.76 1692,-134 1662.94,-99.77 1542.15,-88.7 1461.03,-85.15"/>
<polygon fill="midnightblue" stroke="midnightblue" points="1473.48,-268.33 1464.12,-273.29 1474.53,-275.25 1473.48,-268.33"/>
</g>
<!-- Node19 -->
<g id="node19" class="node">
<title>Node19</title>
<g id="a_node19"><a xlink:href="_device_control_8h.html" target="_top" xlink:title="API for Radar device control operations.">
<polygon fill="white" stroke="black" points="1312,-201.5 1312,-231.5 1464,-231.5 1464,-201.5 1312,-201.5"/>
<text text-anchor="start" x="1320" y="-219.5" font-family="Helvetica,sans-Serif" font-size="10.00">/home/build/sdk/c/ifxDevice</text>
<text text-anchor="middle" x="1388" y="-208.5" font-family="Helvetica,sans-Serif" font-size="10.00">/DeviceControl.h</text>
</a>
</g>
</g>
<!-- Node17&#45;&gt;Node19 -->
<g id="edge30" class="edge">
<title>Node17&#45;&gt;Node19</title>
<path fill="none" stroke="midnightblue" d="M1388,-258.11C1388,-249.15 1388,-239.32 1388,-231.58"/>
<polygon fill="midnightblue" stroke="midnightblue" points="1384.5,-258.4 1388,-268.4 1391.5,-258.4 1384.5,-258.4"/>
</g>
<!-- Node18&#45;&gt;Node4 -->
<g id="edge29" class="edge">
<title>Node18&#45;&gt;Node4</title>
<path fill="none" stroke="midnightblue" d="M1298.6,-72.93C1168.71,-60.04 925.39,-35.89 803.51,-23.79"/>
<polygon fill="midnightblue" stroke="midnightblue" points="1298.61,-76.44 1308.9,-73.95 1299.3,-69.48 1298.61,-76.44"/>
</g>
<!-- Node19&#45;&gt;Node15 -->
<g id="edge37" class="edge">
<title>Node19&#45;&gt;Node15</title>
<path fill="none" stroke="midnightblue" d="M1342.49,-197.68C1315.87,-187.26 1282.73,-174.28 1257.95,-164.58"/>
<polygon fill="midnightblue" stroke="midnightblue" points="1341.39,-201.01 1351.98,-201.4 1343.95,-194.49 1341.39,-201.01"/>
</g>
<!-- Node19&#45;&gt;Node18 -->
<g id="edge32" class="edge">
<title>Node19&#45;&gt;Node18</title>
<path fill="none" stroke="midnightblue" d="M1367.74,-193.38C1361.42,-185.1 1355.26,-175.2 1352,-165 1347.8,-151.88 1348.07,-147.2 1352,-134 1356.01,-120.55 1364.86,-107.34 1372.39,-97.81"/>
<polygon fill="midnightblue" stroke="midnightblue" points="1365.23,-195.85 1374.26,-201.39 1370.66,-191.42 1365.23,-195.85"/>
</g>
<!-- Node20 -->
<g id="node20" class="node">
<title>Node20</title>
<g id="a_node20"><a xlink:href="_constant_wave_control_8h.html" target="_top" xlink:title="Header for Constant Wave Control. It provides APIs to use an Avian device in constant wave mode....">
<polygon fill="white" stroke="black" points="1531,-134.5 1531,-164.5 1683,-164.5 1683,-134.5 1531,-134.5"/>
<text text-anchor="start" x="1539" y="-152.5" font-family="Helvetica,sans-Serif" font-size="10.00">/home/build/sdk/c/ifxDevice</text>
<text text-anchor="middle" x="1607" y="-141.5" font-family="Helvetica,sans-Serif" font-size="10.00">/ConstantWaveControl.h</text>
</a>
</g>
</g>
<!-- Node19&#45;&gt;Node20 -->
<g id="edge31" class="edge">
<title>Node19&#45;&gt;Node20</title>
<path fill="none" stroke="midnightblue" d="M1445.01,-198.58C1480.58,-188.02 1525.83,-174.59 1559.46,-164.61"/>
<polygon fill="midnightblue" stroke="midnightblue" points="1443.84,-195.28 1435.25,-201.48 1445.83,-201.99 1443.84,-195.28"/>
</g>
<!-- Node21 -->
<g id="node21" class="node">
<title>Node21</title>
<g id="a_node21"><a xlink:href="_shapes_8h.html" target="_top" xlink:title=" ">
<polygon fill="white" stroke="black" points="1361,-134.5 1361,-164.5 1513,-164.5 1513,-134.5 1361,-134.5"/>
<text text-anchor="start" x="1369" y="-152.5" font-family="Helvetica,sans-Serif" font-size="10.00">/home/build/sdk/c/ifxDevice</text>
<text text-anchor="middle" x="1437" y="-141.5" font-family="Helvetica,sans-Serif" font-size="10.00">/Shapes.h</text>
</a>
</g>
</g>
<!-- Node19&#45;&gt;Node21 -->
<g id="edge33" class="edge">
<title>Node19&#45;&gt;Node21</title>
<path fill="none" stroke="midnightblue" d="M1404.84,-193.16C1411.99,-183.68 1420.1,-172.92 1426.39,-164.58"/>
<polygon fill="midnightblue" stroke="midnightblue" points="1401.86,-191.3 1398.63,-201.4 1407.45,-195.52 1401.86,-191.3"/>
</g>
<!-- Node19&#45;&gt;Node22 -->
<g id="edge35" class="edge">
<title>Node19&#45;&gt;Node22</title>
<path fill="none" stroke="midnightblue" d="M1304.74,-199.58C1248.68,-188.86 1175.42,-174.86 1121.52,-164.55"/>
<polygon fill="midnightblue" stroke="midnightblue" points="1304.16,-203.04 1314.64,-201.48 1305.48,-196.16 1304.16,-203.04"/>
</g>
<!-- Node21&#45;&gt;Node18 -->
<g id="edge34" class="edge">
<title>Node21&#45;&gt;Node18</title>
<path fill="none" stroke="midnightblue" d="M1419.36,-126.45C1411.72,-116.9 1403,-106 1396.26,-97.58"/>
<polygon fill="midnightblue" stroke="midnightblue" points="1416.74,-128.77 1425.72,-134.4 1422.2,-124.4 1416.74,-128.77"/>
</g>
<!-- Node22&#45;&gt;Node10 -->
<g id="edge36" class="edge">
<title>Node22&#45;&gt;Node10</title>
<path fill="none" stroke="midnightblue" d="M969.47,-132.45C917.12,-121.75 848.97,-107.82 798.76,-97.55"/>
<polygon fill="midnightblue" stroke="midnightblue" points="968.89,-135.9 979.39,-134.48 970.29,-129.04 968.89,-135.9"/>
</g>
<!-- Node23&#45;&gt;Node10 -->
<g id="edge40" class="edge">
<title>Node23&#45;&gt;Node10</title>
<path fill="none" stroke="midnightblue" d="M499.58,-191.14C500.61,-172.99 505.05,-148.88 520,-134 539.23,-114.85 603.86,-101.21 656.39,-92.98"/>
<polygon fill="midnightblue" stroke="midnightblue" points="496.08,-191.19 499.31,-201.28 503.07,-191.37 496.08,-191.19"/>
</g>
<!-- Node23&#45;&gt;Node12 -->
<g id="edge41" class="edge">
<title>Node23&#45;&gt;Node12</title>
<path fill="none" stroke="midnightblue" d="M530.58,-196.02C546.45,-185.9 565.48,-173.77 579.91,-164.58"/>
<polygon fill="midnightblue" stroke="midnightblue" points="528.68,-193.07 522.13,-201.4 532.45,-198.97 528.68,-193.07"/>
</g>
<!-- Node24&#45;&gt;Node10 -->
<g id="edge44" class="edge">
<title>Node24&#45;&gt;Node10</title>
<path fill="none" stroke="midnightblue" d="M908.44,-191.46C907.48,-173.49 903.28,-149.45 889,-134 867.08,-110.29 834.09,-97.65 803.83,-90.94"/>
<polygon fill="midnightblue" stroke="midnightblue" points="904.94,-191.57 908.68,-201.48 911.94,-191.4 904.94,-191.57"/>
</g>
<!-- Node24&#45;&gt;Node22 -->
<g id="edge43" class="edge">
<title>Node24&#45;&gt;Node22</title>
<path fill="none" stroke="midnightblue" d="M947.57,-197.13C969.81,-186.8 997.15,-174.11 1017.68,-164.58"/>
<polygon fill="midnightblue" stroke="midnightblue" points="945.97,-194.01 938.38,-201.4 948.92,-200.36 945.97,-194.01"/>
</g>
</g>
</svg>
