<?xml version="1.0" encoding="UTF-8" standalone="no"?>
<!DOCTYPE svg PUBLIC "-//W3C//DTD SVG 1.1//EN"
 "http://www.w3.org/Graphics/SVG/1.1/DTD/svg11.dtd">
<!-- Generated by graphviz version 2.43.0 (0)
 -->
<!-- Title: /home/build/sdk/c/ifxBase/Math.h Pages: 1 -->
<svg width="1201pt" height="441pt"
 viewBox="0.00 0.00 1201.39 441.00" xmlns="http://www.w3.org/2000/svg" xmlns:xlink="http://www.w3.org/1999/xlink">
<g id="graph0" class="graph" transform="scale(1 1) rotate(0) translate(4 437)">
<title>/home/build/sdk/c/ifxBase/Math.h</title>
<polygon fill="white" stroke="transparent" points="-4,4 -4,-437 1197.39,-437 1197.39,4 -4,4"/>
<!-- Node1 -->
<g id="node1" class="node">
<title>Node1</title>
<g id="a_node1"><a xlink:title="API for Mathematical operations.">
<polygon fill="#bfbfbf" stroke="black" points="318,-402.5 318,-432.5 461,-432.5 461,-402.5 318,-402.5"/>
<text text-anchor="start" x="326" y="-420.5" font-family="Helvetica,sans-Serif" font-size="10.00">/home/build/sdk/c/ifxBase</text>
<text text-anchor="middle" x="389.5" y="-409.5" font-family="Helvetica,sans-Serif" font-size="10.00">/Math.h</text>
</a>
</g>
</g>
<!-- Node2 -->
<g id="node2" class="node">
<title>Node2</title>
<g id="a_node2"><a xlink:href="_preprocessed_f_f_t_8h.html" target="_top" xlink:title="API for Pre&#45;processed FFT.">
<polygon fill="white" stroke="black" points="947.5,-268.5 947.5,-298.5 1087.5,-298.5 1087.5,-268.5 947.5,-268.5"/>
<text text-anchor="start" x="955.5" y="-286.5" font-family="Helvetica,sans-Serif" font-size="10.00">/home/build/sdk/c/ifxAlgo</text>
<text text-anchor="middle" x="1017.5" y="-275.5" font-family="Helvetica,sans-Serif" font-size="10.00">/PreprocessedFFT.h</text>
</a>
</g>
</g>
<!-- Node1&#45;&gt;Node2 -->
<g id="edge1" class="edge">
<title>Node1&#45;&gt;Node2</title>
<path fill="none" stroke="midnightblue" d="M471.16,-411.01C551.47,-404.44 677.12,-391.05 783.5,-366 856.78,-348.74 939.22,-316.99 984.05,-298.63"/>
<polygon fill="midnightblue" stroke="midnightblue" points="470.8,-407.52 461.11,-411.81 471.36,-414.5 470.8,-407.52"/>
</g>
<!-- Node10 -->
<g id="node10" class="node">
<title>Node10</title>
<g id="a_node10"><a xlink:href="_base_8h.html" target="_top" xlink:title="Header for ifxBase.">
<polygon fill="white" stroke="black" points="0,-201.5 0,-231.5 143,-231.5 143,-201.5 0,-201.5"/>
<text text-anchor="start" x="8" y="-219.5" font-family="Helvetica,sans-Serif" font-size="10.00">/home/build/sdk/c/ifxBase</text>
<text text-anchor="middle" x="71.5" y="-208.5" font-family="Helvetica,sans-Serif" font-size="10.00">/Base.h</text>
</a>
</g>
</g>
<!-- Node1&#45;&gt;Node10 -->
<g id="edge13" class="edge">
<title>Node1&#45;&gt;Node10</title>
<path fill="none" stroke="midnightblue" d="M307.63,-405.16C240.9,-391.52 149.34,-362.01 96.5,-299 80.14,-279.49 74.48,-249.41 72.53,-231.77"/>
<polygon fill="midnightblue" stroke="midnightblue" points="307.22,-408.64 317.7,-407.14 308.56,-401.78 307.22,-408.64"/>
</g>
<!-- Node11 -->
<g id="node11" class="node">
<title>Node11</title>
<g id="a_node11"><a xlink:href="_defines_8h.html" target="_top" xlink:title="Internal definitions used by standard math.h functions as Macros, to use float or double precision.">
<polygon fill="white" stroke="black" points="237,-335.5 237,-365.5 380,-365.5 380,-335.5 237,-335.5"/>
<text text-anchor="start" x="245" y="-353.5" font-family="Helvetica,sans-Serif" font-size="10.00">/home/build/sdk/c/ifxBase</text>
<text text-anchor="middle" x="308.5" y="-342.5" font-family="Helvetica,sans-Serif" font-size="10.00">/Defines.h</text>
</a>
</g>
</g>
<!-- Node1&#45;&gt;Node11 -->
<g id="edge15" class="edge">
<title>Node1&#45;&gt;Node11</title>
<path fill="none" stroke="midnightblue" d="M363.81,-395.88C351.5,-386.01 337.07,-374.43 326.04,-365.58"/>
<polygon fill="midnightblue" stroke="midnightblue" points="361.93,-398.87 371.92,-402.4 366.32,-393.41 361.93,-398.87"/>
</g>
<!-- Node20 -->
<g id="node20" class="node">
<title>Node20</title>
<g id="a_node20"><a xlink:href="_spectrum_axis_8h.html" target="_top" xlink:title="API for Spectrum Axis used by Range spectrum, Range Doppler and Range Angle Map modules.">
<polygon fill="white" stroke="black" points="628,-335.5 628,-365.5 775,-365.5 775,-335.5 628,-335.5"/>
<text text-anchor="start" x="636" y="-353.5" font-family="Helvetica,sans-Serif" font-size="10.00">/home/build/sdk/c/ifxRadar</text>
<text text-anchor="middle" x="701.5" y="-342.5" font-family="Helvetica,sans-Serif" font-size="10.00">/SpectrumAxis.h</text>
</a>
</g>
</g>
<!-- Node1&#45;&gt;Node20 -->
<g id="edge34" class="edge">
<title>Node1&#45;&gt;Node20</title>
<path fill="none" stroke="midnightblue" d="M466.86,-400.38C518.18,-389.69 584.88,-375.8 634.04,-365.55"/>
<polygon fill="midnightblue" stroke="midnightblue" points="465.89,-397.01 456.82,-402.48 467.32,-403.86 465.89,-397.01"/>
</g>
<!-- Node3 -->
<g id="node3" class="node">
<title>Node3</title>
<g id="a_node3"><a xlink:href="_algo_8h.html" target="_top" xlink:title="Header for ifxAlgo.">
<polygon fill="white" stroke="black" points="990.5,-67.5 990.5,-97.5 1130.5,-97.5 1130.5,-67.5 990.5,-67.5"/>
<text text-anchor="start" x="998.5" y="-85.5" font-family="Helvetica,sans-Serif" font-size="10.00">/home/build/sdk/c/ifxAlgo</text>
<text text-anchor="middle" x="1060.5" y="-74.5" font-family="Helvetica,sans-Serif" font-size="10.00">/Algo.h</text>
</a>
</g>
</g>
<!-- Node2&#45;&gt;Node3 -->
<g id="edge2" class="edge">
<title>Node2&#45;&gt;Node3</title>
<path fill="none" stroke="midnightblue" d="M1098.18,-278.03C1130.02,-271.82 1163.68,-258.75 1183.5,-232 1221.47,-180.76 1134.82,-123.55 1087.99,-97.63"/>
<polygon fill="midnightblue" stroke="midnightblue" points="1097.17,-274.65 1087.92,-279.81 1098.37,-281.55 1097.17,-274.65"/>
</g>
<!-- Node5 -->
<g id="node5" class="node">
<title>Node5</title>
<g id="a_node5"><a xlink:href="_range_doppler_map_8h.html" target="_top" xlink:title="API for Range Doppler Map.">
<polygon fill="white" stroke="black" points="862,-201.5 862,-231.5 1009,-231.5 1009,-201.5 862,-201.5"/>
<text text-anchor="start" x="870" y="-219.5" font-family="Helvetica,sans-Serif" font-size="10.00">/home/build/sdk/c/ifxRadar</text>
<text text-anchor="middle" x="935.5" y="-208.5" font-family="Helvetica,sans-Serif" font-size="10.00">/RangeDopplerMap.h</text>
</a>
</g>
</g>
<!-- Node2&#45;&gt;Node5 -->
<g id="edge4" class="edge">
<title>Node2&#45;&gt;Node5</title>
<path fill="none" stroke="midnightblue" d="M991.85,-262.17C979.31,-252.23 964.53,-240.51 953.26,-231.58"/>
<polygon fill="midnightblue" stroke="midnightblue" points="989.7,-264.93 999.71,-268.4 994.04,-259.44 989.7,-264.93"/>
</g>
<!-- Node8 -->
<g id="node8" class="node">
<title>Node8</title>
<g id="a_node8"><a xlink:href="_range_spectrum_8h.html" target="_top" xlink:title="API for Range Spectrum.">
<polygon fill="white" stroke="black" points="1027,-201.5 1027,-231.5 1174,-231.5 1174,-201.5 1027,-201.5"/>
<text text-anchor="start" x="1035" y="-219.5" font-family="Helvetica,sans-Serif" font-size="10.00">/home/build/sdk/c/ifxRadar</text>
<text text-anchor="middle" x="1100.5" y="-208.5" font-family="Helvetica,sans-Serif" font-size="10.00">/RangeSpectrum.h</text>
</a>
</g>
</g>
<!-- Node2&#45;&gt;Node8 -->
<g id="edge9" class="edge">
<title>Node2&#45;&gt;Node8</title>
<path fill="none" stroke="midnightblue" d="M1043.46,-262.17C1056.15,-252.23 1071.11,-240.51 1082.53,-231.58"/>
<polygon fill="midnightblue" stroke="midnightblue" points="1041.22,-259.47 1035.51,-268.4 1045.54,-264.99 1041.22,-259.47"/>
</g>
<!-- Node4 -->
<g id="node4" class="node">
<title>Node4</title>
<g id="a_node4"><a xlink:href="_s_d_k_8h.html" target="_top" xlink:title="Master header file for Radar SDK.">
<polygon fill="white" stroke="black" points="584,-0.5 584,-30.5 731,-30.5 731,-0.5 584,-0.5"/>
<text text-anchor="start" x="592" y="-18.5" font-family="Helvetica,sans-Serif" font-size="10.00">/home/build/sdk/c/ifxRadar</text>
<text text-anchor="middle" x="657.5" y="-7.5" font-family="Helvetica,sans-Serif" font-size="10.00">/SDK.h</text>
</a>
</g>
</g>
<!-- Node3&#45;&gt;Node4 -->
<g id="edge3" class="edge">
<title>Node3&#45;&gt;Node4</title>
<path fill="none" stroke="midnightblue" d="M980.3,-68.56C907.76,-56.86 801.81,-39.78 731.32,-28.41"/>
<polygon fill="midnightblue" stroke="midnightblue" points="979.87,-72.04 990.3,-70.18 980.99,-65.13 979.87,-72.04"/>
</g>
<!-- Node6 -->
<g id="node6" class="node">
<title>Node6</title>
<g id="a_node6"><a xlink:href="_radar_8h.html" target="_top" xlink:title="Header for ifxRadar.">
<polygon fill="white" stroke="black" points="683,-67.5 683,-97.5 830,-97.5 830,-67.5 683,-67.5"/>
<text text-anchor="start" x="691" y="-85.5" font-family="Helvetica,sans-Serif" font-size="10.00">/home/build/sdk/c/ifxRadar</text>
<text text-anchor="middle" x="756.5" y="-74.5" font-family="Helvetica,sans-Serif" font-size="10.00">/Radar.h</text>
</a>
</g>
</g>
<!-- Node5&#45;&gt;Node6 -->
<g id="edge5" class="edge">
<title>Node5&#45;&gt;Node6</title>
<path fill="none" stroke="midnightblue" d="M922.32,-192.66C911.01,-174.73 893.29,-150.19 872.5,-134 851.79,-117.87 825.14,-105.8 802.61,-97.51"/>
<polygon fill="midnightblue" stroke="midnightblue" points="919.43,-194.64 927.62,-201.35 925.4,-190.99 919.43,-194.64"/>
</g>
<!-- Node7 -->
<g id="node7" class="node">
<title>Node7</title>
<g id="a_node7"><a xlink:href="_range_angle_image_8h.html" target="_top" xlink:title="API for Range Angle Image algorithm.">
<polygon fill="white" stroke="black" points="683,-134.5 683,-164.5 830,-164.5 830,-134.5 683,-134.5"/>
<text text-anchor="start" x="691" y="-152.5" font-family="Helvetica,sans-Serif" font-size="10.00">/home/build/sdk/c/ifxRadar</text>
<text text-anchor="middle" x="756.5" y="-141.5" font-family="Helvetica,sans-Serif" font-size="10.00">/RangeAngleImage.h</text>
</a>
</g>
</g>
<!-- Node5&#45;&gt;Node7 -->
<g id="edge7" class="edge">
<title>Node5&#45;&gt;Node7</title>
<path fill="none" stroke="midnightblue" d="M887.18,-197.96C858.35,-187.48 822.22,-174.37 795.26,-164.58"/>
<polygon fill="midnightblue" stroke="midnightblue" points="886.07,-201.27 896.66,-201.4 888.45,-194.69 886.07,-201.27"/>
</g>
<!-- Node6&#45;&gt;Node4 -->
<g id="edge6" class="edge">
<title>Node6&#45;&gt;Node4</title>
<path fill="none" stroke="midnightblue" d="M726.39,-61.73C711.08,-51.68 692.81,-39.68 678.94,-30.58"/>
<polygon fill="midnightblue" stroke="midnightblue" points="724.74,-64.83 735.02,-67.4 728.58,-58.98 724.74,-64.83"/>
</g>
<!-- Node7&#45;&gt;Node6 -->
<g id="edge8" class="edge">
<title>Node7&#45;&gt;Node6</title>
<path fill="none" stroke="midnightblue" d="M756.5,-124.11C756.5,-115.15 756.5,-105.32 756.5,-97.58"/>
<polygon fill="midnightblue" stroke="midnightblue" points="753,-124.4 756.5,-134.4 760,-124.4 753,-124.4"/>
</g>
<!-- Node8&#45;&gt;Node6 -->
<g id="edge12" class="edge">
<title>Node8&#45;&gt;Node6</title>
<path fill="none" stroke="midnightblue" d="M1101.6,-191.13C1101.02,-172.77 1097.01,-148.39 1081.5,-134 1045.97,-101.04 914.66,-89.58 830.22,-85.61"/>
<polygon fill="midnightblue" stroke="midnightblue" points="1098.1,-191.38 1101.6,-201.38 1105.1,-191.38 1098.1,-191.38"/>
</g>
<!-- Node9 -->
<g id="node9" class="node">
<title>Node9</title>
<g id="a_node9"><a xlink:href="_presence_sensing_8h.html" target="_top" xlink:title="API for Presence Sensing algorithm.">
<polygon fill="white" stroke="black" points="925,-134.5 925,-164.5 1072,-164.5 1072,-134.5 925,-134.5"/>
<text text-anchor="start" x="933" y="-152.5" font-family="Helvetica,sans-Serif" font-size="10.00">/home/build/sdk/c/ifxRadar</text>
<text text-anchor="middle" x="998.5" y="-141.5" font-family="Helvetica,sans-Serif" font-size="10.00">/PresenceSensing.h</text>
</a>
</g>
</g>
<!-- Node8&#45;&gt;Node9 -->
<g id="edge10" class="edge">
<title>Node8&#45;&gt;Node9</title>
<path fill="none" stroke="midnightblue" d="M1069.92,-196.02C1054.05,-185.9 1035.02,-173.77 1020.59,-164.58"/>
<polygon fill="midnightblue" stroke="midnightblue" points="1068.05,-198.97 1078.37,-201.4 1071.82,-193.07 1068.05,-198.97"/>
</g>
<!-- Node9&#45;&gt;Node6 -->
<g id="edge11" class="edge">
<title>Node9&#45;&gt;Node6</title>
<path fill="none" stroke="midnightblue" d="M936.51,-131.85C897.05,-121.25 846.51,-107.68 809.04,-97.61"/>
<polygon fill="midnightblue" stroke="midnightblue" points="935.72,-135.26 946.29,-134.48 937.54,-128.5 935.72,-135.26"/>
</g>
<!-- Node10&#45;&gt;Node4 -->
<g id="edge14" class="edge">
<title>Node10&#45;&gt;Node4</title>
<path fill="none" stroke="midnightblue" d="M70.95,-191.01C71.91,-172.79 76.32,-148.64 91.5,-134 161.16,-66.8 447.14,-34.16 583.93,-22.15"/>
<polygon fill="midnightblue" stroke="midnightblue" points="67.45,-191.11 70.73,-201.19 74.44,-191.27 67.45,-191.11"/>
</g>
<!-- Node11&#45;&gt;Node10 -->
<g id="edge16" class="edge">
<title>Node11&#45;&gt;Node10</title>
<path fill="none" stroke="midnightblue" d="M226.92,-338.87C194.1,-331.61 157.29,-319.42 128.5,-299 103.86,-281.52 86.27,-249.85 77.61,-231.56"/>
<polygon fill="midnightblue" stroke="midnightblue" points="226.47,-342.35 236.97,-340.97 227.9,-335.49 226.47,-342.35"/>
</g>
<!-- Node12 -->
<g id="node12" class="node">
<title>Node12</title>
<g id="a_node12"><a xlink:href="_complex_8h.html" target="_top" xlink:title="API for operations on complex numbers.">
<polygon fill="white" stroke="black" points="138,-268.5 138,-298.5 281,-298.5 281,-268.5 138,-268.5"/>
<text text-anchor="start" x="146" y="-286.5" font-family="Helvetica,sans-Serif" font-size="10.00">/home/build/sdk/c/ifxBase</text>
<text text-anchor="middle" x="209.5" y="-275.5" font-family="Helvetica,sans-Serif" font-size="10.00">/Complex.h</text>
</a>
</g>
</g>
<!-- Node11&#45;&gt;Node12 -->
<g id="edge17" class="edge">
<title>Node11&#45;&gt;Node12</title>
<path fill="none" stroke="midnightblue" d="M278.39,-329.73C263.08,-319.68 244.81,-307.68 230.94,-298.58"/>
<polygon fill="midnightblue" stroke="midnightblue" points="276.74,-332.83 287.02,-335.4 280.58,-326.98 276.74,-332.83"/>
</g>
<!-- Node14 -->
<g id="node14" class="node">
<title>Node14</title>
<g id="a_node14"><a xlink:href="_cube_8h.html" target="_top" xlink:title="API for operations on Cube data structures.">
<polygon fill="white" stroke="black" points="409,-268.5 409,-298.5 552,-298.5 552,-268.5 409,-268.5"/>
<text text-anchor="start" x="417" y="-286.5" font-family="Helvetica,sans-Serif" font-size="10.00">/home/build/sdk/c/ifxBase</text>
<text text-anchor="middle" x="480.5" y="-275.5" font-family="Helvetica,sans-Serif" font-size="10.00">/Cube.h</text>
</a>
</g>
</g>
<!-- Node11&#45;&gt;Node14 -->
<g id="edge21" class="edge">
<title>Node11&#45;&gt;Node14</title>
<path fill="none" stroke="midnightblue" d="M355.29,-331.82C382.93,-321.37 417.46,-308.32 443.25,-298.58"/>
<polygon fill="midnightblue" stroke="midnightblue" points="353.94,-328.59 345.82,-335.4 356.41,-335.13 353.94,-328.59"/>
</g>
<!-- Node12&#45;&gt;Node10 -->
<g id="edge18" class="edge">
<title>Node12&#45;&gt;Node10</title>
<path fill="none" stroke="midnightblue" d="M170.5,-264.13C148.57,-253.8 121.63,-241.11 101.39,-231.58"/>
<polygon fill="midnightblue" stroke="midnightblue" points="169.02,-267.3 179.56,-268.4 172,-260.97 169.02,-267.3"/>
</g>
<!-- Node13 -->
<g id="node13" class="node">
<title>Node13</title>
<g id="a_node13"><a xlink:href="_angle_monopulse_8h.html" target="_top" xlink:title="API for Phase Monopulse algorithm.">
<polygon fill="white" stroke="black" points="101,-134.5 101,-164.5 248,-164.5 248,-134.5 101,-134.5"/>
<text text-anchor="start" x="109" y="-152.5" font-family="Helvetica,sans-Serif" font-size="10.00">/home/build/sdk/c/ifxRadar</text>
<text text-anchor="middle" x="174.5" y="-141.5" font-family="Helvetica,sans-Serif" font-size="10.00">/AngleMonopulse.h</text>
</a>
</g>
</g>
<!-- Node12&#45;&gt;Node13 -->
<g id="edge19" class="edge">
<title>Node12&#45;&gt;Node13</title>
<path fill="none" stroke="midnightblue" d="M199.6,-258.65C196.39,-250.32 193.01,-240.84 190.5,-232 183.88,-208.7 179.06,-180.88 176.52,-164.51"/>
<polygon fill="midnightblue" stroke="midnightblue" points="196.42,-260.13 203.36,-268.13 202.92,-257.54 196.42,-260.13"/>
</g>
<!-- Node13&#45;&gt;Node6 -->
<g id="edge20" class="edge">
<title>Node13&#45;&gt;Node6</title>
<path fill="none" stroke="midnightblue" d="M258.55,-133.92C415.6,-112.58 587.29,-97.16 682.74,-89.29"/>
<polygon fill="midnightblue" stroke="midnightblue" points="257.66,-130.51 248.22,-135.34 258.61,-137.45 257.66,-130.51"/>
</g>
<!-- Node14&#45;&gt;Node7 -->
<g id="edge28" class="edge">
<title>Node14&#45;&gt;Node7</title>
<path fill="none" stroke="midnightblue" d="M562.44,-279.93C640.08,-275.57 748.69,-263.79 775.5,-232 791.7,-212.79 777.33,-182.32 766.31,-164.59"/>
<polygon fill="midnightblue" stroke="midnightblue" points="561.98,-276.45 552.18,-280.48 562.35,-283.44 561.98,-276.45"/>
</g>
<!-- Node14&#45;&gt;Node10 -->
<g id="edge22" class="edge">
<title>Node14&#45;&gt;Node10</title>
<path fill="none" stroke="midnightblue" d="M398.48,-269.47C323.74,-257.59 214.43,-240.22 143.13,-228.88"/>
<polygon fill="midnightblue" stroke="midnightblue" points="398.36,-272.99 408.79,-271.1 399.46,-266.08 398.36,-272.99"/>
</g>
<!-- Node15 -->
<g id="node15" class="node">
<title>Node15</title>
<g id="a_node15"><a xlink:href="_angle_capon_8h.html" target="_top" xlink:title="API for Angle Capon algorithm.">
<polygon fill="white" stroke="black" points="479,-134.5 479,-164.5 626,-164.5 626,-134.5 479,-134.5"/>
<text text-anchor="start" x="487" y="-152.5" font-family="Helvetica,sans-Serif" font-size="10.00">/home/build/sdk/c/ifxRadar</text>
<text text-anchor="middle" x="552.5" y="-141.5" font-family="Helvetica,sans-Serif" font-size="10.00">/AngleCapon.h</text>
</a>
</g>
</g>
<!-- Node14&#45;&gt;Node15 -->
<g id="edge23" class="edge">
<title>Node14&#45;&gt;Node15</title>
<path fill="none" stroke="midnightblue" d="M535.54,-263.86C549.73,-256.28 563.3,-245.92 571.5,-232 584.03,-210.72 571.54,-181.76 561.73,-164.71"/>
<polygon fill="midnightblue" stroke="midnightblue" points="533.61,-260.91 526.17,-268.46 536.69,-267.2 533.61,-260.91"/>
</g>
<!-- Node16 -->
<g id="node16" class="node">
<title>Node16</title>
<g id="a_node16"><a xlink:href="_d_b_f_8h.html" target="_top" xlink:title="API for Digital Beamforming (DBF) algorithm.">
<polygon fill="white" stroke="black" points="620,-201.5 620,-231.5 767,-231.5 767,-201.5 620,-201.5"/>
<text text-anchor="start" x="628" y="-219.5" font-family="Helvetica,sans-Serif" font-size="10.00">/home/build/sdk/c/ifxRadar</text>
<text text-anchor="middle" x="693.5" y="-208.5" font-family="Helvetica,sans-Serif" font-size="10.00">/DBF.h</text>
</a>
</g>
</g>
<!-- Node14&#45;&gt;Node16 -->
<g id="edge25" class="edge">
<title>Node14&#45;&gt;Node16</title>
<path fill="none" stroke="midnightblue" d="M536.39,-265.44C570.92,-254.91 614.69,-241.55 647.26,-231.61"/>
<polygon fill="midnightblue" stroke="midnightblue" points="535,-262.21 526.46,-268.48 537.04,-268.9 535,-262.21"/>
</g>
<!-- Node17 -->
<g id="node17" class="node">
<title>Node17</title>
<g id="a_node17"><a xlink:href="_param_estimation_8h.html" target="_top" xlink:title="API for Parameter estimation algorithm.">
<polygon fill="white" stroke="black" points="199.5,-201.5 199.5,-231.5 379.5,-231.5 379.5,-201.5 199.5,-201.5"/>
<text text-anchor="start" x="207.5" y="-219.5" font-family="Helvetica,sans-Serif" font-size="10.00">/home/build/sdk/c/ifxRadar</text>
<text text-anchor="middle" x="289.5" y="-208.5" font-family="Helvetica,sans-Serif" font-size="10.00">Segmentation/ParamEstimation.h</text>
</a>
</g>
</g>
<!-- Node14&#45;&gt;Node17 -->
<g id="edge29" class="edge">
<title>Node14&#45;&gt;Node17</title>
<path fill="none" stroke="midnightblue" d="M429.35,-265.09C398.51,-254.6 359.75,-241.41 330.86,-231.58"/>
<polygon fill="midnightblue" stroke="midnightblue" points="428.46,-268.49 439.06,-268.4 430.72,-261.86 428.46,-268.49"/>
</g>
<!-- Node19 -->
<g id="node19" class="node">
<title>Node19</title>
<g id="a_node19"><a xlink:href="_segmentation_8h.html" target="_top" xlink:title="API for Segmentation algorithm.">
<polygon fill="white" stroke="black" points="398,-201.5 398,-231.5 563,-231.5 563,-201.5 398,-201.5"/>
<text text-anchor="start" x="406" y="-219.5" font-family="Helvetica,sans-Serif" font-size="10.00">/home/build/sdk/c/ifxRadar</text>
<text text-anchor="middle" x="480.5" y="-208.5" font-family="Helvetica,sans-Serif" font-size="10.00">Segmentation/Segmentation.h</text>
</a>
</g>
</g>
<!-- Node14&#45;&gt;Node19 -->
<g id="edge32" class="edge">
<title>Node14&#45;&gt;Node19</title>
<path fill="none" stroke="midnightblue" d="M480.5,-258.11C480.5,-249.15 480.5,-239.32 480.5,-231.58"/>
<polygon fill="midnightblue" stroke="midnightblue" points="477,-258.4 480.5,-268.4 484,-258.4 477,-258.4"/>
</g>
<!-- Node15&#45;&gt;Node6 -->
<g id="edge24" class="edge">
<title>Node15&#45;&gt;Node6</title>
<path fill="none" stroke="midnightblue" d="M606.46,-131.31C639.46,-120.79 681.16,-107.51 712.21,-97.61"/>
<polygon fill="midnightblue" stroke="midnightblue" points="604.98,-128.11 596.51,-134.48 607.1,-134.77 604.98,-128.11"/>
</g>
<!-- Node16&#45;&gt;Node6 -->
<g id="edge26" class="edge">
<title>Node16&#45;&gt;Node6</title>
<path fill="none" stroke="midnightblue" d="M679.12,-192.18C670.64,-175.17 663.35,-152.05 673.5,-134 682.84,-117.38 700.11,-105.6 716.48,-97.62"/>
<polygon fill="midnightblue" stroke="midnightblue" points="676.28,-194.28 684.14,-201.4 682.43,-190.94 676.28,-194.28"/>
</g>
<!-- Node16&#45;&gt;Node7 -->
<g id="edge27" class="edge">
<title>Node16&#45;&gt;Node7</title>
<path fill="none" stroke="midnightblue" d="M714.31,-194.02C723.7,-184.34 734.52,-173.17 742.86,-164.58"/>
<polygon fill="midnightblue" stroke="midnightblue" points="711.62,-191.78 707.17,-201.4 716.64,-196.65 711.62,-191.78"/>
</g>
<!-- Node18 -->
<g id="node18" class="node">
<title>Node18</title>
<g id="a_node18"><a xlink:href="_radar_segmentation_8h.html" target="_top" xlink:title="Header for ifxRadarSegmentation.">
<polygon fill="white" stroke="black" points="266.5,-134.5 266.5,-164.5 460.5,-164.5 460.5,-134.5 266.5,-134.5"/>
<text text-anchor="start" x="274.5" y="-152.5" font-family="Helvetica,sans-Serif" font-size="10.00">/home/build/sdk/c/ifxRadar</text>
<text text-anchor="middle" x="363.5" y="-141.5" font-family="Helvetica,sans-Serif" font-size="10.00">Segmentation/RadarSegmentation.h</text>
</a>
</g>
</g>
<!-- Node17&#45;&gt;Node18 -->
<g id="edge30" class="edge">
<title>Node17&#45;&gt;Node18</title>
<path fill="none" stroke="midnightblue" d="M313.3,-194.6C324.47,-184.78 337.49,-173.34 347.47,-164.58"/>
<polygon fill="midnightblue" stroke="midnightblue" points="310.76,-192.17 305.56,-201.4 315.38,-197.43 310.76,-192.17"/>
</g>
<!-- Node18&#45;&gt;Node4 -->
<g id="edge31" class="edge">
<title>Node18&#45;&gt;Node4</title>
<path fill="none" stroke="midnightblue" d="M404.12,-130.26C463.46,-103.62 572.63,-54.6 626.19,-30.56"/>
<polygon fill="midnightblue" stroke="midnightblue" points="402.37,-127.21 394.68,-134.5 405.24,-133.6 402.37,-127.21"/>
</g>
<!-- Node19&#45;&gt;Node18 -->
<g id="edge33" class="edge">
<title>Node19&#45;&gt;Node18</title>
<path fill="none" stroke="midnightblue" d="M446.18,-196.44C427.83,-186.24 405.62,-173.9 388.84,-164.58"/>
<polygon fill="midnightblue" stroke="midnightblue" points="444.67,-199.6 455.11,-201.4 448.07,-193.48 444.67,-199.6"/>
</g>
<!-- Node20&#45;&gt;Node6 -->
<g id="edge35" class="edge">
<title>Node20&#45;&gt;Node6</title>
<path fill="none" stroke="midnightblue" d="M725.35,-328.34C758.87,-296.76 818.21,-233.61 839.5,-165 843.58,-151.84 846.25,-146.01 839.5,-134 830.16,-117.38 812.89,-105.6 796.52,-97.62"/>
<polygon fill="midnightblue" stroke="midnightblue" points="722.78,-325.96 717.82,-335.32 727.53,-331.09 722.78,-325.96"/>
</g>
</g>
</svg>
