<?xml version="1.0" encoding="UTF-8" standalone="no"?>
<!DOCTYPE svg PUBLIC "-//W3C//DTD SVG 1.1//EN"
 "http://www.w3.org/Graphics/SVG/1.1/DTD/svg11.dtd">
<!-- Generated by graphviz version 2.43.0 (0)
 -->
<!-- Title: /home/build/sdk/c/ifxRadarSegmentation/ParamEstimation.h Pages: 1 -->
<svg width="320pt" height="375pt"
 viewBox="0.00 0.00 319.50 375.00" xmlns="http://www.w3.org/2000/svg" xmlns:xlink="http://www.w3.org/1999/xlink">
<g id="graph0" class="graph" transform="scale(1 1) rotate(0) translate(4 371)">
<title>/home/build/sdk/c/ifxRadarSegmentation/ParamEstimation.h</title>
<polygon fill="white" stroke="transparent" points="-4,4 -4,-371 315.5,-371 315.5,4 -4,4"/>
<!-- Node1 -->
<g id="node1" class="node">
<title>Node1</title>
<g id="a_node1"><a xlink:title="API for Parameter estimation algorithm.">
<polygon fill="#bfbfbf" stroke="black" points="69,-336.5 69,-366.5 249,-366.5 249,-336.5 69,-336.5"/>
<text text-anchor="start" x="77" y="-354.5" font-family="Helvetica,sans-Serif" font-size="10.00">/home/build/sdk/c/ifxRadar</text>
<text text-anchor="middle" x="159" y="-343.5" font-family="Helvetica,sans-Serif" font-size="10.00">Segmentation/ParamEstimation.h</text>
</a>
</g>
</g>
<!-- Node2 -->
<g id="node2" class="node">
<title>Node2</title>
<g id="a_node2"><a xlink:href="_types_8h.html" target="_top" xlink:title="Definitions of data types used within the SDK.">
<polygon fill="white" stroke="black" points="101.5,-56.5 101.5,-75.5 194.5,-75.5 194.5,-56.5 101.5,-56.5"/>
<text text-anchor="middle" x="148" y="-63.5" font-family="Helvetica,sans-Serif" font-size="10.00">ifxBase/Types.h</text>
</a>
</g>
</g>
<!-- Node1&#45;&gt;Node2 -->
<g id="edge1" class="edge">
<title>Node1&#45;&gt;Node2</title>
<path fill="none" stroke="midnightblue" d="M106.94,-336.38C60.57,-320.27 0,-288.91 0,-235 0,-235 0,-235 0,-177 0,-124.02 61.84,-93.57 105.58,-78.66"/>
<polygon fill="midnightblue" stroke="midnightblue" points="106.73,-81.97 115.15,-75.54 104.56,-75.31 106.73,-81.97"/>
</g>
<!-- Node5 -->
<g id="node5" class="node">
<title>Node5</title>
<g id="a_node5"><a xlink:href="_cube_8h.html" target="_top" xlink:title="API for operations on Cube data structures.">
<polygon fill="white" stroke="black" points="78,-280.5 78,-299.5 168,-299.5 168,-280.5 78,-280.5"/>
<text text-anchor="middle" x="123" y="-287.5" font-family="Helvetica,sans-Serif" font-size="10.00">ifxBase/Cube.h</text>
</a>
</g>
</g>
<!-- Node1&#45;&gt;Node5 -->
<g id="edge4" class="edge">
<title>Node1&#45;&gt;Node5</title>
<path fill="none" stroke="midnightblue" d="M150.47,-336.4C145.4,-328.02 138.93,-317.33 133.54,-308.42"/>
<polygon fill="midnightblue" stroke="midnightblue" points="136.41,-306.4 128.24,-299.66 130.42,-310.03 136.41,-306.4"/>
</g>
<!-- Node8 -->
<g id="node8" class="node">
<title>Node8</title>
<g id="a_node8"><a xlink:href="_vector_8h.html" target="_top" xlink:title="API for operations on Vector data structures.">
<polygon fill="white" stroke="black" points="138.5,-112.5 138.5,-131.5 233.5,-131.5 233.5,-112.5 138.5,-112.5"/>
<text text-anchor="middle" x="186" y="-119.5" font-family="Helvetica,sans-Serif" font-size="10.00">ifxBase/Vector.h</text>
</a>
</g>
</g>
<!-- Node1&#45;&gt;Node8 -->
<g id="edge14" class="edge">
<title>Node1&#45;&gt;Node8</title>
<path fill="none" stroke="midnightblue" d="M165.35,-336.23C169.46,-326.29 174.49,-312.6 177,-300 188.29,-243.29 187.86,-174.46 186.83,-141.86"/>
<polygon fill="midnightblue" stroke="midnightblue" points="190.31,-141.44 186.44,-131.58 183.32,-141.71 190.31,-141.44"/>
</g>
<!-- Node9 -->
<g id="node9" class="node">
<title>Node9</title>
<g id="a_node9"><a xlink:href="_matrix_8h.html" target="_top" xlink:title="API for operations on Matrix data structures.">
<polygon fill="white" stroke="black" points="214.5,-168.5 214.5,-187.5 311.5,-187.5 311.5,-168.5 214.5,-168.5"/>
<text text-anchor="middle" x="263" y="-175.5" font-family="Helvetica,sans-Serif" font-size="10.00">ifxBase/Matrix.h</text>
</a>
</g>
</g>
<!-- Node1&#45;&gt;Node9 -->
<g id="edge13" class="edge">
<title>Node1&#45;&gt;Node9</title>
<path fill="none" stroke="midnightblue" d="M176.27,-336.4C187.02,-326.96 200.55,-313.77 210,-300 232.84,-266.73 249.32,-222.03 257.39,-197.33"/>
<polygon fill="midnightblue" stroke="midnightblue" points="260.74,-198.37 260.42,-187.78 254.06,-196.26 260.74,-198.37"/>
</g>
<!-- Node3 -->
<g id="node3" class="node">
<title>Node3</title>
<g id="a_node3"><a xlink:title=" ">
<polygon fill="white" stroke="#bfbfbf" points="84,-0.5 84,-19.5 140,-19.5 140,-0.5 84,-0.5"/>
<text text-anchor="middle" x="112" y="-7.5" font-family="Helvetica,sans-Serif" font-size="10.00">stddef.h</text>
</a>
</g>
</g>
<!-- Node2&#45;&gt;Node3 -->
<g id="edge2" class="edge">
<title>Node2&#45;&gt;Node3</title>
<path fill="none" stroke="midnightblue" d="M142.06,-56.08C137.02,-48.53 129.66,-37.49 123.49,-28.23"/>
<polygon fill="midnightblue" stroke="midnightblue" points="126.29,-26.13 117.83,-19.75 120.47,-30.01 126.29,-26.13"/>
</g>
<!-- Node4 -->
<g id="node4" class="node">
<title>Node4</title>
<g id="a_node4"><a xlink:title=" ">
<polygon fill="white" stroke="#bfbfbf" points="158.5,-0.5 158.5,-19.5 211.5,-19.5 211.5,-0.5 158.5,-0.5"/>
<text text-anchor="middle" x="185" y="-7.5" font-family="Helvetica,sans-Serif" font-size="10.00">stdint.h</text>
</a>
</g>
</g>
<!-- Node2&#45;&gt;Node4 -->
<g id="edge3" class="edge">
<title>Node2&#45;&gt;Node4</title>
<path fill="none" stroke="midnightblue" d="M154.11,-56.08C159.28,-48.53 166.85,-37.49 173.19,-28.23"/>
<polygon fill="midnightblue" stroke="midnightblue" points="176.24,-29.98 179,-19.75 170.46,-26.02 176.24,-29.98"/>
</g>
<!-- Node6 -->
<g id="node6" class="node">
<title>Node6</title>
<g id="a_node6"><a xlink:href="_defines_8h.html" target="_top" xlink:title="Internal definitions used by standard math.h functions as Macros, to use float or double precision.">
<polygon fill="white" stroke="black" points="28,-224.5 28,-243.5 130,-243.5 130,-224.5 28,-224.5"/>
<text text-anchor="middle" x="79" y="-231.5" font-family="Helvetica,sans-Serif" font-size="10.00">ifxBase/Defines.h</text>
</a>
</g>
</g>
<!-- Node5&#45;&gt;Node6 -->
<g id="edge5" class="edge">
<title>Node5&#45;&gt;Node6</title>
<path fill="none" stroke="midnightblue" d="M115.73,-280.08C109.46,-272.38 100.21,-261.03 92.57,-251.65"/>
<polygon fill="midnightblue" stroke="midnightblue" points="95.16,-249.29 86.13,-243.75 89.73,-253.71 95.16,-249.29"/>
</g>
<!-- Node5&#45;&gt;Node9 -->
<g id="edge10" class="edge">
<title>Node5&#45;&gt;Node9</title>
<path fill="none" stroke="midnightblue" d="M133.99,-280.37C157.81,-261.65 214.44,-217.15 244.12,-193.83"/>
<polygon fill="midnightblue" stroke="midnightblue" points="246.36,-196.52 252.07,-187.59 242.04,-191.02 246.36,-196.52"/>
</g>
<!-- Node7 -->
<g id="node7" class="node">
<title>Node7</title>
<g id="a_node7"><a xlink:href="_math_8h.html" target="_top" xlink:title="API for Mathematical operations.">
<polygon fill="white" stroke="black" points="84.5,-168.5 84.5,-187.5 135.5,-187.5 135.5,-168.5 84.5,-168.5"/>
<text text-anchor="middle" x="110" y="-175.5" font-family="Helvetica,sans-Serif" font-size="10.00">math.h</text>
</a>
</g>
</g>
<!-- Node6&#45;&gt;Node7 -->
<g id="edge6" class="edge">
<title>Node6&#45;&gt;Node7</title>
<path fill="none" stroke="midnightblue" d="M84.12,-224.08C88.41,-216.61 94.66,-205.72 99.94,-196.52"/>
<polygon fill="midnightblue" stroke="midnightblue" points="103.03,-198.17 104.98,-187.75 96.96,-194.68 103.03,-198.17"/>
</g>
<!-- Node7&#45;&gt;Node2 -->
<g id="edge7" class="edge">
<title>Node7&#45;&gt;Node2</title>
<path fill="none" stroke="midnightblue" d="M112.49,-168.09C116.07,-155.5 123,-131.82 130,-112 133.19,-102.96 137.11,-93.06 140.47,-84.85"/>
<polygon fill="midnightblue" stroke="midnightblue" points="143.73,-86.12 144.34,-75.55 137.27,-83.44 143.73,-86.12"/>
</g>
<!-- Node7&#45;&gt;Node8 -->
<g id="edge8" class="edge">
<title>Node7&#45;&gt;Node8</title>
<path fill="none" stroke="midnightblue" d="M122.21,-168.32C133.78,-160.11 151.38,-147.6 165.16,-137.81"/>
<polygon fill="midnightblue" stroke="midnightblue" points="167.44,-140.48 173.57,-131.83 163.39,-134.77 167.44,-140.48"/>
</g>
<!-- Node8&#45;&gt;Node2 -->
<g id="edge9" class="edge">
<title>Node8&#45;&gt;Node2</title>
<path fill="none" stroke="midnightblue" d="M179.73,-112.08C174.36,-104.46 166.48,-93.26 159.92,-83.94"/>
<polygon fill="midnightblue" stroke="midnightblue" points="162.78,-81.91 154.16,-75.75 157.05,-85.94 162.78,-81.91"/>
</g>
<!-- Node9&#45;&gt;Node2 -->
<g id="edge11" class="edge">
<title>Node9&#45;&gt;Node2</title>
<path fill="none" stroke="midnightblue" d="M262.52,-168.37C261.33,-154.82 257.22,-128.43 243,-112 229.7,-96.63 209.99,-86.12 191.97,-79.14"/>
<polygon fill="midnightblue" stroke="midnightblue" points="192.77,-75.71 182.18,-75.63 190.4,-82.3 192.77,-75.71"/>
</g>
<!-- Node9&#45;&gt;Node8 -->
<g id="edge12" class="edge">
<title>Node9&#45;&gt;Node8</title>
<path fill="none" stroke="midnightblue" d="M250.63,-168.32C238.84,-160.06 220.87,-147.45 206.86,-137.63"/>
<polygon fill="midnightblue" stroke="midnightblue" points="208.54,-134.53 198.34,-131.65 204.52,-140.26 208.54,-134.53"/>
</g>
</g>
</svg>
