<?xml version="1.0" encoding="UTF-8" standalone="no"?>
<!DOCTYPE svg PUBLIC "-//W3C//DTD SVG 1.1//EN"
 "http://www.w3.org/Graphics/SVG/1.1/DTD/svg11.dtd">
<!-- Generated by graphviz version 2.43.0 (0)
 -->
<!-- Title: /home/build/sdk/c/ifxRadar/PeakSearch.h Pages: 1 -->
<svg width="167pt" height="207pt"
 viewBox="0.00 0.00 167.00 207.00" xmlns="http://www.w3.org/2000/svg" xmlns:xlink="http://www.w3.org/1999/xlink">
<g id="graph0" class="graph" transform="scale(1 1) rotate(0) translate(4 203)">
<title>/home/build/sdk/c/ifxRadar/PeakSearch.h</title>
<polygon fill="white" stroke="transparent" points="-4,4 -4,-203 163,-203 163,4 -4,4"/>
<!-- Node1 -->
<g id="node1" class="node">
<title>Node1</title>
<g id="a_node1"><a xlink:title="API for Peak Search preprocessing.">
<polygon fill="#bfbfbf" stroke="black" points="0,-168.5 0,-198.5 147,-198.5 147,-168.5 0,-168.5"/>
<text text-anchor="start" x="8" y="-186.5" font-family="Helvetica,sans-Serif" font-size="10.00">/home/build/sdk/c/ifxRadar</text>
<text text-anchor="middle" x="73.5" y="-175.5" font-family="Helvetica,sans-Serif" font-size="10.00">/PeakSearch.h</text>
</a>
</g>
</g>
<!-- Node2 -->
<g id="node2" class="node">
<title>Node2</title>
<g id="a_node2"><a xlink:href="_types_8h.html" target="_top" xlink:title="Definitions of data types used within the SDK.">
<polygon fill="white" stroke="black" points="27,-56.5 27,-75.5 120,-75.5 120,-56.5 27,-56.5"/>
<text text-anchor="middle" x="73.5" y="-63.5" font-family="Helvetica,sans-Serif" font-size="10.00">ifxBase/Types.h</text>
</a>
</g>
</g>
<!-- Node1&#45;&gt;Node2 -->
<g id="edge1" class="edge">
<title>Node1&#45;&gt;Node2</title>
<path fill="none" stroke="midnightblue" d="M65.66,-168.31C58.8,-154.17 50.5,-131.75 54.5,-112 56.39,-102.65 60.29,-92.83 64.07,-84.75"/>
<polygon fill="midnightblue" stroke="midnightblue" points="67.29,-86.14 68.62,-75.63 61.03,-83.01 67.29,-86.14"/>
</g>
<!-- Node5 -->
<g id="node5" class="node">
<title>Node5</title>
<g id="a_node5"><a xlink:href="_vector_8h.html" target="_top" xlink:title="API for operations on Vector data structures.">
<polygon fill="white" stroke="black" points="64,-112.5 64,-131.5 159,-131.5 159,-112.5 64,-112.5"/>
<text text-anchor="middle" x="111.5" y="-119.5" font-family="Helvetica,sans-Serif" font-size="10.00">ifxBase/Vector.h</text>
</a>
</g>
</g>
<!-- Node1&#45;&gt;Node5 -->
<g id="edge4" class="edge">
<title>Node1&#45;&gt;Node5</title>
<path fill="none" stroke="midnightblue" d="M82.51,-168.4C87.91,-159.93 94.83,-149.1 100.55,-140.14"/>
<polygon fill="midnightblue" stroke="midnightblue" points="103.54,-141.97 105.97,-131.66 97.64,-138.2 103.54,-141.97"/>
</g>
<!-- Node3 -->
<g id="node3" class="node">
<title>Node3</title>
<g id="a_node3"><a xlink:title=" ">
<polygon fill="white" stroke="#bfbfbf" points="9.5,-0.5 9.5,-19.5 65.5,-19.5 65.5,-0.5 9.5,-0.5"/>
<text text-anchor="middle" x="37.5" y="-7.5" font-family="Helvetica,sans-Serif" font-size="10.00">stddef.h</text>
</a>
</g>
</g>
<!-- Node2&#45;&gt;Node3 -->
<g id="edge2" class="edge">
<title>Node2&#45;&gt;Node3</title>
<path fill="none" stroke="midnightblue" d="M67.56,-56.08C62.52,-48.53 55.16,-37.49 48.99,-28.23"/>
<polygon fill="midnightblue" stroke="midnightblue" points="51.79,-26.13 43.33,-19.75 45.97,-30.01 51.79,-26.13"/>
</g>
<!-- Node4 -->
<g id="node4" class="node">
<title>Node4</title>
<g id="a_node4"><a xlink:title=" ">
<polygon fill="white" stroke="#bfbfbf" points="84,-0.5 84,-19.5 137,-19.5 137,-0.5 84,-0.5"/>
<text text-anchor="middle" x="110.5" y="-7.5" font-family="Helvetica,sans-Serif" font-size="10.00">stdint.h</text>
</a>
</g>
</g>
<!-- Node2&#45;&gt;Node4 -->
<g id="edge3" class="edge">
<title>Node2&#45;&gt;Node4</title>
<path fill="none" stroke="midnightblue" d="M79.61,-56.08C84.78,-48.53 92.35,-37.49 98.69,-28.23"/>
<polygon fill="midnightblue" stroke="midnightblue" points="101.74,-29.98 104.5,-19.75 95.96,-26.02 101.74,-29.98"/>
</g>
<!-- Node5&#45;&gt;Node2 -->
<g id="edge5" class="edge">
<title>Node5&#45;&gt;Node2</title>
<path fill="none" stroke="midnightblue" d="M105.23,-112.08C99.86,-104.46 91.98,-93.26 85.42,-83.94"/>
<polygon fill="midnightblue" stroke="midnightblue" points="88.28,-81.91 79.66,-75.75 82.55,-85.94 88.28,-81.91"/>
</g>
</g>
</svg>
