<?xml version="1.0" encoding="UTF-8" standalone="no"?>
<!DOCTYPE svg PUBLIC "-//W3C//DTD SVG 1.1//EN"
 "http://www.w3.org/Graphics/SVG/1.1/DTD/svg11.dtd">
<!-- Generated by graphviz version 2.43.0 (0)
 -->
<!-- Title: /home/build/sdk/c/ifxRadar/PresenceSensing.h Pages: 1 -->
<svg width="1097pt" height="375pt"
 viewBox="0.00 0.00 1097.00 375.00" xmlns="http://www.w3.org/2000/svg" xmlns:xlink="http://www.w3.org/1999/xlink">
<g id="graph0" class="graph" transform="scale(1 1) rotate(0) translate(4 371)">
<title>/home/build/sdk/c/ifxRadar/PresenceSensing.h</title>
<polygon fill="white" stroke="transparent" points="-4,4 -4,-371 1093,-371 1093,4 -4,4"/>
<!-- Node1 -->
<g id="node1" class="node">
<title>Node1</title>
<g id="a_node1"><a xlink:title="API for Presence Sensing algorithm.">
<polygon fill="#bfbfbf" stroke="black" points="349.5,-336.5 349.5,-366.5 496.5,-366.5 496.5,-336.5 349.5,-336.5"/>
<text text-anchor="start" x="357.5" y="-354.5" font-family="Helvetica,sans-Serif" font-size="10.00">/home/build/sdk/c/ifxRadar</text>
<text text-anchor="middle" x="423" y="-343.5" font-family="Helvetica,sans-Serif" font-size="10.00">/PresenceSensing.h</text>
</a>
</g>
</g>
<!-- Node2 -->
<g id="node2" class="node">
<title>Node2</title>
<g id="a_node2"><a xlink:href="_window_8h.html" target="_top" xlink:title="API for Window function processing.">
<polygon fill="white" stroke="black" points="66.5,-168.5 66.5,-187.5 167.5,-187.5 167.5,-168.5 66.5,-168.5"/>
<text text-anchor="middle" x="117" y="-175.5" font-family="Helvetica,sans-Serif" font-size="10.00">ifxAlgo/Window.h</text>
</a>
</g>
</g>
<!-- Node1&#45;&gt;Node2 -->
<g id="edge1" class="edge">
<title>Node1&#45;&gt;Node2</title>
<path fill="none" stroke="midnightblue" d="M354.64,-336.43C322.44,-328.28 284.14,-316.36 252,-300 215.56,-281.45 209.42,-271.32 179,-244 161.7,-228.47 143.53,-208.99 131.36,-195.42"/>
<polygon fill="midnightblue" stroke="midnightblue" points="133.88,-192.98 124.63,-187.83 128.64,-197.63 133.88,-192.98"/>
</g>
<!-- Node3 -->
<g id="node3" class="node">
<title>Node3</title>
<g id="a_node3"><a xlink:href="_types_8h.html" target="_top" xlink:title="Definitions of data types used within the SDK.">
<polygon fill="white" stroke="black" points="440.5,-56.5 440.5,-75.5 533.5,-75.5 533.5,-56.5 440.5,-56.5"/>
<text text-anchor="middle" x="487" y="-63.5" font-family="Helvetica,sans-Serif" font-size="10.00">ifxBase/Types.h</text>
</a>
</g>
</g>
<!-- Node1&#45;&gt;Node3 -->
<g id="edge7" class="edge">
<title>Node1&#45;&gt;Node3</title>
<path fill="none" stroke="midnightblue" d="M349.32,-345.53C228.13,-335.31 0,-306.56 0,-235 0,-235 0,-235 0,-177 0,-89.65 301.84,-71.66 430.26,-67.96"/>
<polygon fill="midnightblue" stroke="midnightblue" points="430.4,-71.46 440.3,-67.69 430.21,-64.46 430.4,-71.46"/>
</g>
<!-- Node7 -->
<g id="node7" class="node">
<title>Node7</title>
<g id="a_node7"><a xlink:href="_matrix_8h.html" target="_top" xlink:title="API for operations on Matrix data structures.">
<polygon fill="white" stroke="black" points="468.5,-168.5 468.5,-187.5 565.5,-187.5 565.5,-168.5 468.5,-168.5"/>
<text text-anchor="middle" x="517" y="-175.5" font-family="Helvetica,sans-Serif" font-size="10.00">ifxBase/Matrix.h</text>
</a>
</g>
</g>
<!-- Node1&#45;&gt;Node7 -->
<g id="edge8" class="edge">
<title>Node1&#45;&gt;Node7</title>
<path fill="none" stroke="midnightblue" d="M430.69,-336.47C447.77,-305.3 488.82,-230.41 507.48,-196.37"/>
<polygon fill="midnightblue" stroke="midnightblue" points="510.57,-198.01 512.31,-187.56 504.43,-194.65 510.57,-198.01"/>
</g>
<!-- Node8 -->
<g id="node8" class="node">
<title>Node8</title>
<g id="a_node8"><a xlink:href="_device_config_8h.html" target="_top" xlink:title="API for Radar device configuration.">
<polygon fill="white" stroke="black" points="949,-224.5 949,-243.5 1089,-243.5 1089,-224.5 949,-224.5"/>
<text text-anchor="middle" x="1019" y="-231.5" font-family="Helvetica,sans-Serif" font-size="10.00">ifxDevice/DeviceConfig.h</text>
</a>
</g>
</g>
<!-- Node1&#45;&gt;Node8 -->
<g id="edge11" class="edge">
<title>Node1&#45;&gt;Node8</title>
<path fill="none" stroke="midnightblue" d="M496.76,-346.86C581.37,-341.49 723.77,-328.76 843,-300 896.89,-287 956.92,-262.55 991.1,-247.63"/>
<polygon fill="midnightblue" stroke="midnightblue" points="992.7,-250.75 1000.44,-243.51 989.88,-244.34 992.7,-250.75"/>
</g>
<!-- Node10 -->
<g id="node10" class="node">
<title>Node10</title>
<g id="a_node10"><a xlink:href="_device_control_8h.html" target="_top" xlink:title="API for Radar device control operations.">
<polygon fill="white" stroke="black" points="690,-280.5 690,-299.5 834,-299.5 834,-280.5 690,-280.5"/>
<text text-anchor="middle" x="762" y="-287.5" font-family="Helvetica,sans-Serif" font-size="10.00">ifxDevice/DeviceControl.h</text>
</a>
</g>
</g>
<!-- Node1&#45;&gt;Node10 -->
<g id="edge16" class="edge">
<title>Node1&#45;&gt;Node10</title>
<path fill="none" stroke="midnightblue" d="M496.56,-337.59C558.56,-326.71 646.09,-311.34 703.43,-301.28"/>
<polygon fill="midnightblue" stroke="midnightblue" points="704.18,-304.7 713.42,-299.53 702.97,-297.81 704.18,-304.7"/>
</g>
<!-- Node17 -->
<g id="node17" class="node">
<title>Node17</title>
<g id="a_node17"><a xlink:href="_range_spectrum_8h.html" target="_top" xlink:title="API for Range Spectrum.">
<polygon fill="white" stroke="black" points="261.5,-280.5 261.5,-299.5 408.5,-299.5 408.5,-280.5 261.5,-280.5"/>
<text text-anchor="middle" x="335" y="-287.5" font-family="Helvetica,sans-Serif" font-size="10.00">ifxRadar/RangeSpectrum.h</text>
</a>
</g>
</g>
<!-- Node1&#45;&gt;Node17 -->
<g id="edge32" class="edge">
<title>Node1&#45;&gt;Node17</title>
<path fill="none" stroke="midnightblue" d="M402.15,-336.4C388.3,-327.04 370.19,-314.79 356.26,-305.38"/>
<polygon fill="midnightblue" stroke="midnightblue" points="358.05,-302.36 347.8,-299.66 354.13,-308.16 358.05,-302.36"/>
</g>
<!-- Node2&#45;&gt;Node3 -->
<g id="edge2" class="edge">
<title>Node2&#45;&gt;Node3</title>
<path fill="none" stroke="midnightblue" d="M133.06,-168.36C159.31,-154.57 213.39,-127.54 262,-112 317.91,-94.13 384.01,-81.92 430.03,-74.78"/>
<polygon fill="midnightblue" stroke="midnightblue" points="430.76,-78.21 440.12,-73.24 429.71,-71.29 430.76,-78.21"/>
</g>
<!-- Node6 -->
<g id="node6" class="node">
<title>Node6</title>
<g id="a_node6"><a xlink:href="_vector_8h.html" target="_top" xlink:title="API for operations on Vector data structures.">
<polygon fill="white" stroke="black" points="335.5,-112.5 335.5,-131.5 430.5,-131.5 430.5,-112.5 335.5,-112.5"/>
<text text-anchor="middle" x="383" y="-119.5" font-family="Helvetica,sans-Serif" font-size="10.00">ifxBase/Vector.h</text>
</a>
</g>
</g>
<!-- Node2&#45;&gt;Node6 -->
<g id="edge5" class="edge">
<title>Node2&#45;&gt;Node6</title>
<path fill="none" stroke="midnightblue" d="M159.15,-168.44C205.75,-158.98 280.84,-143.74 331.05,-133.55"/>
<polygon fill="midnightblue" stroke="midnightblue" points="331.94,-136.94 341.05,-131.52 330.55,-130.08 331.94,-136.94"/>
</g>
<!-- Node4 -->
<g id="node4" class="node">
<title>Node4</title>
<g id="a_node4"><a xlink:title=" ">
<polygon fill="white" stroke="#bfbfbf" points="459,-0.5 459,-19.5 515,-19.5 515,-0.5 459,-0.5"/>
<text text-anchor="middle" x="487" y="-7.5" font-family="Helvetica,sans-Serif" font-size="10.00">stddef.h</text>
</a>
</g>
</g>
<!-- Node3&#45;&gt;Node4 -->
<g id="edge3" class="edge">
<title>Node3&#45;&gt;Node4</title>
<path fill="none" stroke="midnightblue" d="M487,-56.08C487,-49.01 487,-38.86 487,-29.99"/>
<polygon fill="midnightblue" stroke="midnightblue" points="490.5,-29.75 487,-19.75 483.5,-29.75 490.5,-29.75"/>
</g>
<!-- Node5 -->
<g id="node5" class="node">
<title>Node5</title>
<g id="a_node5"><a xlink:title=" ">
<polygon fill="white" stroke="#bfbfbf" points="908.5,-0.5 908.5,-19.5 961.5,-19.5 961.5,-0.5 908.5,-0.5"/>
<text text-anchor="middle" x="935" y="-7.5" font-family="Helvetica,sans-Serif" font-size="10.00">stdint.h</text>
</a>
</g>
</g>
<!-- Node3&#45;&gt;Node5 -->
<g id="edge4" class="edge">
<title>Node3&#45;&gt;Node5</title>
<path fill="none" stroke="midnightblue" d="M533.68,-59.37C623.11,-48.59 816.95,-25.23 898.1,-15.45"/>
<polygon fill="midnightblue" stroke="midnightblue" points="898.82,-18.89 908.33,-14.21 897.98,-11.94 898.82,-18.89"/>
</g>
<!-- Node6&#45;&gt;Node3 -->
<g id="edge6" class="edge">
<title>Node6&#45;&gt;Node3</title>
<path fill="none" stroke="midnightblue" d="M399.71,-112.32C416.31,-103.7 442,-90.36 461.22,-80.39"/>
<polygon fill="midnightblue" stroke="midnightblue" points="463.07,-83.37 470.33,-75.65 459.84,-77.16 463.07,-83.37"/>
</g>
<!-- Node7&#45;&gt;Node3 -->
<g id="edge9" class="edge">
<title>Node7&#45;&gt;Node3</title>
<path fill="none" stroke="midnightblue" d="M514.65,-168.37C509.78,-150.54 498.54,-109.3 491.98,-85.27"/>
<polygon fill="midnightblue" stroke="midnightblue" points="495.35,-84.32 489.34,-75.59 488.6,-86.16 495.35,-84.32"/>
</g>
<!-- Node7&#45;&gt;Node6 -->
<g id="edge10" class="edge">
<title>Node7&#45;&gt;Node6</title>
<path fill="none" stroke="midnightblue" d="M495.77,-168.44C473.62,-159.52 438.68,-145.44 413.56,-135.32"/>
<polygon fill="midnightblue" stroke="midnightblue" points="414.72,-132.01 404.13,-131.52 412.1,-138.5 414.72,-132.01"/>
</g>
<!-- Node8&#45;&gt;Node3 -->
<g id="edge13" class="edge">
<title>Node8&#45;&gt;Node3</title>
<path fill="none" stroke="midnightblue" d="M1018.59,-224.48C1017.46,-210.6 1013.18,-183.15 997,-168 931.78,-106.93 662.41,-79.91 543.67,-70.8"/>
<polygon fill="midnightblue" stroke="midnightblue" points="543.91,-67.31 533.67,-70.05 543.38,-74.29 543.91,-67.31"/>
</g>
<!-- Node8&#45;&gt;Node5 -->
<g id="edge12" class="edge">
<title>Node8&#45;&gt;Node5</title>
<path fill="none" stroke="midnightblue" d="M1019.94,-224.41C1021.04,-211.81 1022.15,-187.66 1017,-168 1002.65,-113.18 966.47,-55.93 947.32,-28.16"/>
<polygon fill="midnightblue" stroke="midnightblue" points="949.94,-25.79 941.33,-19.61 944.21,-29.81 949.94,-25.79"/>
</g>
<!-- Node9 -->
<g id="node9" class="node">
<title>Node9</title>
<g id="a_node9"><a xlink:href="_shield_8h.html" target="_top" xlink:title="Defines the Enumeration for the presence of the available Shield.">
<polygon fill="white" stroke="black" points="882.5,-168.5 882.5,-187.5 987.5,-187.5 987.5,-168.5 882.5,-168.5"/>
<text text-anchor="middle" x="935" y="-175.5" font-family="Helvetica,sans-Serif" font-size="10.00">ifxDevice/Shield.h</text>
</a>
</g>
</g>
<!-- Node8&#45;&gt;Node9 -->
<g id="edge14" class="edge">
<title>Node8&#45;&gt;Node9</title>
<path fill="none" stroke="midnightblue" d="M1005.5,-224.32C992.4,-215.9 972.29,-202.97 956.89,-193.07"/>
<polygon fill="midnightblue" stroke="midnightblue" points="958.77,-190.12 948.46,-187.65 954.98,-196.01 958.77,-190.12"/>
</g>
<!-- Node9&#45;&gt;Node5 -->
<g id="edge15" class="edge">
<title>Node9&#45;&gt;Node5</title>
<path fill="none" stroke="midnightblue" d="M935,-168.08C935,-141.95 935,-65.21 935,-29.58"/>
<polygon fill="midnightblue" stroke="midnightblue" points="938.5,-29.57 935,-19.57 931.5,-29.57 938.5,-29.57"/>
</g>
<!-- Node10&#45;&gt;Node3 -->
<g id="edge18" class="edge">
<title>Node10&#45;&gt;Node3</title>
<path fill="none" stroke="midnightblue" d="M761.03,-280.47C757.22,-248.43 742.22,-135.86 717,-112 692.55,-88.88 603.65,-76.85 543.81,-71.23"/>
<polygon fill="midnightblue" stroke="midnightblue" points="544.01,-67.73 533.74,-70.32 543.38,-74.7 544.01,-67.73"/>
</g>
<!-- Node10&#45;&gt;Node8 -->
<g id="edge26" class="edge">
<title>Node10&#45;&gt;Node8</title>
<path fill="none" stroke="midnightblue" d="M802.72,-280.44C847.65,-271 920,-255.8 968.5,-245.61"/>
<polygon fill="midnightblue" stroke="midnightblue" points="969.4,-249 978.47,-243.52 967.96,-242.15 969.4,-249"/>
</g>
<!-- Node10&#45;&gt;Node9 -->
<g id="edge31" class="edge">
<title>Node10&#45;&gt;Node9</title>
<path fill="none" stroke="midnightblue" d="M822.29,-280.42C849.14,-274.06 879.66,-263.05 902,-244 916.12,-231.96 924.89,-212.39 929.81,-197.86"/>
<polygon fill="midnightblue" stroke="midnightblue" points="933.26,-198.53 932.84,-187.95 926.57,-196.49 933.26,-198.53"/>
</g>
<!-- Node11 -->
<g id="node11" class="node">
<title>Node11</title>
<g id="a_node11"><a xlink:title=" ">
<polygon fill="white" stroke="#bfbfbf" points="764,-168.5 764,-187.5 826,-187.5 826,-168.5 764,-168.5"/>
<text text-anchor="middle" x="795" y="-175.5" font-family="Helvetica,sans-Serif" font-size="10.00">stdbool.h</text>
</a>
</g>
</g>
<!-- Node10&#45;&gt;Node11 -->
<g id="edge17" class="edge">
<title>Node10&#45;&gt;Node11</title>
<path fill="none" stroke="midnightblue" d="M764.59,-280.37C769.94,-262.54 782.31,-221.3 789.52,-197.27"/>
<polygon fill="midnightblue" stroke="midnightblue" points="792.9,-198.18 792.42,-187.59 786.2,-196.16 792.9,-198.18"/>
</g>
<!-- Node12 -->
<g id="node12" class="node">
<title>Node12</title>
<g id="a_node12"><a xlink:href="_error_8h.html" target="_top" xlink:title="API for error handling.">
<polygon fill="white" stroke="black" points="627,-224.5 627,-243.5 715,-243.5 715,-224.5 627,-224.5"/>
<text text-anchor="middle" x="671" y="-231.5" font-family="Helvetica,sans-Serif" font-size="10.00">ifxBase/Error.h</text>
</a>
</g>
</g>
<!-- Node10&#45;&gt;Node12 -->
<g id="edge19" class="edge">
<title>Node10&#45;&gt;Node12</title>
<path fill="none" stroke="midnightblue" d="M747.38,-280.32C733.05,-271.82 710.99,-258.73 694.25,-248.8"/>
<polygon fill="midnightblue" stroke="midnightblue" points="695.97,-245.75 685.58,-243.65 692.4,-251.77 695.97,-245.75"/>
</g>
<!-- Node15 -->
<g id="node15" class="node">
<title>Node15</title>
<g id="a_node15"><a xlink:href="_list_8h.html" target="_top" xlink:title=" ">
<polygon fill="white" stroke="black" points="809.5,-224.5 809.5,-243.5 892.5,-243.5 892.5,-224.5 809.5,-224.5"/>
<text text-anchor="middle" x="851" y="-231.5" font-family="Helvetica,sans-Serif" font-size="10.00">ifxBase/List.h</text>
</a>
</g>
</g>
<!-- Node10&#45;&gt;Node15 -->
<g id="edge23" class="edge">
<title>Node10&#45;&gt;Node15</title>
<path fill="none" stroke="midnightblue" d="M776.3,-280.32C790.18,-271.9 811.49,-258.97 827.8,-249.07"/>
<polygon fill="midnightblue" stroke="midnightblue" points="830,-251.83 836.74,-243.65 826.37,-245.85 830,-251.83"/>
</g>
<!-- Node16 -->
<g id="node16" class="node">
<title>Node16</title>
<g id="a_node16"><a xlink:href="_frame_8h.html" target="_top" xlink:title="API for Measurement Frame handling.">
<polygon fill="white" stroke="black" points="503,-224.5 503,-243.5 609,-243.5 609,-224.5 503,-224.5"/>
<text text-anchor="middle" x="556" y="-231.5" font-family="Helvetica,sans-Serif" font-size="10.00">ifxDevice/Frame.h</text>
</a>
</g>
</g>
<!-- Node10&#45;&gt;Node16 -->
<g id="edge27" class="edge">
<title>Node10&#45;&gt;Node16</title>
<path fill="none" stroke="midnightblue" d="M729.36,-280.44C693.95,-271.16 637.29,-256.31 598.45,-246.13"/>
<polygon fill="midnightblue" stroke="midnightblue" points="599.05,-242.67 588.49,-243.52 597.27,-249.44 599.05,-242.67"/>
</g>
<!-- Node13 -->
<g id="node13" class="node">
<title>Node13</title>
<g id="a_node13"><a xlink:href="_log_8h.html" target="_top" xlink:title="API for logging.">
<polygon fill="white" stroke="black" points="624.5,-168.5 624.5,-187.5 707.5,-187.5 707.5,-168.5 624.5,-168.5"/>
<text text-anchor="middle" x="666" y="-175.5" font-family="Helvetica,sans-Serif" font-size="10.00">ifxBase/Log.h</text>
</a>
</g>
</g>
<!-- Node12&#45;&gt;Node13 -->
<g id="edge20" class="edge">
<title>Node12&#45;&gt;Node13</title>
<path fill="none" stroke="midnightblue" d="M670.17,-224.08C669.52,-217.01 668.58,-206.86 667.76,-197.99"/>
<polygon fill="midnightblue" stroke="midnightblue" points="671.22,-197.39 666.81,-187.75 664.25,-198.03 671.22,-197.39"/>
</g>
<!-- Node13&#45;&gt;Node3 -->
<g id="edge22" class="edge">
<title>Node13&#45;&gt;Node3</title>
<path fill="none" stroke="midnightblue" d="M659.99,-168.22C650.17,-154.47 629.43,-127.8 606,-112 583.41,-96.76 554.95,-85.76 531.53,-78.45"/>
<polygon fill="midnightblue" stroke="midnightblue" points="532.42,-75.06 521.84,-75.54 530.41,-81.77 532.42,-75.06"/>
</g>
<!-- Node14 -->
<g id="node14" class="node">
<title>Node14</title>
<g id="a_node14"><a xlink:title=" ">
<polygon fill="white" stroke="#bfbfbf" points="658,-112.5 658,-131.5 708,-131.5 708,-112.5 658,-112.5"/>
<text text-anchor="middle" x="683" y="-119.5" font-family="Helvetica,sans-Serif" font-size="10.00">stdio.h</text>
</a>
</g>
</g>
<!-- Node13&#45;&gt;Node14 -->
<g id="edge21" class="edge">
<title>Node13&#45;&gt;Node14</title>
<path fill="none" stroke="midnightblue" d="M668.81,-168.08C671.08,-160.85 674.37,-150.41 677.21,-141.4"/>
<polygon fill="midnightblue" stroke="midnightblue" points="680.58,-142.34 680.25,-131.75 673.9,-140.24 680.58,-142.34"/>
</g>
<!-- Node15&#45;&gt;Node3 -->
<g id="edge24" class="edge">
<title>Node15&#45;&gt;Node3</title>
<path fill="none" stroke="midnightblue" d="M850.82,-224.18C850.14,-210.84 847.2,-185.28 835,-168 808.91,-131.04 792.08,-128.61 750,-112 682.2,-85.23 598.38,-74.37 543.85,-69.97"/>
<polygon fill="midnightblue" stroke="midnightblue" points="543.92,-66.47 533.69,-69.2 543.39,-73.45 543.92,-66.47"/>
</g>
<!-- Node15&#45;&gt;Node11 -->
<g id="edge25" class="edge">
<title>Node15&#45;&gt;Node11</title>
<path fill="none" stroke="midnightblue" d="M842,-224.32C833.81,-216.42 821.49,-204.55 811.53,-194.94"/>
<polygon fill="midnightblue" stroke="midnightblue" points="813.79,-192.26 804.16,-187.83 808.93,-197.29 813.79,-192.26"/>
</g>
<!-- Node16&#45;&gt;Node3 -->
<g id="edge29" class="edge">
<title>Node16&#45;&gt;Node3</title>
<path fill="none" stroke="midnightblue" d="M561.99,-224.46C570.01,-211.9 582.42,-187.82 575,-168 561.39,-131.66 528.14,-99.79 506.63,-81.99"/>
<polygon fill="midnightblue" stroke="midnightblue" points="508.75,-79.21 498.76,-75.67 504.37,-84.66 508.75,-79.21"/>
</g>
<!-- Node16&#45;&gt;Node7 -->
<g id="edge30" class="edge">
<title>Node16&#45;&gt;Node7</title>
<path fill="none" stroke="midnightblue" d="M549.56,-224.08C544.05,-216.46 535.97,-205.26 529.24,-195.94"/>
<polygon fill="midnightblue" stroke="midnightblue" points="532.01,-193.81 523.32,-187.75 526.34,-197.91 532.01,-193.81"/>
</g>
<!-- Node16&#45;&gt;Node11 -->
<g id="edge28" class="edge">
<title>Node16&#45;&gt;Node11</title>
<path fill="none" stroke="midnightblue" d="M593.87,-224.44C637.46,-214.59 708.82,-198.47 753.78,-188.31"/>
<polygon fill="midnightblue" stroke="midnightblue" points="754.8,-191.67 763.78,-186.05 753.26,-184.84 754.8,-191.67"/>
</g>
<!-- Node17&#45;&gt;Node2 -->
<g id="edge43" class="edge">
<title>Node17&#45;&gt;Node2</title>
<path fill="none" stroke="midnightblue" d="M307.33,-280.46C282.74,-272.42 246.11,-259.34 216,-244 186.93,-229.19 155.86,-207.76 136.43,-193.61"/>
<polygon fill="midnightblue" stroke="midnightblue" points="138.51,-190.79 128.38,-187.67 134.35,-196.43 138.51,-190.79"/>
</g>
<!-- Node17&#45;&gt;Node3 -->
<g id="edge44" class="edge">
<title>Node17&#45;&gt;Node3</title>
<path fill="none" stroke="midnightblue" d="M261.3,-283.85C161.82,-273.89 2.88,-245.61 57,-168 99.39,-107.2 322.96,-80.63 429.9,-71.27"/>
<polygon fill="midnightblue" stroke="midnightblue" points="430.52,-74.73 440.19,-70.39 429.93,-67.75 430.52,-74.73"/>
</g>
<!-- Node17&#45;&gt;Node6 -->
<g id="edge46" class="edge">
<title>Node17&#45;&gt;Node6</title>
<path fill="none" stroke="midnightblue" d="M346.76,-280.35C366.92,-264.67 407.24,-229.29 421,-188 423.81,-179.57 424.05,-176.35 421,-168 416.94,-156.91 408.81,-146.67 401.11,-138.76"/>
<polygon fill="midnightblue" stroke="midnightblue" points="403.36,-136.07 393.71,-131.7 398.53,-141.14 403.36,-136.07"/>
</g>
<!-- Node17&#45;&gt;Node7 -->
<g id="edge45" class="edge">
<title>Node17&#45;&gt;Node7</title>
<path fill="none" stroke="midnightblue" d="M350.34,-280.36C366.14,-271.42 391.42,-256.96 413,-244 441.62,-226.81 474.19,-206.29 495.14,-192.97"/>
<polygon fill="midnightblue" stroke="midnightblue" points="497.08,-195.89 503.63,-187.57 493.32,-189.99 497.08,-195.89"/>
</g>
<!-- Node18 -->
<g id="node18" class="node">
<title>Node18</title>
<g id="a_node18"><a xlink:href="_preprocessed_f_f_t_8h.html" target="_top" xlink:title="API for Pre&#45;processed FFT.">
<polygon fill="white" stroke="black" points="225.5,-224.5 225.5,-243.5 370.5,-243.5 370.5,-224.5 225.5,-224.5"/>
<text text-anchor="middle" x="298" y="-231.5" font-family="Helvetica,sans-Serif" font-size="10.00">ifxAlgo/PreprocessedFFT.h</text>
</a>
</g>
</g>
<!-- Node17&#45;&gt;Node18 -->
<g id="edge33" class="edge">
<title>Node17&#45;&gt;Node18</title>
<path fill="none" stroke="midnightblue" d="M328.89,-280.08C323.72,-272.53 316.15,-261.49 309.81,-252.23"/>
<polygon fill="midnightblue" stroke="midnightblue" points="312.54,-250.02 304,-243.75 306.76,-253.98 312.54,-250.02"/>
</g>
<!-- Node18&#45;&gt;Node2 -->
<g id="edge38" class="edge">
<title>Node18&#45;&gt;Node2</title>
<path fill="none" stroke="midnightblue" d="M269.32,-224.44C238.47,-215.24 189.27,-200.56 155.17,-190.39"/>
<polygon fill="midnightblue" stroke="midnightblue" points="156.13,-187.02 145.55,-187.52 154.13,-193.73 156.13,-187.02"/>
</g>
<!-- Node18&#45;&gt;Node3 -->
<g id="edge39" class="edge">
<title>Node18&#45;&gt;Node3</title>
<path fill="none" stroke="midnightblue" d="M297.25,-224.31C295.88,-202.32 295.46,-143.95 326,-112 352.83,-83.93 395.59,-72.91 430.3,-68.78"/>
<polygon fill="midnightblue" stroke="midnightblue" points="430.74,-72.26 440.32,-67.75 430.02,-65.29 430.74,-72.26"/>
</g>
<!-- Node18&#45;&gt;Node11 -->
<g id="edge34" class="edge">
<title>Node18&#45;&gt;Node11</title>
<path fill="none" stroke="midnightblue" d="M370.69,-225.37C454.26,-216.55 595.57,-201.53 717,-188 728.95,-186.67 741.91,-185.19 753.79,-183.82"/>
<polygon fill="midnightblue" stroke="midnightblue" points="754.35,-187.27 763.88,-182.65 753.55,-180.32 754.35,-187.27"/>
</g>
<!-- Node19 -->
<g id="node19" class="node">
<title>Node19</title>
<g id="a_node19"><a xlink:href="_f_f_t_8h.html" target="_top" xlink:title="API for Fast Fourier Transform (FFT)">
<polygon fill="white" stroke="black" points="332,-168.5 332,-187.5 412,-187.5 412,-168.5 332,-168.5"/>
<text text-anchor="middle" x="372" y="-175.5" font-family="Helvetica,sans-Serif" font-size="10.00">ifxAlgo/FFT.h</text>
</a>
</g>
</g>
<!-- Node18&#45;&gt;Node19 -->
<g id="edge35" class="edge">
<title>Node18&#45;&gt;Node19</title>
<path fill="none" stroke="midnightblue" d="M309.89,-224.32C321.15,-216.11 338.29,-203.6 351.71,-193.81"/>
<polygon fill="midnightblue" stroke="midnightblue" points="353.88,-196.56 359.89,-187.83 349.75,-190.9 353.88,-196.56"/>
</g>
<!-- Node20 -->
<g id="node20" class="node">
<title>Node20</title>
<g id="a_node20"><a xlink:href="_math_8h.html" target="_top" xlink:title="API for Mathematical operations.">
<polygon fill="white" stroke="black" points="186,-168.5 186,-187.5 276,-187.5 276,-168.5 186,-168.5"/>
<text text-anchor="middle" x="231" y="-175.5" font-family="Helvetica,sans-Serif" font-size="10.00">ifxBase/Math.h</text>
</a>
</g>
</g>
<!-- Node18&#45;&gt;Node20 -->
<g id="edge40" class="edge">
<title>Node18&#45;&gt;Node20</title>
<path fill="none" stroke="midnightblue" d="M287.24,-224.32C277.23,-216.26 262.11,-204.08 250.07,-194.37"/>
<polygon fill="midnightblue" stroke="midnightblue" points="251.94,-191.38 241.96,-187.83 247.55,-196.83 251.94,-191.38"/>
</g>
<!-- Node19&#45;&gt;Node3 -->
<g id="edge36" class="edge">
<title>Node19&#45;&gt;Node3</title>
<path fill="none" stroke="midnightblue" d="M388.01,-168.36C402.33,-160.17 423.4,-146.91 439,-132 453.99,-117.66 467.68,-98.2 476.57,-84.32"/>
<polygon fill="midnightblue" stroke="midnightblue" points="479.6,-86.07 481.91,-75.73 473.66,-82.37 479.6,-86.07"/>
</g>
<!-- Node19&#45;&gt;Node6 -->
<g id="edge37" class="edge">
<title>Node19&#45;&gt;Node6</title>
<path fill="none" stroke="midnightblue" d="M373.82,-168.08C375.27,-160.93 377.37,-150.64 379.19,-141.69"/>
<polygon fill="midnightblue" stroke="midnightblue" points="382.65,-142.25 381.22,-131.75 375.79,-140.85 382.65,-142.25"/>
</g>
<!-- Node20&#45;&gt;Node3 -->
<g id="edge41" class="edge">
<title>Node20&#45;&gt;Node3</title>
<path fill="none" stroke="midnightblue" d="M236.33,-168.29C245.47,-154.14 265.53,-126.31 290,-112 332.99,-86.86 388.89,-75.76 430.15,-70.87"/>
<polygon fill="midnightblue" stroke="midnightblue" points="430.75,-74.32 440.31,-69.75 429.99,-67.36 430.75,-74.32"/>
</g>
<!-- Node20&#45;&gt;Node6 -->
<g id="edge42" class="edge">
<title>Node20&#45;&gt;Node6</title>
<path fill="none" stroke="midnightblue" d="M255.08,-168.44C280.54,-159.4 320.89,-145.06 349.46,-134.92"/>
<polygon fill="midnightblue" stroke="midnightblue" points="350.78,-138.16 359.03,-131.52 348.43,-131.57 350.78,-138.16"/>
</g>
</g>
</svg>
