<?xml version="1.0" encoding="UTF-8" standalone="no"?>
<!DOCTYPE svg PUBLIC "-//W3C//DTD SVG 1.1//EN"
 "http://www.w3.org/Graphics/SVG/1.1/DTD/svg11.dtd">
<!-- Generated by graphviz version 2.43.0 (0)
 -->
<!-- Title: /home/build/sdk/c/ifxAlgo/PreprocessedFFT.h Pages: 1 -->
<svg width="507pt" height="307pt"
 viewBox="0.00 0.00 506.50 307.00" xmlns="http://www.w3.org/2000/svg" xmlns:xlink="http://www.w3.org/1999/xlink">
<g id="graph0" class="graph" transform="scale(1 1) rotate(0) translate(4 303)">
<title>/home/build/sdk/c/ifxAlgo/PreprocessedFFT.h</title>
<polygon fill="white" stroke="transparent" points="-4,4 -4,-303 502.5,-303 502.5,4 -4,4"/>
<!-- Node1 -->
<g id="node1" class="node">
<title>Node1</title>
<g id="a_node1"><a xlink:title="API for Pre&#45;processed FFT.">
<polygon fill="#bfbfbf" stroke="black" points="102,-268.5 102,-298.5 242,-298.5 242,-268.5 102,-268.5"/>
<text text-anchor="start" x="110" y="-286.5" font-family="Helvetica,sans-Serif" font-size="10.00">/home/build/sdk/c/ifxAlgo</text>
<text text-anchor="middle" x="172" y="-275.5" font-family="Helvetica,sans-Serif" font-size="10.00">/PreprocessedFFT.h</text>
</a>
</g>
</g>
<!-- Node2 -->
<g id="node2" class="node">
<title>Node2</title>
<g id="a_node2"><a xlink:href="_algo_8h.html" target="_top" xlink:title="Header for ifxAlgo.">
<polygon fill="white" stroke="black" points="0,-67.5 0,-97.5 140,-97.5 140,-67.5 0,-67.5"/>
<text text-anchor="start" x="8" y="-85.5" font-family="Helvetica,sans-Serif" font-size="10.00">/home/build/sdk/c/ifxAlgo</text>
<text text-anchor="middle" x="70" y="-74.5" font-family="Helvetica,sans-Serif" font-size="10.00">/Algo.h</text>
</a>
</g>
</g>
<!-- Node1&#45;&gt;Node2 -->
<g id="edge1" class="edge">
<title>Node1&#45;&gt;Node2</title>
<path fill="none" stroke="midnightblue" d="M125.23,-263.69C111.45,-255.89 97.74,-245.46 89,-232 61.41,-189.49 64.83,-125.58 68.02,-97.54"/>
<polygon fill="midnightblue" stroke="midnightblue" points="123.76,-266.87 134.24,-268.43 127.02,-260.68 123.76,-266.87"/>
</g>
<!-- Node4 -->
<g id="node4" class="node">
<title>Node4</title>
<g id="a_node4"><a xlink:href="_range_doppler_map_8h.html" target="_top" xlink:title="API for Range Doppler Map.">
<polygon fill="white" stroke="black" points="98.5,-201.5 98.5,-231.5 245.5,-231.5 245.5,-201.5 98.5,-201.5"/>
<text text-anchor="start" x="106.5" y="-219.5" font-family="Helvetica,sans-Serif" font-size="10.00">/home/build/sdk/c/ifxRadar</text>
<text text-anchor="middle" x="172" y="-208.5" font-family="Helvetica,sans-Serif" font-size="10.00">/RangeDopplerMap.h</text>
</a>
</g>
</g>
<!-- Node1&#45;&gt;Node4 -->
<g id="edge3" class="edge">
<title>Node1&#45;&gt;Node4</title>
<path fill="none" stroke="midnightblue" d="M172,-258.11C172,-249.15 172,-239.32 172,-231.58"/>
<polygon fill="midnightblue" stroke="midnightblue" points="168.5,-258.4 172,-268.4 175.5,-258.4 168.5,-258.4"/>
</g>
<!-- Node7 -->
<g id="node7" class="node">
<title>Node7</title>
<g id="a_node7"><a xlink:href="_range_spectrum_8h.html" target="_top" xlink:title="API for Range Spectrum.">
<polygon fill="white" stroke="black" points="263.5,-201.5 263.5,-231.5 410.5,-231.5 410.5,-201.5 263.5,-201.5"/>
<text text-anchor="start" x="271.5" y="-219.5" font-family="Helvetica,sans-Serif" font-size="10.00">/home/build/sdk/c/ifxRadar</text>
<text text-anchor="middle" x="337" y="-208.5" font-family="Helvetica,sans-Serif" font-size="10.00">/RangeSpectrum.h</text>
</a>
</g>
</g>
<!-- Node1&#45;&gt;Node7 -->
<g id="edge8" class="edge">
<title>Node1&#45;&gt;Node7</title>
<path fill="none" stroke="midnightblue" d="M217.23,-264.68C243.69,-254.26 276.63,-241.28 301.27,-231.58"/>
<polygon fill="midnightblue" stroke="midnightblue" points="215.82,-261.47 207.8,-268.4 218.39,-267.99 215.82,-261.47"/>
</g>
<!-- Node3 -->
<g id="node3" class="node">
<title>Node3</title>
<g id="a_node3"><a xlink:href="_s_d_k_8h.html" target="_top" xlink:title="Master header file for Radar SDK.">
<polygon fill="white" stroke="black" points="77.5,-0.5 77.5,-30.5 224.5,-30.5 224.5,-0.5 77.5,-0.5"/>
<text text-anchor="start" x="85.5" y="-18.5" font-family="Helvetica,sans-Serif" font-size="10.00">/home/build/sdk/c/ifxRadar</text>
<text text-anchor="middle" x="151" y="-7.5" font-family="Helvetica,sans-Serif" font-size="10.00">/SDK.h</text>
</a>
</g>
</g>
<!-- Node2&#45;&gt;Node3 -->
<g id="edge2" class="edge">
<title>Node2&#45;&gt;Node3</title>
<path fill="none" stroke="midnightblue" d="M95.69,-60.88C108,-51.01 122.43,-39.43 133.46,-30.58"/>
<polygon fill="midnightblue" stroke="midnightblue" points="93.18,-58.41 87.58,-67.4 97.57,-63.87 93.18,-58.41"/>
</g>
<!-- Node5 -->
<g id="node5" class="node">
<title>Node5</title>
<g id="a_node5"><a xlink:href="_radar_8h.html" target="_top" xlink:title="Header for ifxRadar.">
<polygon fill="white" stroke="black" points="158.5,-67.5 158.5,-97.5 305.5,-97.5 305.5,-67.5 158.5,-67.5"/>
<text text-anchor="start" x="166.5" y="-85.5" font-family="Helvetica,sans-Serif" font-size="10.00">/home/build/sdk/c/ifxRadar</text>
<text text-anchor="middle" x="232" y="-74.5" font-family="Helvetica,sans-Serif" font-size="10.00">/Radar.h</text>
</a>
</g>
</g>
<!-- Node4&#45;&gt;Node5 -->
<g id="edge4" class="edge">
<title>Node4&#45;&gt;Node5</title>
<path fill="none" stroke="midnightblue" d="M151.64,-193.2C138.83,-176.34 126.68,-152.94 138,-134 148.17,-116.99 166.26,-105.37 183.88,-97.62"/>
<polygon fill="midnightblue" stroke="midnightblue" points="149.26,-195.81 158.28,-201.36 154.69,-191.4 149.26,-195.81"/>
</g>
<!-- Node6 -->
<g id="node6" class="node">
<title>Node6</title>
<g id="a_node6"><a xlink:href="_range_angle_image_8h.html" target="_top" xlink:title="API for Range Angle Image algorithm.">
<polygon fill="white" stroke="black" points="147.5,-134.5 147.5,-164.5 294.5,-164.5 294.5,-134.5 147.5,-134.5"/>
<text text-anchor="start" x="155.5" y="-152.5" font-family="Helvetica,sans-Serif" font-size="10.00">/home/build/sdk/c/ifxRadar</text>
<text text-anchor="middle" x="221" y="-141.5" font-family="Helvetica,sans-Serif" font-size="10.00">/RangeAngleImage.h</text>
</a>
</g>
</g>
<!-- Node4&#45;&gt;Node6 -->
<g id="edge6" class="edge">
<title>Node4&#45;&gt;Node6</title>
<path fill="none" stroke="midnightblue" d="M188.84,-193.16C195.99,-183.68 204.1,-172.92 210.39,-164.58"/>
<polygon fill="midnightblue" stroke="midnightblue" points="185.86,-191.3 182.63,-201.4 191.45,-195.52 185.86,-191.3"/>
</g>
<!-- Node5&#45;&gt;Node3 -->
<g id="edge5" class="edge">
<title>Node5&#45;&gt;Node3</title>
<path fill="none" stroke="midnightblue" d="M206.31,-60.88C194,-51.01 179.57,-39.43 168.54,-30.58"/>
<polygon fill="midnightblue" stroke="midnightblue" points="204.43,-63.87 214.42,-67.4 208.82,-58.41 204.43,-63.87"/>
</g>
<!-- Node6&#45;&gt;Node5 -->
<g id="edge7" class="edge">
<title>Node6&#45;&gt;Node5</title>
<path fill="none" stroke="midnightblue" d="M225.08,-124.4C226.61,-115.37 228.29,-105.41 229.62,-97.58"/>
<polygon fill="midnightblue" stroke="midnightblue" points="221.6,-123.95 223.39,-134.4 228.51,-125.12 221.6,-123.95"/>
</g>
<!-- Node7&#45;&gt;Node5 -->
<g id="edge11" class="edge">
<title>Node7&#45;&gt;Node5</title>
<path fill="none" stroke="midnightblue" d="M330.82,-191.39C325.51,-174.1 316.55,-150.96 303,-134 291.01,-118.99 273.44,-106.44 258.78,-97.61"/>
<polygon fill="midnightblue" stroke="midnightblue" points="327.53,-192.64 333.65,-201.29 334.26,-190.71 327.53,-192.64"/>
</g>
<!-- Node8 -->
<g id="node8" class="node">
<title>Node8</title>
<g id="a_node8"><a xlink:href="_presence_sensing_8h.html" target="_top" xlink:title="API for Presence Sensing algorithm.">
<polygon fill="white" stroke="black" points="351.5,-134.5 351.5,-164.5 498.5,-164.5 498.5,-134.5 351.5,-134.5"/>
<text text-anchor="start" x="359.5" y="-152.5" font-family="Helvetica,sans-Serif" font-size="10.00">/home/build/sdk/c/ifxRadar</text>
<text text-anchor="middle" x="425" y="-141.5" font-family="Helvetica,sans-Serif" font-size="10.00">/PresenceSensing.h</text>
</a>
</g>
</g>
<!-- Node7&#45;&gt;Node8 -->
<g id="edge9" class="edge">
<title>Node7&#45;&gt;Node8</title>
<path fill="none" stroke="midnightblue" d="M364.14,-195.45C377.68,-185.45 393.73,-173.6 405.94,-164.58"/>
<polygon fill="midnightblue" stroke="midnightblue" points="362.06,-192.64 356.09,-201.4 366.22,-198.27 362.06,-192.64"/>
</g>
<!-- Node8&#45;&gt;Node5 -->
<g id="edge10" class="edge">
<title>Node8&#45;&gt;Node5</title>
<path fill="none" stroke="midnightblue" d="M373.31,-131.09C342.16,-120.6 302.99,-107.41 273.8,-97.58"/>
<polygon fill="midnightblue" stroke="midnightblue" points="372.53,-134.52 383.12,-134.4 374.76,-127.89 372.53,-134.52"/>
</g>
</g>
</svg>
