<?xml version="1.0" encoding="UTF-8" standalone="no"?>
<!DOCTYPE svg PUBLIC "-//W3C//DTD SVG 1.1//EN"
 "http://www.w3.org/Graphics/SVG/1.1/DTD/svg11.dtd">
<!-- Generated by graphviz version 2.43.0 (0)
 -->
<!-- Title: /home/build/sdk/c/ifxAlgo/PreprocessedFFT.h Pages: 1 -->
<svg width="434pt" height="263pt"
 viewBox="0.00 0.00 434.00 263.00" xmlns="http://www.w3.org/2000/svg" xmlns:xlink="http://www.w3.org/1999/xlink">
<g id="graph0" class="graph" transform="scale(1 1) rotate(0) translate(4 259)">
<title>/home/build/sdk/c/ifxAlgo/PreprocessedFFT.h</title>
<polygon fill="white" stroke="transparent" points="-4,4 -4,-259 430,-259 430,4 -4,4"/>
<!-- Node1 -->
<g id="node1" class="node">
<title>Node1</title>
<g id="a_node1"><a xlink:title="API for Pre&#45;processed FFT.">
<polygon fill="#bfbfbf" stroke="black" points="88,-224.5 88,-254.5 228,-254.5 228,-224.5 88,-224.5"/>
<text text-anchor="start" x="96" y="-242.5" font-family="Helvetica,sans-Serif" font-size="10.00">/home/build/sdk/c/ifxAlgo</text>
<text text-anchor="middle" x="158" y="-231.5" font-family="Helvetica,sans-Serif" font-size="10.00">/PreprocessedFFT.h</text>
</a>
</g>
</g>
<!-- Node2 -->
<g id="node2" class="node">
<title>Node2</title>
<g id="a_node2"><a xlink:title=" ">
<polygon fill="white" stroke="#bfbfbf" points="0,-168.5 0,-187.5 62,-187.5 62,-168.5 0,-168.5"/>
<text text-anchor="middle" x="31" y="-175.5" font-family="Helvetica,sans-Serif" font-size="10.00">stdbool.h</text>
</a>
</g>
</g>
<!-- Node1&#45;&gt;Node2 -->
<g id="edge1" class="edge">
<title>Node1&#45;&gt;Node2</title>
<path fill="none" stroke="midnightblue" d="M127.9,-224.4C106.88,-214.55 79.03,-201.5 58.58,-191.92"/>
<polygon fill="midnightblue" stroke="midnightblue" points="60.02,-188.73 49.48,-187.66 57.05,-195.07 60.02,-188.73"/>
</g>
<!-- Node3 -->
<g id="node3" class="node">
<title>Node3</title>
<g id="a_node3"><a xlink:href="_f_f_t_8h.html" target="_top" xlink:title="API for Fast Fourier Transform (FFT)">
<polygon fill="white" stroke="black" points="118,-168.5 118,-187.5 198,-187.5 198,-168.5 118,-168.5"/>
<text text-anchor="middle" x="158" y="-175.5" font-family="Helvetica,sans-Serif" font-size="10.00">ifxAlgo/FFT.h</text>
</a>
</g>
</g>
<!-- Node1&#45;&gt;Node3 -->
<g id="edge2" class="edge">
<title>Node1&#45;&gt;Node3</title>
<path fill="none" stroke="midnightblue" d="M158,-224.4C158,-216.47 158,-206.46 158,-197.86"/>
<polygon fill="midnightblue" stroke="midnightblue" points="161.5,-197.66 158,-187.66 154.5,-197.66 161.5,-197.66"/>
</g>
<!-- Node4 -->
<g id="node4" class="node">
<title>Node4</title>
<g id="a_node4"><a xlink:href="_types_8h.html" target="_top" xlink:title="Definitions of data types used within the SDK.">
<polygon fill="white" stroke="black" points="149.5,-56.5 149.5,-75.5 242.5,-75.5 242.5,-56.5 149.5,-56.5"/>
<text text-anchor="middle" x="196" y="-63.5" font-family="Helvetica,sans-Serif" font-size="10.00">ifxBase/Types.h</text>
</a>
</g>
</g>
<!-- Node1&#45;&gt;Node4 -->
<g id="edge11" class="edge">
<title>Node1&#45;&gt;Node4</title>
<path fill="none" stroke="midnightblue" d="M137.38,-224.35C120.62,-210.93 100.96,-189.66 109,-168 122.44,-131.8 155.32,-99.88 176.59,-82.04"/>
<polygon fill="midnightblue" stroke="midnightblue" points="178.83,-84.74 184.37,-75.71 174.41,-79.31 178.83,-84.74"/>
</g>
<!-- Node8 -->
<g id="node8" class="node">
<title>Node8</title>
<g id="a_node8"><a xlink:href="_window_8h.html" target="_top" xlink:title="API for Window function processing.">
<polygon fill="white" stroke="black" points="216.5,-168.5 216.5,-187.5 317.5,-187.5 317.5,-168.5 216.5,-168.5"/>
<text text-anchor="middle" x="267" y="-175.5" font-family="Helvetica,sans-Serif" font-size="10.00">ifxAlgo/Window.h</text>
</a>
</g>
</g>
<!-- Node1&#45;&gt;Node8 -->
<g id="edge8" class="edge">
<title>Node1&#45;&gt;Node8</title>
<path fill="none" stroke="midnightblue" d="M183.83,-224.4C201.47,-214.77 224.7,-202.09 242.13,-192.58"/>
<polygon fill="midnightblue" stroke="midnightblue" points="244.04,-195.52 251.14,-187.66 240.69,-189.38 244.04,-195.52"/>
</g>
<!-- Node9 -->
<g id="node9" class="node">
<title>Node9</title>
<g id="a_node9"><a xlink:href="_math_8h.html" target="_top" xlink:title="API for Mathematical operations.">
<polygon fill="white" stroke="black" points="336,-168.5 336,-187.5 426,-187.5 426,-168.5 336,-168.5"/>
<text text-anchor="middle" x="381" y="-175.5" font-family="Helvetica,sans-Serif" font-size="10.00">ifxBase/Math.h</text>
</a>
</g>
</g>
<!-- Node1&#45;&gt;Node9 -->
<g id="edge12" class="edge">
<title>Node1&#45;&gt;Node9</title>
<path fill="none" stroke="midnightblue" d="M210.57,-224.47C249.88,-213.99 302.91,-199.84 339.32,-190.12"/>
<polygon fill="midnightblue" stroke="midnightblue" points="340.36,-193.47 349.12,-187.51 338.55,-186.7 340.36,-193.47"/>
</g>
<!-- Node3&#45;&gt;Node4 -->
<g id="edge3" class="edge">
<title>Node3&#45;&gt;Node4</title>
<path fill="none" stroke="midnightblue" d="M160.98,-168.37C167.14,-150.54 181.39,-109.3 189.69,-85.27"/>
<polygon fill="midnightblue" stroke="midnightblue" points="193.07,-86.19 193.03,-75.59 186.46,-83.9 193.07,-86.19"/>
</g>
<!-- Node7 -->
<g id="node7" class="node">
<title>Node7</title>
<g id="a_node7"><a xlink:href="_vector_8h.html" target="_top" xlink:title="API for operations on Vector data structures.">
<polygon fill="white" stroke="black" points="224.5,-112.5 224.5,-131.5 319.5,-131.5 319.5,-112.5 224.5,-112.5"/>
<text text-anchor="middle" x="272" y="-119.5" font-family="Helvetica,sans-Serif" font-size="10.00">ifxBase/Vector.h</text>
</a>
</g>
</g>
<!-- Node3&#45;&gt;Node7 -->
<g id="edge6" class="edge">
<title>Node3&#45;&gt;Node7</title>
<path fill="none" stroke="midnightblue" d="M176.06,-168.44C194.57,-159.68 223.58,-145.94 244.86,-135.86"/>
<polygon fill="midnightblue" stroke="midnightblue" points="246.48,-138.96 254.02,-131.52 243.49,-132.63 246.48,-138.96"/>
</g>
<!-- Node5 -->
<g id="node5" class="node">
<title>Node5</title>
<g id="a_node5"><a xlink:title=" ">
<polygon fill="white" stroke="#bfbfbf" points="132,-0.5 132,-19.5 188,-19.5 188,-0.5 132,-0.5"/>
<text text-anchor="middle" x="160" y="-7.5" font-family="Helvetica,sans-Serif" font-size="10.00">stddef.h</text>
</a>
</g>
</g>
<!-- Node4&#45;&gt;Node5 -->
<g id="edge4" class="edge">
<title>Node4&#45;&gt;Node5</title>
<path fill="none" stroke="midnightblue" d="M190.06,-56.08C185.02,-48.53 177.66,-37.49 171.49,-28.23"/>
<polygon fill="midnightblue" stroke="midnightblue" points="174.29,-26.13 165.83,-19.75 168.47,-30.01 174.29,-26.13"/>
</g>
<!-- Node6 -->
<g id="node6" class="node">
<title>Node6</title>
<g id="a_node6"><a xlink:title=" ">
<polygon fill="white" stroke="#bfbfbf" points="206.5,-0.5 206.5,-19.5 259.5,-19.5 259.5,-0.5 206.5,-0.5"/>
<text text-anchor="middle" x="233" y="-7.5" font-family="Helvetica,sans-Serif" font-size="10.00">stdint.h</text>
</a>
</g>
</g>
<!-- Node4&#45;&gt;Node6 -->
<g id="edge5" class="edge">
<title>Node4&#45;&gt;Node6</title>
<path fill="none" stroke="midnightblue" d="M202.11,-56.08C207.28,-48.53 214.85,-37.49 221.19,-28.23"/>
<polygon fill="midnightblue" stroke="midnightblue" points="224.24,-29.98 227,-19.75 218.46,-26.02 224.24,-29.98"/>
</g>
<!-- Node7&#45;&gt;Node4 -->
<g id="edge7" class="edge">
<title>Node7&#45;&gt;Node4</title>
<path fill="none" stroke="midnightblue" d="M259.79,-112.32C248.22,-104.11 230.62,-91.6 216.84,-81.81"/>
<polygon fill="midnightblue" stroke="midnightblue" points="218.61,-78.77 208.43,-75.83 214.56,-84.48 218.61,-78.77"/>
</g>
<!-- Node8&#45;&gt;Node4 -->
<g id="edge9" class="edge">
<title>Node8&#45;&gt;Node4</title>
<path fill="none" stroke="midnightblue" d="M253.08,-168.31C241.3,-160.27 224.81,-147.27 215,-132 205.97,-117.93 201.11,-99.44 198.57,-85.78"/>
<polygon fill="midnightblue" stroke="midnightblue" points="201.98,-84.96 196.95,-75.64 195.07,-86.07 201.98,-84.96"/>
</g>
<!-- Node8&#45;&gt;Node7 -->
<g id="edge10" class="edge">
<title>Node8&#45;&gt;Node7</title>
<path fill="none" stroke="midnightblue" d="M267.83,-168.08C268.48,-161.01 269.42,-150.86 270.24,-141.99"/>
<polygon fill="midnightblue" stroke="midnightblue" points="273.75,-142.03 271.19,-131.75 266.78,-141.39 273.75,-142.03"/>
</g>
<!-- Node9&#45;&gt;Node4 -->
<g id="edge13" class="edge">
<title>Node9&#45;&gt;Node4</title>
<path fill="none" stroke="midnightblue" d="M376,-168.1C367.75,-154.18 350,-127.3 328,-112 304.75,-95.83 275.19,-85.04 249.94,-78.09"/>
<polygon fill="midnightblue" stroke="midnightblue" points="250.69,-74.67 240.13,-75.53 248.92,-81.45 250.69,-74.67"/>
</g>
<!-- Node9&#45;&gt;Node7 -->
<g id="edge14" class="edge">
<title>Node9&#45;&gt;Node7</title>
<path fill="none" stroke="midnightblue" d="M363.49,-168.32C345.93,-159.62 318.67,-146.12 298.47,-136.11"/>
<polygon fill="midnightblue" stroke="midnightblue" points="299.98,-132.96 289.47,-131.65 296.88,-139.23 299.98,-132.96"/>
</g>
</g>
</svg>
