<?xml version="1.0" encoding="UTF-8" standalone="no"?>
<!DOCTYPE svg PUBLIC "-//W3C//DTD SVG 1.1//EN"
 "http://www.w3.org/Graphics/SVG/1.1/DTD/svg11.dtd">
<!-- Generated by graphviz version 2.43.0 (0)
 -->
<!-- Title: /home/build/sdk/c/ifxRadarSegmentation/RadarSegmentation.h Pages: 1 -->
<svg width="1008pt" height="442pt"
 viewBox="0.00 0.00 1008.00 442.00" xmlns="http://www.w3.org/2000/svg" xmlns:xlink="http://www.w3.org/1999/xlink">
<g id="graph0" class="graph" transform="scale(1 1) rotate(0) translate(4 438)">
<title>/home/build/sdk/c/ifxRadarSegmentation/RadarSegmentation.h</title>
<polygon fill="white" stroke="transparent" points="-4,4 -4,-438 1004,-438 1004,4 -4,4"/>
<!-- Node1 -->
<g id="node1" class="node">
<title>Node1</title>
<g id="a_node1"><a xlink:title="Header for ifxRadarSegmentation.">
<polygon fill="#bfbfbf" stroke="black" points="121,-403.5 121,-433.5 315,-433.5 315,-403.5 121,-403.5"/>
<text text-anchor="start" x="129" y="-421.5" font-family="Helvetica,sans-Serif" font-size="10.00">/home/build/sdk/c/ifxRadar</text>
<text text-anchor="middle" x="218" y="-410.5" font-family="Helvetica,sans-Serif" font-size="10.00">Segmentation/RadarSegmentation.h</text>
</a>
</g>
</g>
<!-- Node2 -->
<g id="node2" class="node">
<title>Node2</title>
<g id="a_node2"><a xlink:href="_param_estimation_8h.html" target="_top" xlink:title="API for Parameter estimation algorithm.">
<polygon fill="white" stroke="black" points="63,-336.5 63,-366.5 189,-366.5 189,-336.5 63,-336.5"/>
<text text-anchor="start" x="71" y="-354.5" font-family="Helvetica,sans-Serif" font-size="10.00">ifxRadarSegmentation</text>
<text text-anchor="middle" x="126" y="-343.5" font-family="Helvetica,sans-Serif" font-size="10.00">/ParamEstimation.h</text>
</a>
</g>
</g>
<!-- Node1&#45;&gt;Node2 -->
<g id="edge1" class="edge">
<title>Node1&#45;&gt;Node2</title>
<path fill="none" stroke="midnightblue" d="M198.04,-403.4C185.26,-394.37 168.48,-382.51 154.33,-372.52"/>
<polygon fill="midnightblue" stroke="midnightblue" points="156.11,-369.49 145.92,-366.58 152.07,-375.21 156.11,-369.49"/>
</g>
<!-- Node11 -->
<g id="node11" class="node">
<title>Node11</title>
<g id="a_node11"><a xlink:href="_segmentation_8h.html" target="_top" xlink:title="API for Segmentation algorithm.">
<polygon fill="white" stroke="black" points="266,-336.5 266,-366.5 392,-366.5 392,-336.5 266,-336.5"/>
<text text-anchor="start" x="274" y="-354.5" font-family="Helvetica,sans-Serif" font-size="10.00">ifxRadarSegmentation</text>
<text text-anchor="middle" x="329" y="-343.5" font-family="Helvetica,sans-Serif" font-size="10.00">/Segmentation.h</text>
</a>
</g>
</g>
<!-- Node1&#45;&gt;Node11 -->
<g id="edge16" class="edge">
<title>Node1&#45;&gt;Node11</title>
<path fill="none" stroke="midnightblue" d="M242.09,-403.4C257.94,-394.11 278.89,-381.84 296.26,-371.67"/>
<polygon fill="midnightblue" stroke="midnightblue" points="298.1,-374.65 304.96,-366.58 294.56,-368.61 298.1,-374.65"/>
</g>
<!-- Node3 -->
<g id="node3" class="node">
<title>Node3</title>
<g id="a_node3"><a xlink:href="_types_8h.html" target="_top" xlink:title="Definitions of data types used within the SDK.">
<polygon fill="white" stroke="black" points="339.5,-56.5 339.5,-75.5 432.5,-75.5 432.5,-56.5 339.5,-56.5"/>
<text text-anchor="middle" x="386" y="-63.5" font-family="Helvetica,sans-Serif" font-size="10.00">ifxBase/Types.h</text>
</a>
</g>
</g>
<!-- Node2&#45;&gt;Node3 -->
<g id="edge2" class="edge">
<title>Node2&#45;&gt;Node3</title>
<path fill="none" stroke="midnightblue" d="M91.24,-336.45C53.94,-318.81 0,-284.71 0,-235 0,-235 0,-235 0,-177 0,-109.33 222.21,-81.02 329.43,-71.3"/>
<polygon fill="midnightblue" stroke="midnightblue" points="329.79,-74.78 339.44,-70.42 329.17,-67.81 329.79,-74.78"/>
</g>
<!-- Node6 -->
<g id="node6" class="node">
<title>Node6</title>
<g id="a_node6"><a xlink:href="_cube_8h.html" target="_top" xlink:title="API for operations on Cube data structures.">
<polygon fill="white" stroke="black" points="154,-280.5 154,-299.5 244,-299.5 244,-280.5 154,-280.5"/>
<text text-anchor="middle" x="199" y="-287.5" font-family="Helvetica,sans-Serif" font-size="10.00">ifxBase/Cube.h</text>
</a>
</g>
</g>
<!-- Node2&#45;&gt;Node6 -->
<g id="edge5" class="edge">
<title>Node2&#45;&gt;Node6</title>
<path fill="none" stroke="midnightblue" d="M143.3,-336.4C154.45,-327.31 168.95,-315.49 180.36,-306.19"/>
<polygon fill="midnightblue" stroke="midnightblue" points="182.84,-308.69 188.38,-299.66 178.42,-303.26 182.84,-308.69"/>
</g>
<!-- Node9 -->
<g id="node9" class="node">
<title>Node9</title>
<g id="a_node9"><a xlink:href="_vector_8h.html" target="_top" xlink:title="API for operations on Vector data structures.">
<polygon fill="white" stroke="black" points="185.5,-112.5 185.5,-131.5 280.5,-131.5 280.5,-112.5 185.5,-112.5"/>
<text text-anchor="middle" x="233" y="-119.5" font-family="Helvetica,sans-Serif" font-size="10.00">ifxBase/Vector.h</text>
</a>
</g>
</g>
<!-- Node2&#45;&gt;Node9 -->
<g id="edge15" class="edge">
<title>Node2&#45;&gt;Node9</title>
<path fill="none" stroke="midnightblue" d="M108.11,-336.33C80.67,-312.8 33.68,-264.27 57,-224 61.28,-216.6 160.28,-162.35 207.88,-136.55"/>
<polygon fill="midnightblue" stroke="midnightblue" points="209.81,-139.49 216.94,-131.65 206.47,-133.33 209.81,-139.49"/>
</g>
<!-- Node10 -->
<g id="node10" class="node">
<title>Node10</title>
<g id="a_node10"><a xlink:href="_matrix_8h.html" target="_top" xlink:title="API for operations on Matrix data structures.">
<polygon fill="white" stroke="black" points="184.5,-168.5 184.5,-187.5 281.5,-187.5 281.5,-168.5 184.5,-168.5"/>
<text text-anchor="middle" x="233" y="-175.5" font-family="Helvetica,sans-Serif" font-size="10.00">ifxBase/Matrix.h</text>
</a>
</g>
</g>
<!-- Node2&#45;&gt;Node10 -->
<g id="edge14" class="edge">
<title>Node2&#45;&gt;Node10</title>
<path fill="none" stroke="midnightblue" d="M127.86,-336.27C130.23,-321.5 135.25,-298.07 145,-280 155.17,-261.16 162.9,-260.11 177,-244 191.32,-227.63 207.53,-208.79 218.8,-195.62"/>
<polygon fill="midnightblue" stroke="midnightblue" points="221.59,-197.74 225.43,-187.87 216.27,-193.19 221.59,-197.74"/>
</g>
<!-- Node4 -->
<g id="node4" class="node">
<title>Node4</title>
<g id="a_node4"><a xlink:title=" ">
<polygon fill="white" stroke="#bfbfbf" points="358,-0.5 358,-19.5 414,-19.5 414,-0.5 358,-0.5"/>
<text text-anchor="middle" x="386" y="-7.5" font-family="Helvetica,sans-Serif" font-size="10.00">stddef.h</text>
</a>
</g>
</g>
<!-- Node3&#45;&gt;Node4 -->
<g id="edge3" class="edge">
<title>Node3&#45;&gt;Node4</title>
<path fill="none" stroke="midnightblue" d="M386,-56.08C386,-49.01 386,-38.86 386,-29.99"/>
<polygon fill="midnightblue" stroke="midnightblue" points="389.5,-29.75 386,-19.75 382.5,-29.75 389.5,-29.75"/>
</g>
<!-- Node5 -->
<g id="node5" class="node">
<title>Node5</title>
<g id="a_node5"><a xlink:title=" ">
<polygon fill="white" stroke="#bfbfbf" points="881.5,-0.5 881.5,-19.5 934.5,-19.5 934.5,-0.5 881.5,-0.5"/>
<text text-anchor="middle" x="908" y="-7.5" font-family="Helvetica,sans-Serif" font-size="10.00">stdint.h</text>
</a>
</g>
</g>
<!-- Node3&#45;&gt;Node5 -->
<g id="edge4" class="edge">
<title>Node3&#45;&gt;Node5</title>
<path fill="none" stroke="midnightblue" d="M432.78,-60.16C535.43,-49.54 778.62,-24.38 871.28,-14.8"/>
<polygon fill="midnightblue" stroke="midnightblue" points="871.72,-18.27 881.3,-13.76 871,-11.31 871.72,-18.27"/>
</g>
<!-- Node7 -->
<g id="node7" class="node">
<title>Node7</title>
<g id="a_node7"><a xlink:href="_defines_8h.html" target="_top" xlink:title="Internal definitions used by standard math.h functions as Macros, to use float or double precision.">
<polygon fill="white" stroke="black" points="66,-224.5 66,-243.5 168,-243.5 168,-224.5 66,-224.5"/>
<text text-anchor="middle" x="117" y="-231.5" font-family="Helvetica,sans-Serif" font-size="10.00">ifxBase/Defines.h</text>
</a>
</g>
</g>
<!-- Node6&#45;&gt;Node7 -->
<g id="edge6" class="edge">
<title>Node6&#45;&gt;Node7</title>
<path fill="none" stroke="midnightblue" d="M185.83,-280.32C173.15,-271.98 153.77,-259.21 138.79,-249.35"/>
<polygon fill="midnightblue" stroke="midnightblue" points="140.42,-246.23 130.14,-243.65 136.57,-252.08 140.42,-246.23"/>
</g>
<!-- Node6&#45;&gt;Node10 -->
<g id="edge11" class="edge">
<title>Node6&#45;&gt;Node10</title>
<path fill="none" stroke="midnightblue" d="M201.67,-280.37C207.18,-262.54 219.93,-221.3 227.35,-197.27"/>
<polygon fill="midnightblue" stroke="midnightblue" points="230.74,-198.18 230.34,-187.59 224.05,-196.11 230.74,-198.18"/>
</g>
<!-- Node8 -->
<g id="node8" class="node">
<title>Node8</title>
<g id="a_node8"><a xlink:href="_math_8h.html" target="_top" xlink:title="API for Mathematical operations.">
<polygon fill="white" stroke="black" points="52.5,-168.5 52.5,-187.5 103.5,-187.5 103.5,-168.5 52.5,-168.5"/>
<text text-anchor="middle" x="78" y="-175.5" font-family="Helvetica,sans-Serif" font-size="10.00">math.h</text>
</a>
</g>
</g>
<!-- Node7&#45;&gt;Node8 -->
<g id="edge7" class="edge">
<title>Node7&#45;&gt;Node8</title>
<path fill="none" stroke="midnightblue" d="M110.56,-224.08C105.05,-216.46 96.97,-205.26 90.24,-195.94"/>
<polygon fill="midnightblue" stroke="midnightblue" points="93.01,-193.81 84.32,-187.75 87.34,-197.91 93.01,-193.81"/>
</g>
<!-- Node8&#45;&gt;Node3 -->
<g id="edge8" class="edge">
<title>Node8&#45;&gt;Node3</title>
<path fill="none" stroke="midnightblue" d="M88.12,-168.38C105.13,-154.37 141,-126.73 176,-112 225.63,-91.11 286.1,-79.47 329.38,-73.29"/>
<polygon fill="midnightblue" stroke="midnightblue" points="330.01,-76.74 339.44,-71.91 329.06,-69.8 330.01,-76.74"/>
</g>
<!-- Node8&#45;&gt;Node9 -->
<g id="edge9" class="edge">
<title>Node8&#45;&gt;Node9</title>
<path fill="none" stroke="midnightblue" d="M102.56,-168.44C128.52,-159.4 169.67,-145.06 198.8,-134.92"/>
<polygon fill="midnightblue" stroke="midnightblue" points="200.26,-138.11 208.55,-131.52 197.96,-131.5 200.26,-138.11"/>
</g>
<!-- Node9&#45;&gt;Node3 -->
<g id="edge10" class="edge">
<title>Node9&#45;&gt;Node3</title>
<path fill="none" stroke="midnightblue" d="M257.24,-112.44C282.87,-103.4 323.49,-89.06 352.24,-78.92"/>
<polygon fill="midnightblue" stroke="midnightblue" points="353.61,-82.15 361.87,-75.52 351.28,-75.54 353.61,-82.15"/>
</g>
<!-- Node10&#45;&gt;Node3 -->
<g id="edge12" class="edge">
<title>Node10&#45;&gt;Node3</title>
<path fill="none" stroke="midnightblue" d="M245.01,-168.37C271.15,-149.57 333.47,-104.77 365.79,-81.53"/>
<polygon fill="midnightblue" stroke="midnightblue" points="367.97,-84.27 374.05,-75.59 363.89,-78.59 367.97,-84.27"/>
</g>
<!-- Node10&#45;&gt;Node9 -->
<g id="edge13" class="edge">
<title>Node10&#45;&gt;Node9</title>
<path fill="none" stroke="midnightblue" d="M233,-168.08C233,-161.01 233,-150.86 233,-141.99"/>
<polygon fill="midnightblue" stroke="midnightblue" points="236.5,-141.75 233,-131.75 229.5,-141.75 236.5,-141.75"/>
</g>
<!-- Node11&#45;&gt;Node3 -->
<g id="edge18" class="edge">
<title>Node11&#45;&gt;Node3</title>
<path fill="none" stroke="midnightblue" d="M332.84,-336.4C338.4,-314.76 348,-271.99 348,-235 348,-235 348,-235 348,-177 348,-142.81 364.6,-105.76 375.86,-84.57"/>
<polygon fill="midnightblue" stroke="midnightblue" points="378.95,-86.22 380.72,-75.77 372.82,-82.83 378.95,-86.22"/>
</g>
<!-- Node11&#45;&gt;Node6 -->
<g id="edge19" class="edge">
<title>Node11&#45;&gt;Node6</title>
<path fill="none" stroke="midnightblue" d="M298.19,-336.4C276.67,-326.55 248.16,-313.5 227.23,-303.92"/>
<polygon fill="midnightblue" stroke="midnightblue" points="228.47,-300.64 217.92,-299.66 225.55,-307 228.47,-300.64"/>
</g>
<!-- Node11&#45;&gt;Node9 -->
<g id="edge21" class="edge">
<title>Node11&#45;&gt;Node9</title>
<path fill="none" stroke="midnightblue" d="M329.13,-336.02C328.78,-303.46 324.23,-223.02 290,-168 282.17,-155.41 269.51,-144.9 258.11,-137.2"/>
<polygon fill="midnightblue" stroke="midnightblue" points="259.67,-134.05 249.35,-131.65 255.92,-139.96 259.67,-134.05"/>
</g>
<!-- Node11&#45;&gt;Node10 -->
<g id="edge20" class="edge">
<title>Node11&#45;&gt;Node10</title>
<path fill="none" stroke="midnightblue" d="M319.08,-336.15C312.32,-326.17 303.3,-312.47 296,-300 275.06,-264.21 253.29,-220.77 241.63,-196.89"/>
<polygon fill="midnightblue" stroke="midnightblue" points="244.66,-195.13 237.15,-187.67 238.36,-198.19 244.66,-195.13"/>
</g>
<!-- Node12 -->
<g id="node12" class="node">
<title>Node12</title>
<g id="a_node12"><a xlink:title=" ">
<polygon fill="white" stroke="#bfbfbf" points="669,-168.5 669,-187.5 731,-187.5 731,-168.5 669,-168.5"/>
<text text-anchor="middle" x="700" y="-175.5" font-family="Helvetica,sans-Serif" font-size="10.00">stdbool.h</text>
</a>
</g>
</g>
<!-- Node11&#45;&gt;Node12 -->
<g id="edge17" class="edge">
<title>Node11&#45;&gt;Node12</title>
<path fill="none" stroke="midnightblue" d="M392.19,-348.01C486.2,-343.33 657.45,-330.76 710,-300 743.31,-280.51 768.04,-259.1 752,-224 746.22,-211.36 734.95,-200.91 724.37,-193.27"/>
<polygon fill="midnightblue" stroke="midnightblue" points="726.04,-190.18 715.78,-187.53 722.15,-196 726.04,-190.18"/>
</g>
<!-- Node13 -->
<g id="node13" class="node">
<title>Node13</title>
<g id="a_node13"><a xlink:href="_device_config_8h.html" target="_top" xlink:title="API for Radar device configuration.">
<polygon fill="white" stroke="black" points="860,-224.5 860,-243.5 1000,-243.5 1000,-224.5 860,-224.5"/>
<text text-anchor="middle" x="930" y="-231.5" font-family="Helvetica,sans-Serif" font-size="10.00">ifxDevice/DeviceConfig.h</text>
</a>
</g>
</g>
<!-- Node11&#45;&gt;Node13 -->
<g id="edge22" class="edge">
<title>Node11&#45;&gt;Node13</title>
<path fill="none" stroke="midnightblue" d="M392.14,-351.45C485.24,-351.16 663.89,-344.15 808,-300 846.08,-288.33 886.07,-264.47 909.48,-249.13"/>
<polygon fill="midnightblue" stroke="midnightblue" points="911.51,-251.99 917.88,-243.52 907.62,-246.17 911.51,-251.99"/>
</g>
<!-- Node15 -->
<g id="node15" class="node">
<title>Node15</title>
<g id="a_node15"><a xlink:href="_device_control_8h.html" target="_top" xlink:title="API for Radar device control operations.">
<polygon fill="white" stroke="black" points="557,-280.5 557,-299.5 701,-299.5 701,-280.5 557,-280.5"/>
<text text-anchor="middle" x="629" y="-287.5" font-family="Helvetica,sans-Serif" font-size="10.00">ifxDevice/DeviceControl.h</text>
</a>
</g>
</g>
<!-- Node11&#45;&gt;Node15 -->
<g id="edge27" class="edge">
<title>Node11&#45;&gt;Node15</title>
<path fill="none" stroke="midnightblue" d="M392.26,-337.95C446.89,-327.12 524.92,-311.64 576.24,-301.46"/>
<polygon fill="midnightblue" stroke="midnightblue" points="577.01,-304.88 586.14,-299.5 575.65,-298.01 577.01,-304.88"/>
</g>
<!-- Node13&#45;&gt;Node3 -->
<g id="edge24" class="edge">
<title>Node13&#45;&gt;Node3</title>
<path fill="none" stroke="midnightblue" d="M925.6,-224.23C917.99,-209.99 900.93,-182.03 878,-168 738.61,-82.68 539.61,-68.15 443,-66.49"/>
<polygon fill="midnightblue" stroke="midnightblue" points="442.9,-62.99 432.85,-66.36 442.8,-69.99 442.9,-62.99"/>
</g>
<!-- Node13&#45;&gt;Node5 -->
<g id="edge23" class="edge">
<title>Node13&#45;&gt;Node5</title>
<path fill="none" stroke="midnightblue" d="M929.14,-224.3C925.9,-191.63 914.43,-75.87 909.88,-29.96"/>
<polygon fill="midnightblue" stroke="midnightblue" points="913.35,-29.49 908.88,-19.88 906.38,-30.18 913.35,-29.49"/>
</g>
<!-- Node14 -->
<g id="node14" class="node">
<title>Node14</title>
<g id="a_node14"><a xlink:href="_shield_8h.html" target="_top" xlink:title="Defines the Enumeration for the presence of the available Shield.">
<polygon fill="white" stroke="black" points="763.5,-168.5 763.5,-187.5 868.5,-187.5 868.5,-168.5 763.5,-168.5"/>
<text text-anchor="middle" x="816" y="-175.5" font-family="Helvetica,sans-Serif" font-size="10.00">ifxDevice/Shield.h</text>
</a>
</g>
</g>
<!-- Node13&#45;&gt;Node14 -->
<g id="edge25" class="edge">
<title>Node13&#45;&gt;Node14</title>
<path fill="none" stroke="midnightblue" d="M911.94,-224.44C893.43,-215.68 864.42,-201.94 843.14,-191.86"/>
<polygon fill="midnightblue" stroke="midnightblue" points="844.51,-188.63 833.98,-187.52 841.52,-194.96 844.51,-188.63"/>
</g>
<!-- Node14&#45;&gt;Node5 -->
<g id="edge26" class="edge">
<title>Node14&#45;&gt;Node5</title>
<path fill="none" stroke="midnightblue" d="M820.95,-168.08C835.55,-141.72 878.69,-63.88 898.21,-28.66"/>
<polygon fill="midnightblue" stroke="midnightblue" points="901.47,-30.01 903.25,-19.57 895.34,-26.62 901.47,-30.01"/>
</g>
<!-- Node15&#45;&gt;Node3 -->
<g id="edge29" class="edge">
<title>Node15&#45;&gt;Node3</title>
<path fill="none" stroke="midnightblue" d="M556.76,-283.63C499.25,-277.76 425.15,-266.08 405,-244 364.77,-199.92 374.42,-121.63 381.59,-85.82"/>
<polygon fill="midnightblue" stroke="midnightblue" points="385.07,-86.3 383.77,-75.78 378.23,-84.82 385.07,-86.3"/>
</g>
<!-- Node15&#45;&gt;Node12 -->
<g id="edge28" class="edge">
<title>Node15&#45;&gt;Node12</title>
<path fill="none" stroke="midnightblue" d="M679.51,-280.49C700.68,-274.15 723.29,-263.14 736,-244 746.74,-227.83 732.42,-208.21 718.78,-194.79"/>
<polygon fill="midnightblue" stroke="midnightblue" points="720.77,-191.86 711.03,-187.67 716.03,-197.01 720.77,-191.86"/>
</g>
<!-- Node15&#45;&gt;Node13 -->
<g id="edge37" class="edge">
<title>Node15&#45;&gt;Node13</title>
<path fill="none" stroke="midnightblue" d="M676.69,-280.44C729.86,-270.9 815.82,-255.48 872.63,-245.29"/>
<polygon fill="midnightblue" stroke="midnightblue" points="873.3,-248.73 882.53,-243.52 872.07,-241.84 873.3,-248.73"/>
</g>
<!-- Node15&#45;&gt;Node14 -->
<g id="edge42" class="edge">
<title>Node15&#45;&gt;Node14</title>
<path fill="none" stroke="midnightblue" d="M664.57,-280.5C690.22,-273.33 724.95,-261.42 752,-244 772.29,-230.94 791.1,-210.4 803,-195.91"/>
<polygon fill="midnightblue" stroke="midnightblue" points="805.98,-197.79 809.47,-187.79 800.5,-193.43 805.98,-197.79"/>
</g>
<!-- Node16 -->
<g id="node16" class="node">
<title>Node16</title>
<g id="a_node16"><a xlink:href="_error_8h.html" target="_top" xlink:title="API for error handling.">
<polygon fill="white" stroke="black" points="414,-224.5 414,-243.5 502,-243.5 502,-224.5 414,-224.5"/>
<text text-anchor="middle" x="458" y="-231.5" font-family="Helvetica,sans-Serif" font-size="10.00">ifxBase/Error.h</text>
</a>
</g>
</g>
<!-- Node15&#45;&gt;Node16 -->
<g id="edge30" class="edge">
<title>Node15&#45;&gt;Node16</title>
<path fill="none" stroke="midnightblue" d="M601.9,-280.44C573.01,-271.32 527.08,-256.81 494.89,-246.65"/>
<polygon fill="midnightblue" stroke="midnightblue" points="495.56,-243.19 484.97,-243.52 493.45,-249.87 495.56,-243.19"/>
</g>
<!-- Node19 -->
<g id="node19" class="node">
<title>Node19</title>
<g id="a_node19"><a xlink:href="_list_8h.html" target="_top" xlink:title=" ">
<polygon fill="white" stroke="black" points="644.5,-224.5 644.5,-243.5 727.5,-243.5 727.5,-224.5 644.5,-224.5"/>
<text text-anchor="middle" x="686" y="-231.5" font-family="Helvetica,sans-Serif" font-size="10.00">ifxBase/List.h</text>
</a>
</g>
</g>
<!-- Node15&#45;&gt;Node19 -->
<g id="edge34" class="edge">
<title>Node15&#45;&gt;Node19</title>
<path fill="none" stroke="midnightblue" d="M638.16,-280.32C646.5,-272.42 659.03,-260.55 669.18,-250.94"/>
<polygon fill="midnightblue" stroke="midnightblue" points="671.82,-253.25 676.68,-243.83 667.01,-248.17 671.82,-253.25"/>
</g>
<!-- Node20 -->
<g id="node20" class="node">
<title>Node20</title>
<g id="a_node20"><a xlink:href="_frame_8h.html" target="_top" xlink:title="API for Measurement Frame handling.">
<polygon fill="white" stroke="black" points="520,-224.5 520,-243.5 626,-243.5 626,-224.5 520,-224.5"/>
<text text-anchor="middle" x="573" y="-231.5" font-family="Helvetica,sans-Serif" font-size="10.00">ifxDevice/Frame.h</text>
</a>
</g>
</g>
<!-- Node15&#45;&gt;Node20 -->
<g id="edge38" class="edge">
<title>Node15&#45;&gt;Node20</title>
<path fill="none" stroke="midnightblue" d="M620,-280.32C611.81,-272.42 599.49,-260.55 589.53,-250.94"/>
<polygon fill="midnightblue" stroke="midnightblue" points="591.79,-248.26 582.16,-243.83 586.93,-253.29 591.79,-248.26"/>
</g>
<!-- Node17 -->
<g id="node17" class="node">
<title>Node17</title>
<g id="a_node17"><a xlink:href="_log_8h.html" target="_top" xlink:title="API for logging.">
<polygon fill="white" stroke="black" points="416.5,-168.5 416.5,-187.5 499.5,-187.5 499.5,-168.5 416.5,-168.5"/>
<text text-anchor="middle" x="458" y="-175.5" font-family="Helvetica,sans-Serif" font-size="10.00">ifxBase/Log.h</text>
</a>
</g>
</g>
<!-- Node16&#45;&gt;Node17 -->
<g id="edge31" class="edge">
<title>Node16&#45;&gt;Node17</title>
<path fill="none" stroke="midnightblue" d="M458,-224.08C458,-217.01 458,-206.86 458,-197.99"/>
<polygon fill="midnightblue" stroke="midnightblue" points="461.5,-197.75 458,-187.75 454.5,-197.75 461.5,-197.75"/>
</g>
<!-- Node17&#45;&gt;Node3 -->
<g id="edge33" class="edge">
<title>Node17&#45;&gt;Node3</title>
<path fill="none" stroke="midnightblue" d="M452.35,-168.37C440.47,-150.22 412.71,-107.8 397.12,-83.99"/>
<polygon fill="midnightblue" stroke="midnightblue" points="400.03,-82.04 391.62,-75.59 394.17,-85.88 400.03,-82.04"/>
</g>
<!-- Node18 -->
<g id="node18" class="node">
<title>Node18</title>
<g id="a_node18"><a xlink:title=" ">
<polygon fill="white" stroke="#bfbfbf" points="452,-112.5 452,-131.5 502,-131.5 502,-112.5 452,-112.5"/>
<text text-anchor="middle" x="477" y="-119.5" font-family="Helvetica,sans-Serif" font-size="10.00">stdio.h</text>
</a>
</g>
</g>
<!-- Node17&#45;&gt;Node18 -->
<g id="edge32" class="edge">
<title>Node17&#45;&gt;Node18</title>
<path fill="none" stroke="midnightblue" d="M461.14,-168.08C463.68,-160.85 467.36,-150.41 470.53,-141.4"/>
<polygon fill="midnightblue" stroke="midnightblue" points="473.9,-142.35 473.92,-131.75 467.3,-140.02 473.9,-142.35"/>
</g>
<!-- Node19&#45;&gt;Node3 -->
<g id="edge35" class="edge">
<title>Node19&#45;&gt;Node3</title>
<path fill="none" stroke="midnightblue" d="M677.59,-224.34C655.86,-202.4 595.21,-144.16 534,-112 504.23,-96.36 468.16,-85.25 439.09,-77.98"/>
<polygon fill="midnightblue" stroke="midnightblue" points="439.66,-74.52 429.12,-75.57 438.02,-81.33 439.66,-74.52"/>
</g>
<!-- Node19&#45;&gt;Node12 -->
<g id="edge36" class="edge">
<title>Node19&#45;&gt;Node12</title>
<path fill="none" stroke="midnightblue" d="M688.31,-224.08C690.17,-216.93 692.84,-206.64 695.15,-197.69"/>
<polygon fill="midnightblue" stroke="midnightblue" points="698.61,-198.31 697.73,-187.75 691.83,-196.55 698.61,-198.31"/>
</g>
<!-- Node20&#45;&gt;Node3 -->
<g id="edge40" class="edge">
<title>Node20&#45;&gt;Node3</title>
<path fill="none" stroke="midnightblue" d="M570.92,-224.31C565.23,-202.32 547.33,-143.96 511,-112 491.83,-95.14 465.87,-84.45 442.57,-77.74"/>
<polygon fill="midnightblue" stroke="midnightblue" points="443.35,-74.32 432.78,-75.1 441.53,-81.08 443.35,-74.32"/>
</g>
<!-- Node20&#45;&gt;Node10 -->
<g id="edge41" class="edge">
<title>Node20&#45;&gt;Node10</title>
<path fill="none" stroke="midnightblue" d="M519.88,-224.56C457.91,-214.72 355.81,-198.5 291.59,-188.31"/>
<polygon fill="midnightblue" stroke="midnightblue" points="292.05,-184.83 281.62,-186.72 290.95,-191.75 292.05,-184.83"/>
</g>
<!-- Node20&#45;&gt;Node12 -->
<g id="edge39" class="edge">
<title>Node20&#45;&gt;Node12</title>
<path fill="none" stroke="midnightblue" d="M593.12,-224.44C614.02,-215.56 646.93,-201.56 670.72,-191.45"/>
<polygon fill="midnightblue" stroke="midnightblue" points="672.14,-194.65 679.97,-187.52 669.4,-188.21 672.14,-194.65"/>
</g>
</g>
</svg>
