<?xml version="1.0" encoding="UTF-8" standalone="no"?>
<!DOCTYPE svg PUBLIC "-//W3C//DTD SVG 1.1//EN"
 "http://www.w3.org/Graphics/SVG/1.1/DTD/svg11.dtd">
<!-- Generated by graphviz version 2.43.0 (0)
 -->
<!-- Title: /home/build/sdk/c/ifxRadar/Radar.h Pages: 1 -->
<svg width="1797pt" height="487pt"
 viewBox="0.00 0.00 1797.00 487.00" xmlns="http://www.w3.org/2000/svg" xmlns:xlink="http://www.w3.org/1999/xlink">
<g id="graph0" class="graph" transform="scale(1 1) rotate(0) translate(4 483)">
<title>/home/build/sdk/c/ifxRadar/Radar.h</title>
<polygon fill="white" stroke="transparent" points="-4,4 -4,-483 1793,-483 1793,4 -4,4"/>
<!-- Node1 -->
<g id="node1" class="node">
<title>Node1</title>
<g id="a_node1"><a xlink:title="Header for ifxRadar.">
<polygon fill="#bfbfbf" stroke="black" points="1235.5,-448.5 1235.5,-478.5 1382.5,-478.5 1382.5,-448.5 1235.5,-448.5"/>
<text text-anchor="start" x="1243.5" y="-466.5" font-family="Helvetica,sans-Serif" font-size="10.00">/home/build/sdk/c/ifxRadar</text>
<text text-anchor="middle" x="1309" y="-455.5" font-family="Helvetica,sans-Serif" font-size="10.00">/Radar.h</text>
</a>
</g>
</g>
<!-- Node2 -->
<g id="node2" class="node">
<title>Node2</title>
<g id="a_node2"><a xlink:href="_angle_monopulse_8h.html" target="_top" xlink:title="API for Phase Monopulse algorithm.">
<polygon fill="white" stroke="black" points="1482.5,-336.5 1482.5,-355.5 1633.5,-355.5 1633.5,-336.5 1482.5,-336.5"/>
<text text-anchor="middle" x="1558" y="-343.5" font-family="Helvetica,sans-Serif" font-size="10.00">ifxRadar/AngleMonopulse.h</text>
</a>
</g>
</g>
<!-- Node1&#45;&gt;Node2 -->
<g id="edge1" class="edge">
<title>Node1&#45;&gt;Node2</title>
<path fill="none" stroke="midnightblue" d="M1355.33,-448.47C1383.3,-439.38 1419.34,-426.54 1450,-412 1481.52,-397.05 1515.66,-375.52 1536.94,-361.39"/>
<polygon fill="midnightblue" stroke="midnightblue" points="1539.14,-364.13 1545.49,-355.66 1535.24,-358.32 1539.14,-364.13"/>
</g>
<!-- Node10 -->
<g id="node10" class="node">
<title>Node10</title>
<g id="a_node10"><a xlink:href="_d_b_f_8h.html" target="_top" xlink:title="API for Digital Beamforming (DBF) algorithm.">
<polygon fill="white" stroke="black" points="1172.5,-336.5 1172.5,-355.5 1261.5,-355.5 1261.5,-336.5 1172.5,-336.5"/>
<text text-anchor="middle" x="1217" y="-343.5" font-family="Helvetica,sans-Serif" font-size="10.00">ifxRadar/DBF.h</text>
</a>
</g>
</g>
<!-- Node1&#45;&gt;Node10 -->
<g id="edge13" class="edge">
<title>Node1&#45;&gt;Node10</title>
<path fill="none" stroke="midnightblue" d="M1297.72,-448.34C1280.69,-426.96 1248.49,-386.53 1230.33,-363.73"/>
<polygon fill="midnightblue" stroke="midnightblue" points="1232.87,-361.31 1223.91,-355.67 1227.4,-365.67 1232.87,-361.31"/>
</g>
<!-- Node13 -->
<g id="node13" class="node">
<title>Node13</title>
<g id="a_node13"><a xlink:href="_presence_sensing_8h.html" target="_top" xlink:title="API for Presence Sensing algorithm.">
<polygon fill="white" stroke="black" points="614,-336.5 614,-355.5 766,-355.5 766,-336.5 614,-336.5"/>
<text text-anchor="middle" x="690" y="-343.5" font-family="Helvetica,sans-Serif" font-size="10.00">ifxRadar/PresenceSensing.h</text>
</a>
</g>
</g>
<!-- Node1&#45;&gt;Node13 -->
<g id="edge20" class="edge">
<title>Node1&#45;&gt;Node13</title>
<path fill="none" stroke="midnightblue" d="M1235.39,-457.42C1152.81,-450.81 1015.21,-437.02 899,-412 835.3,-398.29 763.17,-373.78 722.48,-359.1"/>
<polygon fill="midnightblue" stroke="midnightblue" points="723.43,-355.72 712.84,-355.59 721.04,-362.29 723.43,-355.72"/>
</g>
<!-- Node24 -->
<g id="node24" class="node">
<title>Node24</title>
<g id="a_node24"><a xlink:href="_range_spectrum_8h.html" target="_top" xlink:title="API for Range Spectrum.">
<polygon fill="white" stroke="black" points="756.5,-280.5 756.5,-299.5 903.5,-299.5 903.5,-280.5 756.5,-280.5"/>
<text text-anchor="middle" x="830" y="-287.5" font-family="Helvetica,sans-Serif" font-size="10.00">ifxRadar/RangeSpectrum.h</text>
</a>
</g>
</g>
<!-- Node1&#45;&gt;Node24 -->
<g id="edge64" class="edge">
<title>Node1&#45;&gt;Node24</title>
<path fill="none" stroke="midnightblue" d="M1235.32,-456.11C1178.83,-449.53 1099.68,-436.61 1034,-412 961.08,-384.68 884.58,-331.7 849.57,-305.87"/>
<polygon fill="midnightblue" stroke="midnightblue" points="851.32,-302.81 841.22,-299.64 847.14,-308.42 851.32,-302.81"/>
</g>
<!-- Node27 -->
<g id="node27" class="node">
<title>Node27</title>
<g id="a_node27"><a xlink:href="_range_doppler_map_8h.html" target="_top" xlink:title="API for Range Doppler Map.">
<polygon fill="white" stroke="black" points="922,-280.5 922,-299.5 1082,-299.5 1082,-280.5 922,-280.5"/>
<text text-anchor="middle" x="1002" y="-287.5" font-family="Helvetica,sans-Serif" font-size="10.00">ifxRadar/RangeDopplerMap.h</text>
</a>
</g>
</g>
<!-- Node1&#45;&gt;Node27 -->
<g id="edge60" class="edge">
<title>Node1&#45;&gt;Node27</title>
<path fill="none" stroke="midnightblue" d="M1235.22,-455.31C1170.71,-447.7 1083.21,-433.74 1056,-412 1023.6,-386.12 1010.06,-336.7 1004.88,-309.72"/>
<polygon fill="midnightblue" stroke="midnightblue" points="1008.29,-308.92 1003.14,-299.66 1001.39,-310.11 1008.29,-308.92"/>
</g>
<!-- Node28 -->
<g id="node28" class="node">
<title>Node28</title>
<g id="a_node28"><a xlink:href="_spectrum_axis_8h.html" target="_top" xlink:title="API for Spectrum Axis used by Range spectrum, Range Doppler and Range Angle Map modules.">
<polygon fill="white" stroke="black" points="1224.5,-224.5 1224.5,-243.5 1361.5,-243.5 1361.5,-224.5 1224.5,-224.5"/>
<text text-anchor="middle" x="1293" y="-231.5" font-family="Helvetica,sans-Serif" font-size="10.00">ifxRadar/SpectrumAxis.h</text>
</a>
</g>
</g>
<!-- Node1&#45;&gt;Node28 -->
<g id="edge65" class="edge">
<title>Node1&#45;&gt;Node28</title>
<path fill="none" stroke="midnightblue" d="M1337.15,-448.44C1376.16,-426.9 1439.43,-383.21 1417,-336 1397.21,-294.36 1350.93,-264.25 1320.85,-248.23"/>
<polygon fill="midnightblue" stroke="midnightblue" points="1322.2,-244.99 1311.7,-243.52 1319,-251.21 1322.2,-244.99"/>
</g>
<!-- Node29 -->
<g id="node29" class="node">
<title>Node29</title>
<g id="a_node29"><a xlink:href="_peak_search_8h.html" target="_top" xlink:title="API for Peak Search preprocessing.">
<polygon fill="white" stroke="black" points="1633.5,-168.5 1633.5,-187.5 1760.5,-187.5 1760.5,-168.5 1633.5,-168.5"/>
<text text-anchor="middle" x="1697" y="-175.5" font-family="Helvetica,sans-Serif" font-size="10.00">ifxRadar/PeakSearch.h</text>
</a>
</g>
</g>
<!-- Node1&#45;&gt;Node29 -->
<g id="edge69" class="edge">
<title>Node1&#45;&gt;Node29</title>
<path fill="none" stroke="midnightblue" d="M1382.83,-454.42C1490,-440.61 1676,-407.87 1676,-347 1676,-347 1676,-347 1676,-289 1676,-256.38 1685.02,-219.28 1691.23,-197.57"/>
<polygon fill="midnightblue" stroke="midnightblue" points="1694.67,-198.32 1694.17,-187.73 1687.96,-196.32 1694.67,-198.32"/>
</g>
<!-- Node30 -->
<g id="node30" class="node">
<title>Node30</title>
<g id="a_node30"><a xlink:href="_angle_capon_8h.html" target="_top" xlink:title="API for Angle Capon algorithm.">
<polygon fill="white" stroke="black" points="1280,-336.5 1280,-355.5 1408,-355.5 1408,-336.5 1280,-336.5"/>
<text text-anchor="middle" x="1344" y="-343.5" font-family="Helvetica,sans-Serif" font-size="10.00">ifxRadar/AngleCapon.h</text>
</a>
</g>
</g>
<!-- Node1&#45;&gt;Node30 -->
<g id="edge72" class="edge">
<title>Node1&#45;&gt;Node30</title>
<path fill="none" stroke="midnightblue" d="M1313.29,-448.34C1319.63,-427.43 1331.48,-388.31 1338.46,-365.27"/>
<polygon fill="midnightblue" stroke="midnightblue" points="1341.82,-366.25 1341.37,-355.67 1335.12,-364.22 1341.82,-366.25"/>
</g>
<!-- Node31 -->
<g id="node31" class="node">
<title>Node31</title>
<g id="a_node31"><a xlink:href="_range_angle_image_8h.html" target="_top" xlink:title="API for Range Angle Image algorithm.">
<polygon fill="white" stroke="black" points="1064.5,-392.5 1064.5,-411.5 1223.5,-411.5 1223.5,-392.5 1064.5,-392.5"/>
<text text-anchor="middle" x="1144" y="-399.5" font-family="Helvetica,sans-Serif" font-size="10.00">ifxRadar/RangeAngleImage.h</text>
</a>
</g>
</g>
<!-- Node1&#45;&gt;Node31 -->
<g id="edge75" class="edge">
<title>Node1&#45;&gt;Node31</title>
<path fill="none" stroke="midnightblue" d="M1269.9,-448.4C1241.84,-438.28 1204.43,-424.79 1177.69,-415.15"/>
<polygon fill="midnightblue" stroke="midnightblue" points="1178.6,-411.76 1168.01,-411.66 1176.23,-418.34 1178.6,-411.76"/>
</g>
<!-- Node32 -->
<g id="node32" class="node">
<title>Node32</title>
<g id="a_node32"><a xlink:href="_target_8h.html" target="_top" xlink:title="Definitions used by Tracker algorithm.">
<polygon fill="white" stroke="black" points="1671,-112.5 1671,-131.5 1771,-131.5 1771,-112.5 1671,-112.5"/>
<text text-anchor="middle" x="1721" y="-119.5" font-family="Helvetica,sans-Serif" font-size="10.00">ifxRadar/Target.h</text>
</a>
</g>
</g>
<!-- Node1&#45;&gt;Node32 -->
<g id="edge80" class="edge">
<title>Node1&#45;&gt;Node32</title>
<path fill="none" stroke="midnightblue" d="M1382.69,-459.95C1517.24,-453.26 1789,-429.55 1789,-347 1789,-347 1789,-347 1789,-233 1789,-202.9 1785.89,-193.56 1770,-168 1762.74,-156.32 1751.63,-145.76 1741.82,-137.82"/>
<polygon fill="midnightblue" stroke="midnightblue" points="1743.73,-134.87 1733.67,-131.54 1739.46,-140.42 1743.73,-134.87"/>
</g>
<!-- Node3 -->
<g id="node3" class="node">
<title>Node3</title>
<g id="a_node3"><a xlink:href="_types_8h.html" target="_top" xlink:title="Definitions of data types used within the SDK.">
<polygon fill="white" stroke="black" points="991.5,-56.5 991.5,-75.5 1084.5,-75.5 1084.5,-56.5 991.5,-56.5"/>
<text text-anchor="middle" x="1038" y="-63.5" font-family="Helvetica,sans-Serif" font-size="10.00">ifxBase/Types.h</text>
</a>
</g>
</g>
<!-- Node2&#45;&gt;Node3 -->
<g id="edge2" class="edge">
<title>Node2&#45;&gt;Node3</title>
<path fill="none" stroke="midnightblue" d="M1564.63,-336.27C1570.77,-327.61 1579.46,-313.67 1583,-300 1600.3,-233.25 1639.14,-194.72 1544,-112 1510.7,-83.05 1220.24,-71.86 1095.04,-68.36"/>
<polygon fill="midnightblue" stroke="midnightblue" points="1094.97,-64.85 1084.88,-68.08 1094.78,-71.85 1094.97,-64.85"/>
</g>
<!-- Node6 -->
<g id="node6" class="node">
<title>Node6</title>
<g id="a_node6"><a xlink:href="_complex_8h.html" target="_top" xlink:title="API for operations on complex numbers.">
<polygon fill="white" stroke="black" points="1448.5,-280.5 1448.5,-299.5 1557.5,-299.5 1557.5,-280.5 1448.5,-280.5"/>
<text text-anchor="middle" x="1503" y="-287.5" font-family="Helvetica,sans-Serif" font-size="10.00">ifxBase/Complex.h</text>
</a>
</g>
</g>
<!-- Node2&#45;&gt;Node6 -->
<g id="edge5" class="edge">
<title>Node2&#45;&gt;Node6</title>
<path fill="none" stroke="midnightblue" d="M1548.92,-336.08C1540.83,-328.14 1528.8,-316.34 1519.09,-306.8"/>
<polygon fill="midnightblue" stroke="midnightblue" points="1521.5,-304.26 1511.91,-299.75 1516.6,-309.25 1521.5,-304.26"/>
</g>
<!-- Node9 -->
<g id="node9" class="node">
<title>Node9</title>
<g id="a_node9"><a xlink:href="_vector_8h.html" target="_top" xlink:title="API for operations on Vector data structures.">
<polygon fill="white" stroke="black" points="1123.5,-112.5 1123.5,-131.5 1218.5,-131.5 1218.5,-112.5 1123.5,-112.5"/>
<text text-anchor="middle" x="1171" y="-119.5" font-family="Helvetica,sans-Serif" font-size="10.00">ifxBase/Vector.h</text>
</a>
</g>
</g>
<!-- Node2&#45;&gt;Node9 -->
<g id="edge12" class="edge">
<title>Node2&#45;&gt;Node9</title>
<path fill="none" stroke="midnightblue" d="M1562.17,-336.49C1567.86,-323.55 1576.35,-298.51 1567,-280 1548.08,-242.55 1528.3,-243.22 1491,-224 1402.15,-178.22 1288.66,-148.44 1223.47,-133.77"/>
<polygon fill="midnightblue" stroke="midnightblue" points="1223.95,-130.3 1213.43,-131.55 1222.44,-137.13 1223.95,-130.3"/>
</g>
<!-- Node4 -->
<g id="node4" class="node">
<title>Node4</title>
<g id="a_node4"><a xlink:title=" ">
<polygon fill="white" stroke="#bfbfbf" points="1199,-0.5 1199,-19.5 1255,-19.5 1255,-0.5 1199,-0.5"/>
<text text-anchor="middle" x="1227" y="-7.5" font-family="Helvetica,sans-Serif" font-size="10.00">stddef.h</text>
</a>
</g>
</g>
<!-- Node3&#45;&gt;Node4 -->
<g id="edge3" class="edge">
<title>Node3&#45;&gt;Node4</title>
<path fill="none" stroke="midnightblue" d="M1067.95,-56.44C1100.63,-47.11 1153.05,-32.13 1188.7,-21.94"/>
<polygon fill="midnightblue" stroke="midnightblue" points="1190.08,-25.19 1198.74,-19.08 1188.16,-18.46 1190.08,-25.19"/>
</g>
<!-- Node5 -->
<g id="node5" class="node">
<title>Node5</title>
<g id="a_node5"><a xlink:title=" ">
<polygon fill="white" stroke="#bfbfbf" points="152.5,-0.5 152.5,-19.5 205.5,-19.5 205.5,-0.5 152.5,-0.5"/>
<text text-anchor="middle" x="179" y="-7.5" font-family="Helvetica,sans-Serif" font-size="10.00">stdint.h</text>
</a>
</g>
</g>
<!-- Node3&#45;&gt;Node5 -->
<g id="edge4" class="edge">
<title>Node3&#45;&gt;Node5</title>
<path fill="none" stroke="midnightblue" d="M991.21,-62.06C838,-52.43 353.37,-21.96 215.76,-13.31"/>
<polygon fill="midnightblue" stroke="midnightblue" points="215.93,-9.81 205.73,-12.68 215.49,-16.8 215.93,-9.81"/>
</g>
<!-- Node6&#45;&gt;Node3 -->
<g id="edge11" class="edge">
<title>Node6&#45;&gt;Node3</title>
<path fill="none" stroke="midnightblue" d="M1508.11,-280.22C1523.96,-251.74 1568.61,-160.94 1524,-112 1495.57,-80.82 1217.14,-70.92 1094.97,-68.06"/>
<polygon fill="midnightblue" stroke="midnightblue" points="1094.77,-64.55 1084.7,-67.83 1094.61,-71.55 1094.77,-64.55"/>
</g>
<!-- Node7 -->
<g id="node7" class="node">
<title>Node7</title>
<g id="a_node7"><a xlink:href="_defines_8h.html" target="_top" xlink:title="Internal definitions used by standard math.h functions as Macros, to use float or double precision.">
<polygon fill="white" stroke="black" points="1380,-224.5 1380,-243.5 1482,-243.5 1482,-224.5 1380,-224.5"/>
<text text-anchor="middle" x="1431" y="-231.5" font-family="Helvetica,sans-Serif" font-size="10.00">ifxBase/Defines.h</text>
</a>
</g>
</g>
<!-- Node6&#45;&gt;Node7 -->
<g id="edge6" class="edge">
<title>Node6&#45;&gt;Node7</title>
<path fill="none" stroke="midnightblue" d="M1491.43,-280.32C1480.58,-272.18 1464.12,-259.84 1451.12,-250.09"/>
<polygon fill="midnightblue" stroke="midnightblue" points="1452.88,-247.03 1442.78,-243.83 1448.68,-252.63 1452.88,-247.03"/>
</g>
<!-- Node8 -->
<g id="node8" class="node">
<title>Node8</title>
<g id="a_node8"><a xlink:href="_math_8h.html" target="_top" xlink:title="API for Mathematical operations.">
<polygon fill="white" stroke="black" points="1259.5,-168.5 1259.5,-187.5 1310.5,-187.5 1310.5,-168.5 1259.5,-168.5"/>
<text text-anchor="middle" x="1285" y="-175.5" font-family="Helvetica,sans-Serif" font-size="10.00">math.h</text>
</a>
</g>
</g>
<!-- Node7&#45;&gt;Node8 -->
<g id="edge7" class="edge">
<title>Node7&#45;&gt;Node8</title>
<path fill="none" stroke="midnightblue" d="M1407.87,-224.44C1383.52,-215.44 1344.99,-201.19 1317.58,-191.05"/>
<polygon fill="midnightblue" stroke="midnightblue" points="1318.62,-187.7 1308.03,-187.52 1316.19,-194.27 1318.62,-187.7"/>
</g>
<!-- Node8&#45;&gt;Node3 -->
<g id="edge8" class="edge">
<title>Node8&#45;&gt;Node3</title>
<path fill="none" stroke="midnightblue" d="M1284.41,-168.34C1282.96,-154.27 1278,-126.55 1261,-112 1236.52,-91.04 1152.62,-78.51 1095.01,-72.19"/>
<polygon fill="midnightblue" stroke="midnightblue" points="1095.25,-68.7 1084.94,-71.12 1094.51,-75.66 1095.25,-68.7"/>
</g>
<!-- Node8&#45;&gt;Node9 -->
<g id="edge9" class="edge">
<title>Node8&#45;&gt;Node9</title>
<path fill="none" stroke="midnightblue" d="M1266.94,-168.44C1248.43,-159.68 1219.42,-145.94 1198.14,-135.86"/>
<polygon fill="midnightblue" stroke="midnightblue" points="1199.51,-132.63 1188.98,-131.52 1196.52,-138.96 1199.51,-132.63"/>
</g>
<!-- Node9&#45;&gt;Node3 -->
<g id="edge10" class="edge">
<title>Node9&#45;&gt;Node3</title>
<path fill="none" stroke="midnightblue" d="M1149.93,-112.44C1127.94,-103.52 1093.27,-89.44 1068.34,-79.32"/>
<polygon fill="midnightblue" stroke="midnightblue" points="1069.56,-76.04 1058.98,-75.52 1066.92,-82.52 1069.56,-76.04"/>
</g>
<!-- Node10&#45;&gt;Node3 -->
<g id="edge14" class="edge">
<title>Node10&#45;&gt;Node3</title>
<path fill="none" stroke="midnightblue" d="M1222.13,-336.41C1227.06,-327.61 1234.16,-313.38 1237,-300 1238.85,-291.3 1239.32,-288.58 1237,-280 1232.17,-262.12 1220.83,-261.88 1216,-244 1200.63,-187.13 1264.54,-158.21 1228,-112 1211.57,-91.23 1144.43,-79.05 1094.59,-72.71"/>
<polygon fill="midnightblue" stroke="midnightblue" points="1094.91,-69.23 1084.56,-71.48 1094.06,-76.17 1094.91,-69.23"/>
</g>
<!-- Node11 -->
<g id="node11" class="node">
<title>Node11</title>
<g id="a_node11"><a xlink:href="_cube_8h.html" target="_top" xlink:title="API for operations on Cube data structures.">
<polygon fill="white" stroke="black" points="1138,-280.5 1138,-299.5 1228,-299.5 1228,-280.5 1138,-280.5"/>
<text text-anchor="middle" x="1183" y="-287.5" font-family="Helvetica,sans-Serif" font-size="10.00">ifxBase/Cube.h</text>
</a>
</g>
</g>
<!-- Node10&#45;&gt;Node11 -->
<g id="edge15" class="edge">
<title>Node10&#45;&gt;Node11</title>
<path fill="none" stroke="midnightblue" d="M1211.39,-336.08C1206.63,-328.53 1199.68,-317.49 1193.85,-308.23"/>
<polygon fill="midnightblue" stroke="midnightblue" points="1196.8,-306.35 1188.51,-299.75 1190.88,-310.08 1196.8,-306.35"/>
</g>
<!-- Node11&#45;&gt;Node7 -->
<g id="edge16" class="edge">
<title>Node11&#45;&gt;Node7</title>
<path fill="none" stroke="midnightblue" d="M1222.3,-280.44C1265.56,-271.02 1335.17,-255.87 1381.97,-245.68"/>
<polygon fill="midnightblue" stroke="midnightblue" points="1382.86,-249.06 1391.89,-243.52 1381.37,-242.22 1382.86,-249.06"/>
</g>
<!-- Node12 -->
<g id="node12" class="node">
<title>Node12</title>
<g id="a_node12"><a xlink:href="_matrix_8h.html" target="_top" xlink:title="API for operations on Matrix data structures.">
<polygon fill="white" stroke="black" points="736.5,-168.5 736.5,-187.5 833.5,-187.5 833.5,-168.5 736.5,-168.5"/>
<text text-anchor="middle" x="785" y="-175.5" font-family="Helvetica,sans-Serif" font-size="10.00">ifxBase/Matrix.h</text>
</a>
</g>
</g>
<!-- Node11&#45;&gt;Node12 -->
<g id="edge17" class="edge">
<title>Node11&#45;&gt;Node12</title>
<path fill="none" stroke="midnightblue" d="M1137.84,-283.83C1069.45,-275.66 943,-259.13 900,-244 883.1,-238.05 880.59,-232.84 865,-224 846.4,-213.46 825.33,-201.61 809.48,-192.71"/>
<polygon fill="midnightblue" stroke="midnightblue" points="810.79,-189.43 800.35,-187.6 807.36,-195.54 810.79,-189.43"/>
</g>
<!-- Node12&#45;&gt;Node3 -->
<g id="edge18" class="edge">
<title>Node12&#45;&gt;Node3</title>
<path fill="none" stroke="midnightblue" d="M804.85,-168.37C849.28,-149.05 956.9,-102.26 1008.91,-79.65"/>
<polygon fill="midnightblue" stroke="midnightblue" points="1010.46,-82.79 1018.24,-75.59 1007.67,-76.37 1010.46,-82.79"/>
</g>
<!-- Node12&#45;&gt;Node9 -->
<g id="edge19" class="edge">
<title>Node12&#45;&gt;Node9</title>
<path fill="none" stroke="midnightblue" d="M833.72,-169.38C836.86,-168.9 839.98,-168.44 843,-168 937.61,-154.17 1047.76,-139.31 1113.31,-130.6"/>
<polygon fill="midnightblue" stroke="midnightblue" points="1113.98,-134.04 1123.43,-129.26 1113.06,-127.1 1113.98,-134.04"/>
</g>
<!-- Node13&#45;&gt;Node3 -->
<g id="edge24" class="edge">
<title>Node13&#45;&gt;Node3</title>
<path fill="none" stroke="midnightblue" d="M678.46,-336.43C657.2,-319.57 614,-279.8 614,-235 614,-235 614,-235 614,-177 614,-101.98 865.84,-77.26 981.34,-69.87"/>
<polygon fill="midnightblue" stroke="midnightblue" points="981.65,-73.35 991.41,-69.24 981.21,-66.37 981.65,-73.35"/>
</g>
<!-- Node13&#45;&gt;Node12 -->
<g id="edge25" class="edge">
<title>Node13&#45;&gt;Node12</title>
<path fill="none" stroke="midnightblue" d="M689.5,-336.2C688.73,-314.93 689.42,-259.86 714,-224 723.68,-209.88 739.39,-199.25 753.58,-191.88"/>
<polygon fill="midnightblue" stroke="midnightblue" points="755.14,-195.01 762.61,-187.5 752.08,-188.72 755.14,-195.01"/>
</g>
<!-- Node14 -->
<g id="node14" class="node">
<title>Node14</title>
<g id="a_node14"><a xlink:href="_window_8h.html" target="_top" xlink:title="API for Window function processing.">
<polygon fill="white" stroke="black" points="851.5,-168.5 851.5,-187.5 952.5,-187.5 952.5,-168.5 851.5,-168.5"/>
<text text-anchor="middle" x="902" y="-175.5" font-family="Helvetica,sans-Serif" font-size="10.00">ifxAlgo/Window.h</text>
</a>
</g>
</g>
<!-- Node13&#45;&gt;Node14 -->
<g id="edge21" class="edge">
<title>Node13&#45;&gt;Node14</title>
<path fill="none" stroke="midnightblue" d="M696.51,-336.35C706.63,-323.24 727.15,-297.97 748,-280 789.92,-243.87 845.56,-210.42 877.2,-192.55"/>
<polygon fill="midnightblue" stroke="midnightblue" points="879.18,-195.45 886.2,-187.52 875.77,-189.34 879.18,-195.45"/>
</g>
<!-- Node15 -->
<g id="node15" class="node">
<title>Node15</title>
<g id="a_node15"><a xlink:href="_device_config_8h.html" target="_top" xlink:title="API for Radar device configuration.">
<polygon fill="white" stroke="black" points="0,-224.5 0,-243.5 140,-243.5 140,-224.5 0,-224.5"/>
<text text-anchor="middle" x="70" y="-231.5" font-family="Helvetica,sans-Serif" font-size="10.00">ifxDevice/DeviceConfig.h</text>
</a>
</g>
</g>
<!-- Node13&#45;&gt;Node15 -->
<g id="edge26" class="edge">
<title>Node13&#45;&gt;Node15</title>
<path fill="none" stroke="midnightblue" d="M613.92,-339.97C534.52,-333.85 406.68,-321.58 298,-300 228.33,-286.17 148.99,-261.45 104.67,-246.81"/>
<polygon fill="midnightblue" stroke="midnightblue" points="105.57,-243.42 94.98,-243.58 103.36,-250.06 105.57,-243.42"/>
</g>
<!-- Node17 -->
<g id="node17" class="node">
<title>Node17</title>
<g id="a_node17"><a xlink:href="_device_control_8h.html" target="_top" xlink:title="API for Radar device control operations.">
<polygon fill="white" stroke="black" points="307,-280.5 307,-299.5 451,-299.5 451,-280.5 307,-280.5"/>
<text text-anchor="middle" x="379" y="-287.5" font-family="Helvetica,sans-Serif" font-size="10.00">ifxDevice/DeviceControl.h</text>
</a>
</g>
</g>
<!-- Node13&#45;&gt;Node17 -->
<g id="edge31" class="edge">
<title>Node13&#45;&gt;Node17</title>
<path fill="none" stroke="midnightblue" d="M640.72,-336.44C585.67,-326.89 496.6,-311.42 437.92,-301.23"/>
<polygon fill="midnightblue" stroke="midnightblue" points="438.5,-297.78 428.05,-299.52 437.3,-304.68 438.5,-297.78"/>
</g>
<!-- Node13&#45;&gt;Node24 -->
<g id="edge47" class="edge">
<title>Node13&#45;&gt;Node24</title>
<path fill="none" stroke="midnightblue" d="M712.18,-336.44C735.43,-327.48 772.15,-313.31 798.42,-303.18"/>
<polygon fill="midnightblue" stroke="midnightblue" points="799.85,-306.38 807.92,-299.52 797.33,-299.85 799.85,-306.38"/>
</g>
<!-- Node14&#45;&gt;Node3 -->
<g id="edge22" class="edge">
<title>Node14&#45;&gt;Node3</title>
<path fill="none" stroke="midnightblue" d="M909.47,-168.4C921.04,-155.35 944.33,-130.15 967,-112 981.67,-100.25 999.55,-88.94 1013.7,-80.59"/>
<polygon fill="midnightblue" stroke="midnightblue" points="1015.48,-83.6 1022.38,-75.56 1011.97,-77.54 1015.48,-83.6"/>
</g>
<!-- Node14&#45;&gt;Node9 -->
<g id="edge23" class="edge">
<title>Node14&#45;&gt;Node9</title>
<path fill="none" stroke="midnightblue" d="M944.62,-168.44C991.75,-158.98 1067.69,-143.74 1118.46,-133.55"/>
<polygon fill="midnightblue" stroke="midnightblue" points="1119.46,-136.92 1128.58,-131.52 1118.08,-130.05 1119.46,-136.92"/>
</g>
<!-- Node15&#45;&gt;Node3 -->
<g id="edge28" class="edge">
<title>Node15&#45;&gt;Node3</title>
<path fill="none" stroke="midnightblue" d="M73.91,-224.48C80.7,-210.6 95.99,-183.15 117,-168 184.27,-119.49 213.45,-127.06 295,-112 426.47,-87.72 830.79,-73.29 981.02,-68.65"/>
<polygon fill="midnightblue" stroke="midnightblue" points="981.5,-72.14 991.39,-68.33 981.28,-65.14 981.5,-72.14"/>
</g>
<!-- Node15&#45;&gt;Node5 -->
<g id="edge27" class="edge">
<title>Node15&#45;&gt;Node5</title>
<path fill="none" stroke="midnightblue" d="M72.55,-224.42C76.41,-211.81 84.2,-187.67 93,-168 116.5,-115.47 151,-56.79 168.29,-28.34"/>
<polygon fill="midnightblue" stroke="midnightblue" points="171.4,-29.96 173.64,-19.6 165.43,-26.3 171.4,-29.96"/>
</g>
<!-- Node16 -->
<g id="node16" class="node">
<title>Node16</title>
<g id="a_node16"><a xlink:href="_shield_8h.html" target="_top" xlink:title="Defines the Enumeration for the presence of the available Shield.">
<polygon fill="white" stroke="black" points="126.5,-168.5 126.5,-187.5 231.5,-187.5 231.5,-168.5 126.5,-168.5"/>
<text text-anchor="middle" x="179" y="-175.5" font-family="Helvetica,sans-Serif" font-size="10.00">ifxDevice/Shield.h</text>
</a>
</g>
</g>
<!-- Node15&#45;&gt;Node16 -->
<g id="edge29" class="edge">
<title>Node15&#45;&gt;Node16</title>
<path fill="none" stroke="midnightblue" d="M87.51,-224.32C105.07,-215.62 132.33,-202.12 152.53,-192.11"/>
<polygon fill="midnightblue" stroke="midnightblue" points="154.12,-195.23 161.53,-187.65 151.02,-188.96 154.12,-195.23"/>
</g>
<!-- Node16&#45;&gt;Node5 -->
<g id="edge30" class="edge">
<title>Node16&#45;&gt;Node5</title>
<path fill="none" stroke="midnightblue" d="M179,-168.08C179,-141.95 179,-65.21 179,-29.58"/>
<polygon fill="midnightblue" stroke="midnightblue" points="182.5,-29.57 179,-19.57 175.5,-29.57 182.5,-29.57"/>
</g>
<!-- Node17&#45;&gt;Node3 -->
<g id="edge33" class="edge">
<title>Node17&#45;&gt;Node3</title>
<path fill="none" stroke="midnightblue" d="M451.35,-286.69C487.18,-281.93 528.71,-270.45 557,-244 602.07,-201.86 551.99,-150.76 600,-112 629.09,-88.52 869.53,-74.64 981.29,-69.41"/>
<polygon fill="midnightblue" stroke="midnightblue" points="981.54,-72.9 991.37,-68.94 981.22,-65.91 981.54,-72.9"/>
</g>
<!-- Node17&#45;&gt;Node15 -->
<g id="edge41" class="edge">
<title>Node17&#45;&gt;Node15</title>
<path fill="none" stroke="midnightblue" d="M330.04,-280.44C275.46,-270.9 187.21,-255.48 128.9,-245.29"/>
<polygon fill="midnightblue" stroke="midnightblue" points="129.19,-241.79 118.73,-243.52 127.98,-248.69 129.19,-241.79"/>
</g>
<!-- Node17&#45;&gt;Node16 -->
<g id="edge46" class="edge">
<title>Node17&#45;&gt;Node16</title>
<path fill="none" stroke="midnightblue" d="M306.83,-280.72C259.33,-273.7 203.07,-261.9 187,-244 175.97,-231.72 174.88,-212.46 176,-198.09"/>
<polygon fill="midnightblue" stroke="midnightblue" points="179.51,-198.18 177.23,-187.84 172.56,-197.35 179.51,-198.18"/>
</g>
<!-- Node18 -->
<g id="node18" class="node">
<title>Node18</title>
<g id="a_node18"><a xlink:title=" ">
<polygon fill="white" stroke="#bfbfbf" points="439,-168.5 439,-187.5 501,-187.5 501,-168.5 439,-168.5"/>
<text text-anchor="middle" x="470" y="-175.5" font-family="Helvetica,sans-Serif" font-size="10.00">stdbool.h</text>
</a>
</g>
</g>
<!-- Node17&#45;&gt;Node18 -->
<g id="edge32" class="edge">
<title>Node17&#45;&gt;Node18</title>
<path fill="none" stroke="midnightblue" d="M386.14,-280.37C401.29,-262.05 436.87,-219.05 456.46,-195.36"/>
<polygon fill="midnightblue" stroke="midnightblue" points="459.22,-197.53 462.89,-187.59 453.82,-193.07 459.22,-197.53"/>
</g>
<!-- Node19 -->
<g id="node19" class="node">
<title>Node19</title>
<g id="a_node19"><a xlink:href="_error_8h.html" target="_top" xlink:title="API for error handling.">
<polygon fill="white" stroke="black" points="196,-224.5 196,-243.5 284,-243.5 284,-224.5 196,-224.5"/>
<text text-anchor="middle" x="240" y="-231.5" font-family="Helvetica,sans-Serif" font-size="10.00">ifxBase/Error.h</text>
</a>
</g>
</g>
<!-- Node17&#45;&gt;Node19 -->
<g id="edge34" class="edge">
<title>Node17&#45;&gt;Node19</title>
<path fill="none" stroke="midnightblue" d="M356.98,-280.44C333.9,-271.48 297.44,-257.31 271.36,-247.18"/>
<polygon fill="midnightblue" stroke="midnightblue" points="272.51,-243.88 261.92,-243.52 269.98,-250.4 272.51,-243.88"/>
</g>
<!-- Node22 -->
<g id="node22" class="node">
<title>Node22</title>
<g id="a_node22"><a xlink:href="_list_8h.html" target="_top" xlink:title=" ">
<polygon fill="white" stroke="black" points="302.5,-224.5 302.5,-243.5 385.5,-243.5 385.5,-224.5 302.5,-224.5"/>
<text text-anchor="middle" x="344" y="-231.5" font-family="Helvetica,sans-Serif" font-size="10.00">ifxBase/List.h</text>
</a>
</g>
</g>
<!-- Node17&#45;&gt;Node22 -->
<g id="edge38" class="edge">
<title>Node17&#45;&gt;Node22</title>
<path fill="none" stroke="midnightblue" d="M373.22,-280.08C368.33,-272.53 361.17,-261.49 355.17,-252.23"/>
<polygon fill="midnightblue" stroke="midnightblue" points="358.05,-250.24 349.67,-243.75 352.17,-254.05 358.05,-250.24"/>
</g>
<!-- Node23 -->
<g id="node23" class="node">
<title>Node23</title>
<g id="a_node23"><a xlink:href="_frame_8h.html" target="_top" xlink:title="API for Measurement Frame handling.">
<polygon fill="white" stroke="black" points="442,-224.5 442,-243.5 548,-243.5 548,-224.5 442,-224.5"/>
<text text-anchor="middle" x="495" y="-231.5" font-family="Helvetica,sans-Serif" font-size="10.00">ifxDevice/Frame.h</text>
</a>
</g>
</g>
<!-- Node17&#45;&gt;Node23 -->
<g id="edge42" class="edge">
<title>Node17&#45;&gt;Node23</title>
<path fill="none" stroke="midnightblue" d="M397.38,-280.44C416.22,-271.68 445.73,-257.94 467.38,-247.86"/>
<polygon fill="midnightblue" stroke="midnightblue" points="469.12,-250.91 476.71,-243.52 466.16,-244.56 469.12,-250.91"/>
</g>
<!-- Node20 -->
<g id="node20" class="node">
<title>Node20</title>
<g id="a_node20"><a xlink:href="_log_8h.html" target="_top" xlink:title="API for logging.">
<polygon fill="white" stroke="black" points="251.5,-168.5 251.5,-187.5 334.5,-187.5 334.5,-168.5 251.5,-168.5"/>
<text text-anchor="middle" x="293" y="-175.5" font-family="Helvetica,sans-Serif" font-size="10.00">ifxBase/Log.h</text>
</a>
</g>
</g>
<!-- Node19&#45;&gt;Node20 -->
<g id="edge35" class="edge">
<title>Node19&#45;&gt;Node20</title>
<path fill="none" stroke="midnightblue" d="M248.75,-224.08C256.47,-216.22 267.9,-204.57 277.22,-195.08"/>
<polygon fill="midnightblue" stroke="midnightblue" points="279.9,-197.34 284.41,-187.75 274.91,-192.44 279.9,-197.34"/>
</g>
<!-- Node20&#45;&gt;Node3 -->
<g id="edge37" class="edge">
<title>Node20&#45;&gt;Node3</title>
<path fill="none" stroke="midnightblue" d="M292.65,-168.14C292.63,-153.78 294.92,-125.65 312,-112 363.8,-70.61 819.21,-66.85 981.15,-66.83"/>
<polygon fill="midnightblue" stroke="midnightblue" points="981.38,-70.33 991.39,-66.83 981.39,-63.33 981.38,-70.33"/>
</g>
<!-- Node21 -->
<g id="node21" class="node">
<title>Node21</title>
<g id="a_node21"><a xlink:title=" ">
<polygon fill="white" stroke="#bfbfbf" points="321,-112.5 321,-131.5 371,-131.5 371,-112.5 321,-112.5"/>
<text text-anchor="middle" x="346" y="-119.5" font-family="Helvetica,sans-Serif" font-size="10.00">stdio.h</text>
</a>
</g>
</g>
<!-- Node20&#45;&gt;Node21 -->
<g id="edge36" class="edge">
<title>Node20&#45;&gt;Node21</title>
<path fill="none" stroke="midnightblue" d="M301.75,-168.08C309.47,-160.22 320.9,-148.57 330.22,-139.08"/>
<polygon fill="midnightblue" stroke="midnightblue" points="332.9,-141.34 337.41,-131.75 327.91,-136.44 332.9,-141.34"/>
</g>
<!-- Node22&#45;&gt;Node3 -->
<g id="edge39" class="edge">
<title>Node22&#45;&gt;Node3</title>
<path fill="none" stroke="midnightblue" d="M353.71,-224.26C380.85,-200.49 460.74,-134.97 541,-112 622.38,-88.71 869.08,-74.76 981.32,-69.46"/>
<polygon fill="midnightblue" stroke="midnightblue" points="981.6,-72.95 991.43,-68.98 981.27,-65.95 981.6,-72.95"/>
</g>
<!-- Node22&#45;&gt;Node18 -->
<g id="edge40" class="edge">
<title>Node22&#45;&gt;Node18</title>
<path fill="none" stroke="midnightblue" d="M363.97,-224.44C384.61,-215.6 417.06,-201.69 440.63,-191.59"/>
<polygon fill="midnightblue" stroke="midnightblue" points="442.32,-194.67 450.13,-187.52 439.56,-188.24 442.32,-194.67"/>
</g>
<!-- Node23&#45;&gt;Node3 -->
<g id="edge44" class="edge">
<title>Node23&#45;&gt;Node3</title>
<path fill="none" stroke="midnightblue" d="M498.52,-224.38C509.03,-199.08 540.81,-125.88 562,-112 596.38,-89.49 862.39,-74.88 981.11,-69.42"/>
<polygon fill="midnightblue" stroke="midnightblue" points="981.61,-72.9 991.44,-68.95 981.3,-65.9 981.61,-72.9"/>
</g>
<!-- Node23&#45;&gt;Node12 -->
<g id="edge45" class="edge">
<title>Node23&#45;&gt;Node12</title>
<path fill="none" stroke="midnightblue" d="M540.95,-224.44C592.07,-214.92 674.65,-199.55 729.38,-189.36"/>
<polygon fill="midnightblue" stroke="midnightblue" points="730.07,-192.79 739.26,-187.52 728.79,-185.91 730.07,-192.79"/>
</g>
<!-- Node23&#45;&gt;Node18 -->
<g id="edge43" class="edge">
<title>Node23&#45;&gt;Node18</title>
<path fill="none" stroke="midnightblue" d="M490.87,-224.08C487.49,-216.77 482.58,-206.18 478.38,-197.1"/>
<polygon fill="midnightblue" stroke="midnightblue" points="481.43,-195.36 474.05,-187.75 475.08,-198.3 481.43,-195.36"/>
</g>
<!-- Node24&#45;&gt;Node3 -->
<g id="edge57" class="edge">
<title>Node24&#45;&gt;Node3</title>
<path fill="none" stroke="midnightblue" d="M812.68,-280.47C776.02,-261.27 696.46,-212.83 728,-168 784.81,-87.25 908.11,-69.65 980.93,-66.63"/>
<polygon fill="midnightblue" stroke="midnightblue" points="981.42,-70.12 991.29,-66.29 981.18,-63.12 981.42,-70.12"/>
</g>
<!-- Node24&#45;&gt;Node9 -->
<g id="edge59" class="edge">
<title>Node24&#45;&gt;Node9</title>
<path fill="none" stroke="midnightblue" d="M901.16,-280.46C947.99,-273.59 1010.17,-262.04 1063,-244 1115.29,-226.15 1145.03,-235.06 1174,-188 1182.5,-174.18 1180.52,-155.41 1177.14,-141.6"/>
<polygon fill="midnightblue" stroke="midnightblue" points="1180.44,-140.4 1174.31,-131.76 1173.72,-142.34 1180.44,-140.4"/>
</g>
<!-- Node24&#45;&gt;Node12 -->
<g id="edge58" class="edge">
<title>Node24&#45;&gt;Node12</title>
<path fill="none" stroke="midnightblue" d="M819.01,-280.32C809.49,-272.09 796.29,-258.82 790,-244 783.84,-229.5 782.9,-211.55 783.33,-198.18"/>
<polygon fill="midnightblue" stroke="midnightblue" points="786.84,-198.02 783.95,-187.83 779.86,-197.6 786.84,-198.02"/>
</g>
<!-- Node24&#45;&gt;Node14 -->
<g id="edge56" class="edge">
<title>Node24&#45;&gt;Node14</title>
<path fill="none" stroke="midnightblue" d="M835.65,-280.37C847.53,-262.22 875.29,-219.8 890.88,-195.99"/>
<polygon fill="midnightblue" stroke="midnightblue" points="893.83,-197.88 896.38,-187.59 887.97,-194.04 893.83,-197.88"/>
</g>
<!-- Node25 -->
<g id="node25" class="node">
<title>Node25</title>
<g id="a_node25"><a xlink:href="_preprocessed_f_f_t_8h.html" target="_top" xlink:title="API for Pre&#45;processed FFT.">
<polygon fill="white" stroke="black" points="908.5,-224.5 908.5,-243.5 1053.5,-243.5 1053.5,-224.5 908.5,-224.5"/>
<text text-anchor="middle" x="981" y="-231.5" font-family="Helvetica,sans-Serif" font-size="10.00">ifxAlgo/PreprocessedFFT.h</text>
</a>
</g>
</g>
<!-- Node24&#45;&gt;Node25 -->
<g id="edge48" class="edge">
<title>Node24&#45;&gt;Node25</title>
<path fill="none" stroke="midnightblue" d="M853.93,-280.44C879.22,-271.4 919.3,-257.06 947.68,-246.92"/>
<polygon fill="midnightblue" stroke="midnightblue" points="948.95,-250.18 957.19,-243.52 946.59,-243.59 948.95,-250.18"/>
</g>
<!-- Node25&#45;&gt;Node3 -->
<g id="edge54" class="edge">
<title>Node25&#45;&gt;Node3</title>
<path fill="none" stroke="midnightblue" d="M981.43,-224.41C982.71,-204.04 987.59,-151.6 1005,-112 1009.52,-101.71 1016.73,-91.5 1023.25,-83.42"/>
<polygon fill="midnightblue" stroke="midnightblue" points="1026.1,-85.46 1029.9,-75.57 1020.77,-80.94 1026.1,-85.46"/>
</g>
<!-- Node25&#45;&gt;Node8 -->
<g id="edge55" class="edge">
<title>Node25&#45;&gt;Node8</title>
<path fill="none" stroke="midnightblue" d="M1029.17,-224.44C1090.51,-213.55 1195.07,-194.98 1249.58,-185.29"/>
<polygon fill="midnightblue" stroke="midnightblue" points="1250.23,-188.73 1259.47,-183.54 1249.01,-181.84 1250.23,-188.73"/>
</g>
<!-- Node25&#45;&gt;Node14 -->
<g id="edge53" class="edge">
<title>Node25&#45;&gt;Node14</title>
<path fill="none" stroke="midnightblue" d="M968.31,-224.32C956.1,-215.98 937.42,-203.21 923,-193.35"/>
<polygon fill="midnightblue" stroke="midnightblue" points="924.89,-190.41 914.66,-187.65 920.94,-196.19 924.89,-190.41"/>
</g>
<!-- Node25&#45;&gt;Node18 -->
<g id="edge49" class="edge">
<title>Node25&#45;&gt;Node18</title>
<path fill="none" stroke="midnightblue" d="M908.33,-225.32C799.5,-213.82 597.75,-192.5 511.19,-183.35"/>
<polygon fill="midnightblue" stroke="midnightblue" points="511.53,-179.87 501.22,-182.3 510.8,-186.83 511.53,-179.87"/>
</g>
<!-- Node26 -->
<g id="node26" class="node">
<title>Node26</title>
<g id="a_node26"><a xlink:href="_f_f_t_8h.html" target="_top" xlink:title="API for Fast Fourier Transform (FFT)">
<polygon fill="white" stroke="black" points="1085,-168.5 1085,-187.5 1165,-187.5 1165,-168.5 1085,-168.5"/>
<text text-anchor="middle" x="1125" y="-175.5" font-family="Helvetica,sans-Serif" font-size="10.00">ifxAlgo/FFT.h</text>
</a>
</g>
</g>
<!-- Node25&#45;&gt;Node26 -->
<g id="edge50" class="edge">
<title>Node25&#45;&gt;Node26</title>
<path fill="none" stroke="midnightblue" d="M1003.82,-224.44C1027.83,-215.44 1065.83,-201.19 1092.87,-191.05"/>
<polygon fill="midnightblue" stroke="midnightblue" points="1094.16,-194.3 1102.29,-187.52 1091.7,-187.75 1094.16,-194.3"/>
</g>
<!-- Node26&#45;&gt;Node3 -->
<g id="edge51" class="edge">
<title>Node26&#45;&gt;Node3</title>
<path fill="none" stroke="midnightblue" d="M1118.17,-168.37C1103.75,-150.14 1069.97,-107.43 1051.19,-83.68"/>
<polygon fill="midnightblue" stroke="midnightblue" points="1053.74,-81.26 1044.8,-75.59 1048.25,-85.61 1053.74,-81.26"/>
</g>
<!-- Node26&#45;&gt;Node9 -->
<g id="edge52" class="edge">
<title>Node26&#45;&gt;Node9</title>
<path fill="none" stroke="midnightblue" d="M1132.6,-168.08C1139.23,-160.3 1149.02,-148.8 1157.06,-139.37"/>
<polygon fill="midnightblue" stroke="midnightblue" points="1159.73,-141.63 1163.55,-131.75 1154.4,-137.09 1159.73,-141.63"/>
</g>
<!-- Node27&#45;&gt;Node3 -->
<g id="edge62" class="edge">
<title>Node27&#45;&gt;Node3</title>
<path fill="none" stroke="midnightblue" d="M1021.91,-280.41C1036.22,-273.04 1054.46,-260.92 1063,-244 1074.91,-220.41 1050.16,-213.44 1043,-188 1033.17,-153.04 1034.33,-110.17 1036.12,-85.98"/>
<polygon fill="midnightblue" stroke="midnightblue" points="1039.63,-85.99 1037.01,-75.72 1032.66,-85.38 1039.63,-85.99"/>
</g>
<!-- Node27&#45;&gt;Node12 -->
<g id="edge63" class="edge">
<title>Node27&#45;&gt;Node12</title>
<path fill="none" stroke="midnightblue" d="M964.46,-280.44C936.29,-273.12 897.36,-261.04 866,-244 841.41,-230.63 816.85,-209.57 801.33,-195.07"/>
<polygon fill="midnightblue" stroke="midnightblue" points="803.35,-192.15 793.7,-187.77 798.51,-197.21 803.35,-192.15"/>
</g>
<!-- Node27&#45;&gt;Node25 -->
<g id="edge61" class="edge">
<title>Node27&#45;&gt;Node25</title>
<path fill="none" stroke="midnightblue" d="M998.53,-280.08C995.69,-272.77 991.57,-262.18 988.04,-253.1"/>
<polygon fill="midnightblue" stroke="midnightblue" points="991.29,-251.8 984.4,-243.75 984.77,-254.34 991.29,-251.8"/>
</g>
<!-- Node28&#45;&gt;Node3 -->
<g id="edge66" class="edge">
<title>Node28&#45;&gt;Node3</title>
<path fill="none" stroke="midnightblue" d="M1300.15,-224.36C1306.77,-215.76 1316.16,-201.87 1320,-188 1330.08,-151.61 1313.62,-132.65 1282,-112 1251.81,-92.28 1156.74,-79.11 1094.57,-72.35"/>
<polygon fill="midnightblue" stroke="midnightblue" points="1094.82,-68.86 1084.51,-71.28 1094.08,-75.82 1094.82,-68.86"/>
</g>
<!-- Node28&#45;&gt;Node8 -->
<g id="edge67" class="edge">
<title>Node28&#45;&gt;Node8</title>
<path fill="none" stroke="midnightblue" d="M1291.68,-224.08C1290.62,-216.93 1289.09,-206.64 1287.77,-197.69"/>
<polygon fill="midnightblue" stroke="midnightblue" points="1291.22,-197.13 1286.3,-187.75 1284.3,-198.16 1291.22,-197.13"/>
</g>
<!-- Node28&#45;&gt;Node26 -->
<g id="edge68" class="edge">
<title>Node28&#45;&gt;Node26</title>
<path fill="none" stroke="midnightblue" d="M1266.38,-224.44C1237.99,-215.32 1192.86,-200.81 1161.25,-190.65"/>
<polygon fill="midnightblue" stroke="midnightblue" points="1162.09,-187.24 1151.5,-187.52 1159.94,-193.91 1162.09,-187.24"/>
</g>
<!-- Node29&#45;&gt;Node3 -->
<g id="edge70" class="edge">
<title>Node29&#45;&gt;Node3</title>
<path fill="none" stroke="midnightblue" d="M1689.91,-168.32C1677.38,-153.68 1649.7,-124.48 1619,-112 1525.1,-73.84 1222.27,-67.85 1095.09,-67.05"/>
<polygon fill="midnightblue" stroke="midnightblue" points="1094.8,-63.54 1084.78,-66.99 1094.77,-70.54 1094.8,-63.54"/>
</g>
<!-- Node29&#45;&gt;Node9 -->
<g id="edge71" class="edge">
<title>Node29&#45;&gt;Node9</title>
<path fill="none" stroke="midnightblue" d="M1633.29,-170.46C1530.13,-159.87 1328.11,-139.13 1228.84,-128.94"/>
<polygon fill="midnightblue" stroke="midnightblue" points="1229,-125.44 1218.7,-127.9 1228.29,-132.4 1229,-125.44"/>
</g>
<!-- Node30&#45;&gt;Node3 -->
<g id="edge73" class="edge">
<title>Node30&#45;&gt;Node3</title>
<path fill="none" stroke="midnightblue" d="M1356.69,-336.39C1392.21,-312.29 1490.06,-245.79 1491,-244 1495.14,-236.13 1495.35,-231.75 1491,-224 1444.38,-140.81 1397.34,-145.34 1308,-112 1237.38,-85.64 1150.61,-74.67 1094.82,-70.14"/>
<polygon fill="midnightblue" stroke="midnightblue" points="1095.01,-66.64 1084.77,-69.37 1094.47,-73.62 1095.01,-66.64"/>
</g>
<!-- Node30&#45;&gt;Node11 -->
<g id="edge74" class="edge">
<title>Node30&#45;&gt;Node11</title>
<path fill="none" stroke="midnightblue" d="M1318.49,-336.44C1291.4,-327.36 1248.41,-312.94 1218.13,-302.78"/>
<polygon fill="midnightblue" stroke="midnightblue" points="1218.99,-299.38 1208.39,-299.52 1216.76,-306.01 1218.99,-299.38"/>
</g>
<!-- Node31&#45;&gt;Node3 -->
<g id="edge76" class="edge">
<title>Node31&#45;&gt;Node3</title>
<path fill="none" stroke="midnightblue" d="M1141.26,-392.48C1132.03,-363.72 1101.19,-267.56 1076,-188 1064.47,-151.58 1051.11,-108.94 1043.7,-85.24"/>
<polygon fill="midnightblue" stroke="midnightblue" points="1046.98,-84.01 1040.66,-75.51 1040.3,-86.1 1046.98,-84.01"/>
</g>
<!-- Node31&#45;&gt;Node10 -->
<g id="edge78" class="edge">
<title>Node31&#45;&gt;Node10</title>
<path fill="none" stroke="midnightblue" d="M1155.73,-392.32C1166.84,-384.11 1183.74,-371.6 1196.98,-361.81"/>
<polygon fill="midnightblue" stroke="midnightblue" points="1199.1,-364.59 1205.06,-355.83 1194.94,-358.97 1199.1,-364.59"/>
</g>
<!-- Node31&#45;&gt;Node11 -->
<g id="edge77" class="edge">
<title>Node31&#45;&gt;Node11</title>
<path fill="none" stroke="midnightblue" d="M1146.32,-392.5C1149.8,-379.99 1156.73,-355.97 1164,-336 1167.3,-326.92 1171.43,-317.01 1174.99,-308.81"/>
<polygon fill="midnightblue" stroke="midnightblue" points="1178.25,-310.09 1179.1,-299.52 1171.85,-307.25 1178.25,-310.09"/>
</g>
<!-- Node31&#45;&gt;Node27 -->
<g id="edge79" class="edge">
<title>Node31&#45;&gt;Node27</title>
<path fill="none" stroke="midnightblue" d="M1132.86,-392.37C1108.7,-373.65 1051.25,-329.15 1021.15,-305.83"/>
<polygon fill="midnightblue" stroke="midnightblue" points="1023.14,-302.95 1013.09,-299.59 1018.85,-308.48 1023.14,-302.95"/>
</g>
<!-- Node32&#45;&gt;Node3 -->
<g id="edge82" class="edge">
<title>Node32&#45;&gt;Node3</title>
<path fill="none" stroke="midnightblue" d="M1670.73,-113.61C1666.09,-113.02 1661.46,-112.48 1657,-112 1450.45,-89.99 1203.96,-75.61 1094.81,-69.85"/>
<polygon fill="midnightblue" stroke="midnightblue" points="1094.86,-66.35 1084.69,-69.32 1094.49,-73.34 1094.86,-66.35"/>
</g>
<!-- Node32&#45;&gt;Node4 -->
<g id="edge81" class="edge">
<title>Node32&#45;&gt;Node4</title>
<path fill="none" stroke="midnightblue" d="M1682.65,-112.46C1590.42,-91.92 1357.09,-39.97 1265.11,-19.49"/>
<polygon fill="midnightblue" stroke="midnightblue" points="1265.64,-16.02 1255.12,-17.26 1264.12,-22.85 1265.64,-16.02"/>
</g>
</g>
</svg>
