<?xml version="1.0" encoding="UTF-8" standalone="no"?>
<!DOCTYPE svg PUBLIC "-//W3C//DTD SVG 1.1//EN"
 "http://www.w3.org/Graphics/SVG/1.1/DTD/svg11.dtd">
<!-- Generated by graphviz version 2.43.0 (0)
 -->
<!-- Title: /home/build/sdk/c/ifxRadar/RangeAngleImage.h Pages: 1 -->
<svg width="529pt" height="431pt"
 viewBox="0.00 0.00 529.42 431.00" xmlns="http://www.w3.org/2000/svg" xmlns:xlink="http://www.w3.org/1999/xlink">
<g id="graph0" class="graph" transform="scale(1 1) rotate(0) translate(4 427)">
<title>/home/build/sdk/c/ifxRadar/RangeAngleImage.h</title>
<polygon fill="white" stroke="transparent" points="-4,4 -4,-427 525.42,-427 525.42,4 -4,4"/>
<!-- Node1 -->
<g id="node1" class="node">
<title>Node1</title>
<g id="a_node1"><a xlink:title="API for Range Angle Image algorithm.">
<polygon fill="#bfbfbf" stroke="black" points="35.5,-392.5 35.5,-422.5 182.5,-422.5 182.5,-392.5 35.5,-392.5"/>
<text text-anchor="start" x="43.5" y="-410.5" font-family="Helvetica,sans-Serif" font-size="10.00">/home/build/sdk/c/ifxRadar</text>
<text text-anchor="middle" x="109" y="-399.5" font-family="Helvetica,sans-Serif" font-size="10.00">/RangeAngleImage.h</text>
</a>
</g>
</g>
<!-- Node2 -->
<g id="node2" class="node">
<title>Node2</title>
<g id="a_node2"><a xlink:href="_types_8h.html" target="_top" xlink:title="Definitions of data types used within the SDK.">
<polygon fill="white" stroke="black" points="151.5,-56.5 151.5,-75.5 244.5,-75.5 244.5,-56.5 151.5,-56.5"/>
<text text-anchor="middle" x="198" y="-63.5" font-family="Helvetica,sans-Serif" font-size="10.00">ifxBase/Types.h</text>
</a>
</g>
</g>
<!-- Node1&#45;&gt;Node2 -->
<g id="edge1" class="edge">
<title>Node1&#45;&gt;Node2</title>
<path fill="none" stroke="midnightblue" d="M70.29,-392.34C52.72,-384.15 33.01,-372.21 20,-356 1.07,-332.43 0,-321.23 0,-291 0,-291 0,-291 0,-177 0,-111.85 82.92,-84.96 141.44,-74.09"/>
<polygon fill="midnightblue" stroke="midnightblue" points="142.08,-77.53 151.33,-72.36 140.87,-70.63 142.08,-77.53"/>
</g>
<!-- Node5 -->
<g id="node5" class="node">
<title>Node5</title>
<g id="a_node5"><a xlink:href="_cube_8h.html" target="_top" xlink:title="API for operations on Cube data structures.">
<polygon fill="white" stroke="black" points="86,-280.5 86,-299.5 176,-299.5 176,-280.5 86,-280.5"/>
<text text-anchor="middle" x="131" y="-287.5" font-family="Helvetica,sans-Serif" font-size="10.00">ifxBase/Cube.h</text>
</a>
</g>
</g>
<!-- Node1&#45;&gt;Node5 -->
<g id="edge4" class="edge">
<title>Node1&#45;&gt;Node5</title>
<path fill="none" stroke="midnightblue" d="M115.31,-392.22C119.39,-382.28 124.42,-368.58 127,-356 130.16,-340.58 131.06,-322.71 131.23,-309.61"/>
<polygon fill="midnightblue" stroke="midnightblue" points="134.73,-309.51 131.23,-299.51 127.73,-309.51 134.73,-309.51"/>
</g>
<!-- Node10 -->
<g id="node10" class="node">
<title>Node10</title>
<g id="a_node10"><a xlink:href="_d_b_f_8h.html" target="_top" xlink:title="API for Digital Beamforming (DBF) algorithm.">
<polygon fill="white" stroke="black" points="28.5,-336.5 28.5,-355.5 117.5,-355.5 117.5,-336.5 28.5,-336.5"/>
<text text-anchor="middle" x="73" y="-343.5" font-family="Helvetica,sans-Serif" font-size="10.00">ifxRadar/DBF.h</text>
</a>
</g>
</g>
<!-- Node1&#45;&gt;Node10 -->
<g id="edge13" class="edge">
<title>Node1&#45;&gt;Node10</title>
<path fill="none" stroke="midnightblue" d="M100.47,-392.4C95.4,-384.02 88.93,-373.33 83.54,-364.42"/>
<polygon fill="midnightblue" stroke="midnightblue" points="86.41,-362.4 78.24,-355.66 80.42,-366.03 86.41,-362.4"/>
</g>
<!-- Node11 -->
<g id="node11" class="node">
<title>Node11</title>
<g id="a_node11"><a xlink:href="_range_doppler_map_8h.html" target="_top" xlink:title="API for Range Doppler Map.">
<polygon fill="white" stroke="black" points="251,-280.5 251,-299.5 411,-299.5 411,-280.5 251,-280.5"/>
<text text-anchor="middle" x="331" y="-287.5" font-family="Helvetica,sans-Serif" font-size="10.00">ifxRadar/RangeDopplerMap.h</text>
</a>
</g>
</g>
<!-- Node1&#45;&gt;Node11 -->
<g id="edge16" class="edge">
<title>Node1&#45;&gt;Node11</title>
<path fill="none" stroke="midnightblue" d="M136.22,-392.34C179.51,-369.82 263.44,-326.15 305.57,-304.23"/>
<polygon fill="midnightblue" stroke="midnightblue" points="307.36,-307.24 314.62,-299.52 304.13,-301.03 307.36,-307.24"/>
</g>
<!-- Node3 -->
<g id="node3" class="node">
<title>Node3</title>
<g id="a_node3"><a xlink:title=" ">
<polygon fill="white" stroke="#bfbfbf" points="134,-0.5 134,-19.5 190,-19.5 190,-0.5 134,-0.5"/>
<text text-anchor="middle" x="162" y="-7.5" font-family="Helvetica,sans-Serif" font-size="10.00">stddef.h</text>
</a>
</g>
</g>
<!-- Node2&#45;&gt;Node3 -->
<g id="edge2" class="edge">
<title>Node2&#45;&gt;Node3</title>
<path fill="none" stroke="midnightblue" d="M192.06,-56.08C187.02,-48.53 179.66,-37.49 173.49,-28.23"/>
<polygon fill="midnightblue" stroke="midnightblue" points="176.29,-26.13 167.83,-19.75 170.47,-30.01 176.29,-26.13"/>
</g>
<!-- Node4 -->
<g id="node4" class="node">
<title>Node4</title>
<g id="a_node4"><a xlink:title=" ">
<polygon fill="white" stroke="#bfbfbf" points="208.5,-0.5 208.5,-19.5 261.5,-19.5 261.5,-0.5 208.5,-0.5"/>
<text text-anchor="middle" x="235" y="-7.5" font-family="Helvetica,sans-Serif" font-size="10.00">stdint.h</text>
</a>
</g>
</g>
<!-- Node2&#45;&gt;Node4 -->
<g id="edge3" class="edge">
<title>Node2&#45;&gt;Node4</title>
<path fill="none" stroke="midnightblue" d="M204.11,-56.08C209.28,-48.53 216.85,-37.49 223.19,-28.23"/>
<polygon fill="midnightblue" stroke="midnightblue" points="226.24,-29.98 229,-19.75 220.46,-26.02 226.24,-29.98"/>
</g>
<!-- Node6 -->
<g id="node6" class="node">
<title>Node6</title>
<g id="a_node6"><a xlink:href="_defines_8h.html" target="_top" xlink:title="Internal definitions used by standard math.h functions as Macros, to use float or double precision.">
<polygon fill="white" stroke="black" points="66,-224.5 66,-243.5 168,-243.5 168,-224.5 66,-224.5"/>
<text text-anchor="middle" x="117" y="-231.5" font-family="Helvetica,sans-Serif" font-size="10.00">ifxBase/Defines.h</text>
</a>
</g>
</g>
<!-- Node5&#45;&gt;Node6 -->
<g id="edge5" class="edge">
<title>Node5&#45;&gt;Node6</title>
<path fill="none" stroke="midnightblue" d="M128.69,-280.08C126.83,-272.93 124.16,-262.64 121.85,-253.69"/>
<polygon fill="midnightblue" stroke="midnightblue" points="125.17,-252.55 119.27,-243.75 118.39,-254.31 125.17,-252.55"/>
</g>
<!-- Node9 -->
<g id="node9" class="node">
<title>Node9</title>
<g id="a_node9"><a xlink:href="_matrix_8h.html" target="_top" xlink:title="API for operations on Matrix data structures.">
<polygon fill="white" stroke="black" points="186.5,-224.5 186.5,-243.5 283.5,-243.5 283.5,-224.5 186.5,-224.5"/>
<text text-anchor="middle" x="235" y="-231.5" font-family="Helvetica,sans-Serif" font-size="10.00">ifxBase/Matrix.h</text>
</a>
</g>
</g>
<!-- Node5&#45;&gt;Node9 -->
<g id="edge10" class="edge">
<title>Node5&#45;&gt;Node9</title>
<path fill="none" stroke="midnightblue" d="M147.71,-280.32C164.31,-271.7 190,-258.36 209.22,-248.39"/>
<polygon fill="midnightblue" stroke="midnightblue" points="211.07,-251.37 218.33,-243.65 207.84,-245.16 211.07,-251.37"/>
</g>
<!-- Node7 -->
<g id="node7" class="node">
<title>Node7</title>
<g id="a_node7"><a xlink:href="_math_8h.html" target="_top" xlink:title="API for Mathematical operations.">
<polygon fill="white" stroke="black" points="104.5,-168.5 104.5,-187.5 155.5,-187.5 155.5,-168.5 104.5,-168.5"/>
<text text-anchor="middle" x="130" y="-175.5" font-family="Helvetica,sans-Serif" font-size="10.00">math.h</text>
</a>
</g>
</g>
<!-- Node6&#45;&gt;Node7 -->
<g id="edge6" class="edge">
<title>Node6&#45;&gt;Node7</title>
<path fill="none" stroke="midnightblue" d="M119.15,-224.08C120.87,-216.93 123.35,-206.64 125.5,-197.69"/>
<polygon fill="midnightblue" stroke="midnightblue" points="128.96,-198.29 127.89,-187.75 122.15,-196.65 128.96,-198.29"/>
</g>
<!-- Node7&#45;&gt;Node2 -->
<g id="edge7" class="edge">
<title>Node7&#45;&gt;Node2</title>
<path fill="none" stroke="midnightblue" d="M129.74,-168.34C129.75,-155.22 131.29,-129.93 142,-112 149.52,-99.41 161.94,-88.89 173.18,-81.2"/>
<polygon fill="midnightblue" stroke="midnightblue" points="175.3,-84 181.82,-75.65 171.52,-78.11 175.3,-84"/>
</g>
<!-- Node8 -->
<g id="node8" class="node">
<title>Node8</title>
<g id="a_node8"><a xlink:href="_vector_8h.html" target="_top" xlink:title="API for operations on Vector data structures.">
<polygon fill="white" stroke="black" points="150.5,-112.5 150.5,-131.5 245.5,-131.5 245.5,-112.5 150.5,-112.5"/>
<text text-anchor="middle" x="198" y="-119.5" font-family="Helvetica,sans-Serif" font-size="10.00">ifxBase/Vector.h</text>
</a>
</g>
</g>
<!-- Node7&#45;&gt;Node8 -->
<g id="edge8" class="edge">
<title>Node7&#45;&gt;Node8</title>
<path fill="none" stroke="midnightblue" d="M140.93,-168.32C151.17,-160.18 166.72,-147.84 179,-138.09"/>
<polygon fill="midnightblue" stroke="midnightblue" points="181.22,-140.79 186.88,-131.83 176.87,-135.31 181.22,-140.79"/>
</g>
<!-- Node8&#45;&gt;Node2 -->
<g id="edge9" class="edge">
<title>Node8&#45;&gt;Node2</title>
<path fill="none" stroke="midnightblue" d="M198,-112.08C198,-105.01 198,-94.86 198,-85.99"/>
<polygon fill="midnightblue" stroke="midnightblue" points="201.5,-85.75 198,-75.75 194.5,-85.75 201.5,-85.75"/>
</g>
<!-- Node9&#45;&gt;Node2 -->
<g id="edge11" class="edge">
<title>Node9&#45;&gt;Node2</title>
<path fill="none" stroke="midnightblue" d="M190.43,-224.47C154.22,-216.53 107.34,-203.59 96,-188 66.15,-146.96 132.46,-102.16 171.72,-80.38"/>
<polygon fill="midnightblue" stroke="midnightblue" points="173.44,-83.43 180.58,-75.6 170.11,-77.27 173.44,-83.43"/>
</g>
<!-- Node9&#45;&gt;Node8 -->
<g id="edge12" class="edge">
<title>Node9&#45;&gt;Node8</title>
<path fill="none" stroke="midnightblue" d="M227.09,-224.46C219.72,-215.93 209.11,-202.09 204,-188 198.63,-173.17 197.32,-155.24 197.25,-141.98"/>
<polygon fill="midnightblue" stroke="midnightblue" points="200.76,-141.78 197.43,-131.71 193.76,-141.65 200.76,-141.78"/>
</g>
<!-- Node10&#45;&gt;Node2 -->
<g id="edge14" class="edge">
<title>Node10&#45;&gt;Node2</title>
<path fill="none" stroke="midnightblue" d="M68.28,-336.46C58.73,-318.34 38,-274.48 38,-235 38,-235 38,-235 38,-177 38,-122.24 102.42,-92.68 149.51,-78.4"/>
<polygon fill="midnightblue" stroke="midnightblue" points="150.63,-81.71 159.27,-75.57 148.69,-74.99 150.63,-81.71"/>
</g>
<!-- Node10&#45;&gt;Node5 -->
<g id="edge15" class="edge">
<title>Node10&#45;&gt;Node5</title>
<path fill="none" stroke="midnightblue" d="M82.32,-336.32C90.89,-328.34 103.81,-316.31 114.19,-306.65"/>
<polygon fill="midnightblue" stroke="midnightblue" points="116.58,-309.21 121.51,-299.83 111.81,-304.09 116.58,-309.21"/>
</g>
<!-- Node11&#45;&gt;Node2 -->
<g id="edge27" class="edge">
<title>Node11&#45;&gt;Node2</title>
<path fill="none" stroke="midnightblue" d="M376.7,-280.49C439.71,-266.26 542.72,-232.6 517,-168 504.32,-136.16 494.23,-128.14 464,-112 398.07,-76.81 310.98,-68.01 254.73,-66.37"/>
<polygon fill="midnightblue" stroke="midnightblue" points="254.67,-62.86 244.6,-66.14 254.52,-69.86 254.67,-62.86"/>
</g>
<!-- Node11&#45;&gt;Node9 -->
<g id="edge28" class="edge">
<title>Node11&#45;&gt;Node9</title>
<path fill="none" stroke="midnightblue" d="M315.58,-280.32C300.46,-271.82 277.18,-258.73 259.53,-248.8"/>
<polygon fill="midnightblue" stroke="midnightblue" points="260.82,-245.51 250.39,-243.65 257.39,-251.61 260.82,-245.51"/>
</g>
<!-- Node12 -->
<g id="node12" class="node">
<title>Node12</title>
<g id="a_node12"><a xlink:href="_preprocessed_f_f_t_8h.html" target="_top" xlink:title="API for Pre&#45;processed FFT.">
<polygon fill="white" stroke="black" points="301.5,-224.5 301.5,-243.5 446.5,-243.5 446.5,-224.5 301.5,-224.5"/>
<text text-anchor="middle" x="374" y="-231.5" font-family="Helvetica,sans-Serif" font-size="10.00">ifxAlgo/PreprocessedFFT.h</text>
</a>
</g>
</g>
<!-- Node11&#45;&gt;Node12 -->
<g id="edge17" class="edge">
<title>Node11&#45;&gt;Node12</title>
<path fill="none" stroke="midnightblue" d="M338.1,-280.08C344.24,-272.38 353.27,-261.03 360.74,-251.65"/>
<polygon fill="midnightblue" stroke="midnightblue" points="363.54,-253.75 367.03,-243.75 358.06,-249.39 363.54,-253.75"/>
</g>
<!-- Node12&#45;&gt;Node2 -->
<g id="edge25" class="edge">
<title>Node12&#45;&gt;Node2</title>
<path fill="none" stroke="midnightblue" d="M431.61,-224.48C474.75,-215.5 522.87,-198.34 501,-168 444.76,-89.97 325.61,-71.31 254.63,-67.39"/>
<polygon fill="midnightblue" stroke="midnightblue" points="254.68,-63.89 244.52,-66.92 254.35,-70.88 254.68,-63.89"/>
</g>
<!-- Node12&#45;&gt;Node7 -->
<g id="edge26" class="edge">
<title>Node12&#45;&gt;Node7</title>
<path fill="none" stroke="midnightblue" d="M335.34,-224.44C288.71,-214.12 210.98,-196.92 165.71,-186.9"/>
<polygon fill="midnightblue" stroke="midnightblue" points="166.28,-183.44 155.76,-184.7 164.76,-190.28 166.28,-183.44"/>
</g>
<!-- Node13 -->
<g id="node13" class="node">
<title>Node13</title>
<g id="a_node13"><a xlink:title=" ">
<polygon fill="white" stroke="#bfbfbf" points="430,-168.5 430,-187.5 492,-187.5 492,-168.5 430,-168.5"/>
<text text-anchor="middle" x="461" y="-175.5" font-family="Helvetica,sans-Serif" font-size="10.00">stdbool.h</text>
</a>
</g>
</g>
<!-- Node12&#45;&gt;Node13 -->
<g id="edge18" class="edge">
<title>Node12&#45;&gt;Node13</title>
<path fill="none" stroke="midnightblue" d="M387.98,-224.32C401.55,-215.9 422.38,-202.97 438.32,-193.07"/>
<polygon fill="midnightblue" stroke="midnightblue" points="440.41,-195.9 447.06,-187.65 436.71,-189.95 440.41,-195.9"/>
</g>
<!-- Node14 -->
<g id="node14" class="node">
<title>Node14</title>
<g id="a_node14"><a xlink:href="_f_f_t_8h.html" target="_top" xlink:title="API for Fast Fourier Transform (FFT)">
<polygon fill="white" stroke="black" points="332,-168.5 332,-187.5 412,-187.5 412,-168.5 332,-168.5"/>
<text text-anchor="middle" x="372" y="-175.5" font-family="Helvetica,sans-Serif" font-size="10.00">ifxAlgo/FFT.h</text>
</a>
</g>
</g>
<!-- Node12&#45;&gt;Node14 -->
<g id="edge19" class="edge">
<title>Node12&#45;&gt;Node14</title>
<path fill="none" stroke="midnightblue" d="M373.67,-224.08C373.41,-217.01 373.03,-206.86 372.7,-197.99"/>
<polygon fill="midnightblue" stroke="midnightblue" points="376.19,-197.61 372.32,-187.75 369.2,-197.87 376.19,-197.61"/>
</g>
<!-- Node15 -->
<g id="node15" class="node">
<title>Node15</title>
<g id="a_node15"><a xlink:href="_window_8h.html" target="_top" xlink:title="API for Window function processing.">
<polygon fill="white" stroke="black" points="212.5,-168.5 212.5,-187.5 313.5,-187.5 313.5,-168.5 212.5,-168.5"/>
<text text-anchor="middle" x="263" y="-175.5" font-family="Helvetica,sans-Serif" font-size="10.00">ifxAlgo/Window.h</text>
</a>
</g>
</g>
<!-- Node12&#45;&gt;Node15 -->
<g id="edge22" class="edge">
<title>Node12&#45;&gt;Node15</title>
<path fill="none" stroke="midnightblue" d="M356.17,-224.32C338.28,-215.62 310.52,-202.12 289.95,-192.11"/>
<polygon fill="midnightblue" stroke="midnightblue" points="291.31,-188.88 280.79,-187.65 288.25,-195.18 291.31,-188.88"/>
</g>
<!-- Node14&#45;&gt;Node2 -->
<g id="edge20" class="edge">
<title>Node14&#45;&gt;Node2</title>
<path fill="none" stroke="midnightblue" d="M359.13,-168.46C340.17,-155.92 303.55,-131.84 272,-112 255.08,-101.36 235.79,-89.64 221.15,-80.83"/>
<polygon fill="midnightblue" stroke="midnightblue" points="222.64,-77.65 212.26,-75.5 219.04,-83.65 222.64,-77.65"/>
</g>
<!-- Node14&#45;&gt;Node8 -->
<g id="edge21" class="edge">
<title>Node14&#45;&gt;Node8</title>
<path fill="none" stroke="midnightblue" d="M344.43,-168.44C314.9,-159.28 267.88,-144.69 235.12,-134.52"/>
<polygon fill="midnightblue" stroke="midnightblue" points="236.03,-131.14 225.44,-131.52 233.96,-137.82 236.03,-131.14"/>
</g>
<!-- Node15&#45;&gt;Node2 -->
<g id="edge23" class="edge">
<title>Node15&#45;&gt;Node2</title>
<path fill="none" stroke="midnightblue" d="M263.92,-168.37C264.91,-155.28 265.15,-130.03 255,-112 247.78,-99.17 235.29,-88.68 223.83,-81.07"/>
<polygon fill="midnightblue" stroke="midnightblue" points="225.33,-77.88 214.99,-75.59 221.65,-83.83 225.33,-77.88"/>
</g>
<!-- Node15&#45;&gt;Node8 -->
<g id="edge24" class="edge">
<title>Node15&#45;&gt;Node8</title>
<path fill="none" stroke="midnightblue" d="M252.56,-168.32C242.85,-160.26 228.18,-148.08 216.5,-138.37"/>
<polygon fill="midnightblue" stroke="midnightblue" points="218.56,-135.53 208.63,-131.83 214.09,-140.92 218.56,-135.53"/>
</g>
</g>
</svg>
