<?xml version="1.0" encoding="UTF-8" standalone="no"?>
<!DOCTYPE svg PUBLIC "-//W3C//DTD SVG 1.1//EN"
 "http://www.w3.org/Graphics/SVG/1.1/DTD/svg11.dtd">
<!-- Generated by graphviz version 2.43.0 (0)
 -->
<!-- Title: /home/build/sdk/c/ifxRadar/RangeSpectrum.h Pages: 1 -->
<svg width="206pt" height="240pt"
 viewBox="0.00 0.00 206.00 240.00" xmlns="http://www.w3.org/2000/svg" xmlns:xlink="http://www.w3.org/1999/xlink">
<g id="graph0" class="graph" transform="scale(1 1) rotate(0) translate(4 236)">
<title>/home/build/sdk/c/ifxRadar/RangeSpectrum.h</title>
<polygon fill="white" stroke="transparent" points="-4,4 -4,-236 202,-236 202,4 -4,4"/>
<!-- Node1 -->
<g id="node1" class="node">
<title>Node1</title>
<g id="a_node1"><a xlink:title="API for Range Spectrum.">
<polygon fill="#bfbfbf" stroke="black" points="51,-201.5 51,-231.5 198,-231.5 198,-201.5 51,-201.5"/>
<text text-anchor="start" x="59" y="-219.5" font-family="Helvetica,sans-Serif" font-size="10.00">/home/build/sdk/c/ifxRadar</text>
<text text-anchor="middle" x="124.5" y="-208.5" font-family="Helvetica,sans-Serif" font-size="10.00">/RangeSpectrum.h</text>
</a>
</g>
</g>
<!-- Node2 -->
<g id="node2" class="node">
<title>Node2</title>
<g id="a_node2"><a xlink:href="_presence_sensing_8h.html" target="_top" xlink:title="API for Presence Sensing algorithm.">
<polygon fill="white" stroke="black" points="0,-134.5 0,-164.5 147,-164.5 147,-134.5 0,-134.5"/>
<text text-anchor="start" x="8" y="-152.5" font-family="Helvetica,sans-Serif" font-size="10.00">/home/build/sdk/c/ifxRadar</text>
<text text-anchor="middle" x="73.5" y="-141.5" font-family="Helvetica,sans-Serif" font-size="10.00">/PresenceSensing.h</text>
</a>
</g>
</g>
<!-- Node1&#45;&gt;Node2 -->
<g id="edge1" class="edge">
<title>Node1&#45;&gt;Node2</title>
<path fill="none" stroke="midnightblue" d="M107.2,-193.45C99.71,-183.9 91.16,-173 84.54,-164.58"/>
<polygon fill="midnightblue" stroke="midnightblue" points="104.51,-195.69 113.43,-201.4 110.01,-191.37 104.51,-195.69"/>
</g>
<!-- Node3 -->
<g id="node3" class="node">
<title>Node3</title>
<g id="a_node3"><a xlink:href="_radar_8h.html" target="_top" xlink:title="Header for ifxRadar.">
<polygon fill="white" stroke="black" points="51,-67.5 51,-97.5 198,-97.5 198,-67.5 51,-67.5"/>
<text text-anchor="start" x="59" y="-85.5" font-family="Helvetica,sans-Serif" font-size="10.00">/home/build/sdk/c/ifxRadar</text>
<text text-anchor="middle" x="124.5" y="-74.5" font-family="Helvetica,sans-Serif" font-size="10.00">/Radar.h</text>
</a>
</g>
</g>
<!-- Node1&#45;&gt;Node3 -->
<g id="edge4" class="edge">
<title>Node1&#45;&gt;Node3</title>
<path fill="none" stroke="midnightblue" d="M142.71,-192.8C148.27,-184.54 153.65,-174.81 156.5,-165 160.34,-151.77 160.34,-147.23 156.5,-134 152.62,-120.64 144.04,-107.43 136.74,-97.88"/>
<polygon fill="midnightblue" stroke="midnightblue" points="139.73,-190.96 136.74,-201.12 145.41,-195.05 139.73,-190.96"/>
</g>
<!-- Node2&#45;&gt;Node3 -->
<g id="edge2" class="edge">
<title>Node2&#45;&gt;Node3</title>
<path fill="none" stroke="midnightblue" d="M90.8,-126.45C98.29,-116.9 106.84,-106 113.46,-97.58"/>
<polygon fill="midnightblue" stroke="midnightblue" points="87.99,-124.37 84.57,-134.4 93.49,-128.69 87.99,-124.37"/>
</g>
<!-- Node4 -->
<g id="node4" class="node">
<title>Node4</title>
<g id="a_node4"><a xlink:href="_s_d_k_8h.html" target="_top" xlink:title="Master header file for Radar SDK.">
<polygon fill="white" stroke="black" points="51,-0.5 51,-30.5 198,-30.5 198,-0.5 51,-0.5"/>
<text text-anchor="start" x="59" y="-18.5" font-family="Helvetica,sans-Serif" font-size="10.00">/home/build/sdk/c/ifxRadar</text>
<text text-anchor="middle" x="124.5" y="-7.5" font-family="Helvetica,sans-Serif" font-size="10.00">/SDK.h</text>
</a>
</g>
</g>
<!-- Node3&#45;&gt;Node4 -->
<g id="edge3" class="edge">
<title>Node3&#45;&gt;Node4</title>
<path fill="none" stroke="midnightblue" d="M124.5,-57.11C124.5,-48.15 124.5,-38.32 124.5,-30.58"/>
<polygon fill="midnightblue" stroke="midnightblue" points="121,-57.4 124.5,-67.4 128,-57.4 121,-57.4"/>
</g>
</g>
</svg>
