<?xml version="1.0" encoding="UTF-8" standalone="no"?>
<!DOCTYPE svg PUBLIC "-//W3C//DTD SVG 1.1//EN"
 "http://www.w3.org/Graphics/SVG/1.1/DTD/svg11.dtd">
<!-- Generated by graphviz version 2.43.0 (0)
 -->
<!-- Title: /home/build/sdk/c/ifxRadar/RangeSpectrum.h Pages: 1 -->
<svg width="574pt" height="319pt"
 viewBox="0.00 0.00 573.77 319.00" xmlns="http://www.w3.org/2000/svg" xmlns:xlink="http://www.w3.org/1999/xlink">
<g id="graph0" class="graph" transform="scale(1 1) rotate(0) translate(4 315)">
<title>/home/build/sdk/c/ifxRadar/RangeSpectrum.h</title>
<polygon fill="white" stroke="transparent" points="-4,4 -4,-315 569.77,-315 569.77,4 -4,4"/>
<!-- Node1 -->
<g id="node1" class="node">
<title>Node1</title>
<g id="a_node1"><a xlink:title="API for Range Spectrum.">
<polygon fill="#bfbfbf" stroke="black" points="247.77,-280.5 247.77,-310.5 394.77,-310.5 394.77,-280.5 247.77,-280.5"/>
<text text-anchor="start" x="255.77" y="-298.5" font-family="Helvetica,sans-Serif" font-size="10.00">/home/build/sdk/c/ifxRadar</text>
<text text-anchor="middle" x="321.27" y="-287.5" font-family="Helvetica,sans-Serif" font-size="10.00">/RangeSpectrum.h</text>
</a>
</g>
</g>
<!-- Node2 -->
<g id="node2" class="node">
<title>Node2</title>
<g id="a_node2"><a xlink:href="_preprocessed_f_f_t_8h.html" target="_top" xlink:title="API for Pre&#45;processed FFT.">
<polygon fill="white" stroke="black" points="124.77,-224.5 124.77,-243.5 269.77,-243.5 269.77,-224.5 124.77,-224.5"/>
<text text-anchor="middle" x="197.27" y="-231.5" font-family="Helvetica,sans-Serif" font-size="10.00">ifxAlgo/PreprocessedFFT.h</text>
</a>
</g>
</g>
<!-- Node1&#45;&gt;Node2 -->
<g id="edge1" class="edge">
<title>Node1&#45;&gt;Node2</title>
<path fill="none" stroke="midnightblue" d="M291.89,-280.4C271.45,-270.59 244.41,-257.62 224.47,-248.05"/>
<polygon fill="midnightblue" stroke="midnightblue" points="225.84,-244.83 215.31,-243.66 222.82,-251.14 225.84,-244.83"/>
</g>
<!-- Node5 -->
<g id="node5" class="node">
<title>Node5</title>
<g id="a_node5"><a xlink:href="_types_8h.html" target="_top" xlink:title="Definitions of data types used within the SDK.">
<polygon fill="white" stroke="black" points="126.77,-56.5 126.77,-75.5 219.77,-75.5 219.77,-56.5 126.77,-56.5"/>
<text text-anchor="middle" x="173.27" y="-63.5" font-family="Helvetica,sans-Serif" font-size="10.00">ifxBase/Types.h</text>
</a>
</g>
</g>
<!-- Node1&#45;&gt;Node5 -->
<g id="edge17" class="edge">
<title>Node1&#45;&gt;Node5</title>
<path fill="none" stroke="midnightblue" d="M247.49,-280.9C162.22,-263.4 30.22,-230.15 4.27,-188 -8.57,-167.13 11.22,-122.82 22.27,-112 47.32,-87.48 85.12,-76.23 116.64,-71.11"/>
<polygon fill="midnightblue" stroke="midnightblue" points="117.23,-74.56 126.62,-69.66 116.22,-67.64 117.23,-74.56"/>
</g>
<!-- Node8 -->
<g id="node8" class="node">
<title>Node8</title>
<g id="a_node8"><a xlink:href="_vector_8h.html" target="_top" xlink:title="API for operations on Vector data structures.">
<polygon fill="white" stroke="black" points="237.77,-112.5 237.77,-131.5 332.77,-131.5 332.77,-112.5 237.77,-112.5"/>
<text text-anchor="middle" x="285.27" y="-119.5" font-family="Helvetica,sans-Serif" font-size="10.00">ifxBase/Vector.h</text>
</a>
</g>
</g>
<!-- Node1&#45;&gt;Node8 -->
<g id="edge21" class="edge">
<title>Node1&#45;&gt;Node8</title>
<path fill="none" stroke="midnightblue" d="M320.13,-280.26C318,-256.64 312.7,-207.97 302.27,-168 299.93,-159.01 296.41,-149.34 293.18,-141.27"/>
<polygon fill="midnightblue" stroke="midnightblue" points="296.31,-139.67 289.23,-131.78 289.84,-142.36 296.31,-139.67"/>
</g>
<!-- Node9 -->
<g id="node9" class="node">
<title>Node9</title>
<g id="a_node9"><a xlink:href="_window_8h.html" target="_top" xlink:title="API for Window function processing.">
<polygon fill="white" stroke="black" points="349.77,-168.5 349.77,-187.5 450.77,-187.5 450.77,-168.5 349.77,-168.5"/>
<text text-anchor="middle" x="400.27" y="-175.5" font-family="Helvetica,sans-Serif" font-size="10.00">ifxAlgo/Window.h</text>
</a>
</g>
</g>
<!-- Node1&#45;&gt;Node9 -->
<g id="edge16" class="edge">
<title>Node1&#45;&gt;Node9</title>
<path fill="none" stroke="midnightblue" d="M330.96,-280.34C345.52,-259.05 372.99,-218.89 388.62,-196.03"/>
<polygon fill="midnightblue" stroke="midnightblue" points="391.59,-197.9 394.34,-187.67 385.81,-193.95 391.59,-197.9"/>
</g>
<!-- Node11 -->
<g id="node11" class="node">
<title>Node11</title>
<g id="a_node11"><a xlink:href="_matrix_8h.html" target="_top" xlink:title="API for operations on Matrix data structures.">
<polygon fill="white" stroke="black" points="468.77,-168.5 468.77,-187.5 565.77,-187.5 565.77,-168.5 468.77,-168.5"/>
<text text-anchor="middle" x="517.27" y="-175.5" font-family="Helvetica,sans-Serif" font-size="10.00">ifxBase/Matrix.h</text>
</a>
</g>
</g>
<!-- Node1&#45;&gt;Node11 -->
<g id="edge18" class="edge">
<title>Node1&#45;&gt;Node11</title>
<path fill="none" stroke="midnightblue" d="M345.3,-280.34C383.19,-258.01 456.33,-214.91 493.83,-192.81"/>
<polygon fill="midnightblue" stroke="midnightblue" points="495.72,-195.76 502.56,-187.67 492.17,-189.73 495.72,-195.76"/>
</g>
<!-- Node3 -->
<g id="node3" class="node">
<title>Node3</title>
<g id="a_node3"><a xlink:title=" ">
<polygon fill="white" stroke="#bfbfbf" points="231.27,-168.5 231.27,-187.5 293.27,-187.5 293.27,-168.5 231.27,-168.5"/>
<text text-anchor="middle" x="262.27" y="-175.5" font-family="Helvetica,sans-Serif" font-size="10.00">stdbool.h</text>
</a>
</g>
</g>
<!-- Node2&#45;&gt;Node3 -->
<g id="edge2" class="edge">
<title>Node2&#45;&gt;Node3</title>
<path fill="none" stroke="midnightblue" d="M207.71,-224.32C217.42,-216.26 232.09,-204.08 243.77,-194.37"/>
<polygon fill="midnightblue" stroke="midnightblue" points="246.18,-196.92 251.64,-187.83 241.71,-191.53 246.18,-196.92"/>
</g>
<!-- Node4 -->
<g id="node4" class="node">
<title>Node4</title>
<g id="a_node4"><a xlink:href="_f_f_t_8h.html" target="_top" xlink:title="API for Fast Fourier Transform (FFT)">
<polygon fill="white" stroke="black" points="133.27,-168.5 133.27,-187.5 213.27,-187.5 213.27,-168.5 133.27,-168.5"/>
<text text-anchor="middle" x="173.27" y="-175.5" font-family="Helvetica,sans-Serif" font-size="10.00">ifxAlgo/FFT.h</text>
</a>
</g>
</g>
<!-- Node2&#45;&gt;Node4 -->
<g id="edge3" class="edge">
<title>Node2&#45;&gt;Node4</title>
<path fill="none" stroke="midnightblue" d="M193.31,-224.08C190.06,-216.77 185.35,-206.18 181.32,-197.1"/>
<polygon fill="midnightblue" stroke="midnightblue" points="184.42,-195.47 177.16,-187.75 178.02,-198.31 184.42,-195.47"/>
</g>
<!-- Node2&#45;&gt;Node5 -->
<g id="edge12" class="edge">
<title>Node2&#45;&gt;Node5</title>
<path fill="none" stroke="midnightblue" d="M126.61,-224.43C81.93,-217.39 30.08,-205.67 16.27,-188 -22.6,-138.28 74.79,-97.7 133.16,-78.68"/>
<polygon fill="midnightblue" stroke="midnightblue" points="134.4,-81.96 142.87,-75.6 132.28,-75.29 134.4,-81.96"/>
</g>
<!-- Node2&#45;&gt;Node9 -->
<g id="edge9" class="edge">
<title>Node2&#45;&gt;Node9</title>
<path fill="none" stroke="midnightblue" d="M229.44,-224.44C264.33,-215.16 320.16,-200.31 358.44,-190.13"/>
<polygon fill="midnightblue" stroke="midnightblue" points="359.49,-193.47 368.26,-187.52 357.69,-186.7 359.49,-193.47"/>
</g>
<!-- Node10 -->
<g id="node10" class="node">
<title>Node10</title>
<g id="a_node10"><a xlink:href="_math_8h.html" target="_top" xlink:title="API for Mathematical operations.">
<polygon fill="white" stroke="black" points="25.27,-168.5 25.27,-187.5 115.27,-187.5 115.27,-168.5 25.27,-168.5"/>
<text text-anchor="middle" x="70.27" y="-175.5" font-family="Helvetica,sans-Serif" font-size="10.00">ifxBase/Math.h</text>
</a>
</g>
</g>
<!-- Node2&#45;&gt;Node10 -->
<g id="edge13" class="edge">
<title>Node2&#45;&gt;Node10</title>
<path fill="none" stroke="midnightblue" d="M177.15,-224.44C156.25,-215.56 123.34,-201.56 99.56,-191.45"/>
<polygon fill="midnightblue" stroke="midnightblue" points="100.87,-188.21 90.3,-187.52 98.13,-194.65 100.87,-188.21"/>
</g>
<!-- Node4&#45;&gt;Node5 -->
<g id="edge4" class="edge">
<title>Node4&#45;&gt;Node5</title>
<path fill="none" stroke="midnightblue" d="M173.27,-168.37C173.27,-150.62 173.27,-109.67 173.27,-85.6"/>
<polygon fill="midnightblue" stroke="midnightblue" points="176.77,-85.59 173.27,-75.59 169.77,-85.59 176.77,-85.59"/>
</g>
<!-- Node4&#45;&gt;Node8 -->
<g id="edge7" class="edge">
<title>Node4&#45;&gt;Node8</title>
<path fill="none" stroke="midnightblue" d="M191.27,-168.32C209.31,-159.62 237.32,-146.12 258.07,-136.11"/>
<polygon fill="midnightblue" stroke="midnightblue" points="259.83,-139.15 267.32,-131.65 256.79,-132.84 259.83,-139.15"/>
</g>
<!-- Node6 -->
<g id="node6" class="node">
<title>Node6</title>
<g id="a_node6"><a xlink:title=" ">
<polygon fill="white" stroke="#bfbfbf" points="109.27,-0.5 109.27,-19.5 165.27,-19.5 165.27,-0.5 109.27,-0.5"/>
<text text-anchor="middle" x="137.27" y="-7.5" font-family="Helvetica,sans-Serif" font-size="10.00">stddef.h</text>
</a>
</g>
</g>
<!-- Node5&#45;&gt;Node6 -->
<g id="edge5" class="edge">
<title>Node5&#45;&gt;Node6</title>
<path fill="none" stroke="midnightblue" d="M167.33,-56.08C162.29,-48.53 154.93,-37.49 148.76,-28.23"/>
<polygon fill="midnightblue" stroke="midnightblue" points="151.56,-26.13 143.11,-19.75 145.74,-30.01 151.56,-26.13"/>
</g>
<!-- Node7 -->
<g id="node7" class="node">
<title>Node7</title>
<g id="a_node7"><a xlink:title=" ">
<polygon fill="white" stroke="#bfbfbf" points="183.77,-0.5 183.77,-19.5 236.77,-19.5 236.77,-0.5 183.77,-0.5"/>
<text text-anchor="middle" x="210.27" y="-7.5" font-family="Helvetica,sans-Serif" font-size="10.00">stdint.h</text>
</a>
</g>
</g>
<!-- Node5&#45;&gt;Node7 -->
<g id="edge6" class="edge">
<title>Node5&#45;&gt;Node7</title>
<path fill="none" stroke="midnightblue" d="M179.38,-56.08C184.55,-48.53 192.12,-37.49 198.47,-28.23"/>
<polygon fill="midnightblue" stroke="midnightblue" points="201.51,-29.98 204.28,-19.75 195.74,-26.02 201.51,-29.98"/>
</g>
<!-- Node8&#45;&gt;Node5 -->
<g id="edge8" class="edge">
<title>Node8&#45;&gt;Node5</title>
<path fill="none" stroke="midnightblue" d="M267.28,-112.32C249.23,-103.62 221.22,-90.12 200.47,-80.11"/>
<polygon fill="midnightblue" stroke="midnightblue" points="201.75,-76.84 191.22,-75.65 198.71,-83.15 201.75,-76.84"/>
</g>
<!-- Node9&#45;&gt;Node5 -->
<g id="edge10" class="edge">
<title>Node9&#45;&gt;Node5</title>
<path fill="none" stroke="midnightblue" d="M395.01,-168.38C385.99,-154.37 366.24,-126.73 342.27,-112 308.14,-91.01 264.28,-79.71 229.8,-73.67"/>
<polygon fill="midnightblue" stroke="midnightblue" points="230.32,-70.21 219.88,-72.04 229.18,-77.12 230.32,-70.21"/>
</g>
<!-- Node9&#45;&gt;Node8 -->
<g id="edge11" class="edge">
<title>Node9&#45;&gt;Node8</title>
<path fill="none" stroke="midnightblue" d="M382.05,-168.44C363.38,-159.68 334.12,-145.94 312.65,-135.86"/>
<polygon fill="midnightblue" stroke="midnightblue" points="313.95,-132.6 303.41,-131.52 310.97,-138.93 313.95,-132.6"/>
</g>
<!-- Node10&#45;&gt;Node5 -->
<g id="edge14" class="edge">
<title>Node10&#45;&gt;Node5</title>
<path fill="none" stroke="midnightblue" d="M78.35,-168.37C95.58,-149.97 136.12,-106.67 158.24,-83.05"/>
<polygon fill="midnightblue" stroke="midnightblue" points="160.95,-85.28 165.23,-75.59 155.84,-80.5 160.95,-85.28"/>
</g>
<!-- Node10&#45;&gt;Node8 -->
<g id="edge15" class="edge">
<title>Node10&#45;&gt;Node8</title>
<path fill="none" stroke="midnightblue" d="M104.34,-168.44C141.45,-159.12 200.93,-144.18 241.49,-134"/>
<polygon fill="midnightblue" stroke="midnightblue" points="242.52,-137.35 251.36,-131.52 240.81,-130.56 242.52,-137.35"/>
</g>
<!-- Node11&#45;&gt;Node5 -->
<g id="edge19" class="edge">
<title>Node11&#45;&gt;Node5</title>
<path fill="none" stroke="midnightblue" d="M500.12,-168.35C472.66,-154.78 416.87,-128.35 367.27,-112 321.91,-97.05 269,-85.13 229.91,-77.32"/>
<polygon fill="midnightblue" stroke="midnightblue" points="230.27,-73.82 219.78,-75.33 228.92,-80.69 230.27,-73.82"/>
</g>
<!-- Node11&#45;&gt;Node8 -->
<g id="edge20" class="edge">
<title>Node11&#45;&gt;Node8</title>
<path fill="none" stroke="midnightblue" d="M480.51,-168.44C440.21,-159.06 375.46,-143.99 331.69,-133.8"/>
<polygon fill="midnightblue" stroke="midnightblue" points="332.39,-130.37 321.86,-131.52 330.81,-137.19 332.39,-130.37"/>
</g>
</g>
</svg>
