<?xml version="1.0" encoding="UTF-8" standalone="no"?>
<!DOCTYPE svg PUBLIC "-//W3C//DTD SVG 1.1//EN"
 "http://www.w3.org/Graphics/SVG/1.1/DTD/svg11.dtd">
<!-- Generated by graphviz version 2.43.0 (0)
 -->
<!-- Title: /home/build/sdk/c/ifxRadar/RangeDopplerMap.h Pages: 1 -->
<svg width="530pt" height="319pt"
 viewBox="0.00 0.00 530.17 319.00" xmlns="http://www.w3.org/2000/svg" xmlns:xlink="http://www.w3.org/1999/xlink">
<g id="graph0" class="graph" transform="scale(1 1) rotate(0) translate(4 315)">
<title>/home/build/sdk/c/ifxRadar/RangeDopplerMap.h</title>
<polygon fill="white" stroke="transparent" points="-4,4 -4,-315 526.17,-315 526.17,4 -4,4"/>
<!-- Node1 -->
<g id="node1" class="node">
<title>Node1</title>
<g id="a_node1"><a xlink:title="API for Range Doppler Map.">
<polygon fill="#bfbfbf" stroke="black" points="71.17,-280.5 71.17,-310.5 218.17,-310.5 218.17,-280.5 71.17,-280.5"/>
<text text-anchor="start" x="79.17" y="-298.5" font-family="Helvetica,sans-Serif" font-size="10.00">/home/build/sdk/c/ifxRadar</text>
<text text-anchor="middle" x="144.67" y="-287.5" font-family="Helvetica,sans-Serif" font-size="10.00">/RangeDopplerMap.h</text>
</a>
</g>
</g>
<!-- Node2 -->
<g id="node2" class="node">
<title>Node2</title>
<g id="a_node2"><a xlink:href="_preprocessed_f_f_t_8h.html" target="_top" xlink:title="API for Pre&#45;processed FFT.">
<polygon fill="white" stroke="black" points="72.17,-224.5 72.17,-243.5 217.17,-243.5 217.17,-224.5 72.17,-224.5"/>
<text text-anchor="middle" x="144.67" y="-231.5" font-family="Helvetica,sans-Serif" font-size="10.00">ifxAlgo/PreprocessedFFT.h</text>
</a>
</g>
</g>
<!-- Node1&#45;&gt;Node2 -->
<g id="edge1" class="edge">
<title>Node1&#45;&gt;Node2</title>
<path fill="none" stroke="midnightblue" d="M144.67,-280.4C144.67,-272.47 144.67,-262.46 144.67,-253.86"/>
<polygon fill="midnightblue" stroke="midnightblue" points="148.17,-253.66 144.67,-243.66 141.17,-253.66 148.17,-253.66"/>
</g>
<!-- Node5 -->
<g id="node5" class="node">
<title>Node5</title>
<g id="a_node5"><a xlink:href="_types_8h.html" target="_top" xlink:title="Definitions of data types used within the SDK.">
<polygon fill="white" stroke="black" points="150.17,-56.5 150.17,-75.5 243.17,-75.5 243.17,-56.5 150.17,-56.5"/>
<text text-anchor="middle" x="196.67" y="-63.5" font-family="Helvetica,sans-Serif" font-size="10.00">ifxBase/Types.h</text>
</a>
</g>
</g>
<!-- Node1&#45;&gt;Node5 -->
<g id="edge16" class="edge">
<title>Node1&#45;&gt;Node5</title>
<path fill="none" stroke="midnightblue" d="M104.08,-280.35C56.67,-261.08 -13.38,-222.65 2.67,-168 11,-139.61 14.91,-129.63 38.67,-112 68.01,-90.22 107.56,-78.97 139.75,-73.16"/>
<polygon fill="midnightblue" stroke="midnightblue" points="140.64,-76.57 149.92,-71.46 139.48,-69.66 140.64,-76.57"/>
</g>
<!-- Node11 -->
<g id="node11" class="node">
<title>Node11</title>
<g id="a_node11"><a xlink:href="_matrix_8h.html" target="_top" xlink:title="API for operations on Matrix data structures.">
<polygon fill="white" stroke="black" points="425.17,-168.5 425.17,-187.5 522.17,-187.5 522.17,-168.5 425.17,-168.5"/>
<text text-anchor="middle" x="473.67" y="-175.5" font-family="Helvetica,sans-Serif" font-size="10.00">ifxBase/Matrix.h</text>
</a>
</g>
</g>
<!-- Node1&#45;&gt;Node11 -->
<g id="edge17" class="edge">
<title>Node1&#45;&gt;Node11</title>
<path fill="none" stroke="midnightblue" d="M184.68,-280.45C250.05,-257.5 378.6,-212.38 439.77,-190.9"/>
<polygon fill="midnightblue" stroke="midnightblue" points="441.06,-194.16 449.33,-187.54 438.74,-187.55 441.06,-194.16"/>
</g>
<!-- Node3 -->
<g id="node3" class="node">
<title>Node3</title>
<g id="a_node3"><a xlink:title=" ">
<polygon fill="white" stroke="#bfbfbf" points="19.67,-168.5 19.67,-187.5 81.67,-187.5 81.67,-168.5 19.67,-168.5"/>
<text text-anchor="middle" x="50.67" y="-175.5" font-family="Helvetica,sans-Serif" font-size="10.00">stdbool.h</text>
</a>
</g>
</g>
<!-- Node2&#45;&gt;Node3 -->
<g id="edge2" class="edge">
<title>Node2&#45;&gt;Node3</title>
<path fill="none" stroke="midnightblue" d="M129.56,-224.32C114.76,-215.82 91.97,-202.73 74.68,-192.8"/>
<polygon fill="midnightblue" stroke="midnightblue" points="76.15,-189.6 65.73,-187.65 72.66,-195.67 76.15,-189.6"/>
</g>
<!-- Node4 -->
<g id="node4" class="node">
<title>Node4</title>
<g id="a_node4"><a xlink:href="_f_f_t_8h.html" target="_top" xlink:title="API for Fast Fourier Transform (FFT)">
<polygon fill="white" stroke="black" points="207.67,-168.5 207.67,-187.5 287.67,-187.5 287.67,-168.5 207.67,-168.5"/>
<text text-anchor="middle" x="247.67" y="-175.5" font-family="Helvetica,sans-Serif" font-size="10.00">ifxAlgo/FFT.h</text>
</a>
</g>
</g>
<!-- Node2&#45;&gt;Node4 -->
<g id="edge3" class="edge">
<title>Node2&#45;&gt;Node4</title>
<path fill="none" stroke="midnightblue" d="M161.22,-224.32C177.66,-215.7 203.1,-202.36 222.14,-192.39"/>
<polygon fill="midnightblue" stroke="midnightblue" points="223.93,-195.4 231.16,-187.65 220.68,-189.2 223.93,-195.4"/>
</g>
<!-- Node2&#45;&gt;Node5 -->
<g id="edge12" class="edge">
<title>Node2&#45;&gt;Node5</title>
<path fill="none" stroke="midnightblue" d="M77,-224.49C34.87,-215.99 -8.04,-199.44 10.67,-168 40.18,-118.38 103.53,-91.63 148.06,-78.36"/>
<polygon fill="midnightblue" stroke="midnightblue" points="149.17,-81.68 157.82,-75.57 147.25,-74.95 149.17,-81.68"/>
</g>
<!-- Node9 -->
<g id="node9" class="node">
<title>Node9</title>
<g id="a_node9"><a xlink:href="_window_8h.html" target="_top" xlink:title="API for Window function processing.">
<polygon fill="white" stroke="black" points="306.17,-168.5 306.17,-187.5 407.17,-187.5 407.17,-168.5 306.17,-168.5"/>
<text text-anchor="middle" x="356.67" y="-175.5" font-family="Helvetica,sans-Serif" font-size="10.00">ifxAlgo/Window.h</text>
</a>
</g>
</g>
<!-- Node2&#45;&gt;Node9 -->
<g id="edge9" class="edge">
<title>Node2&#45;&gt;Node9</title>
<path fill="none" stroke="midnightblue" d="M178.26,-224.44C214.85,-215.12 273.51,-200.18 313.49,-190"/>
<polygon fill="midnightblue" stroke="midnightblue" points="314.41,-193.38 323.23,-187.52 312.68,-186.59 314.41,-193.38"/>
</g>
<!-- Node10 -->
<g id="node10" class="node">
<title>Node10</title>
<g id="a_node10"><a xlink:href="_math_8h.html" target="_top" xlink:title="API for Mathematical operations.">
<polygon fill="white" stroke="black" points="99.67,-168.5 99.67,-187.5 189.67,-187.5 189.67,-168.5 99.67,-168.5"/>
<text text-anchor="middle" x="144.67" y="-175.5" font-family="Helvetica,sans-Serif" font-size="10.00">ifxBase/Math.h</text>
</a>
</g>
</g>
<!-- Node2&#45;&gt;Node10 -->
<g id="edge13" class="edge">
<title>Node2&#45;&gt;Node10</title>
<path fill="none" stroke="midnightblue" d="M144.67,-224.08C144.67,-217.01 144.67,-206.86 144.67,-197.99"/>
<polygon fill="midnightblue" stroke="midnightblue" points="148.17,-197.75 144.67,-187.75 141.17,-197.75 148.17,-197.75"/>
</g>
<!-- Node4&#45;&gt;Node5 -->
<g id="edge4" class="edge">
<title>Node4&#45;&gt;Node5</title>
<path fill="none" stroke="midnightblue" d="M240.39,-168.2C233.48,-159.47 223.2,-145.49 216.67,-132 209.43,-117.06 204.11,-98.92 200.78,-85.6"/>
<polygon fill="midnightblue" stroke="midnightblue" points="204.16,-84.66 198.46,-75.73 197.34,-86.26 204.16,-84.66"/>
</g>
<!-- Node8 -->
<g id="node8" class="node">
<title>Node8</title>
<g id="a_node8"><a xlink:href="_vector_8h.html" target="_top" xlink:title="API for operations on Vector data structures.">
<polygon fill="white" stroke="black" points="225.17,-112.5 225.17,-131.5 320.17,-131.5 320.17,-112.5 225.17,-112.5"/>
<text text-anchor="middle" x="272.67" y="-119.5" font-family="Helvetica,sans-Serif" font-size="10.00">ifxBase/Vector.h</text>
</a>
</g>
</g>
<!-- Node4&#45;&gt;Node8 -->
<g id="edge7" class="edge">
<title>Node4&#45;&gt;Node8</title>
<path fill="none" stroke="midnightblue" d="M251.8,-168.08C255.18,-160.77 260.08,-150.18 264.29,-141.1"/>
<polygon fill="midnightblue" stroke="midnightblue" points="267.59,-142.3 268.62,-131.75 261.24,-139.36 267.59,-142.3"/>
</g>
<!-- Node6 -->
<g id="node6" class="node">
<title>Node6</title>
<g id="a_node6"><a xlink:title=" ">
<polygon fill="white" stroke="#bfbfbf" points="132.67,-0.5 132.67,-19.5 188.67,-19.5 188.67,-0.5 132.67,-0.5"/>
<text text-anchor="middle" x="160.67" y="-7.5" font-family="Helvetica,sans-Serif" font-size="10.00">stddef.h</text>
</a>
</g>
</g>
<!-- Node5&#45;&gt;Node6 -->
<g id="edge5" class="edge">
<title>Node5&#45;&gt;Node6</title>
<path fill="none" stroke="midnightblue" d="M190.72,-56.08C185.69,-48.53 178.33,-37.49 172.15,-28.23"/>
<polygon fill="midnightblue" stroke="midnightblue" points="174.96,-26.13 166.5,-19.75 169.14,-30.01 174.96,-26.13"/>
</g>
<!-- Node7 -->
<g id="node7" class="node">
<title>Node7</title>
<g id="a_node7"><a xlink:title=" ">
<polygon fill="white" stroke="#bfbfbf" points="207.17,-0.5 207.17,-19.5 260.17,-19.5 260.17,-0.5 207.17,-0.5"/>
<text text-anchor="middle" x="233.67" y="-7.5" font-family="Helvetica,sans-Serif" font-size="10.00">stdint.h</text>
</a>
</g>
</g>
<!-- Node5&#45;&gt;Node7 -->
<g id="edge6" class="edge">
<title>Node5&#45;&gt;Node7</title>
<path fill="none" stroke="midnightblue" d="M202.78,-56.08C207.95,-48.53 215.51,-37.49 221.86,-28.23"/>
<polygon fill="midnightblue" stroke="midnightblue" points="224.91,-29.98 227.67,-19.75 219.13,-26.02 224.91,-29.98"/>
</g>
<!-- Node8&#45;&gt;Node5 -->
<g id="edge8" class="edge">
<title>Node8&#45;&gt;Node5</title>
<path fill="none" stroke="midnightblue" d="M260.46,-112.32C248.89,-104.11 231.29,-91.6 217.51,-81.81"/>
<polygon fill="midnightblue" stroke="midnightblue" points="219.28,-78.77 209.1,-75.83 215.22,-84.48 219.28,-78.77"/>
</g>
<!-- Node9&#45;&gt;Node5 -->
<g id="edge10" class="edge">
<title>Node9&#45;&gt;Node5</title>
<path fill="none" stroke="midnightblue" d="M355.36,-168.11C352.85,-154.22 346.09,-127.35 329.67,-112 308.74,-92.44 279.01,-81.36 252.96,-75.09"/>
<polygon fill="midnightblue" stroke="midnightblue" points="253.71,-71.67 243.19,-72.92 252.19,-78.5 253.71,-71.67"/>
</g>
<!-- Node9&#45;&gt;Node8 -->
<g id="edge11" class="edge">
<title>Node9&#45;&gt;Node8</title>
<path fill="none" stroke="midnightblue" d="M343.17,-168.32C330.07,-159.9 309.96,-146.97 294.56,-137.07"/>
<polygon fill="midnightblue" stroke="midnightblue" points="296.43,-134.12 286.13,-131.65 292.65,-140.01 296.43,-134.12"/>
</g>
<!-- Node10&#45;&gt;Node5 -->
<g id="edge14" class="edge">
<title>Node10&#45;&gt;Node5</title>
<path fill="none" stroke="midnightblue" d="M148.75,-168.37C157.21,-150.46 176.85,-108.92 188.18,-84.95"/>
<polygon fill="midnightblue" stroke="midnightblue" points="191.5,-86.13 192.61,-75.59 185.17,-83.14 191.5,-86.13"/>
</g>
<!-- Node10&#45;&gt;Node8 -->
<g id="edge15" class="edge">
<title>Node10&#45;&gt;Node8</title>
<path fill="none" stroke="midnightblue" d="M164.95,-168.44C186.01,-159.56 219.18,-145.56 243.15,-135.45"/>
<polygon fill="midnightblue" stroke="midnightblue" points="244.63,-138.63 252.48,-131.52 241.91,-132.18 244.63,-138.63"/>
</g>
<!-- Node11&#45;&gt;Node5 -->
<g id="edge18" class="edge">
<title>Node11&#45;&gt;Node5</title>
<path fill="none" stroke="midnightblue" d="M459.6,-168.45C437.05,-155.01 391.13,-128.77 349.67,-112 314.73,-97.87 273.69,-86.04 242.92,-78.06"/>
<polygon fill="midnightblue" stroke="midnightblue" points="243.45,-74.59 232.9,-75.51 241.72,-81.37 243.45,-74.59"/>
</g>
<!-- Node11&#45;&gt;Node8 -->
<g id="edge19" class="edge">
<title>Node11&#45;&gt;Node8</title>
<path fill="none" stroke="midnightblue" d="M441.82,-168.44C407.27,-159.16 351.98,-144.31 314.08,-134.13"/>
<polygon fill="midnightblue" stroke="midnightblue" points="314.93,-130.73 304.37,-131.52 313.12,-137.49 314.93,-130.73"/>
</g>
</g>
</svg>
