<?xml version="1.0" encoding="UTF-8" standalone="no"?>
<!DOCTYPE svg PUBLIC "-//W3C//DTD SVG 1.1//EN"
 "http://www.w3.org/Graphics/SVG/1.1/DTD/svg11.dtd">
<!-- Generated by graphviz version 2.43.0 (0)
 -->
<!-- Title: /home/build/sdk/c/ifxRadarSegmentation/Segmentation.h Pages: 1 -->
<svg width="894pt" height="375pt"
 viewBox="0.00 0.00 894.00 375.00" xmlns="http://www.w3.org/2000/svg" xmlns:xlink="http://www.w3.org/1999/xlink">
<g id="graph0" class="graph" transform="scale(1 1) rotate(0) translate(4 371)">
<title>/home/build/sdk/c/ifxRadarSegmentation/Segmentation.h</title>
<polygon fill="white" stroke="transparent" points="-4,4 -4,-371 890,-371 890,4 -4,4"/>
<!-- Node1 -->
<g id="node1" class="node">
<title>Node1</title>
<g id="a_node1"><a xlink:title="API for Segmentation algorithm.">
<polygon fill="#bfbfbf" stroke="black" points="111.5,-336.5 111.5,-366.5 276.5,-366.5 276.5,-336.5 111.5,-336.5"/>
<text text-anchor="start" x="119.5" y="-354.5" font-family="Helvetica,sans-Serif" font-size="10.00">/home/build/sdk/c/ifxRadar</text>
<text text-anchor="middle" x="194" y="-343.5" font-family="Helvetica,sans-Serif" font-size="10.00">Segmentation/Segmentation.h</text>
</a>
</g>
</g>
<!-- Node2 -->
<g id="node2" class="node">
<title>Node2</title>
<g id="a_node2"><a xlink:title=" ">
<polygon fill="white" stroke="#bfbfbf" points="380,-168.5 380,-187.5 442,-187.5 442,-168.5 380,-168.5"/>
<text text-anchor="middle" x="411" y="-175.5" font-family="Helvetica,sans-Serif" font-size="10.00">stdbool.h</text>
</a>
</g>
</g>
<!-- Node1&#45;&gt;Node2 -->
<g id="edge1" class="edge">
<title>Node1&#45;&gt;Node2</title>
<path fill="none" stroke="midnightblue" d="M230.68,-336.47C270.8,-319.6 334.96,-287.98 377,-244 389.9,-230.5 399.18,-211.14 404.75,-197.06"/>
<polygon fill="midnightblue" stroke="midnightblue" points="408.1,-198.11 408.29,-187.51 401.53,-195.68 408.1,-198.11"/>
</g>
<!-- Node3 -->
<g id="node3" class="node">
<title>Node3</title>
<g id="a_node3"><a xlink:href="_types_8h.html" target="_top" xlink:title="Definitions of data types used within the SDK.">
<polygon fill="white" stroke="black" points="364.5,-56.5 364.5,-75.5 457.5,-75.5 457.5,-56.5 364.5,-56.5"/>
<text text-anchor="middle" x="411" y="-63.5" font-family="Helvetica,sans-Serif" font-size="10.00">ifxBase/Types.h</text>
</a>
</g>
</g>
<!-- Node1&#45;&gt;Node3 -->
<g id="edge2" class="edge">
<title>Node1&#45;&gt;Node3</title>
<path fill="none" stroke="midnightblue" d="M117.05,-336.47C62.88,-321.65 0,-292.13 0,-235 0,-235 0,-235 0,-177 0,-104.56 241.23,-78.55 354.07,-70.35"/>
<polygon fill="midnightblue" stroke="midnightblue" points="354.52,-73.83 364.25,-69.63 354.03,-66.84 354.52,-73.83"/>
</g>
<!-- Node6 -->
<g id="node6" class="node">
<title>Node6</title>
<g id="a_node6"><a xlink:href="_cube_8h.html" target="_top" xlink:title="API for operations on Cube data structures.">
<polygon fill="white" stroke="black" points="149,-280.5 149,-299.5 239,-299.5 239,-280.5 149,-280.5"/>
<text text-anchor="middle" x="194" y="-287.5" font-family="Helvetica,sans-Serif" font-size="10.00">ifxBase/Cube.h</text>
</a>
</g>
</g>
<!-- Node1&#45;&gt;Node6 -->
<g id="edge5" class="edge">
<title>Node1&#45;&gt;Node6</title>
<path fill="none" stroke="midnightblue" d="M194,-336.4C194,-328.47 194,-318.46 194,-309.86"/>
<polygon fill="midnightblue" stroke="midnightblue" points="197.5,-309.66 194,-299.66 190.5,-309.66 197.5,-309.66"/>
</g>
<!-- Node9 -->
<g id="node9" class="node">
<title>Node9</title>
<g id="a_node9"><a xlink:href="_vector_8h.html" target="_top" xlink:title="API for operations on Vector data structures.">
<polygon fill="white" stroke="black" points="183.5,-112.5 183.5,-131.5 278.5,-131.5 278.5,-112.5 183.5,-112.5"/>
<text text-anchor="middle" x="231" y="-119.5" font-family="Helvetica,sans-Serif" font-size="10.00">ifxBase/Vector.h</text>
</a>
</g>
</g>
<!-- Node1&#45;&gt;Node9 -->
<g id="edge15" class="edge">
<title>Node1&#45;&gt;Node9</title>
<path fill="none" stroke="midnightblue" d="M169.97,-336.48C137.44,-315.45 84.57,-272.96 95,-224 100.68,-197.34 100.4,-186.94 120,-168 136.59,-151.97 159.65,-141.39 180.45,-134.54"/>
<polygon fill="midnightblue" stroke="midnightblue" points="181.6,-137.84 190.13,-131.55 179.54,-131.15 181.6,-137.84"/>
</g>
<!-- Node10 -->
<g id="node10" class="node">
<title>Node10</title>
<g id="a_node10"><a xlink:href="_matrix_8h.html" target="_top" xlink:title="API for operations on Matrix data structures.">
<polygon fill="white" stroke="black" points="198.5,-168.5 198.5,-187.5 295.5,-187.5 295.5,-168.5 198.5,-168.5"/>
<text text-anchor="middle" x="247" y="-175.5" font-family="Helvetica,sans-Serif" font-size="10.00">ifxBase/Matrix.h</text>
</a>
</g>
</g>
<!-- Node1&#45;&gt;Node10 -->
<g id="edge14" class="edge">
<title>Node1&#45;&gt;Node10</title>
<path fill="none" stroke="midnightblue" d="M168.57,-336.43C129.93,-313.25 64.04,-265.45 95,-224 106.49,-208.62 150.61,-196.63 188.38,-188.92"/>
<polygon fill="midnightblue" stroke="midnightblue" points="189.19,-192.32 198.32,-186.95 187.83,-185.46 189.19,-192.32"/>
</g>
<!-- Node11 -->
<g id="node11" class="node">
<title>Node11</title>
<g id="a_node11"><a xlink:href="_device_config_8h.html" target="_top" xlink:title="API for Radar device configuration.">
<polygon fill="white" stroke="black" points="746,-224.5 746,-243.5 886,-243.5 886,-224.5 746,-224.5"/>
<text text-anchor="middle" x="816" y="-231.5" font-family="Helvetica,sans-Serif" font-size="10.00">ifxDevice/DeviceConfig.h</text>
</a>
</g>
</g>
<!-- Node1&#45;&gt;Node11 -->
<g id="edge16" class="edge">
<title>Node1&#45;&gt;Node11</title>
<path fill="none" stroke="midnightblue" d="M276.64,-346.88C366.37,-341.61 513.42,-329.05 637,-300 691.78,-287.12 752.84,-262.64 787.62,-247.67"/>
<polygon fill="midnightblue" stroke="midnightblue" points="789.34,-250.74 797.12,-243.54 786.55,-244.32 789.34,-250.74"/>
</g>
<!-- Node13 -->
<g id="node13" class="node">
<title>Node13</title>
<g id="a_node13"><a xlink:href="_device_control_8h.html" target="_top" xlink:title="API for Radar device control operations.">
<polygon fill="white" stroke="black" points="484,-280.5 484,-299.5 628,-299.5 628,-280.5 484,-280.5"/>
<text text-anchor="middle" x="556" y="-287.5" font-family="Helvetica,sans-Serif" font-size="10.00">ifxDevice/DeviceControl.h</text>
</a>
</g>
</g>
<!-- Node1&#45;&gt;Node13 -->
<g id="edge21" class="edge">
<title>Node1&#45;&gt;Node13</title>
<path fill="none" stroke="midnightblue" d="M276.6,-336.92C342.78,-326.05 434.18,-311.02 494.16,-301.16"/>
<polygon fill="midnightblue" stroke="midnightblue" points="494.94,-304.58 504.24,-299.51 493.81,-297.68 494.94,-304.58"/>
</g>
<!-- Node4 -->
<g id="node4" class="node">
<title>Node4</title>
<g id="a_node4"><a xlink:title=" ">
<polygon fill="white" stroke="#bfbfbf" points="383,-0.5 383,-19.5 439,-19.5 439,-0.5 383,-0.5"/>
<text text-anchor="middle" x="411" y="-7.5" font-family="Helvetica,sans-Serif" font-size="10.00">stddef.h</text>
</a>
</g>
</g>
<!-- Node3&#45;&gt;Node4 -->
<g id="edge3" class="edge">
<title>Node3&#45;&gt;Node4</title>
<path fill="none" stroke="midnightblue" d="M411,-56.08C411,-49.01 411,-38.86 411,-29.99"/>
<polygon fill="midnightblue" stroke="midnightblue" points="414.5,-29.75 411,-19.75 407.5,-29.75 414.5,-29.75"/>
</g>
<!-- Node5 -->
<g id="node5" class="node">
<title>Node5</title>
<g id="a_node5"><a xlink:title=" ">
<polygon fill="white" stroke="#bfbfbf" points="708.5,-0.5 708.5,-19.5 761.5,-19.5 761.5,-0.5 708.5,-0.5"/>
<text text-anchor="middle" x="735" y="-7.5" font-family="Helvetica,sans-Serif" font-size="10.00">stdint.h</text>
</a>
</g>
</g>
<!-- Node3&#45;&gt;Node5 -->
<g id="edge4" class="edge">
<title>Node3&#45;&gt;Node5</title>
<path fill="none" stroke="midnightblue" d="M457.77,-57.21C522.74,-46.38 638.98,-27 698.17,-17.14"/>
<polygon fill="midnightblue" stroke="midnightblue" points="698.91,-20.56 708.19,-15.47 697.76,-13.66 698.91,-20.56"/>
</g>
<!-- Node7 -->
<g id="node7" class="node">
<title>Node7</title>
<g id="a_node7"><a xlink:href="_defines_8h.html" target="_top" xlink:title="Internal definitions used by standard math.h functions as Macros, to use float or double precision.">
<polygon fill="white" stroke="black" points="104,-224.5 104,-243.5 206,-243.5 206,-224.5 104,-224.5"/>
<text text-anchor="middle" x="155" y="-231.5" font-family="Helvetica,sans-Serif" font-size="10.00">ifxBase/Defines.h</text>
</a>
</g>
</g>
<!-- Node6&#45;&gt;Node7 -->
<g id="edge6" class="edge">
<title>Node6&#45;&gt;Node7</title>
<path fill="none" stroke="midnightblue" d="M187.56,-280.08C182.05,-272.46 173.97,-261.26 167.24,-251.94"/>
<polygon fill="midnightblue" stroke="midnightblue" points="170.01,-249.81 161.32,-243.75 164.34,-253.91 170.01,-249.81"/>
</g>
<!-- Node6&#45;&gt;Node10 -->
<g id="edge11" class="edge">
<title>Node6&#45;&gt;Node10</title>
<path fill="none" stroke="midnightblue" d="M198.16,-280.37C206.83,-262.38 226.98,-220.55 238.51,-196.63"/>
<polygon fill="midnightblue" stroke="midnightblue" points="241.67,-198.12 242.86,-187.59 235.37,-195.08 241.67,-198.12"/>
</g>
<!-- Node8 -->
<g id="node8" class="node">
<title>Node8</title>
<g id="a_node8"><a xlink:href="_math_8h.html" target="_top" xlink:title="API for Mathematical operations.">
<polygon fill="white" stroke="black" points="129.5,-168.5 129.5,-187.5 180.5,-187.5 180.5,-168.5 129.5,-168.5"/>
<text text-anchor="middle" x="155" y="-175.5" font-family="Helvetica,sans-Serif" font-size="10.00">math.h</text>
</a>
</g>
</g>
<!-- Node7&#45;&gt;Node8 -->
<g id="edge7" class="edge">
<title>Node7&#45;&gt;Node8</title>
<path fill="none" stroke="midnightblue" d="M155,-224.08C155,-217.01 155,-206.86 155,-197.99"/>
<polygon fill="midnightblue" stroke="midnightblue" points="158.5,-197.75 155,-187.75 151.5,-197.75 158.5,-197.75"/>
</g>
<!-- Node8&#45;&gt;Node3 -->
<g id="edge8" class="edge">
<title>Node8&#45;&gt;Node3</title>
<path fill="none" stroke="midnightblue" d="M154.85,-168.37C155.11,-154.35 157.81,-126.7 174,-112 199.89,-88.5 292.81,-76.51 354.32,-71.02"/>
<polygon fill="midnightblue" stroke="midnightblue" points="354.62,-74.5 364.29,-70.16 354.02,-67.53 354.62,-74.5"/>
</g>
<!-- Node8&#45;&gt;Node9 -->
<g id="edge9" class="edge">
<title>Node8&#45;&gt;Node9</title>
<path fill="none" stroke="midnightblue" d="M167.21,-168.32C178.78,-160.11 196.38,-147.6 210.16,-137.81"/>
<polygon fill="midnightblue" stroke="midnightblue" points="212.44,-140.48 218.57,-131.83 208.39,-134.77 212.44,-140.48"/>
</g>
<!-- Node9&#45;&gt;Node3 -->
<g id="edge10" class="edge">
<title>Node9&#45;&gt;Node3</title>
<path fill="none" stroke="midnightblue" d="M259.52,-112.44C290.07,-103.28 338.71,-88.69 372.6,-78.52"/>
<polygon fill="midnightblue" stroke="midnightblue" points="374.04,-81.74 382.61,-75.52 372.03,-75.04 374.04,-81.74"/>
</g>
<!-- Node10&#45;&gt;Node3 -->
<g id="edge12" class="edge">
<title>Node10&#45;&gt;Node3</title>
<path fill="none" stroke="midnightblue" d="M258.16,-168.5C274.98,-155.8 307.93,-131.29 337,-112 353.44,-101.09 372.48,-89.54 387.12,-80.87"/>
<polygon fill="midnightblue" stroke="midnightblue" points="389.2,-83.71 396.04,-75.63 385.65,-77.68 389.2,-83.71"/>
</g>
<!-- Node10&#45;&gt;Node9 -->
<g id="edge13" class="edge">
<title>Node10&#45;&gt;Node9</title>
<path fill="none" stroke="midnightblue" d="M244.36,-168.08C242.21,-160.85 239.12,-150.41 236.45,-141.4"/>
<polygon fill="midnightblue" stroke="midnightblue" points="239.79,-140.34 233.59,-131.75 233.08,-142.33 239.79,-140.34"/>
</g>
<!-- Node11&#45;&gt;Node3 -->
<g id="edge18" class="edge">
<title>Node11&#45;&gt;Node3</title>
<path fill="none" stroke="midnightblue" d="M815.73,-224.32C814.86,-210.7 811.31,-184.22 797,-168 755.65,-121.13 727.87,-129.96 668,-112 600.68,-91.81 520.56,-79.56 467.88,-73.05"/>
<polygon fill="midnightblue" stroke="midnightblue" points="468.07,-69.54 457.72,-71.82 467.23,-76.49 468.07,-69.54"/>
</g>
<!-- Node11&#45;&gt;Node5 -->
<g id="edge17" class="edge">
<title>Node11&#45;&gt;Node5</title>
<path fill="none" stroke="midnightblue" d="M817.27,-224.43C818.85,-211.86 820.79,-187.74 816,-168 802.67,-113.08 766.56,-55.88 747.37,-28.13"/>
<polygon fill="midnightblue" stroke="midnightblue" points="749.98,-25.76 741.36,-19.6 744.26,-29.79 749.98,-25.76"/>
</g>
<!-- Node12 -->
<g id="node12" class="node">
<title>Node12</title>
<g id="a_node12"><a xlink:href="_shield_8h.html" target="_top" xlink:title="Defines the Enumeration for the presence of the available Shield.">
<polygon fill="white" stroke="black" points="682.5,-168.5 682.5,-187.5 787.5,-187.5 787.5,-168.5 682.5,-168.5"/>
<text text-anchor="middle" x="735" y="-175.5" font-family="Helvetica,sans-Serif" font-size="10.00">ifxDevice/Shield.h</text>
</a>
</g>
</g>
<!-- Node11&#45;&gt;Node12 -->
<g id="edge19" class="edge">
<title>Node11&#45;&gt;Node12</title>
<path fill="none" stroke="midnightblue" d="M802.99,-224.32C790.47,-215.98 771.32,-203.21 756.53,-193.35"/>
<polygon fill="midnightblue" stroke="midnightblue" points="758.24,-190.29 747.98,-187.65 754.36,-196.11 758.24,-190.29"/>
</g>
<!-- Node12&#45;&gt;Node5 -->
<g id="edge20" class="edge">
<title>Node12&#45;&gt;Node5</title>
<path fill="none" stroke="midnightblue" d="M735,-168.08C735,-141.95 735,-65.21 735,-29.58"/>
<polygon fill="midnightblue" stroke="midnightblue" points="738.5,-29.57 735,-19.57 731.5,-29.57 738.5,-29.57"/>
</g>
<!-- Node13&#45;&gt;Node2 -->
<g id="edge22" class="edge">
<title>Node13&#45;&gt;Node2</title>
<path fill="none" stroke="midnightblue" d="M524.91,-280.42C503.27,-273.3 474.71,-261.48 454,-244 438.69,-231.08 426.71,-211.36 419.32,-197.03"/>
<polygon fill="midnightblue" stroke="midnightblue" points="422.31,-195.17 414.78,-187.72 416.02,-198.24 422.31,-195.17"/>
</g>
<!-- Node13&#45;&gt;Node3 -->
<g id="edge23" class="edge">
<title>Node13&#45;&gt;Node3</title>
<path fill="none" stroke="midnightblue" d="M604.77,-280.5C625.79,-274.15 648.39,-263.12 661,-244 665.89,-236.58 663.34,-232.58 661,-224 644.63,-163.97 630.1,-144.44 577,-112 543.86,-91.76 501.55,-80.47 467.94,-74.26"/>
<polygon fill="midnightblue" stroke="midnightblue" points="468.27,-70.76 457.81,-72.49 467.06,-77.66 468.27,-70.76"/>
</g>
<!-- Node13&#45;&gt;Node11 -->
<g id="edge31" class="edge">
<title>Node13&#45;&gt;Node11</title>
<path fill="none" stroke="midnightblue" d="M597.2,-280.44C642.65,-271 715.84,-255.8 764.91,-245.61"/>
<polygon fill="midnightblue" stroke="midnightblue" points="765.92,-248.98 774.99,-243.52 764.49,-242.12 765.92,-248.98"/>
</g>
<!-- Node13&#45;&gt;Node12 -->
<g id="edge36" class="edge">
<title>Node13&#45;&gt;Node12</title>
<path fill="none" stroke="midnightblue" d="M609.91,-280.45C637.26,-273.99 669.74,-262.89 694,-244 709.76,-231.73 721.1,-211.59 727.81,-196.98"/>
<polygon fill="midnightblue" stroke="midnightblue" points="731.15,-198.07 731.87,-187.5 724.71,-195.31 731.15,-198.07"/>
</g>
<!-- Node14 -->
<g id="node14" class="node">
<title>Node14</title>
<g id="a_node14"><a xlink:href="_error_8h.html" target="_top" xlink:title="API for error handling.">
<polygon fill="white" stroke="black" points="564,-224.5 564,-243.5 652,-243.5 652,-224.5 564,-224.5"/>
<text text-anchor="middle" x="608" y="-231.5" font-family="Helvetica,sans-Serif" font-size="10.00">ifxBase/Error.h</text>
</a>
</g>
</g>
<!-- Node13&#45;&gt;Node14 -->
<g id="edge24" class="edge">
<title>Node13&#45;&gt;Node14</title>
<path fill="none" stroke="midnightblue" d="M564.59,-280.08C572.16,-272.22 583.38,-260.57 592.51,-251.08"/>
<polygon fill="midnightblue" stroke="midnightblue" points="595.16,-253.38 599.57,-243.75 590.12,-248.53 595.16,-253.38"/>
</g>
<!-- Node17 -->
<g id="node17" class="node">
<title>Node17</title>
<g id="a_node17"><a xlink:href="_list_8h.html" target="_top" xlink:title=" ">
<polygon fill="white" stroke="black" points="462.5,-224.5 462.5,-243.5 545.5,-243.5 545.5,-224.5 462.5,-224.5"/>
<text text-anchor="middle" x="504" y="-231.5" font-family="Helvetica,sans-Serif" font-size="10.00">ifxBase/List.h</text>
</a>
</g>
</g>
<!-- Node13&#45;&gt;Node17 -->
<g id="edge28" class="edge">
<title>Node13&#45;&gt;Node17</title>
<path fill="none" stroke="midnightblue" d="M547.41,-280.08C539.84,-272.22 528.62,-260.57 519.49,-251.08"/>
<polygon fill="midnightblue" stroke="midnightblue" points="521.88,-248.53 512.43,-243.75 516.84,-253.38 521.88,-248.53"/>
</g>
<!-- Node18 -->
<g id="node18" class="node">
<title>Node18</title>
<g id="a_node18"><a xlink:href="_frame_8h.html" target="_top" xlink:title="API for Measurement Frame handling.">
<polygon fill="white" stroke="black" points="262,-224.5 262,-243.5 368,-243.5 368,-224.5 262,-224.5"/>
<text text-anchor="middle" x="315" y="-231.5" font-family="Helvetica,sans-Serif" font-size="10.00">ifxDevice/Frame.h</text>
</a>
</g>
</g>
<!-- Node13&#45;&gt;Node18 -->
<g id="edge32" class="edge">
<title>Node13&#45;&gt;Node18</title>
<path fill="none" stroke="midnightblue" d="M517.81,-280.44C475.86,-271.04 408.41,-255.93 362.93,-245.74"/>
<polygon fill="midnightblue" stroke="midnightblue" points="363.53,-242.29 353.01,-243.52 362,-249.12 363.53,-242.29"/>
</g>
<!-- Node15 -->
<g id="node15" class="node">
<title>Node15</title>
<g id="a_node15"><a xlink:href="_log_8h.html" target="_top" xlink:title="API for logging.">
<polygon fill="white" stroke="black" points="535.5,-168.5 535.5,-187.5 618.5,-187.5 618.5,-168.5 535.5,-168.5"/>
<text text-anchor="middle" x="577" y="-175.5" font-family="Helvetica,sans-Serif" font-size="10.00">ifxBase/Log.h</text>
</a>
</g>
</g>
<!-- Node14&#45;&gt;Node15 -->
<g id="edge25" class="edge">
<title>Node14&#45;&gt;Node15</title>
<path fill="none" stroke="midnightblue" d="M602.88,-224.08C598.59,-216.61 592.34,-205.72 587.06,-196.52"/>
<polygon fill="midnightblue" stroke="midnightblue" points="590.04,-194.68 582.02,-187.75 583.97,-198.17 590.04,-194.68"/>
</g>
<!-- Node15&#45;&gt;Node3 -->
<g id="edge27" class="edge">
<title>Node15&#45;&gt;Node3</title>
<path fill="none" stroke="midnightblue" d="M576.94,-168.12C576.37,-154.24 573.2,-127.39 558,-112 534.33,-88.03 498.26,-76.75 467.78,-71.49"/>
<polygon fill="midnightblue" stroke="midnightblue" points="468.1,-67.99 457.68,-69.92 467.02,-74.91 468.1,-67.99"/>
</g>
<!-- Node16 -->
<g id="node16" class="node">
<title>Node16</title>
<g id="a_node16"><a xlink:title=" ">
<polygon fill="white" stroke="#bfbfbf" points="499,-112.5 499,-131.5 549,-131.5 549,-112.5 499,-112.5"/>
<text text-anchor="middle" x="524" y="-119.5" font-family="Helvetica,sans-Serif" font-size="10.00">stdio.h</text>
</a>
</g>
</g>
<!-- Node15&#45;&gt;Node16 -->
<g id="edge26" class="edge">
<title>Node15&#45;&gt;Node16</title>
<path fill="none" stroke="midnightblue" d="M568.25,-168.08C560.53,-160.22 549.1,-148.57 539.78,-139.08"/>
<polygon fill="midnightblue" stroke="midnightblue" points="542.09,-136.44 532.59,-131.75 537.1,-141.34 542.09,-136.44"/>
</g>
<!-- Node17&#45;&gt;Node2 -->
<g id="edge30" class="edge">
<title>Node17&#45;&gt;Node2</title>
<path fill="none" stroke="midnightblue" d="M489.06,-224.32C474.41,-215.82 451.87,-202.73 434.76,-192.8"/>
<polygon fill="midnightblue" stroke="midnightblue" points="436.31,-189.65 425.9,-187.65 432.8,-195.7 436.31,-189.65"/>
</g>
<!-- Node17&#45;&gt;Node3 -->
<g id="edge29" class="edge">
<title>Node17&#45;&gt;Node3</title>
<path fill="none" stroke="midnightblue" d="M499,-224.08C484.23,-197.72 440.62,-119.88 420.89,-84.66"/>
<polygon fill="midnightblue" stroke="midnightblue" points="423.74,-82.58 415.8,-75.57 417.63,-86 423.74,-82.58"/>
</g>
<!-- Node18&#45;&gt;Node2 -->
<g id="edge33" class="edge">
<title>Node18&#45;&gt;Node2</title>
<path fill="none" stroke="midnightblue" d="M330.42,-224.32C345.54,-215.82 368.82,-202.73 386.47,-192.8"/>
<polygon fill="midnightblue" stroke="midnightblue" points="388.61,-195.61 395.61,-187.65 385.18,-189.51 388.61,-195.61"/>
</g>
<!-- Node18&#45;&gt;Node3 -->
<g id="edge34" class="edge">
<title>Node18&#45;&gt;Node3</title>
<path fill="none" stroke="midnightblue" d="M320.16,-224.08C335.4,-197.72 380.42,-119.88 400.79,-84.66"/>
<polygon fill="midnightblue" stroke="midnightblue" points="404.07,-85.98 406.04,-75.57 398.01,-82.47 404.07,-85.98"/>
</g>
<!-- Node18&#45;&gt;Node10 -->
<g id="edge35" class="edge">
<title>Node18&#45;&gt;Node10</title>
<path fill="none" stroke="midnightblue" d="M304.07,-224.32C293.83,-216.18 278.28,-203.84 266,-194.09"/>
<polygon fill="midnightblue" stroke="midnightblue" points="268.13,-191.31 258.12,-187.83 263.78,-196.79 268.13,-191.31"/>
</g>
</g>
</svg>
