<?xml version="1.0" encoding="UTF-8" standalone="no"?>
<!DOCTYPE svg PUBLIC "-//W3C//DTD SVG 1.1//EN"
 "http://www.w3.org/Graphics/SVG/1.1/DTD/svg11.dtd">
<!-- Generated by graphviz version 2.43.0 (0)
 -->
<!-- Title: /home/build/sdk/c/ifxDevice/Shapes.h Pages: 1 -->
<svg width="592pt" height="375pt"
 viewBox="0.00 0.00 591.50 375.00" xmlns="http://www.w3.org/2000/svg" xmlns:xlink="http://www.w3.org/1999/xlink">
<g id="graph0" class="graph" transform="scale(1 1) rotate(0) translate(4 371)">
<title>/home/build/sdk/c/ifxDevice/Shapes.h</title>
<polygon fill="white" stroke="transparent" points="-4,4 -4,-371 587.5,-371 587.5,4 -4,4"/>
<!-- Node1 -->
<g id="node1" class="node">
<title>Node1</title>
<g id="a_node1"><a xlink:title=" ">
<polygon fill="#bfbfbf" stroke="black" points="365.5,-336.5 365.5,-366.5 517.5,-366.5 517.5,-336.5 365.5,-336.5"/>
<text text-anchor="start" x="373.5" y="-354.5" font-family="Helvetica,sans-Serif" font-size="10.00">/home/build/sdk/c/ifxDevice</text>
<text text-anchor="middle" x="441.5" y="-343.5" font-family="Helvetica,sans-Serif" font-size="10.00">/Shapes.h</text>
</a>
</g>
</g>
<!-- Node2 -->
<g id="node2" class="node">
<title>Node2</title>
<g id="a_node2"><a xlink:href="_types_8h.html" target="_top" xlink:title="Definitions of data types used within the SDK.">
<polygon fill="white" stroke="black" points="296,-56.5 296,-75.5 389,-75.5 389,-56.5 296,-56.5"/>
<text text-anchor="middle" x="342.5" y="-63.5" font-family="Helvetica,sans-Serif" font-size="10.00">ifxBase/Types.h</text>
</a>
</g>
</g>
<!-- Node1&#45;&gt;Node2 -->
<g id="edge1" class="edge">
<title>Node1&#45;&gt;Node2</title>
<path fill="none" stroke="midnightblue" d="M484.1,-336.35C525.93,-319.46 583.5,-286.8 583.5,-235 583.5,-235 583.5,-235 583.5,-177 583.5,-96.45 470.7,-74.63 399.45,-68.88"/>
<polygon fill="midnightblue" stroke="midnightblue" points="399.48,-65.37 389.25,-68.15 398.97,-72.36 399.48,-65.37"/>
</g>
<!-- Node5 -->
<g id="node5" class="node">
<title>Node5</title>
<g id="a_node5"><a xlink:href="_device_control_8h.html" target="_top" xlink:title="API for Radar device control operations.">
<polygon fill="white" stroke="black" points="262.5,-280.5 262.5,-299.5 406.5,-299.5 406.5,-280.5 262.5,-280.5"/>
<text text-anchor="middle" x="334.5" y="-287.5" font-family="Helvetica,sans-Serif" font-size="10.00">ifxDevice/DeviceControl.h</text>
</a>
</g>
</g>
<!-- Node1&#45;&gt;Node5 -->
<g id="edge4" class="edge">
<title>Node1&#45;&gt;Node5</title>
<path fill="none" stroke="midnightblue" d="M416.14,-336.4C398.83,-326.77 376.02,-314.09 358.92,-304.58"/>
<polygon fill="midnightblue" stroke="midnightblue" points="360.51,-301.46 350.07,-299.66 357.11,-307.58 360.51,-301.46"/>
</g>
<!-- Node3 -->
<g id="node3" class="node">
<title>Node3</title>
<g id="a_node3"><a xlink:title=" ">
<polygon fill="white" stroke="#bfbfbf" points="314.5,-0.5 314.5,-19.5 370.5,-19.5 370.5,-0.5 314.5,-0.5"/>
<text text-anchor="middle" x="342.5" y="-7.5" font-family="Helvetica,sans-Serif" font-size="10.00">stddef.h</text>
</a>
</g>
</g>
<!-- Node2&#45;&gt;Node3 -->
<g id="edge2" class="edge">
<title>Node2&#45;&gt;Node3</title>
<path fill="none" stroke="midnightblue" d="M342.5,-56.08C342.5,-49.01 342.5,-38.86 342.5,-29.99"/>
<polygon fill="midnightblue" stroke="midnightblue" points="346,-29.75 342.5,-19.75 339,-29.75 346,-29.75"/>
</g>
<!-- Node4 -->
<g id="node4" class="node">
<title>Node4</title>
<g id="a_node4"><a xlink:title=" ">
<polygon fill="white" stroke="#bfbfbf" points="107,-0.5 107,-19.5 160,-19.5 160,-0.5 107,-0.5"/>
<text text-anchor="middle" x="133.5" y="-7.5" font-family="Helvetica,sans-Serif" font-size="10.00">stdint.h</text>
</a>
</g>
</g>
<!-- Node2&#45;&gt;Node4 -->
<g id="edge3" class="edge">
<title>Node2&#45;&gt;Node4</title>
<path fill="none" stroke="midnightblue" d="M309.38,-56.44C271.37,-46.62 209.22,-30.56 169.88,-20.4"/>
<polygon fill="midnightblue" stroke="midnightblue" points="170.72,-17 160.16,-17.89 168.97,-23.78 170.72,-17"/>
</g>
<!-- Node5&#45;&gt;Node2 -->
<g id="edge6" class="edge">
<title>Node5&#45;&gt;Node2</title>
<path fill="none" stroke="midnightblue" d="M406.59,-281.4C454.58,-274.69 511.48,-262.95 526.5,-244 563.45,-197.39 548.04,-152.51 504.5,-112 476.22,-85.69 433.9,-74.56 399.61,-69.94"/>
<polygon fill="midnightblue" stroke="midnightblue" points="399.59,-66.41 389.24,-68.71 398.76,-73.36 399.59,-66.41"/>
</g>
<!-- Node6 -->
<g id="node6" class="node">
<title>Node6</title>
<g id="a_node6"><a xlink:title=" ">
<polygon fill="white" stroke="#bfbfbf" points="312.5,-168.5 312.5,-187.5 374.5,-187.5 374.5,-168.5 312.5,-168.5"/>
<text text-anchor="middle" x="343.5" y="-175.5" font-family="Helvetica,sans-Serif" font-size="10.00">stdbool.h</text>
</a>
</g>
</g>
<!-- Node5&#45;&gt;Node6 -->
<g id="edge5" class="edge">
<title>Node5&#45;&gt;Node6</title>
<path fill="none" stroke="midnightblue" d="M329.78,-280.14C323.71,-267.61 314.5,-244 319.5,-224 321.94,-214.25 326.94,-204.29 331.74,-196.23"/>
<polygon fill="midnightblue" stroke="midnightblue" points="334.71,-198.08 337.13,-187.77 328.81,-194.32 334.71,-198.08"/>
</g>
<!-- Node7 -->
<g id="node7" class="node">
<title>Node7</title>
<g id="a_node7"><a xlink:href="_error_8h.html" target="_top" xlink:title="API for error handling.">
<polygon fill="white" stroke="black" points="429.5,-224.5 429.5,-243.5 517.5,-243.5 517.5,-224.5 429.5,-224.5"/>
<text text-anchor="middle" x="473.5" y="-231.5" font-family="Helvetica,sans-Serif" font-size="10.00">ifxBase/Error.h</text>
</a>
</g>
</g>
<!-- Node5&#45;&gt;Node7 -->
<g id="edge7" class="edge">
<title>Node5&#45;&gt;Node7</title>
<path fill="none" stroke="midnightblue" d="M356.52,-280.44C379.6,-271.48 416.06,-257.31 442.14,-247.18"/>
<polygon fill="midnightblue" stroke="midnightblue" points="443.52,-250.4 451.58,-243.52 440.99,-243.88 443.52,-250.4"/>
</g>
<!-- Node10 -->
<g id="node10" class="node">
<title>Node10</title>
<g id="a_node10"><a xlink:href="_list_8h.html" target="_top" xlink:title=" ">
<polygon fill="white" stroke="black" points="328,-224.5 328,-243.5 411,-243.5 411,-224.5 328,-224.5"/>
<text text-anchor="middle" x="369.5" y="-231.5" font-family="Helvetica,sans-Serif" font-size="10.00">ifxBase/List.h</text>
</a>
</g>
</g>
<!-- Node5&#45;&gt;Node10 -->
<g id="edge11" class="edge">
<title>Node5&#45;&gt;Node10</title>
<path fill="none" stroke="midnightblue" d="M340.28,-280.08C345.17,-272.53 352.33,-261.49 358.33,-252.23"/>
<polygon fill="midnightblue" stroke="midnightblue" points="361.33,-254.05 363.83,-243.75 355.45,-250.24 361.33,-254.05"/>
</g>
<!-- Node11 -->
<g id="node11" class="node">
<title>Node11</title>
<g id="a_node11"><a xlink:href="_device_config_8h.html" target="_top" xlink:title="API for Radar device configuration.">
<polygon fill="white" stroke="black" points="22.5,-112.5 22.5,-131.5 162.5,-131.5 162.5,-112.5 22.5,-112.5"/>
<text text-anchor="middle" x="92.5" y="-119.5" font-family="Helvetica,sans-Serif" font-size="10.00">ifxDevice/DeviceConfig.h</text>
</a>
</g>
</g>
<!-- Node5&#45;&gt;Node11 -->
<g id="edge14" class="edge">
<title>Node5&#45;&gt;Node11</title>
<path fill="none" stroke="midnightblue" d="M262.19,-284.33C227.23,-278.9 186.45,-267.53 156.5,-244 122.82,-217.54 104.84,-168.35 97.15,-141.56"/>
<polygon fill="midnightblue" stroke="midnightblue" points="100.44,-140.33 94.47,-131.58 93.68,-142.15 100.44,-140.33"/>
</g>
<!-- Node12 -->
<g id="node12" class="node">
<title>Node12</title>
<g id="a_node12"><a xlink:href="_shield_8h.html" target="_top" xlink:title="Defines the Enumeration for the presence of the available Shield.">
<polygon fill="white" stroke="black" points="0,-56.5 0,-75.5 105,-75.5 105,-56.5 0,-56.5"/>
<text text-anchor="middle" x="52.5" y="-63.5" font-family="Helvetica,sans-Serif" font-size="10.00">ifxDevice/Shield.h</text>
</a>
</g>
</g>
<!-- Node5&#45;&gt;Node12 -->
<g id="edge26" class="edge">
<title>Node5&#45;&gt;Node12</title>
<path fill="none" stroke="midnightblue" d="M262.47,-282.24C222.66,-276.26 173.35,-265.03 133.5,-244 68.98,-209.95 42.58,-198.91 13.5,-132 5.78,-114.24 19.82,-95.43 33.15,-82.63"/>
<polygon fill="midnightblue" stroke="midnightblue" points="35.62,-85.12 40.75,-75.85 30.96,-79.9 35.62,-85.12"/>
</g>
<!-- Node13 -->
<g id="node13" class="node">
<title>Node13</title>
<g id="a_node13"><a xlink:href="_frame_8h.html" target="_top" xlink:title="API for Measurement Frame handling.">
<polygon fill="white" stroke="black" points="165.5,-224.5 165.5,-243.5 271.5,-243.5 271.5,-224.5 165.5,-224.5"/>
<text text-anchor="middle" x="218.5" y="-231.5" font-family="Helvetica,sans-Serif" font-size="10.00">ifxDevice/Frame.h</text>
</a>
</g>
</g>
<!-- Node5&#45;&gt;Node13 -->
<g id="edge19" class="edge">
<title>Node5&#45;&gt;Node13</title>
<path fill="none" stroke="midnightblue" d="M316.12,-280.44C297.28,-271.68 267.77,-257.94 246.12,-247.86"/>
<polygon fill="midnightblue" stroke="midnightblue" points="247.34,-244.56 236.79,-243.52 244.38,-250.91 247.34,-244.56"/>
</g>
<!-- Node8 -->
<g id="node8" class="node">
<title>Node8</title>
<g id="a_node8"><a xlink:href="_log_8h.html" target="_top" xlink:title="API for logging.">
<polygon fill="white" stroke="black" points="432,-168.5 432,-187.5 515,-187.5 515,-168.5 432,-168.5"/>
<text text-anchor="middle" x="473.5" y="-175.5" font-family="Helvetica,sans-Serif" font-size="10.00">ifxBase/Log.h</text>
</a>
</g>
</g>
<!-- Node7&#45;&gt;Node8 -->
<g id="edge8" class="edge">
<title>Node7&#45;&gt;Node8</title>
<path fill="none" stroke="midnightblue" d="M473.5,-224.08C473.5,-217.01 473.5,-206.86 473.5,-197.99"/>
<polygon fill="midnightblue" stroke="midnightblue" points="477,-197.75 473.5,-187.75 470,-197.75 477,-197.75"/>
</g>
<!-- Node8&#45;&gt;Node2 -->
<g id="edge10" class="edge">
<title>Node8&#45;&gt;Node2</title>
<path fill="none" stroke="midnightblue" d="M479.67,-168.1C488.16,-154.66 501.02,-128.96 488.5,-112 468.1,-84.37 430.99,-73.18 399.28,-68.86"/>
<polygon fill="midnightblue" stroke="midnightblue" points="399.55,-65.37 389.21,-67.69 398.74,-72.32 399.55,-65.37"/>
</g>
<!-- Node9 -->
<g id="node9" class="node">
<title>Node9</title>
<g id="a_node9"><a xlink:title=" ">
<polygon fill="white" stroke="#bfbfbf" points="429.5,-112.5 429.5,-131.5 479.5,-131.5 479.5,-112.5 429.5,-112.5"/>
<text text-anchor="middle" x="454.5" y="-119.5" font-family="Helvetica,sans-Serif" font-size="10.00">stdio.h</text>
</a>
</g>
</g>
<!-- Node8&#45;&gt;Node9 -->
<g id="edge9" class="edge">
<title>Node8&#45;&gt;Node9</title>
<path fill="none" stroke="midnightblue" d="M470.36,-168.08C467.82,-160.85 464.14,-150.41 460.97,-141.4"/>
<polygon fill="midnightblue" stroke="midnightblue" points="464.2,-140.02 457.58,-131.75 457.6,-142.35 464.2,-140.02"/>
</g>
<!-- Node10&#45;&gt;Node2 -->
<g id="edge12" class="edge">
<title>Node10&#45;&gt;Node2</title>
<path fill="none" stroke="midnightblue" d="M373.7,-224.19C379.13,-211.71 387.44,-188.17 383.5,-168 377.51,-137.32 362.18,-104.17 352.05,-84.52"/>
<polygon fill="midnightblue" stroke="midnightblue" points="355.08,-82.76 347.31,-75.56 348.9,-86.04 355.08,-82.76"/>
</g>
<!-- Node10&#45;&gt;Node6 -->
<g id="edge13" class="edge">
<title>Node10&#45;&gt;Node6</title>
<path fill="none" stroke="midnightblue" d="M365.21,-224.08C361.65,-216.69 356.48,-205.95 352.08,-196.81"/>
<polygon fill="midnightblue" stroke="midnightblue" points="355.21,-195.24 347.71,-187.75 348.9,-198.28 355.21,-195.24"/>
</g>
<!-- Node11&#45;&gt;Node2 -->
<g id="edge16" class="edge">
<title>Node11&#45;&gt;Node2</title>
<path fill="none" stroke="midnightblue" d="M132.11,-112.44C175.73,-103.02 245.9,-87.87 293.08,-77.68"/>
<polygon fill="midnightblue" stroke="midnightblue" points="294.04,-81.05 303.07,-75.52 292.56,-74.21 294.04,-81.05"/>
</g>
<!-- Node11&#45;&gt;Node4 -->
<g id="edge15" class="edge">
<title>Node11&#45;&gt;Node4</title>
<path fill="none" stroke="midnightblue" d="M97.34,-112.24C102.14,-103.31 109.47,-88.97 114.5,-76 120.47,-60.58 125.62,-42.49 129.04,-29.31"/>
<polygon fill="midnightblue" stroke="midnightblue" points="132.45,-30.12 131.49,-19.57 125.66,-28.41 132.45,-30.12"/>
</g>
<!-- Node11&#45;&gt;Node12 -->
<g id="edge17" class="edge">
<title>Node11&#45;&gt;Node12</title>
<path fill="none" stroke="midnightblue" d="M85.89,-112.08C80.24,-104.46 71.96,-93.26 65.05,-83.94"/>
<polygon fill="midnightblue" stroke="midnightblue" points="67.75,-81.7 58.98,-75.75 62.12,-85.87 67.75,-81.7"/>
</g>
<!-- Node12&#45;&gt;Node4 -->
<g id="edge18" class="edge">
<title>Node12&#45;&gt;Node4</title>
<path fill="none" stroke="midnightblue" d="M65.51,-56.32C78.03,-47.98 97.18,-35.21 111.97,-25.35"/>
<polygon fill="midnightblue" stroke="midnightblue" points="114.14,-28.11 120.52,-19.65 110.26,-22.29 114.14,-28.11"/>
</g>
<!-- Node13&#45;&gt;Node2 -->
<g id="edge21" class="edge">
<title>Node13&#45;&gt;Node2</title>
<path fill="none" stroke="midnightblue" d="M210.29,-224.18C202.96,-215.66 192.74,-202.02 188.5,-188 178.31,-154.34 185.07,-136.29 210.5,-112 230.9,-92.51 260.08,-81.44 285.82,-75.16"/>
<polygon fill="midnightblue" stroke="midnightblue" points="286.87,-78.51 295.86,-72.91 285.33,-71.68 286.87,-78.51"/>
</g>
<!-- Node13&#45;&gt;Node6 -->
<g id="edge20" class="edge">
<title>Node13&#45;&gt;Node6</title>
<path fill="none" stroke="midnightblue" d="M238.31,-224.44C258.79,-215.6 290.98,-201.69 314.36,-191.59"/>
<polygon fill="midnightblue" stroke="midnightblue" points="315.99,-194.7 323.79,-187.52 313.22,-188.27 315.99,-194.7"/>
</g>
<!-- Node14 -->
<g id="node14" class="node">
<title>Node14</title>
<g id="a_node14"><a xlink:href="_matrix_8h.html" target="_top" xlink:title="API for operations on Matrix data structures.">
<polygon fill="white" stroke="black" points="197,-168.5 197,-187.5 294,-187.5 294,-168.5 197,-168.5"/>
<text text-anchor="middle" x="245.5" y="-175.5" font-family="Helvetica,sans-Serif" font-size="10.00">ifxBase/Matrix.h</text>
</a>
</g>
</g>
<!-- Node13&#45;&gt;Node14 -->
<g id="edge22" class="edge">
<title>Node13&#45;&gt;Node14</title>
<path fill="none" stroke="midnightblue" d="M222.96,-224.08C226.65,-216.69 232.02,-205.95 236.59,-196.81"/>
<polygon fill="midnightblue" stroke="midnightblue" points="239.78,-198.26 241.12,-187.75 233.52,-195.13 239.78,-198.26"/>
</g>
<!-- Node14&#45;&gt;Node2 -->
<g id="edge23" class="edge">
<title>Node14&#45;&gt;Node2</title>
<path fill="none" stroke="midnightblue" d="M270.33,-168.41C287.6,-161.22 309.88,-149.33 323.5,-132 333.93,-118.72 338.64,-99.89 340.76,-85.91"/>
<polygon fill="midnightblue" stroke="midnightblue" points="344.24,-86.28 341.97,-75.94 337.29,-85.44 344.24,-86.28"/>
</g>
<!-- Node15 -->
<g id="node15" class="node">
<title>Node15</title>
<g id="a_node15"><a xlink:href="_vector_8h.html" target="_top" xlink:title="API for operations on Vector data structures.">
<polygon fill="white" stroke="black" points="219,-112.5 219,-131.5 314,-131.5 314,-112.5 219,-112.5"/>
<text text-anchor="middle" x="266.5" y="-119.5" font-family="Helvetica,sans-Serif" font-size="10.00">ifxBase/Vector.h</text>
</a>
</g>
</g>
<!-- Node14&#45;&gt;Node15 -->
<g id="edge24" class="edge">
<title>Node14&#45;&gt;Node15</title>
<path fill="none" stroke="midnightblue" d="M248.97,-168.08C251.81,-160.77 255.93,-150.18 259.46,-141.1"/>
<polygon fill="midnightblue" stroke="midnightblue" points="262.73,-142.34 263.1,-131.75 256.21,-139.8 262.73,-142.34"/>
</g>
<!-- Node15&#45;&gt;Node2 -->
<g id="edge25" class="edge">
<title>Node15&#45;&gt;Node2</title>
<path fill="none" stroke="midnightblue" d="M278.71,-112.32C290.28,-104.11 307.88,-91.6 321.66,-81.81"/>
<polygon fill="midnightblue" stroke="midnightblue" points="323.94,-84.48 330.07,-75.83 319.89,-78.77 323.94,-84.48"/>
</g>
</g>
</svg>
