<?xml version="1.0" encoding="UTF-8" standalone="no"?>
<!DOCTYPE svg PUBLIC "-//W3C//DTD SVG 1.1//EN"
 "http://www.w3.org/Graphics/SVG/1.1/DTD/svg11.dtd">
<!-- Generated by graphviz version 2.43.0 (0)
 -->
<!-- Title: /home/build/sdk/c/ifxDevice/Shield.h Pages: 1 -->
<svg width="747pt" height="374pt"
 viewBox="0.00 0.00 746.58 374.00" xmlns="http://www.w3.org/2000/svg" xmlns:xlink="http://www.w3.org/1999/xlink">
<g id="graph0" class="graph" transform="scale(1 1) rotate(0) translate(4 370)">
<title>/home/build/sdk/c/ifxDevice/Shield.h</title>
<polygon fill="white" stroke="transparent" points="-4,4 -4,-370 742.58,-370 742.58,4 -4,4"/>
<!-- Node1 -->
<g id="node1" class="node">
<title>Node1</title>
<g id="a_node1"><a xlink:title="Defines the Enumeration for the presence of the available Shield.">
<polygon fill="#bfbfbf" stroke="black" points="275.58,-335.5 275.58,-365.5 427.58,-365.5 427.58,-335.5 275.58,-335.5"/>
<text text-anchor="start" x="283.58" y="-353.5" font-family="Helvetica,sans-Serif" font-size="10.00">/home/build/sdk/c/ifxDevice</text>
<text text-anchor="middle" x="351.58" y="-342.5" font-family="Helvetica,sans-Serif" font-size="10.00">/Shield.h</text>
</a>
</g>
</g>
<!-- Node2 -->
<g id="node2" class="node">
<title>Node2</title>
<g id="a_node2"><a xlink:href="_device_config_8h.html" target="_top" xlink:title="API for Radar device configuration.">
<polygon fill="white" stroke="black" points="327.58,-268.5 327.58,-298.5 479.58,-298.5 479.58,-268.5 327.58,-268.5"/>
<text text-anchor="start" x="335.58" y="-286.5" font-family="Helvetica,sans-Serif" font-size="10.00">/home/build/sdk/c/ifxDevice</text>
<text text-anchor="middle" x="403.58" y="-275.5" font-family="Helvetica,sans-Serif" font-size="10.00">/DeviceConfig.h</text>
</a>
</g>
</g>
<!-- Node1&#45;&gt;Node2 -->
<g id="edge1" class="edge">
<title>Node1&#45;&gt;Node2</title>
<path fill="none" stroke="midnightblue" d="M369.23,-327.45C376.86,-317.9 385.58,-307 392.32,-298.58"/>
<polygon fill="midnightblue" stroke="midnightblue" points="366.38,-325.4 362.87,-335.4 371.85,-329.77 366.38,-325.4"/>
</g>
<!-- Node6 -->
<g id="node6" class="node">
<title>Node6</title>
<g id="a_node6"><a xlink:href="_device_control_8h.html" target="_top" xlink:title="API for Radar device control operations.">
<polygon fill="white" stroke="black" points="223.58,-201.5 223.58,-231.5 375.58,-231.5 375.58,-201.5 223.58,-201.5"/>
<text text-anchor="start" x="231.58" y="-219.5" font-family="Helvetica,sans-Serif" font-size="10.00">/home/build/sdk/c/ifxDevice</text>
<text text-anchor="middle" x="299.58" y="-208.5" font-family="Helvetica,sans-Serif" font-size="10.00">/DeviceControl.h</text>
</a>
</g>
</g>
<!-- Node1&#45;&gt;Node6 -->
<g id="edge18" class="edge">
<title>Node1&#45;&gt;Node6</title>
<path fill="none" stroke="midnightblue" d="M334.5,-327.06C328.75,-318.63 322.74,-308.72 318.58,-299 308.93,-276.42 303.74,-248.14 301.33,-231.52"/>
<polygon fill="midnightblue" stroke="midnightblue" points="331.67,-329.12 340.32,-335.25 337.38,-325.07 331.67,-329.12"/>
</g>
<!-- Node3 -->
<g id="node3" class="node">
<title>Node3</title>
<g id="a_node3"><a xlink:href="_constant_wave_control_8h.html" target="_top" xlink:title="Header for Constant Wave Control. It provides APIs to use an Avian device in constant wave mode....">
<polygon fill="white" stroke="black" points="223.58,-134.5 223.58,-164.5 375.58,-164.5 375.58,-134.5 223.58,-134.5"/>
<text text-anchor="start" x="231.58" y="-152.5" font-family="Helvetica,sans-Serif" font-size="10.00">/home/build/sdk/c/ifxDevice</text>
<text text-anchor="middle" x="299.58" y="-141.5" font-family="Helvetica,sans-Serif" font-size="10.00">/ConstantWaveControl.h</text>
</a>
</g>
</g>
<!-- Node2&#45;&gt;Node3 -->
<g id="edge2" class="edge">
<title>Node2&#45;&gt;Node3</title>
<path fill="none" stroke="midnightblue" d="M402.85,-257.98C401.22,-240.61 396.69,-217.54 384.58,-201 372.72,-184.79 353.95,-172.85 337.06,-164.66"/>
<polygon fill="midnightblue" stroke="midnightblue" points="399.4,-258.7 403.56,-268.45 406.38,-258.24 399.4,-258.7"/>
</g>
<!-- Node4 -->
<g id="node4" class="node">
<title>Node4</title>
<g id="a_node4"><a xlink:href="_device_8h.html" target="_top" xlink:title=" ">
<polygon fill="white" stroke="black" points="67.58,-67.5 67.58,-97.5 219.58,-97.5 219.58,-67.5 67.58,-67.5"/>
<text text-anchor="start" x="75.58" y="-85.5" font-family="Helvetica,sans-Serif" font-size="10.00">/home/build/sdk/c/ifxDevice</text>
<text text-anchor="middle" x="143.58" y="-74.5" font-family="Helvetica,sans-Serif" font-size="10.00">/Device.h</text>
</a>
</g>
</g>
<!-- Node2&#45;&gt;Node4 -->
<g id="edge3" class="edge">
<title>Node2&#45;&gt;Node4</title>
<path fill="none" stroke="midnightblue" d="M317.29,-269.35C211.94,-251.32 43.23,-215.3 6.58,-165 -17.21,-132.34 30.7,-110.43 76.26,-97.62"/>
<polygon fill="midnightblue" stroke="midnightblue" points="316.84,-272.83 327.28,-271.04 318.01,-265.93 316.84,-272.83"/>
</g>
<!-- Node2&#45;&gt;Node6 -->
<g id="edge5" class="edge">
<title>Node2&#45;&gt;Node6</title>
<path fill="none" stroke="midnightblue" d="M372.41,-263.02C356.22,-252.9 336.82,-240.77 322.11,-231.58"/>
<polygon fill="midnightblue" stroke="midnightblue" points="370.68,-266.06 381.02,-268.4 374.39,-260.13 370.68,-266.06"/>
</g>
<!-- Node8 -->
<g id="node8" class="node">
<title>Node8</title>
<g id="a_node8"><a xlink:href="_presence_sensing_8h.html" target="_top" xlink:title="API for Presence Sensing algorithm.">
<polygon fill="white" stroke="black" points="394.08,-134.5 394.08,-164.5 541.08,-164.5 541.08,-134.5 394.08,-134.5"/>
<text text-anchor="start" x="402.08" y="-152.5" font-family="Helvetica,sans-Serif" font-size="10.00">/home/build/sdk/c/ifxRadar</text>
<text text-anchor="middle" x="467.58" y="-141.5" font-family="Helvetica,sans-Serif" font-size="10.00">/PresenceSensing.h</text>
</a>
</g>
</g>
<!-- Node2&#45;&gt;Node8 -->
<g id="edge16" class="edge">
<title>Node2&#45;&gt;Node8</title>
<path fill="none" stroke="midnightblue" d="M414.92,-259.12C428.22,-231.68 449.84,-187.09 460.78,-164.52"/>
<polygon fill="midnightblue" stroke="midnightblue" points="411.65,-257.85 410.43,-268.37 417.94,-260.9 411.65,-257.85"/>
</g>
<!-- Node10 -->
<g id="node10" class="node">
<title>Node10</title>
<g id="a_node10"><a xlink:href="_segmentation_8h.html" target="_top" xlink:title="API for Segmentation algorithm.">
<polygon fill="white" stroke="black" points="559.08,-134.5 559.08,-164.5 724.08,-164.5 724.08,-134.5 559.08,-134.5"/>
<text text-anchor="start" x="567.08" y="-152.5" font-family="Helvetica,sans-Serif" font-size="10.00">/home/build/sdk/c/ifxRadar</text>
<text text-anchor="middle" x="641.58" y="-141.5" font-family="Helvetica,sans-Serif" font-size="10.00">Segmentation/Segmentation.h</text>
</a>
</g>
</g>
<!-- Node2&#45;&gt;Node10 -->
<g id="edge17" class="edge">
<title>Node2&#45;&gt;Node10</title>
<path fill="none" stroke="midnightblue" d="M437.9,-263.47C486.27,-236.64 573.39,-188.32 616.3,-164.52"/>
<polygon fill="midnightblue" stroke="midnightblue" points="436.1,-260.46 429.05,-268.37 439.5,-266.58 436.1,-260.46"/>
</g>
<!-- Node5 -->
<g id="node5" class="node">
<title>Node5</title>
<g id="a_node5"><a xlink:href="_s_d_k_8h.html" target="_top" xlink:title="Master header file for Radar SDK.">
<polygon fill="white" stroke="black" points="379.08,-0.5 379.08,-30.5 526.08,-30.5 526.08,-0.5 379.08,-0.5"/>
<text text-anchor="start" x="387.08" y="-18.5" font-family="Helvetica,sans-Serif" font-size="10.00">/home/build/sdk/c/ifxRadar</text>
<text text-anchor="middle" x="452.58" y="-7.5" font-family="Helvetica,sans-Serif" font-size="10.00">/SDK.h</text>
</a>
</g>
</g>
<!-- Node4&#45;&gt;Node5 -->
<g id="edge4" class="edge">
<title>Node4&#45;&gt;Node5</title>
<path fill="none" stroke="midnightblue" d="M220.2,-65.38C271.03,-54.69 337.08,-40.8 385.77,-30.55"/>
<polygon fill="midnightblue" stroke="midnightblue" points="219.32,-61.99 210.25,-67.48 220.76,-68.84 219.32,-61.99"/>
</g>
<!-- Node6&#45;&gt;Node3 -->
<g id="edge6" class="edge">
<title>Node6&#45;&gt;Node3</title>
<path fill="none" stroke="midnightblue" d="M299.58,-191.11C299.58,-182.15 299.58,-172.32 299.58,-164.58"/>
<polygon fill="midnightblue" stroke="midnightblue" points="296.08,-191.4 299.58,-201.4 303.08,-191.4 296.08,-191.4"/>
</g>
<!-- Node6&#45;&gt;Node4 -->
<g id="edge7" class="edge">
<title>Node6&#45;&gt;Node4</title>
<path fill="none" stroke="midnightblue" d="M262.12,-196.64C246.66,-188.02 229.02,-177.04 214.58,-165 189.94,-144.45 166.54,-114.99 153.72,-97.69"/>
<polygon fill="midnightblue" stroke="midnightblue" points="260.47,-199.73 270.93,-201.44 263.82,-193.58 260.47,-199.73"/>
</g>
<!-- Node7 -->
<g id="node7" class="node">
<title>Node7</title>
<g id="a_node7"><a xlink:href="_shapes_8h.html" target="_top" xlink:title=" ">
<polygon fill="white" stroke="black" points="15.58,-134.5 15.58,-164.5 167.58,-164.5 167.58,-134.5 15.58,-134.5"/>
<text text-anchor="start" x="23.58" y="-152.5" font-family="Helvetica,sans-Serif" font-size="10.00">/home/build/sdk/c/ifxDevice</text>
<text text-anchor="middle" x="91.58" y="-141.5" font-family="Helvetica,sans-Serif" font-size="10.00">/Shapes.h</text>
</a>
</g>
</g>
<!-- Node6&#45;&gt;Node7 -->
<g id="edge8" class="edge">
<title>Node6&#45;&gt;Node7</title>
<path fill="none" stroke="midnightblue" d="M245.01,-198.44C211.29,-187.91 168.54,-174.55 136.74,-164.61"/>
<polygon fill="midnightblue" stroke="midnightblue" points="244.12,-201.83 254.71,-201.48 246.21,-195.15 244.12,-201.83"/>
</g>
<!-- Node6&#45;&gt;Node8 -->
<g id="edge10" class="edge">
<title>Node6&#45;&gt;Node8</title>
<path fill="none" stroke="midnightblue" d="M345.64,-197.68C372.58,-187.26 406.12,-174.28 431.2,-164.58"/>
<polygon fill="midnightblue" stroke="midnightblue" points="344.1,-194.52 336.04,-201.4 346.63,-201.05 344.1,-194.52"/>
</g>
<!-- Node6&#45;&gt;Node10 -->
<g id="edge13" class="edge">
<title>Node6&#45;&gt;Node10</title>
<path fill="none" stroke="midnightblue" d="M383.33,-199.58C439.73,-188.86 513.41,-174.86 567.63,-164.55"/>
<polygon fill="midnightblue" stroke="midnightblue" points="382.54,-196.17 373.37,-201.48 383.85,-203.05 382.54,-196.17"/>
</g>
<!-- Node7&#45;&gt;Node4 -->
<g id="edge9" class="edge">
<title>Node7&#45;&gt;Node4</title>
<path fill="none" stroke="midnightblue" d="M109.23,-126.45C116.86,-116.9 125.58,-106 132.32,-97.58"/>
<polygon fill="midnightblue" stroke="midnightblue" points="106.38,-124.4 102.87,-134.4 111.85,-128.77 106.38,-124.4"/>
</g>
<!-- Node9 -->
<g id="node9" class="node">
<title>Node9</title>
<g id="a_node9"><a xlink:href="_radar_8h.html" target="_top" xlink:title="Header for ifxRadar.">
<polygon fill="white" stroke="black" points="379.08,-67.5 379.08,-97.5 526.08,-97.5 526.08,-67.5 379.08,-67.5"/>
<text text-anchor="start" x="387.08" y="-85.5" font-family="Helvetica,sans-Serif" font-size="10.00">/home/build/sdk/c/ifxRadar</text>
<text text-anchor="middle" x="452.58" y="-74.5" font-family="Helvetica,sans-Serif" font-size="10.00">/Radar.h</text>
</a>
</g>
</g>
<!-- Node8&#45;&gt;Node9 -->
<g id="edge11" class="edge">
<title>Node8&#45;&gt;Node9</title>
<path fill="none" stroke="midnightblue" d="M462.02,-124.4C459.94,-115.37 457.64,-105.41 455.83,-97.58"/>
<polygon fill="midnightblue" stroke="midnightblue" points="458.67,-125.44 464.33,-134.4 465.49,-123.87 458.67,-125.44"/>
</g>
<!-- Node9&#45;&gt;Node5 -->
<g id="edge12" class="edge">
<title>Node9&#45;&gt;Node5</title>
<path fill="none" stroke="midnightblue" d="M452.58,-57.11C452.58,-48.15 452.58,-38.32 452.58,-30.58"/>
<polygon fill="midnightblue" stroke="midnightblue" points="449.08,-57.4 452.58,-67.4 456.08,-57.4 449.08,-57.4"/>
</g>
<!-- Node11 -->
<g id="node11" class="node">
<title>Node11</title>
<g id="a_node11"><a xlink:href="_radar_segmentation_8h.html" target="_top" xlink:title="Header for ifxRadarSegmentation.">
<polygon fill="white" stroke="black" points="544.58,-67.5 544.58,-97.5 738.58,-97.5 738.58,-67.5 544.58,-67.5"/>
<text text-anchor="start" x="552.58" y="-85.5" font-family="Helvetica,sans-Serif" font-size="10.00">/home/build/sdk/c/ifxRadar</text>
<text text-anchor="middle" x="641.58" y="-74.5" font-family="Helvetica,sans-Serif" font-size="10.00">Segmentation/RadarSegmentation.h</text>
</a>
</g>
</g>
<!-- Node10&#45;&gt;Node11 -->
<g id="edge14" class="edge">
<title>Node10&#45;&gt;Node11</title>
<path fill="none" stroke="midnightblue" d="M641.58,-124.11C641.58,-115.15 641.58,-105.32 641.58,-97.58"/>
<polygon fill="midnightblue" stroke="midnightblue" points="638.08,-124.4 641.58,-134.4 645.08,-124.4 638.08,-124.4"/>
</g>
<!-- Node11&#45;&gt;Node5 -->
<g id="edge15" class="edge">
<title>Node11&#45;&gt;Node5</title>
<path fill="none" stroke="midnightblue" d="M590.97,-64.09C560.46,-53.6 522.1,-40.41 493.51,-30.58"/>
<polygon fill="midnightblue" stroke="midnightblue" points="589.98,-67.45 600.57,-67.4 592.26,-60.83 589.98,-67.45"/>
</g>
</g>
</svg>
