<?xml version="1.0" encoding="UTF-8" standalone="no"?>
<!DOCTYPE svg PUBLIC "-//W3C//DTD SVG 1.1//EN"
 "http://www.w3.org/Graphics/SVG/1.1/DTD/svg11.dtd">
<!-- Generated by graphviz version 2.43.0 (0)
 -->
<!-- Title: /home/build/sdk/c/ifxRadar/SpectrumAxis.h Pages: 1 -->
<svg width="225pt" height="263pt"
 viewBox="0.00 0.00 224.50 263.00" xmlns="http://www.w3.org/2000/svg" xmlns:xlink="http://www.w3.org/1999/xlink">
<g id="graph0" class="graph" transform="scale(1 1) rotate(0) translate(4 259)">
<title>/home/build/sdk/c/ifxRadar/SpectrumAxis.h</title>
<polygon fill="white" stroke="transparent" points="-4,4 -4,-259 220.5,-259 220.5,4 -4,4"/>
<!-- Node1 -->
<g id="node1" class="node">
<title>Node1</title>
<g id="a_node1"><a xlink:title="API for Spectrum Axis used by Range spectrum, Range Doppler and Range Angle Map modules.">
<polygon fill="#bfbfbf" stroke="black" points="0,-224.5 0,-254.5 147,-254.5 147,-224.5 0,-224.5"/>
<text text-anchor="start" x="8" y="-242.5" font-family="Helvetica,sans-Serif" font-size="10.00">/home/build/sdk/c/ifxRadar</text>
<text text-anchor="middle" x="73.5" y="-231.5" font-family="Helvetica,sans-Serif" font-size="10.00">/SpectrumAxis.h</text>
</a>
</g>
</g>
<!-- Node2 -->
<g id="node2" class="node">
<title>Node2</title>
<g id="a_node2"><a xlink:href="_types_8h.html" target="_top" xlink:title="Definitions of data types used within the SDK.">
<polygon fill="white" stroke="black" points="30,-56.5 30,-75.5 123,-75.5 123,-56.5 30,-56.5"/>
<text text-anchor="middle" x="76.5" y="-63.5" font-family="Helvetica,sans-Serif" font-size="10.00">ifxBase/Types.h</text>
</a>
</g>
</g>
<!-- Node1&#45;&gt;Node2 -->
<g id="edge1" class="edge">
<title>Node1&#45;&gt;Node2</title>
<path fill="none" stroke="midnightblue" d="M51.13,-224.35C39.33,-215.5 25.99,-202.95 19.5,-188 15.96,-179.85 17.24,-176.6 19.5,-168 27.99,-135.7 49.4,-102.86 63.43,-83.73"/>
<polygon fill="midnightblue" stroke="midnightblue" points="66.41,-85.6 69.64,-75.51 60.82,-81.39 66.41,-85.6"/>
</g>
<!-- Node5 -->
<g id="node5" class="node">
<title>Node5</title>
<g id="a_node5"><a xlink:href="_math_8h.html" target="_top" xlink:title="API for Mathematical operations.">
<polygon fill="white" stroke="black" points="28.5,-168.5 28.5,-187.5 118.5,-187.5 118.5,-168.5 28.5,-168.5"/>
<text text-anchor="middle" x="73.5" y="-175.5" font-family="Helvetica,sans-Serif" font-size="10.00">ifxBase/Math.h</text>
</a>
</g>
</g>
<!-- Node1&#45;&gt;Node5 -->
<g id="edge4" class="edge">
<title>Node1&#45;&gt;Node5</title>
<path fill="none" stroke="midnightblue" d="M73.5,-224.4C73.5,-216.47 73.5,-206.46 73.5,-197.86"/>
<polygon fill="midnightblue" stroke="midnightblue" points="77,-197.66 73.5,-187.66 70,-197.66 77,-197.66"/>
</g>
<!-- Node7 -->
<g id="node7" class="node">
<title>Node7</title>
<g id="a_node7"><a xlink:href="_f_f_t_8h.html" target="_top" xlink:title="API for Fast Fourier Transform (FFT)">
<polygon fill="white" stroke="black" points="136.5,-168.5 136.5,-187.5 216.5,-187.5 216.5,-168.5 136.5,-168.5"/>
<text text-anchor="middle" x="176.5" y="-175.5" font-family="Helvetica,sans-Serif" font-size="10.00">ifxAlgo/FFT.h</text>
</a>
</g>
</g>
<!-- Node1&#45;&gt;Node7 -->
<g id="edge8" class="edge">
<title>Node1&#45;&gt;Node7</title>
<path fill="none" stroke="midnightblue" d="M97.91,-224.4C114.42,-214.86 136.12,-202.32 152.54,-192.84"/>
<polygon fill="midnightblue" stroke="midnightblue" points="154.6,-195.69 161.51,-187.66 151.1,-189.63 154.6,-195.69"/>
</g>
<!-- Node3 -->
<g id="node3" class="node">
<title>Node3</title>
<g id="a_node3"><a xlink:title=" ">
<polygon fill="white" stroke="#bfbfbf" points="12.5,-0.5 12.5,-19.5 68.5,-19.5 68.5,-0.5 12.5,-0.5"/>
<text text-anchor="middle" x="40.5" y="-7.5" font-family="Helvetica,sans-Serif" font-size="10.00">stddef.h</text>
</a>
</g>
</g>
<!-- Node2&#45;&gt;Node3 -->
<g id="edge2" class="edge">
<title>Node2&#45;&gt;Node3</title>
<path fill="none" stroke="midnightblue" d="M70.56,-56.08C65.52,-48.53 58.16,-37.49 51.99,-28.23"/>
<polygon fill="midnightblue" stroke="midnightblue" points="54.79,-26.13 46.33,-19.75 48.97,-30.01 54.79,-26.13"/>
</g>
<!-- Node4 -->
<g id="node4" class="node">
<title>Node4</title>
<g id="a_node4"><a xlink:title=" ">
<polygon fill="white" stroke="#bfbfbf" points="87,-0.5 87,-19.5 140,-19.5 140,-0.5 87,-0.5"/>
<text text-anchor="middle" x="113.5" y="-7.5" font-family="Helvetica,sans-Serif" font-size="10.00">stdint.h</text>
</a>
</g>
</g>
<!-- Node2&#45;&gt;Node4 -->
<g id="edge3" class="edge">
<title>Node2&#45;&gt;Node4</title>
<path fill="none" stroke="midnightblue" d="M82.61,-56.08C87.78,-48.53 95.35,-37.49 101.69,-28.23"/>
<polygon fill="midnightblue" stroke="midnightblue" points="104.74,-29.98 107.5,-19.75 98.96,-26.02 104.74,-29.98"/>
</g>
<!-- Node5&#45;&gt;Node2 -->
<g id="edge5" class="edge">
<title>Node5&#45;&gt;Node2</title>
<path fill="none" stroke="midnightblue" d="M68.81,-168.22C62.73,-155.78 53.4,-132.28 57.5,-112 59.39,-102.65 63.29,-92.83 67.07,-84.75"/>
<polygon fill="midnightblue" stroke="midnightblue" points="70.29,-86.14 71.62,-75.63 64.03,-83.01 70.29,-86.14"/>
</g>
<!-- Node6 -->
<g id="node6" class="node">
<title>Node6</title>
<g id="a_node6"><a xlink:href="_vector_8h.html" target="_top" xlink:title="API for operations on Vector data structures.">
<polygon fill="white" stroke="black" points="67,-112.5 67,-131.5 162,-131.5 162,-112.5 67,-112.5"/>
<text text-anchor="middle" x="114.5" y="-119.5" font-family="Helvetica,sans-Serif" font-size="10.00">ifxBase/Vector.h</text>
</a>
</g>
</g>
<!-- Node5&#45;&gt;Node6 -->
<g id="edge6" class="edge">
<title>Node5&#45;&gt;Node6</title>
<path fill="none" stroke="midnightblue" d="M80.27,-168.08C86.06,-160.46 94.56,-149.26 101.64,-139.94"/>
<polygon fill="midnightblue" stroke="midnightblue" points="104.6,-141.83 107.86,-131.75 99.02,-137.6 104.6,-141.83"/>
</g>
<!-- Node6&#45;&gt;Node2 -->
<g id="edge7" class="edge">
<title>Node6&#45;&gt;Node2</title>
<path fill="none" stroke="midnightblue" d="M108.23,-112.08C102.86,-104.46 94.98,-93.26 88.42,-83.94"/>
<polygon fill="midnightblue" stroke="midnightblue" points="91.28,-81.91 82.66,-75.75 85.55,-85.94 91.28,-81.91"/>
</g>
<!-- Node7&#45;&gt;Node2 -->
<g id="edge9" class="edge">
<title>Node7&#45;&gt;Node2</title>
<path fill="none" stroke="midnightblue" d="M178.24,-168.09C180.35,-154.64 182.28,-128.93 170.5,-112 159.51,-96.21 141.44,-85.78 124.06,-78.97"/>
<polygon fill="midnightblue" stroke="midnightblue" points="125.12,-75.63 114.52,-75.55 122.76,-82.22 125.12,-75.63"/>
</g>
<!-- Node7&#45;&gt;Node6 -->
<g id="edge10" class="edge">
<title>Node7&#45;&gt;Node6</title>
<path fill="none" stroke="midnightblue" d="M166.54,-168.32C157.37,-160.34 143.56,-148.31 132.47,-138.65"/>
<polygon fill="midnightblue" stroke="midnightblue" points="134.48,-135.76 124.64,-131.83 129.88,-141.04 134.48,-135.76"/>
</g>
</g>
</svg>
