<?xml version="1.0" encoding="UTF-8" standalone="no"?>
<!DOCTYPE svg PUBLIC "-//W3C//DTD SVG 1.1//EN"
 "http://www.w3.org/Graphics/SVG/1.1/DTD/svg11.dtd">
<!-- Generated by graphviz version 2.43.0 (0)
 -->
<!-- Title: /home/build/sdk/c/ifxBase/Vector.h Pages: 1 -->
<svg width="2406pt" height="508pt"
 viewBox="0.00 0.00 2405.50 508.00" xmlns="http://www.w3.org/2000/svg" xmlns:xlink="http://www.w3.org/1999/xlink">
<g id="graph0" class="graph" transform="scale(1 1) rotate(0) translate(4 504)">
<title>/home/build/sdk/c/ifxBase/Vector.h</title>
<polygon fill="white" stroke="transparent" points="-4,4 -4,-504 2401.5,-504 2401.5,4 -4,4"/>
<!-- Node1 -->
<g id="node1" class="node">
<title>Node1</title>
<g id="a_node1"><a xlink:title="API for operations on Vector data structures.">
<polygon fill="#bfbfbf" stroke="black" points="650.5,-469.5 650.5,-499.5 793.5,-499.5 793.5,-469.5 650.5,-469.5"/>
<text text-anchor="start" x="658.5" y="-487.5" font-family="Helvetica,sans-Serif" font-size="10.00">/home/build/sdk/c/ifxBase</text>
<text text-anchor="middle" x="722" y="-476.5" font-family="Helvetica,sans-Serif" font-size="10.00">/Vector.h</text>
</a>
</g>
</g>
<!-- Node2 -->
<g id="node2" class="node">
<title>Node2</title>
<g id="a_node2"><a xlink:href="_f_f_t_8h.html" target="_top" xlink:title="API for Fast Fourier Transform (FFT)">
<polygon fill="white" stroke="black" points="233,-335.5 233,-365.5 373,-365.5 373,-335.5 233,-335.5"/>
<text text-anchor="start" x="241" y="-353.5" font-family="Helvetica,sans-Serif" font-size="10.00">/home/build/sdk/c/ifxAlgo</text>
<text text-anchor="middle" x="303" y="-342.5" font-family="Helvetica,sans-Serif" font-size="10.00">/FFT.h</text>
</a>
</g>
</g>
<!-- Node1&#45;&gt;Node2 -->
<g id="edge1" class="edge">
<title>Node1&#45;&gt;Node2</title>
<path fill="none" stroke="midnightblue" d="M640.17,-476.93C555.67,-469.13 430.24,-454.42 387,-433 354.95,-417.12 327.27,-384.56 313.09,-365.75"/>
<polygon fill="midnightblue" stroke="midnightblue" points="639.99,-480.43 650.26,-477.85 640.62,-473.45 639.99,-480.43"/>
</g>
<!-- Node9 -->
<g id="node9" class="node">
<title>Node9</title>
<g id="a_node9"><a xlink:href="_range_spectrum_8h.html" target="_top" xlink:title="API for Range Spectrum.">
<polygon fill="white" stroke="black" points="512.5,-201.5 512.5,-231.5 659.5,-231.5 659.5,-201.5 512.5,-201.5"/>
<text text-anchor="start" x="520.5" y="-219.5" font-family="Helvetica,sans-Serif" font-size="10.00">/home/build/sdk/c/ifxRadar</text>
<text text-anchor="middle" x="586" y="-208.5" font-family="Helvetica,sans-Serif" font-size="10.00">/RangeSpectrum.h</text>
</a>
</g>
</g>
<!-- Node1&#45;&gt;Node9 -->
<g id="edge79" class="edge">
<title>Node1&#45;&gt;Node9</title>
<path fill="none" stroke="midnightblue" d="M641.36,-466.85C558.55,-444.74 435.3,-396.51 388,-299 362.04,-245.49 445.88,-227.03 512.4,-220.71"/>
<polygon fill="midnightblue" stroke="midnightblue" points="640.69,-470.3 651.25,-469.42 642.45,-463.52 640.69,-470.3"/>
</g>
<!-- Node12 -->
<g id="node12" class="node">
<title>Node12</title>
<g id="a_node12"><a xlink:href="_m_t_i_8h.html" target="_top" xlink:title="API for Moving Target Indicator (MTI) filter.">
<polygon fill="white" stroke="black" points="0,-402.5 0,-432.5 140,-432.5 140,-402.5 0,-402.5"/>
<text text-anchor="start" x="8" y="-420.5" font-family="Helvetica,sans-Serif" font-size="10.00">/home/build/sdk/c/ifxAlgo</text>
<text text-anchor="middle" x="70" y="-409.5" font-family="Helvetica,sans-Serif" font-size="10.00">/MTI.h</text>
</a>
</g>
</g>
<!-- Node1&#45;&gt;Node12 -->
<g id="edge17" class="edge">
<title>Node1&#45;&gt;Node12</title>
<path fill="none" stroke="midnightblue" d="M640.13,-475.34C510.91,-462.46 261.88,-437.63 140.28,-425.51"/>
<polygon fill="midnightblue" stroke="midnightblue" points="640.06,-478.85 650.36,-476.36 640.76,-471.88 640.06,-478.85"/>
</g>
<!-- Node13 -->
<g id="node13" class="node">
<title>Node13</title>
<g id="a_node13"><a xlink:href="_signal_8h.html" target="_top" xlink:title="API for digital filtering operations.">
<polygon fill="white" stroke="black" points="600,-268.5 600,-298.5 740,-298.5 740,-268.5 600,-268.5"/>
<text text-anchor="start" x="608" y="-286.5" font-family="Helvetica,sans-Serif" font-size="10.00">/home/build/sdk/c/ifxAlgo</text>
<text text-anchor="middle" x="670" y="-275.5" font-family="Helvetica,sans-Serif" font-size="10.00">/Signal.h</text>
</a>
</g>
</g>
<!-- Node1&#45;&gt;Node13 -->
<g id="edge19" class="edge">
<title>Node1&#45;&gt;Node13</title>
<path fill="none" stroke="midnightblue" d="M739.41,-461.09C744.88,-452.75 750.21,-442.89 753,-433 756.74,-419.74 757.17,-415.13 753,-402 739.54,-359.63 704.67,-319.37 684.67,-298.78"/>
<polygon fill="midnightblue" stroke="midnightblue" points="736.4,-459.29 733.54,-469.49 742.14,-463.3 736.4,-459.29"/>
</g>
<!-- Node14 -->
<g id="node14" class="node">
<title>Node14</title>
<g id="a_node14"><a xlink:href="_window_8h.html" target="_top" xlink:title="API for Window function processing.">
<polygon fill="white" stroke="black" points="75,-335.5 75,-365.5 215,-365.5 215,-335.5 75,-335.5"/>
<text text-anchor="start" x="83" y="-353.5" font-family="Helvetica,sans-Serif" font-size="10.00">/home/build/sdk/c/ifxAlgo</text>
<text text-anchor="middle" x="145" y="-342.5" font-family="Helvetica,sans-Serif" font-size="10.00">/Window.h</text>
</a>
</g>
</g>
<!-- Node1&#45;&gt;Node14 -->
<g id="edge21" class="edge">
<title>Node1&#45;&gt;Node14</title>
<path fill="none" stroke="midnightblue" d="M639.96,-478.78C562.17,-472.85 442.58,-459.99 342,-433 279.26,-416.16 209.96,-384.11 172.58,-365.61"/>
<polygon fill="midnightblue" stroke="midnightblue" points="639.95,-482.28 650.18,-479.53 640.46,-475.3 639.95,-482.28"/>
</g>
<!-- Node15 -->
<g id="node15" class="node">
<title>Node15</title>
<g id="a_node15"><a xlink:href="_base_8h.html" target="_top" xlink:title="Header for ifxBase.">
<polygon fill="white" stroke="black" points="1523.5,-201.5 1523.5,-231.5 1666.5,-231.5 1666.5,-201.5 1523.5,-201.5"/>
<text text-anchor="start" x="1531.5" y="-219.5" font-family="Helvetica,sans-Serif" font-size="10.00">/home/build/sdk/c/ifxBase</text>
<text text-anchor="middle" x="1595" y="-208.5" font-family="Helvetica,sans-Serif" font-size="10.00">/Base.h</text>
</a>
</g>
</g>
<!-- Node1&#45;&gt;Node15 -->
<g id="edge26" class="edge">
<title>Node1&#45;&gt;Node15</title>
<path fill="none" stroke="midnightblue" d="M803.84,-483.33C1032.76,-480.82 1670.18,-459.32 1782,-299 1789.88,-287.7 1790.38,-278.94 1782,-268 1767.69,-249.31 1713.1,-235.96 1666.57,-227.7"/>
<polygon fill="midnightblue" stroke="midnightblue" points="803.55,-479.83 793.58,-483.43 803.62,-486.83 803.55,-479.83"/>
</g>
<!-- Node16 -->
<g id="node16" class="node">
<title>Node16</title>
<g id="a_node16"><a xlink:href="_math_8h.html" target="_top" xlink:title="API for Mathematical operations.">
<polygon fill="white" stroke="black" points="600.5,-402.5 600.5,-432.5 743.5,-432.5 743.5,-402.5 600.5,-402.5"/>
<text text-anchor="start" x="608.5" y="-420.5" font-family="Helvetica,sans-Serif" font-size="10.00">/home/build/sdk/c/ifxBase</text>
<text text-anchor="middle" x="672" y="-409.5" font-family="Helvetica,sans-Serif" font-size="10.00">/Math.h</text>
</a>
</g>
</g>
<!-- Node1&#45;&gt;Node16 -->
<g id="edge28" class="edge">
<title>Node1&#45;&gt;Node16</title>
<path fill="none" stroke="midnightblue" d="M705.04,-461.45C697.69,-451.9 689.31,-441 682.83,-432.58"/>
<polygon fill="midnightblue" stroke="midnightblue" points="702.28,-463.6 711.15,-469.4 707.83,-459.34 702.28,-463.6"/>
</g>
<!-- Node19 -->
<g id="node19" class="node">
<title>Node19</title>
<g id="a_node19"><a xlink:href="_angle_monopulse_8h.html" target="_top" xlink:title="API for Phase Monopulse algorithm.">
<polygon fill="white" stroke="black" points="873.5,-201.5 873.5,-231.5 1020.5,-231.5 1020.5,-201.5 873.5,-201.5"/>
<text text-anchor="start" x="881.5" y="-219.5" font-family="Helvetica,sans-Serif" font-size="10.00">/home/build/sdk/c/ifxRadar</text>
<text text-anchor="middle" x="947" y="-208.5" font-family="Helvetica,sans-Serif" font-size="10.00">/AngleMonopulse.h</text>
</a>
</g>
</g>
<!-- Node1&#45;&gt;Node19 -->
<g id="edge76" class="edge">
<title>Node1&#45;&gt;Node19</title>
<path fill="none" stroke="midnightblue" d="M640.88,-468.59C621.79,-461.11 603.64,-449.87 592,-433 550.36,-372.63 542.92,-323.38 591,-268 609.24,-246.99 774.67,-230.76 873.48,-222.83"/>
<polygon fill="midnightblue" stroke="midnightblue" points="639.71,-471.89 650.31,-471.97 642.07,-465.3 639.71,-471.89"/>
</g>
<!-- Node23 -->
<g id="node23" class="node">
<title>Node23</title>
<g id="a_node23"><a xlink:href="_param_estimation_8h.html" target="_top" xlink:title="API for Parameter estimation algorithm.">
<polygon fill="white" stroke="black" points="2014,-201.5 2014,-231.5 2194,-231.5 2194,-201.5 2014,-201.5"/>
<text text-anchor="start" x="2022" y="-219.5" font-family="Helvetica,sans-Serif" font-size="10.00">/home/build/sdk/c/ifxRadar</text>
<text text-anchor="middle" x="2104" y="-208.5" font-family="Helvetica,sans-Serif" font-size="10.00">Segmentation/ParamEstimation.h</text>
</a>
</g>
</g>
<!-- Node1&#45;&gt;Node23 -->
<g id="edge80" class="edge">
<title>Node1&#45;&gt;Node23</title>
<path fill="none" stroke="midnightblue" d="M803.9,-483.32C950.98,-481.9 1269.2,-473.86 1534,-433 1777.53,-395.42 1886.8,-461.55 2072,-299 2091.99,-281.45 2099.61,-249.81 2102.42,-231.54"/>
<polygon fill="midnightblue" stroke="midnightblue" points="803.58,-479.82 793.61,-483.41 803.64,-486.82 803.58,-479.82"/>
</g>
<!-- Node25 -->
<g id="node25" class="node">
<title>Node25</title>
<g id="a_node25"><a xlink:href="_segmentation_8h.html" target="_top" xlink:title="API for Segmentation algorithm.">
<polygon fill="white" stroke="black" points="2070.5,-134.5 2070.5,-164.5 2235.5,-164.5 2235.5,-134.5 2070.5,-134.5"/>
<text text-anchor="start" x="2078.5" y="-152.5" font-family="Helvetica,sans-Serif" font-size="10.00">/home/build/sdk/c/ifxRadar</text>
<text text-anchor="middle" x="2153" y="-141.5" font-family="Helvetica,sans-Serif" font-size="10.00">Segmentation/Segmentation.h</text>
</a>
</g>
</g>
<!-- Node1&#45;&gt;Node25 -->
<g id="edge81" class="edge">
<title>Node1&#45;&gt;Node25</title>
<path fill="none" stroke="midnightblue" d="M803.94,-482.44C974.99,-479.55 1382.36,-469.14 1722,-433 1945.89,-409.17 2222,-576.65 2222,-351.5 2222,-351.5 2222,-351.5 2222,-282.5 2222,-245.31 2220.99,-233.56 2203,-201 2195.12,-186.75 2182.08,-173.76 2171.29,-164.53"/>
<polygon fill="midnightblue" stroke="midnightblue" points="803.7,-478.94 793.76,-482.61 803.81,-485.94 803.7,-478.94"/>
</g>
<!-- Node26 -->
<g id="node26" class="node">
<title>Node26</title>
<g id="a_node26"><a xlink:href="_matrix_8h.html" target="_top" xlink:title="API for operations on Matrix data structures.">
<polygon fill="white" stroke="black" points="1273.5,-335.5 1273.5,-365.5 1416.5,-365.5 1416.5,-335.5 1273.5,-335.5"/>
<text text-anchor="start" x="1281.5" y="-353.5" font-family="Helvetica,sans-Serif" font-size="10.00">/home/build/sdk/c/ifxBase</text>
<text text-anchor="middle" x="1345" y="-342.5" font-family="Helvetica,sans-Serif" font-size="10.00">/Matrix.h</text>
</a>
</g>
</g>
<!-- Node1&#45;&gt;Node26 -->
<g id="edge51" class="edge">
<title>Node1&#45;&gt;Node26</title>
<path fill="none" stroke="midnightblue" d="M798.18,-467.36C921.34,-441.26 1162.12,-390.25 1278.66,-365.56"/>
<polygon fill="midnightblue" stroke="midnightblue" points="797.14,-464 788.08,-469.5 798.59,-470.85 797.14,-464"/>
</g>
<!-- Node35 -->
<g id="node35" class="node">
<title>Node35</title>
<g id="a_node35"><a xlink:href="_peak_search_8h.html" target="_top" xlink:title="API for Peak Search preprocessing.">
<polygon fill="white" stroke="black" points="2250.5,-402.5 2250.5,-432.5 2397.5,-432.5 2397.5,-402.5 2250.5,-402.5"/>
<text text-anchor="start" x="2258.5" y="-420.5" font-family="Helvetica,sans-Serif" font-size="10.00">/home/build/sdk/c/ifxRadar</text>
<text text-anchor="middle" x="2324" y="-409.5" font-family="Helvetica,sans-Serif" font-size="10.00">/PeakSearch.h</text>
</a>
</g>
</g>
<!-- Node1&#45;&gt;Node35 -->
<g id="edge77" class="edge">
<title>Node1&#45;&gt;Node35</title>
<path fill="none" stroke="midnightblue" d="M804,-482.17C1077.11,-477.53 1954.5,-460.77 2236,-433 2240.62,-432.54 2245.37,-432 2250.15,-431.38"/>
<polygon fill="midnightblue" stroke="midnightblue" points="803.7,-478.68 793.76,-482.34 803.82,-485.67 803.7,-478.68"/>
</g>
<!-- Node3 -->
<g id="node3" class="node">
<title>Node3</title>
<g id="a_node3"><a xlink:href="_algo_8h.html" target="_top" xlink:title="Header for ifxAlgo.">
<polygon fill="white" stroke="black" points="229,-201.5 229,-231.5 369,-231.5 369,-201.5 229,-201.5"/>
<text text-anchor="start" x="237" y="-219.5" font-family="Helvetica,sans-Serif" font-size="10.00">/home/build/sdk/c/ifxAlgo</text>
<text text-anchor="middle" x="299" y="-208.5" font-family="Helvetica,sans-Serif" font-size="10.00">/Algo.h</text>
</a>
</g>
</g>
<!-- Node2&#45;&gt;Node3 -->
<g id="edge2" class="edge">
<title>Node2&#45;&gt;Node3</title>
<path fill="none" stroke="midnightblue" d="M230.98,-331.45C215.21,-324.03 200.43,-313.6 191,-299 183.52,-287.43 183.6,-279.62 191,-268 202.06,-250.62 220.83,-239.13 239.66,-231.56"/>
<polygon fill="midnightblue" stroke="midnightblue" points="229.77,-334.74 240.34,-335.48 232.54,-328.31 229.77,-334.74"/>
</g>
<!-- Node5 -->
<g id="node5" class="node">
<title>Node5</title>
<g id="a_node5"><a xlink:href="_preprocessed_f_f_t_8h.html" target="_top" xlink:title="API for Pre&#45;processed FFT.">
<polygon fill="white" stroke="black" points="200,-268.5 200,-298.5 340,-298.5 340,-268.5 200,-268.5"/>
<text text-anchor="start" x="208" y="-286.5" font-family="Helvetica,sans-Serif" font-size="10.00">/home/build/sdk/c/ifxAlgo</text>
<text text-anchor="middle" x="270" y="-275.5" font-family="Helvetica,sans-Serif" font-size="10.00">/PreprocessedFFT.h</text>
</a>
</g>
</g>
<!-- Node2&#45;&gt;Node5 -->
<g id="edge4" class="edge">
<title>Node2&#45;&gt;Node5</title>
<path fill="none" stroke="midnightblue" d="M291.21,-326.28C286.51,-317.02 281.25,-306.66 277.15,-298.58"/>
<polygon fill="midnightblue" stroke="midnightblue" points="288.19,-328.06 295.84,-335.4 294.43,-324.89 288.19,-328.06"/>
</g>
<!-- Node11 -->
<g id="node11" class="node">
<title>Node11</title>
<g id="a_node11"><a xlink:href="_spectrum_axis_8h.html" target="_top" xlink:title="API for Spectrum Axis used by Range spectrum, Range Doppler and Range Angle Map modules.">
<polygon fill="white" stroke="black" points="396.5,-268.5 396.5,-298.5 543.5,-298.5 543.5,-268.5 396.5,-268.5"/>
<text text-anchor="start" x="404.5" y="-286.5" font-family="Helvetica,sans-Serif" font-size="10.00">/home/build/sdk/c/ifxRadar</text>
<text text-anchor="middle" x="470" y="-275.5" font-family="Helvetica,sans-Serif" font-size="10.00">/SpectrumAxis.h</text>
</a>
</g>
</g>
<!-- Node2&#45;&gt;Node11 -->
<g id="edge15" class="edge">
<title>Node2&#45;&gt;Node11</title>
<path fill="none" stroke="midnightblue" d="M348.78,-331.68C375.56,-321.26 408.9,-308.28 433.83,-298.58"/>
<polygon fill="midnightblue" stroke="midnightblue" points="347.29,-328.51 339.24,-335.4 349.83,-335.03 347.29,-328.51"/>
</g>
<!-- Node4 -->
<g id="node4" class="node">
<title>Node4</title>
<g id="a_node4"><a xlink:href="_s_d_k_8h.html" target="_top" xlink:title="Master header file for Radar SDK.">
<polygon fill="white" stroke="black" points="1521.5,-0.5 1521.5,-30.5 1668.5,-30.5 1668.5,-0.5 1521.5,-0.5"/>
<text text-anchor="start" x="1529.5" y="-18.5" font-family="Helvetica,sans-Serif" font-size="10.00">/home/build/sdk/c/ifxRadar</text>
<text text-anchor="middle" x="1595" y="-7.5" font-family="Helvetica,sans-Serif" font-size="10.00">/SDK.h</text>
</a>
</g>
</g>
<!-- Node3&#45;&gt;Node4 -->
<g id="edge3" class="edge">
<title>Node3&#45;&gt;Node4</title>
<path fill="none" stroke="midnightblue" d="M370.02,-199.16C446.92,-181.76 573.28,-154.04 683,-134 876.29,-98.7 925.14,-92.28 1120,-67 1261.66,-48.62 1427.73,-32.11 1521.23,-23.28"/>
<polygon fill="midnightblue" stroke="midnightblue" points="368.95,-195.81 359.97,-201.44 370.5,-202.64 368.95,-195.81"/>
</g>
<!-- Node5&#45;&gt;Node3 -->
<g id="edge5" class="edge">
<title>Node5&#45;&gt;Node3</title>
<path fill="none" stroke="midnightblue" d="M280.49,-258.99C284.59,-249.8 289.15,-239.58 292.72,-231.58"/>
<polygon fill="midnightblue" stroke="midnightblue" points="277.17,-257.84 276.29,-268.4 283.56,-260.69 277.17,-257.84"/>
</g>
<!-- Node6 -->
<g id="node6" class="node">
<title>Node6</title>
<g id="a_node6"><a xlink:href="_range_doppler_map_8h.html" target="_top" xlink:title="API for Range Doppler Map.">
<polygon fill="white" stroke="black" points="1077.5,-201.5 1077.5,-231.5 1224.5,-231.5 1224.5,-201.5 1077.5,-201.5"/>
<text text-anchor="start" x="1085.5" y="-219.5" font-family="Helvetica,sans-Serif" font-size="10.00">/home/build/sdk/c/ifxRadar</text>
<text text-anchor="middle" x="1151" y="-208.5" font-family="Helvetica,sans-Serif" font-size="10.00">/RangeDopplerMap.h</text>
</a>
</g>
</g>
<!-- Node5&#45;&gt;Node6 -->
<g id="edge6" class="edge">
<title>Node5&#45;&gt;Node6</title>
<path fill="none" stroke="midnightblue" d="M350.17,-271.92C362.82,-270.47 375.75,-269.09 388,-268 672.65,-242.56 745.32,-257.01 1030,-232 1045.39,-230.65 1061.84,-228.89 1077.49,-227.06"/>
<polygon fill="midnightblue" stroke="midnightblue" points="349.64,-268.46 340.11,-273.11 350.46,-275.41 349.64,-268.46"/>
</g>
<!-- Node5&#45;&gt;Node9 -->
<g id="edge11" class="edge">
<title>Node5&#45;&gt;Node9</title>
<path fill="none" stroke="midnightblue" d="M348.03,-266.45C400.05,-255.75 467.78,-241.82 517.67,-231.55"/>
<polygon fill="midnightblue" stroke="midnightblue" points="347.27,-263.03 338.18,-268.48 348.68,-269.89 347.27,-263.03"/>
</g>
<!-- Node7 -->
<g id="node7" class="node">
<title>Node7</title>
<g id="a_node7"><a xlink:href="_radar_8h.html" target="_top" xlink:title="Header for ifxRadar.">
<polygon fill="white" stroke="black" points="1128.5,-67.5 1128.5,-97.5 1275.5,-97.5 1275.5,-67.5 1128.5,-67.5"/>
<text text-anchor="start" x="1136.5" y="-85.5" font-family="Helvetica,sans-Serif" font-size="10.00">/home/build/sdk/c/ifxRadar</text>
<text text-anchor="middle" x="1202" y="-74.5" font-family="Helvetica,sans-Serif" font-size="10.00">/Radar.h</text>
</a>
</g>
</g>
<!-- Node6&#45;&gt;Node7 -->
<g id="edge7" class="edge">
<title>Node6&#45;&gt;Node7</title>
<path fill="none" stroke="midnightblue" d="M1154.91,-191.27C1158.06,-174.73 1163.26,-152.53 1171,-134 1176.39,-121.09 1184.8,-107.64 1191.51,-97.88"/>
<polygon fill="midnightblue" stroke="midnightblue" points="1151.44,-190.78 1153.12,-201.24 1158.33,-192.01 1151.44,-190.78"/>
</g>
<!-- Node8 -->
<g id="node8" class="node">
<title>Node8</title>
<g id="a_node8"><a xlink:href="_range_angle_image_8h.html" target="_top" xlink:title="API for Range Angle Image algorithm.">
<polygon fill="white" stroke="black" points="1179.5,-134.5 1179.5,-164.5 1326.5,-164.5 1326.5,-134.5 1179.5,-134.5"/>
<text text-anchor="start" x="1187.5" y="-152.5" font-family="Helvetica,sans-Serif" font-size="10.00">/home/build/sdk/c/ifxRadar</text>
<text text-anchor="middle" x="1253" y="-141.5" font-family="Helvetica,sans-Serif" font-size="10.00">/RangeAngleImage.h</text>
</a>
</g>
</g>
<!-- Node6&#45;&gt;Node8 -->
<g id="edge9" class="edge">
<title>Node6&#45;&gt;Node8</title>
<path fill="none" stroke="midnightblue" d="M1181.58,-196.02C1197.45,-185.9 1216.48,-173.77 1230.91,-164.58"/>
<polygon fill="midnightblue" stroke="midnightblue" points="1179.68,-193.07 1173.13,-201.4 1183.45,-198.97 1179.68,-193.07"/>
</g>
<!-- Node7&#45;&gt;Node4 -->
<g id="edge8" class="edge">
<title>Node7&#45;&gt;Node4</title>
<path fill="none" stroke="midnightblue" d="M1286.02,-67.6C1355.96,-56.04 1454.55,-39.73 1521.41,-28.67"/>
<polygon fill="midnightblue" stroke="midnightblue" points="1285.22,-64.19 1275.92,-69.27 1286.36,-71.1 1285.22,-64.19"/>
</g>
<!-- Node8&#45;&gt;Node7 -->
<g id="edge10" class="edge">
<title>Node8&#45;&gt;Node7</title>
<path fill="none" stroke="midnightblue" d="M1235.7,-126.45C1228.21,-116.9 1219.66,-106 1213.04,-97.58"/>
<polygon fill="midnightblue" stroke="midnightblue" points="1233.01,-128.69 1241.93,-134.4 1238.51,-124.37 1233.01,-128.69"/>
</g>
<!-- Node9&#45;&gt;Node7 -->
<g id="edge14" class="edge">
<title>Node9&#45;&gt;Node7</title>
<path fill="none" stroke="midnightblue" d="M620.62,-196.49C656.95,-177.45 716.29,-148.89 771,-134 893.49,-100.65 1041.45,-89.33 1128.29,-85.48"/>
<polygon fill="midnightblue" stroke="midnightblue" points="618.64,-193.58 611.45,-201.35 621.92,-199.76 618.64,-193.58"/>
</g>
<!-- Node10 -->
<g id="node10" class="node">
<title>Node10</title>
<g id="a_node10"><a xlink:href="_presence_sensing_8h.html" target="_top" xlink:title="API for Presence Sensing algorithm.">
<polygon fill="white" stroke="black" points="937.5,-134.5 937.5,-164.5 1084.5,-164.5 1084.5,-134.5 937.5,-134.5"/>
<text text-anchor="start" x="945.5" y="-152.5" font-family="Helvetica,sans-Serif" font-size="10.00">/home/build/sdk/c/ifxRadar</text>
<text text-anchor="middle" x="1011" y="-141.5" font-family="Helvetica,sans-Serif" font-size="10.00">/PresenceSensing.h</text>
</a>
</g>
</g>
<!-- Node9&#45;&gt;Node10 -->
<g id="edge12" class="edge">
<title>Node9&#45;&gt;Node10</title>
<path fill="none" stroke="midnightblue" d="M669.81,-202.68C747.76,-190.76 862.76,-173.17 937.29,-161.77"/>
<polygon fill="midnightblue" stroke="midnightblue" points="668.9,-199.28 659.54,-204.25 669.96,-206.2 668.9,-199.28"/>
</g>
<!-- Node10&#45;&gt;Node7 -->
<g id="edge13" class="edge">
<title>Node10&#45;&gt;Node7</title>
<path fill="none" stroke="midnightblue" d="M1062.15,-131.09C1092.99,-120.6 1131.75,-107.41 1160.64,-97.58"/>
<polygon fill="midnightblue" stroke="midnightblue" points="1060.78,-127.86 1052.44,-134.4 1063.04,-134.49 1060.78,-127.86"/>
</g>
<!-- Node11&#45;&gt;Node7 -->
<g id="edge16" class="edge">
<title>Node11&#45;&gt;Node7</title>
<path fill="none" stroke="midnightblue" d="M542.74,-266.11C580.66,-257.04 627.64,-245 669,-232 786.81,-194.98 810.04,-167.14 929,-134 995.51,-115.47 1073.07,-101.87 1128.49,-93.48"/>
<polygon fill="midnightblue" stroke="midnightblue" points="541.72,-262.75 532.8,-268.47 543.34,-269.56 541.72,-262.75"/>
</g>
<!-- Node12&#45;&gt;Node3 -->
<g id="edge18" class="edge">
<title>Node12&#45;&gt;Node3</title>
<path fill="none" stroke="midnightblue" d="M64.72,-392.41C62.09,-375.92 60.51,-353.73 66,-335 75.96,-301.05 80.41,-288.85 109,-268 143.75,-242.66 190.32,-230.03 228.66,-223.74"/>
<polygon fill="midnightblue" stroke="midnightblue" points="61.29,-393.12 66.53,-402.33 68.17,-391.86 61.29,-393.12"/>
</g>
<!-- Node13&#45;&gt;Node3 -->
<g id="edge20" class="edge">
<title>Node13&#45;&gt;Node3</title>
<path fill="none" stroke="midnightblue" d="M589.88,-268.46C524.18,-256.95 432.1,-240.82 369.25,-229.81"/>
<polygon fill="midnightblue" stroke="midnightblue" points="589.33,-271.92 599.78,-270.2 590.54,-265.02 589.33,-271.92"/>
</g>
<!-- Node14&#45;&gt;Node3 -->
<g id="edge22" class="edge">
<title>Node14&#45;&gt;Node3</title>
<path fill="none" stroke="midnightblue" d="M128,-327C116.99,-309.47 106.92,-285.28 120,-268 133.45,-250.24 184.41,-236.95 228.54,-228.47"/>
<polygon fill="midnightblue" stroke="midnightblue" points="125.23,-329.16 133.73,-335.49 131.04,-325.24 125.23,-329.16"/>
</g>
<!-- Node14&#45;&gt;Node5 -->
<g id="edge23" class="edge">
<title>Node14&#45;&gt;Node5</title>
<path fill="none" stroke="midnightblue" d="M181.13,-330.71C200.84,-320.46 224.84,-307.98 242.93,-298.58"/>
<polygon fill="midnightblue" stroke="midnightblue" points="179.38,-327.68 172.12,-335.4 182.61,-333.89 179.38,-327.68"/>
</g>
<!-- Node14&#45;&gt;Node9 -->
<g id="edge25" class="edge">
<title>Node14&#45;&gt;Node9</title>
<path fill="none" stroke="midnightblue" d="M151.93,-325.58C158.71,-306.73 170.98,-281.46 191,-268 217.07,-250.47 405.22,-232.38 512.17,-223.36"/>
<polygon fill="midnightblue" stroke="midnightblue" points="148.54,-324.68 148.72,-335.27 155.19,-326.88 148.54,-324.68"/>
</g>
<!-- Node14&#45;&gt;Node10 -->
<g id="edge24" class="edge">
<title>Node14&#45;&gt;Node10</title>
<path fill="none" stroke="midnightblue" d="M123.81,-327.16C110.65,-310.46 98.12,-287.27 109,-268 137.32,-217.82 165.01,-218.22 220,-201 352.47,-159.53 767.42,-152.06 937.34,-150.75"/>
<polygon fill="midnightblue" stroke="midnightblue" points="121.51,-329.86 130.63,-335.25 126.86,-325.35 121.51,-329.86"/>
</g>
<!-- Node15&#45;&gt;Node4 -->
<g id="edge27" class="edge">
<title>Node15&#45;&gt;Node4</title>
<path fill="none" stroke="midnightblue" d="M1595,-191C1595,-148.93 1595,-64.26 1595,-30.68"/>
<polygon fill="midnightblue" stroke="midnightblue" points="1591.5,-191.19 1595,-201.19 1598.5,-191.19 1591.5,-191.19"/>
</g>
<!-- Node16&#45;&gt;Node5 -->
<g id="edge29" class="edge">
<title>Node16&#45;&gt;Node5</title>
<path fill="none" stroke="midnightblue" d="M619.44,-399.24C539.02,-372.83 386.95,-322.9 312.81,-298.56"/>
<polygon fill="midnightblue" stroke="midnightblue" points="618.77,-402.7 629.36,-402.5 620.95,-396.05 618.77,-402.7"/>
</g>
<!-- Node16&#45;&gt;Node11 -->
<g id="edge50" class="edge">
<title>Node16&#45;&gt;Node11</title>
<path fill="none" stroke="midnightblue" d="M641.84,-396.79C600.59,-369.84 527.58,-322.13 491.46,-298.52"/>
<polygon fill="midnightblue" stroke="midnightblue" points="640.1,-399.83 650.38,-402.37 643.93,-393.97 640.1,-399.83"/>
</g>
<!-- Node16&#45;&gt;Node15 -->
<g id="edge30" class="edge">
<title>Node16&#45;&gt;Node15</title>
<path fill="none" stroke="midnightblue" d="M753.85,-414.14C996.65,-406.28 1700.03,-376.9 1764,-299 1796.3,-259.67 1726.22,-237.99 1666.69,-227.06"/>
<polygon fill="midnightblue" stroke="midnightblue" points="753.55,-410.65 743.67,-414.47 753.78,-417.65 753.55,-410.65"/>
</g>
<!-- Node17 -->
<g id="node17" class="node">
<title>Node17</title>
<g id="a_node17"><a xlink:href="_defines_8h.html" target="_top" xlink:title="Internal definitions used by standard math.h functions as Macros, to use float or double precision.">
<polygon fill="white" stroke="black" points="1112.5,-335.5 1112.5,-365.5 1255.5,-365.5 1255.5,-335.5 1112.5,-335.5"/>
<text text-anchor="start" x="1120.5" y="-353.5" font-family="Helvetica,sans-Serif" font-size="10.00">/home/build/sdk/c/ifxBase</text>
<text text-anchor="middle" x="1184" y="-342.5" font-family="Helvetica,sans-Serif" font-size="10.00">/Defines.h</text>
</a>
</g>
</g>
<!-- Node16&#45;&gt;Node17 -->
<g id="edge31" class="edge">
<title>Node16&#45;&gt;Node17</title>
<path fill="none" stroke="midnightblue" d="M753.69,-406.13C852.73,-393.56 1018.06,-372.57 1112.34,-360.6"/>
<polygon fill="midnightblue" stroke="midnightblue" points="753.21,-402.66 743.73,-407.39 754.09,-409.61 753.21,-402.66"/>
</g>
<!-- Node17&#45;&gt;Node15 -->
<g id="edge32" class="edge">
<title>Node17&#45;&gt;Node15</title>
<path fill="none" stroke="midnightblue" d="M1265.45,-335.03C1372.73,-319.16 1409.59,-344.37 1503,-299 1521.1,-290.21 1521.02,-281.44 1536,-268 1549.95,-255.49 1566.15,-241.67 1578.04,-231.66"/>
<polygon fill="midnightblue" stroke="midnightblue" points="1264.87,-331.58 1255.54,-336.59 1265.96,-338.5 1264.87,-331.58"/>
</g>
<!-- Node18 -->
<g id="node18" class="node">
<title>Node18</title>
<g id="a_node18"><a xlink:href="_complex_8h.html" target="_top" xlink:title="API for operations on complex numbers.">
<polygon fill="white" stroke="black" points="1112.5,-268.5 1112.5,-298.5 1255.5,-298.5 1255.5,-268.5 1112.5,-268.5"/>
<text text-anchor="start" x="1120.5" y="-286.5" font-family="Helvetica,sans-Serif" font-size="10.00">/home/build/sdk/c/ifxBase</text>
<text text-anchor="middle" x="1184" y="-275.5" font-family="Helvetica,sans-Serif" font-size="10.00">/Complex.h</text>
</a>
</g>
</g>
<!-- Node17&#45;&gt;Node18 -->
<g id="edge33" class="edge">
<title>Node17&#45;&gt;Node18</title>
<path fill="none" stroke="midnightblue" d="M1184,-325.11C1184,-316.15 1184,-306.32 1184,-298.58"/>
<polygon fill="midnightblue" stroke="midnightblue" points="1180.5,-325.4 1184,-335.4 1187.5,-325.4 1180.5,-325.4"/>
</g>
<!-- Node20 -->
<g id="node20" class="node">
<title>Node20</title>
<g id="a_node20"><a xlink:href="_cube_8h.html" target="_top" xlink:title="API for operations on Cube data structures.">
<polygon fill="white" stroke="black" points="1350.5,-268.5 1350.5,-298.5 1493.5,-298.5 1493.5,-268.5 1350.5,-268.5"/>
<text text-anchor="start" x="1358.5" y="-286.5" font-family="Helvetica,sans-Serif" font-size="10.00">/home/build/sdk/c/ifxBase</text>
<text text-anchor="middle" x="1422" y="-275.5" font-family="Helvetica,sans-Serif" font-size="10.00">/Cube.h</text>
</a>
</g>
</g>
<!-- Node17&#45;&gt;Node20 -->
<g id="edge37" class="edge">
<title>Node17&#45;&gt;Node20</title>
<path fill="none" stroke="midnightblue" d="M1245.46,-332.71C1284.19,-322.14 1333.63,-308.63 1370.33,-298.61"/>
<polygon fill="midnightblue" stroke="midnightblue" points="1244.07,-329.46 1235.35,-335.48 1245.92,-336.22 1244.07,-329.46"/>
</g>
<!-- Node18&#45;&gt;Node15 -->
<g id="edge34" class="edge">
<title>Node18&#45;&gt;Node15</title>
<path fill="none" stroke="midnightblue" d="M1265.5,-269.61C1340.69,-257.72 1451.26,-240.23 1523.2,-228.86"/>
<polygon fill="midnightblue" stroke="midnightblue" points="1264.92,-266.16 1255.59,-271.18 1266.01,-273.07 1264.92,-266.16"/>
</g>
<!-- Node18&#45;&gt;Node19 -->
<g id="edge35" class="edge">
<title>Node18&#45;&gt;Node19</title>
<path fill="none" stroke="midnightblue" d="M1122.8,-265.71C1084.23,-255.14 1035,-241.63 998.45,-231.61"/>
<polygon fill="midnightblue" stroke="midnightblue" points="1122.3,-269.21 1132.87,-268.48 1124.15,-262.46 1122.3,-269.21"/>
</g>
<!-- Node19&#45;&gt;Node7 -->
<g id="edge36" class="edge">
<title>Node19&#45;&gt;Node7</title>
<path fill="none" stroke="midnightblue" d="M1010.33,-198.55C1036.97,-190.22 1067.79,-178.93 1094,-165 1129.88,-145.92 1166.59,-115.41 1186.62,-97.63"/>
<polygon fill="midnightblue" stroke="midnightblue" points="1009.27,-195.22 1000.73,-201.49 1011.31,-201.92 1009.27,-195.22"/>
</g>
<!-- Node20&#45;&gt;Node8 -->
<g id="edge44" class="edge">
<title>Node20&#45;&gt;Node8</title>
<path fill="none" stroke="midnightblue" d="M1352.23,-265.77C1319.12,-256.49 1284.34,-244.37 1273,-232 1255.96,-213.43 1252.82,-182.74 1252.57,-164.79"/>
<polygon fill="midnightblue" stroke="midnightblue" points="1351.39,-269.16 1361.96,-268.42 1353.23,-262.41 1351.39,-269.16"/>
</g>
<!-- Node20&#45;&gt;Node15 -->
<g id="edge38" class="edge">
<title>Node20&#45;&gt;Node15</title>
<path fill="none" stroke="midnightblue" d="M1469.06,-264.82C1496.87,-254.37 1531.59,-241.32 1557.53,-231.58"/>
<polygon fill="midnightblue" stroke="midnightblue" points="1467.67,-261.6 1459.54,-268.4 1470.13,-268.16 1467.67,-261.6"/>
</g>
<!-- Node21 -->
<g id="node21" class="node">
<title>Node21</title>
<g id="a_node21"><a xlink:href="_angle_capon_8h.html" target="_top" xlink:title="API for Angle Capon algorithm.">
<polygon fill="white" stroke="black" points="1383.5,-134.5 1383.5,-164.5 1530.5,-164.5 1530.5,-134.5 1383.5,-134.5"/>
<text text-anchor="start" x="1391.5" y="-152.5" font-family="Helvetica,sans-Serif" font-size="10.00">/home/build/sdk/c/ifxRadar</text>
<text text-anchor="middle" x="1457" y="-141.5" font-family="Helvetica,sans-Serif" font-size="10.00">/AngleCapon.h</text>
</a>
</g>
</g>
<!-- Node20&#45;&gt;Node21 -->
<g id="edge39" class="edge">
<title>Node20&#45;&gt;Node21</title>
<path fill="none" stroke="midnightblue" d="M1429.91,-258.86C1432.62,-250.42 1435.58,-240.83 1438,-232 1444.42,-208.6 1450.55,-181.05 1454.04,-164.72"/>
<polygon fill="midnightblue" stroke="midnightblue" points="1426.56,-257.85 1426.78,-268.44 1433.21,-260.02 1426.56,-257.85"/>
</g>
<!-- Node22 -->
<g id="node22" class="node">
<title>Node22</title>
<g id="a_node22"><a xlink:href="_d_b_f_8h.html" target="_top" xlink:title="API for Digital Beamforming (DBF) algorithm.">
<polygon fill="white" stroke="black" points="1281.5,-201.5 1281.5,-231.5 1428.5,-231.5 1428.5,-201.5 1281.5,-201.5"/>
<text text-anchor="start" x="1289.5" y="-219.5" font-family="Helvetica,sans-Serif" font-size="10.00">/home/build/sdk/c/ifxRadar</text>
<text text-anchor="middle" x="1355" y="-208.5" font-family="Helvetica,sans-Serif" font-size="10.00">/DBF.h</text>
</a>
</g>
</g>
<!-- Node20&#45;&gt;Node22 -->
<g id="edge41" class="edge">
<title>Node20&#45;&gt;Node22</title>
<path fill="none" stroke="midnightblue" d="M1400.16,-261.31C1390.11,-251.56 1378.46,-240.26 1369.51,-231.58"/>
<polygon fill="midnightblue" stroke="midnightblue" points="1397.85,-263.94 1407.46,-268.4 1402.72,-258.92 1397.85,-263.94"/>
</g>
<!-- Node20&#45;&gt;Node23 -->
<g id="edge45" class="edge">
<title>Node20&#45;&gt;Node23</title>
<path fill="none" stroke="midnightblue" d="M1503.79,-274.89C1631.79,-262.97 1873.75,-240.39 1960,-232 1977.38,-230.31 1995.94,-228.47 2013.75,-226.68"/>
<polygon fill="midnightblue" stroke="midnightblue" points="1503.28,-271.42 1493.65,-275.84 1503.93,-278.39 1503.28,-271.42"/>
</g>
<!-- Node20&#45;&gt;Node25 -->
<g id="edge48" class="edge">
<title>Node20&#45;&gt;Node25</title>
<path fill="none" stroke="midnightblue" d="M1439.4,-260.68C1456.38,-241.19 1484.11,-213.8 1515,-201 1627.34,-154.47 1940.15,-178.48 2061,-165 2064.05,-164.66 2067.16,-164.29 2070.3,-163.9"/>
<polygon fill="midnightblue" stroke="midnightblue" points="1436.59,-258.59 1432.81,-268.49 1441.94,-263.11 1436.59,-258.59"/>
</g>
<!-- Node21&#45;&gt;Node7 -->
<g id="edge40" class="edge">
<title>Node21&#45;&gt;Node7</title>
<path fill="none" stroke="midnightblue" d="M1392.21,-131.98C1350.56,-121.37 1297.02,-107.72 1257.36,-97.61"/>
<polygon fill="midnightblue" stroke="midnightblue" points="1391.43,-135.4 1401.98,-134.48 1393.16,-128.61 1391.43,-135.4"/>
</g>
<!-- Node22&#45;&gt;Node7 -->
<g id="edge42" class="edge">
<title>Node22&#45;&gt;Node7</title>
<path fill="none" stroke="midnightblue" d="M1355.17,-191.11C1354.03,-173.31 1349.72,-149.65 1336,-134 1320.35,-116.15 1297.73,-104.58 1275.51,-97.11"/>
<polygon fill="midnightblue" stroke="midnightblue" points="1351.68,-191.44 1355.53,-201.31 1358.68,-191.2 1351.68,-191.44"/>
</g>
<!-- Node22&#45;&gt;Node8 -->
<g id="edge43" class="edge">
<title>Node22&#45;&gt;Node8</title>
<path fill="none" stroke="midnightblue" d="M1324.42,-196.02C1308.55,-185.9 1289.52,-173.77 1275.09,-164.58"/>
<polygon fill="midnightblue" stroke="midnightblue" points="1322.55,-198.97 1332.87,-201.4 1326.32,-193.07 1322.55,-198.97"/>
</g>
<!-- Node24 -->
<g id="node24" class="node">
<title>Node24</title>
<g id="a_node24"><a xlink:href="_radar_segmentation_8h.html" target="_top" xlink:title="Header for ifxRadarSegmentation.">
<polygon fill="white" stroke="black" points="2056,-67.5 2056,-97.5 2250,-97.5 2250,-67.5 2056,-67.5"/>
<text text-anchor="start" x="2064" y="-85.5" font-family="Helvetica,sans-Serif" font-size="10.00">/home/build/sdk/c/ifxRadar</text>
<text text-anchor="middle" x="2153" y="-74.5" font-family="Helvetica,sans-Serif" font-size="10.00">Segmentation/RadarSegmentation.h</text>
</a>
</g>
</g>
<!-- Node23&#45;&gt;Node24 -->
<g id="edge46" class="edge">
<title>Node23&#45;&gt;Node24</title>
<path fill="none" stroke="midnightblue" d="M2203.12,-197.57C2219.59,-190.16 2234.64,-179.71 2245,-165 2252.93,-153.73 2252.02,-145.86 2245,-134 2234.98,-117.07 2217.04,-105.43 2199.64,-97.64"/>
<polygon fill="midnightblue" stroke="midnightblue" points="2201.77,-194.34 2193.86,-201.39 2204.44,-200.82 2201.77,-194.34"/>
</g>
<!-- Node24&#45;&gt;Node4 -->
<g id="edge47" class="edge">
<title>Node24&#45;&gt;Node4</title>
<path fill="none" stroke="midnightblue" d="M2045.61,-68.99C1934.92,-56.1 1765.29,-36.34 1668.83,-25.1"/>
<polygon fill="midnightblue" stroke="midnightblue" points="2045.47,-72.5 2055.8,-70.18 2046.28,-65.54 2045.47,-72.5"/>
</g>
<!-- Node25&#45;&gt;Node24 -->
<g id="edge49" class="edge">
<title>Node25&#45;&gt;Node24</title>
<path fill="none" stroke="midnightblue" d="M2153,-124.11C2153,-115.15 2153,-105.32 2153,-97.58"/>
<polygon fill="midnightblue" stroke="midnightblue" points="2149.5,-124.4 2153,-134.4 2156.5,-124.4 2149.5,-124.4"/>
</g>
<!-- Node26&#45;&gt;Node6 -->
<g id="edge72" class="edge">
<title>Node26&#45;&gt;Node6</title>
<path fill="none" stroke="midnightblue" d="M1336.74,-325.99C1329.24,-307.81 1316.5,-283.25 1298,-268 1276.97,-250.67 1249.65,-239.15 1224.28,-231.56"/>
<polygon fill="midnightblue" stroke="midnightblue" points="1333.49,-327.28 1340.37,-335.33 1340.01,-324.75 1333.49,-327.28"/>
</g>
<!-- Node26&#45;&gt;Node9 -->
<g id="edge73" class="edge">
<title>Node26&#45;&gt;Node9</title>
<path fill="none" stroke="midnightblue" d="M1263.3,-334.31C1199.24,-322.08 1118.55,-305.84 1104,-299 1083.96,-289.59 1085.49,-276.38 1065,-268 993.41,-238.71 775.14,-225.38 659.58,-220.24"/>
<polygon fill="midnightblue" stroke="midnightblue" points="1262.95,-337.81 1273.43,-336.24 1264.26,-330.93 1262.95,-337.81"/>
</g>
<!-- Node26&#45;&gt;Node10 -->
<g id="edge71" class="edge">
<title>Node26&#45;&gt;Node10</title>
<path fill="none" stroke="midnightblue" d="M1324.79,-327.58C1303.55,-304.78 1272.24,-271.85 1265,-268 1186.78,-226.46 1143.71,-279.57 1069,-232 1043.22,-215.58 1025.47,-183.22 1016.9,-164.59"/>
<polygon fill="midnightblue" stroke="midnightblue" points="1322.45,-330.21 1331.82,-335.16 1327.58,-325.45 1322.45,-330.21"/>
</g>
<!-- Node26&#45;&gt;Node13 -->
<g id="edge56" class="edge">
<title>Node26&#45;&gt;Node13</title>
<path fill="none" stroke="midnightblue" d="M1263.17,-334.86C1035.16,-307.05 973.85,-327.39 749,-299 746.09,-298.63 743.13,-298.23 740.15,-297.8"/>
<polygon fill="midnightblue" stroke="midnightblue" points="1262.74,-338.33 1273.1,-336.08 1263.6,-331.38 1262.74,-338.33"/>
</g>
<!-- Node26&#45;&gt;Node15 -->
<g id="edge57" class="edge">
<title>Node26&#45;&gt;Node15</title>
<path fill="none" stroke="midnightblue" d="M1426.53,-340.51C1462.5,-333.51 1503.81,-321.08 1536,-299 1561.21,-281.71 1579.52,-249.97 1588.59,-231.62"/>
<polygon fill="midnightblue" stroke="midnightblue" points="1425.75,-337.09 1416.54,-342.34 1427.01,-343.98 1425.75,-337.09"/>
</g>
<!-- Node26&#45;&gt;Node20 -->
<g id="edge58" class="edge">
<title>Node26&#45;&gt;Node20</title>
<path fill="none" stroke="midnightblue" d="M1369.42,-328.88C1381.12,-319.01 1394.84,-307.43 1405.32,-298.58"/>
<polygon fill="midnightblue" stroke="midnightblue" points="1367.09,-326.27 1361.71,-335.4 1371.61,-331.62 1367.09,-326.27"/>
</g>
<!-- Node26&#45;&gt;Node23 -->
<g id="edge74" class="edge">
<title>Node26&#45;&gt;Node23</title>
<path fill="none" stroke="midnightblue" d="M1426.56,-347.34C1598.98,-342.25 1989.05,-327.68 2042,-299 2069.67,-284.01 2088.72,-250.79 2097.84,-231.71"/>
<polygon fill="midnightblue" stroke="midnightblue" points="1426.42,-343.85 1416.52,-347.64 1426.62,-350.84 1426.42,-343.85"/>
</g>
<!-- Node26&#45;&gt;Node25 -->
<g id="edge75" class="edge">
<title>Node26&#45;&gt;Node25</title>
<path fill="none" stroke="midnightblue" d="M1426.87,-349.35C1595.73,-348.2 1970.18,-340.88 2009,-299 2038.63,-267.03 1979.64,-236.45 2005,-201 2015.35,-186.54 2053.86,-173.65 2089,-164.52"/>
<polygon fill="midnightblue" stroke="midnightblue" points="1426.76,-345.85 1416.78,-349.42 1426.8,-352.85 1426.76,-345.85"/>
</g>
<!-- Node27 -->
<g id="node27" class="node">
<title>Node27</title>
<g id="a_node27"><a xlink:href="2_d_m_t_i_8h.html" target="_top" xlink:title="API for 2D Moving Target Indicator filter (2DMTI)">
<polygon fill="white" stroke="black" points="916,-268.5 916,-298.5 1056,-298.5 1056,-268.5 916,-268.5"/>
<text text-anchor="start" x="924" y="-286.5" font-family="Helvetica,sans-Serif" font-size="10.00">/home/build/sdk/c/ifxAlgo</text>
<text text-anchor="middle" x="986" y="-275.5" font-family="Helvetica,sans-Serif" font-size="10.00">/2DMTI.h</text>
</a>
</g>
</g>
<!-- Node26&#45;&gt;Node27 -->
<g id="edge52" class="edge">
<title>Node26&#45;&gt;Node27</title>
<path fill="none" stroke="midnightblue" d="M1263.21,-334.68C1186.98,-320.87 1110.23,-306.98 1056.23,-297.21"/>
<polygon fill="midnightblue" stroke="midnightblue" points="1263.01,-338.2 1273.47,-336.53 1264.25,-331.31 1263.01,-338.2"/>
</g>
<!-- Node28 -->
<g id="node28" class="node">
<title>Node28</title>
<g id="a_node28"><a xlink:href="_o_s_c_f_a_r_8h.html" target="_top" xlink:title="API for 2D ordered statistic constant false alarm rate (OS&#45;CFAR) algorithm.">
<polygon fill="white" stroke="black" points="758,-268.5 758,-298.5 898,-298.5 898,-268.5 758,-268.5"/>
<text text-anchor="start" x="766" y="-286.5" font-family="Helvetica,sans-Serif" font-size="10.00">/home/build/sdk/c/ifxAlgo</text>
<text text-anchor="middle" x="828" y="-275.5" font-family="Helvetica,sans-Serif" font-size="10.00">/OSCFAR.h</text>
</a>
</g>
</g>
<!-- Node26&#45;&gt;Node28 -->
<g id="edge54" class="edge">
<title>Node26&#45;&gt;Node28</title>
<path fill="none" stroke="midnightblue" d="M1263,-334.78C1104.9,-313.07 1062.08,-320.99 907,-299 904.1,-298.59 901.15,-298.15 898.16,-297.68"/>
<polygon fill="midnightblue" stroke="midnightblue" points="1262.7,-338.28 1273.09,-336.19 1263.66,-331.34 1262.7,-338.28"/>
</g>
<!-- Node29 -->
<g id="node29" class="node">
<title>Node29</title>
<g id="a_node29"><a xlink:href="_l_a_8h.html" target="_top" xlink:title="API for Linear Algebra (LA)">
<polygon fill="white" stroke="black" points="1587.5,-274 1587.5,-293 1754.5,-293 1754.5,-274 1587.5,-274"/>
<text text-anchor="middle" x="1671" y="-281" font-family="Helvetica,sans-Serif" font-size="10.00">/home/build/sdk/c/ifxBase/LA.h</text>
</a>
</g>
</g>
<!-- Node26&#45;&gt;Node29 -->
<g id="edge59" class="edge">
<title>Node26&#45;&gt;Node29</title>
<path fill="none" stroke="midnightblue" d="M1425.42,-333.47C1489.54,-320.68 1576.84,-303.27 1628.23,-293.03"/>
<polygon fill="midnightblue" stroke="midnightblue" points="1424.46,-330.09 1415.34,-335.48 1425.83,-336.95 1424.46,-330.09"/>
</g>
<!-- Node30 -->
<g id="node30" class="node">
<title>Node30</title>
<g id="a_node30"><a xlink:href="_frame_8h.html" target="_top" xlink:title="API for Measurement Frame handling.">
<polygon fill="white" stroke="black" points="1848,-268.5 1848,-298.5 2000,-298.5 2000,-268.5 1848,-268.5"/>
<text text-anchor="start" x="1856" y="-286.5" font-family="Helvetica,sans-Serif" font-size="10.00">/home/build/sdk/c/ifxDevice</text>
<text text-anchor="middle" x="1924" y="-275.5" font-family="Helvetica,sans-Serif" font-size="10.00">/Frame.h</text>
</a>
</g>
</g>
<!-- Node26&#45;&gt;Node30 -->
<g id="edge61" class="edge">
<title>Node26&#45;&gt;Node30</title>
<path fill="none" stroke="midnightblue" d="M1426.82,-340.31C1538.98,-327.72 1738.97,-305.27 1848,-293.03"/>
<polygon fill="midnightblue" stroke="midnightblue" points="1426.12,-336.87 1416.58,-341.46 1426.91,-343.83 1426.12,-336.87"/>
</g>
<!-- Node27&#45;&gt;Node3 -->
<g id="edge53" class="edge">
<title>Node27&#45;&gt;Node3</title>
<path fill="none" stroke="midnightblue" d="M905.61,-267.93C787.41,-253.12 502.2,-231.98 369.2,-222.45"/>
<polygon fill="midnightblue" stroke="midnightblue" points="905.48,-271.44 915.85,-269.25 906.38,-264.5 905.48,-271.44"/>
</g>
<!-- Node28&#45;&gt;Node3 -->
<g id="edge55" class="edge">
<title>Node28&#45;&gt;Node3</title>
<path fill="none" stroke="midnightblue" d="M747.78,-267.88C607.9,-247.5 456,-232.04 369.35,-223.86"/>
<polygon fill="midnightblue" stroke="midnightblue" points="747.43,-271.37 757.83,-269.36 748.45,-264.44 747.43,-271.37"/>
</g>
<!-- Node29&#45;&gt;Node15 -->
<g id="edge60" class="edge">
<title>Node29&#45;&gt;Node15</title>
<path fill="none" stroke="midnightblue" d="M1652.79,-266.93C1640.22,-256.18 1623.65,-242 1611.47,-231.59"/>
<polygon fill="midnightblue" stroke="midnightblue" points="1650.88,-269.89 1660.75,-273.73 1655.43,-264.57 1650.88,-269.89"/>
</g>
<!-- Node31 -->
<g id="node31" class="node">
<title>Node31</title>
<g id="a_node31"><a xlink:href="_device_8h.html" target="_top" xlink:title=" ">
<polygon fill="white" stroke="black" points="1657,-67.5 1657,-97.5 1809,-97.5 1809,-67.5 1657,-67.5"/>
<text text-anchor="start" x="1665" y="-85.5" font-family="Helvetica,sans-Serif" font-size="10.00">/home/build/sdk/c/ifxDevice</text>
<text text-anchor="middle" x="1733" y="-74.5" font-family="Helvetica,sans-Serif" font-size="10.00">/Device.h</text>
</a>
</g>
</g>
<!-- Node30&#45;&gt;Node31 -->
<g id="edge62" class="edge">
<title>Node30&#45;&gt;Node31</title>
<path fill="none" stroke="midnightblue" d="M1837.96,-266.59C1782.15,-251.14 1714.22,-221.38 1683,-165 1676.33,-152.95 1677.76,-146.74 1683,-134 1689.05,-119.28 1701.7,-106.57 1712.76,-97.59"/>
<polygon fill="midnightblue" stroke="midnightblue" points="1837.3,-270.04 1847.87,-269.22 1839.1,-263.27 1837.3,-270.04"/>
</g>
<!-- Node32 -->
<g id="node32" class="node">
<title>Node32</title>
<g id="a_node32"><a xlink:href="_device_control_8h.html" target="_top" xlink:title="API for Radar device control operations.">
<polygon fill="white" stroke="black" points="1799,-201.5 1799,-231.5 1951,-231.5 1951,-201.5 1799,-201.5"/>
<text text-anchor="start" x="1807" y="-219.5" font-family="Helvetica,sans-Serif" font-size="10.00">/home/build/sdk/c/ifxDevice</text>
<text text-anchor="middle" x="1875" y="-208.5" font-family="Helvetica,sans-Serif" font-size="10.00">/DeviceControl.h</text>
</a>
</g>
</g>
<!-- Node30&#45;&gt;Node32 -->
<g id="edge64" class="edge">
<title>Node30&#45;&gt;Node32</title>
<path fill="none" stroke="midnightblue" d="M1907.16,-260.16C1900.01,-250.68 1891.9,-239.92 1885.61,-231.58"/>
<polygon fill="midnightblue" stroke="midnightblue" points="1904.55,-262.52 1913.37,-268.4 1910.14,-258.3 1904.55,-262.52"/>
</g>
<!-- Node31&#45;&gt;Node4 -->
<g id="edge63" class="edge">
<title>Node31&#45;&gt;Node4</title>
<path fill="none" stroke="midnightblue" d="M1694,-63.13C1672.07,-52.8 1645.13,-40.11 1624.89,-30.58"/>
<polygon fill="midnightblue" stroke="midnightblue" points="1692.52,-66.3 1703.06,-67.4 1695.5,-59.97 1692.52,-66.3"/>
</g>
<!-- Node32&#45;&gt;Node10 -->
<g id="edge69" class="edge">
<title>Node32&#45;&gt;Node10</title>
<path fill="none" stroke="midnightblue" d="M1788.75,-209.19C1753.76,-206.63 1712.95,-203.66 1676,-201 1451.57,-184.82 1395.28,-183.16 1171,-165 1142.78,-162.72 1111.79,-159.96 1084.66,-157.47"/>
<polygon fill="midnightblue" stroke="midnightblue" points="1788.7,-212.69 1798.93,-209.93 1789.21,-205.71 1788.7,-212.69"/>
</g>
<!-- Node32&#45;&gt;Node25 -->
<g id="edge70" class="edge">
<title>Node32&#45;&gt;Node25</title>
<path fill="none" stroke="midnightblue" d="M1944.78,-199.19C1990.3,-188.54 2049.14,-174.78 2092.65,-164.61"/>
<polygon fill="midnightblue" stroke="midnightblue" points="1943.92,-195.79 1934.98,-201.48 1945.51,-202.61 1943.92,-195.79"/>
</g>
<!-- Node32&#45;&gt;Node31 -->
<g id="edge66" class="edge">
<title>Node32&#45;&gt;Node31</title>
<path fill="none" stroke="midnightblue" d="M1874,-191.2C1872.06,-173.45 1866.81,-149.81 1853,-134 1837.91,-116.72 1815.92,-105.21 1794.87,-97.6"/>
<polygon fill="midnightblue" stroke="midnightblue" points="1870.52,-191.69 1874.82,-201.38 1877.5,-191.12 1870.52,-191.69"/>
</g>
<!-- Node33 -->
<g id="node33" class="node">
<title>Node33</title>
<g id="a_node33"><a xlink:href="_constant_wave_control_8h.html" target="_top" xlink:title="Header for Constant Wave Control. It provides APIs to use an Avian device in constant wave mode....">
<polygon fill="white" stroke="black" points="1900,-134.5 1900,-164.5 2052,-164.5 2052,-134.5 1900,-134.5"/>
<text text-anchor="start" x="1908" y="-152.5" font-family="Helvetica,sans-Serif" font-size="10.00">/home/build/sdk/c/ifxDevice</text>
<text text-anchor="middle" x="1976" y="-141.5" font-family="Helvetica,sans-Serif" font-size="10.00">/ConstantWaveControl.h</text>
</a>
</g>
</g>
<!-- Node32&#45;&gt;Node33 -->
<g id="edge65" class="edge">
<title>Node32&#45;&gt;Node33</title>
<path fill="none" stroke="midnightblue" d="M1905.71,-195.73C1921.34,-185.68 1939.97,-173.68 1954.13,-164.58"/>
<polygon fill="midnightblue" stroke="midnightblue" points="1903.43,-193.04 1896.92,-201.4 1907.22,-198.93 1903.43,-193.04"/>
</g>
<!-- Node34 -->
<g id="node34" class="node">
<title>Node34</title>
<g id="a_node34"><a xlink:href="_shapes_8h.html" target="_top" xlink:title=" ">
<polygon fill="white" stroke="black" points="1692,-134.5 1692,-164.5 1844,-164.5 1844,-134.5 1692,-134.5"/>
<text text-anchor="start" x="1700" y="-152.5" font-family="Helvetica,sans-Serif" font-size="10.00">/home/build/sdk/c/ifxDevice</text>
<text text-anchor="middle" x="1768" y="-141.5" font-family="Helvetica,sans-Serif" font-size="10.00">/Shapes.h</text>
</a>
</g>
</g>
<!-- Node32&#45;&gt;Node34 -->
<g id="edge67" class="edge">
<title>Node32&#45;&gt;Node34</title>
<path fill="none" stroke="midnightblue" d="M1842.92,-196.02C1826.27,-185.9 1806.31,-173.77 1791.17,-164.58"/>
<polygon fill="midnightblue" stroke="midnightblue" points="1841.42,-199.2 1851.78,-201.4 1845.05,-193.21 1841.42,-199.2"/>
</g>
<!-- Node34&#45;&gt;Node31 -->
<g id="edge68" class="edge">
<title>Node34&#45;&gt;Node31</title>
<path fill="none" stroke="midnightblue" d="M1755.66,-125.58C1750.63,-116.24 1744.98,-105.75 1740.58,-97.58"/>
<polygon fill="midnightblue" stroke="midnightblue" points="1752.58,-127.25 1760.41,-134.4 1758.75,-123.93 1752.58,-127.25"/>
</g>
<!-- Node35&#45;&gt;Node7 -->
<g id="edge78" class="edge">
<title>Node35&#45;&gt;Node7</title>
<path fill="none" stroke="midnightblue" d="M2306.8,-394.29C2289.07,-369.12 2264,-326.16 2264,-284.5 2264,-284.5 2264,-284.5 2264,-215.5 2264,-178.31 2273.56,-157.82 2245,-134 2226.38,-118.47 1510.05,-93.62 1275.51,-85.88"/>
<polygon fill="midnightblue" stroke="midnightblue" points="2304,-396.39 2312.71,-402.42 2309.66,-392.27 2304,-396.39"/>
</g>
</g>
</svg>
