<?xml version="1.0" encoding="UTF-8" standalone="no"?>
<!DOCTYPE svg PUBLIC "-//W3C//DTD SVG 1.1//EN"
 "http://www.w3.org/Graphics/SVG/1.1/DTD/svg11.dtd">
<!-- Generated by graphviz version 2.43.0 (0)
 -->
<!-- Title: /home/build/sdk/c/ifxAlgo/Window.h Pages: 1 -->
<svg width="549pt" height="374pt"
 viewBox="0.00 0.00 548.50 374.00" xmlns="http://www.w3.org/2000/svg" xmlns:xlink="http://www.w3.org/1999/xlink">
<g id="graph0" class="graph" transform="scale(1 1) rotate(0) translate(4 370)">
<title>/home/build/sdk/c/ifxAlgo/Window.h</title>
<polygon fill="white" stroke="transparent" points="-4,4 -4,-370 544.5,-370 544.5,4 -4,4"/>
<!-- Node1 -->
<g id="node1" class="node">
<title>Node1</title>
<g id="a_node1"><a xlink:title="API for Window function processing.">
<polygon fill="#bfbfbf" stroke="black" points="261,-335.5 261,-365.5 401,-365.5 401,-335.5 261,-335.5"/>
<text text-anchor="start" x="269" y="-353.5" font-family="Helvetica,sans-Serif" font-size="10.00">/home/build/sdk/c/ifxAlgo</text>
<text text-anchor="middle" x="331" y="-342.5" font-family="Helvetica,sans-Serif" font-size="10.00">/Window.h</text>
</a>
</g>
</g>
<!-- Node2 -->
<g id="node2" class="node">
<title>Node2</title>
<g id="a_node2"><a xlink:href="_algo_8h.html" target="_top" xlink:title="Header for ifxAlgo.">
<polygon fill="white" stroke="black" points="0,-201.5 0,-231.5 140,-231.5 140,-201.5 0,-201.5"/>
<text text-anchor="start" x="8" y="-219.5" font-family="Helvetica,sans-Serif" font-size="10.00">/home/build/sdk/c/ifxAlgo</text>
<text text-anchor="middle" x="70" y="-208.5" font-family="Helvetica,sans-Serif" font-size="10.00">/Algo.h</text>
</a>
</g>
</g>
<!-- Node1&#45;&gt;Node2 -->
<g id="edge1" class="edge">
<title>Node1&#45;&gt;Node2</title>
<path fill="none" stroke="midnightblue" d="M257.39,-332.76C229.1,-324.72 197.11,-313.6 170,-299 135.69,-280.53 101.82,-249.51 83.65,-231.54"/>
<polygon fill="midnightblue" stroke="midnightblue" points="256.66,-336.19 267.23,-335.48 258.52,-329.44 256.66,-336.19"/>
</g>
<!-- Node4 -->
<g id="node4" class="node">
<title>Node4</title>
<g id="a_node4"><a xlink:href="_preprocessed_f_f_t_8h.html" target="_top" xlink:title="API for Pre&#45;processed FFT.">
<polygon fill="white" stroke="black" points="179,-268.5 179,-298.5 319,-298.5 319,-268.5 179,-268.5"/>
<text text-anchor="start" x="187" y="-286.5" font-family="Helvetica,sans-Serif" font-size="10.00">/home/build/sdk/c/ifxAlgo</text>
<text text-anchor="middle" x="249" y="-275.5" font-family="Helvetica,sans-Serif" font-size="10.00">/PreprocessedFFT.h</text>
</a>
</g>
</g>
<!-- Node1&#45;&gt;Node4 -->
<g id="edge3" class="edge">
<title>Node1&#45;&gt;Node4</title>
<path fill="none" stroke="midnightblue" d="M305.35,-329.17C292.81,-319.23 278.03,-307.51 266.76,-298.58"/>
<polygon fill="midnightblue" stroke="midnightblue" points="303.2,-331.93 313.21,-335.4 307.54,-326.44 303.2,-331.93"/>
</g>
<!-- Node8 -->
<g id="node8" class="node">
<title>Node8</title>
<g id="a_node8"><a xlink:href="_range_spectrum_8h.html" target="_top" xlink:title="API for Range Spectrum.">
<polygon fill="white" stroke="black" points="323.5,-201.5 323.5,-231.5 470.5,-231.5 470.5,-201.5 323.5,-201.5"/>
<text text-anchor="start" x="331.5" y="-219.5" font-family="Helvetica,sans-Serif" font-size="10.00">/home/build/sdk/c/ifxRadar</text>
<text text-anchor="middle" x="397" y="-208.5" font-family="Helvetica,sans-Serif" font-size="10.00">/RangeSpectrum.h</text>
</a>
</g>
</g>
<!-- Node1&#45;&gt;Node8 -->
<g id="edge15" class="edge">
<title>Node1&#45;&gt;Node8</title>
<path fill="none" stroke="midnightblue" d="M342.69,-326.12C356.41,-298.68 378.71,-254.09 389.99,-231.52"/>
<polygon fill="midnightblue" stroke="midnightblue" points="339.4,-324.86 338.06,-335.37 345.67,-327.99 339.4,-324.86"/>
</g>
<!-- Node9 -->
<g id="node9" class="node">
<title>Node9</title>
<g id="a_node9"><a xlink:href="_presence_sensing_8h.html" target="_top" xlink:title="API for Presence Sensing algorithm.">
<polygon fill="white" stroke="black" points="393.5,-134.5 393.5,-164.5 540.5,-164.5 540.5,-134.5 393.5,-134.5"/>
<text text-anchor="start" x="401.5" y="-152.5" font-family="Helvetica,sans-Serif" font-size="10.00">/home/build/sdk/c/ifxRadar</text>
<text text-anchor="middle" x="467" y="-141.5" font-family="Helvetica,sans-Serif" font-size="10.00">/PresenceSensing.h</text>
</a>
</g>
</g>
<!-- Node1&#45;&gt;Node9 -->
<g id="edge14" class="edge">
<title>Node1&#45;&gt;Node9</title>
<path fill="none" stroke="midnightblue" d="M371.78,-330.57C407.71,-311.39 457.7,-277.99 480,-232 490.57,-210.21 481.52,-181.67 474.14,-164.79"/>
<polygon fill="midnightblue" stroke="midnightblue" points="369.78,-327.66 362.51,-335.37 373,-333.88 369.78,-327.66"/>
</g>
<!-- Node3 -->
<g id="node3" class="node">
<title>Node3</title>
<g id="a_node3"><a xlink:href="_s_d_k_8h.html" target="_top" xlink:title="Master header file for Radar SDK.">
<polygon fill="white" stroke="black" points="108.5,-0.5 108.5,-30.5 255.5,-30.5 255.5,-0.5 108.5,-0.5"/>
<text text-anchor="start" x="116.5" y="-18.5" font-family="Helvetica,sans-Serif" font-size="10.00">/home/build/sdk/c/ifxRadar</text>
<text text-anchor="middle" x="182" y="-7.5" font-family="Helvetica,sans-Serif" font-size="10.00">/SDK.h</text>
</a>
</g>
</g>
<!-- Node2&#45;&gt;Node3 -->
<g id="edge2" class="edge">
<title>Node2&#45;&gt;Node3</title>
<path fill="none" stroke="midnightblue" d="M83.04,-192.33C106.45,-150.74 154.92,-64.61 174.02,-30.68"/>
<polygon fill="midnightblue" stroke="midnightblue" points="79.91,-190.76 78.05,-201.19 86.01,-194.19 79.91,-190.76"/>
</g>
<!-- Node4&#45;&gt;Node2 -->
<g id="edge4" class="edge">
<title>Node4&#45;&gt;Node2</title>
<path fill="none" stroke="midnightblue" d="M200.68,-264.96C171.85,-254.48 135.72,-241.37 108.76,-231.58"/>
<polygon fill="midnightblue" stroke="midnightblue" points="199.57,-268.27 210.16,-268.4 201.95,-261.69 199.57,-268.27"/>
</g>
<!-- Node5 -->
<g id="node5" class="node">
<title>Node5</title>
<g id="a_node5"><a xlink:href="_range_doppler_map_8h.html" target="_top" xlink:title="API for Range Doppler Map.">
<polygon fill="white" stroke="black" points="158.5,-201.5 158.5,-231.5 305.5,-231.5 305.5,-201.5 158.5,-201.5"/>
<text text-anchor="start" x="166.5" y="-219.5" font-family="Helvetica,sans-Serif" font-size="10.00">/home/build/sdk/c/ifxRadar</text>
<text text-anchor="middle" x="232" y="-208.5" font-family="Helvetica,sans-Serif" font-size="10.00">/RangeDopplerMap.h</text>
</a>
</g>
</g>
<!-- Node4&#45;&gt;Node5 -->
<g id="edge5" class="edge">
<title>Node4&#45;&gt;Node5</title>
<path fill="none" stroke="midnightblue" d="M242.77,-258.7C240.39,-249.59 237.75,-239.49 235.68,-231.58"/>
<polygon fill="midnightblue" stroke="midnightblue" points="239.39,-259.61 245.31,-268.4 246.17,-257.84 239.39,-259.61"/>
</g>
<!-- Node4&#45;&gt;Node8 -->
<g id="edge10" class="edge">
<title>Node4&#45;&gt;Node8</title>
<path fill="none" stroke="midnightblue" d="M290.51,-264.27C314.08,-253.92 343.14,-241.15 364.95,-231.58"/>
<polygon fill="midnightblue" stroke="midnightblue" points="288.86,-261.17 281.11,-268.4 291.68,-267.58 288.86,-261.17"/>
</g>
<!-- Node6 -->
<g id="node6" class="node">
<title>Node6</title>
<g id="a_node6"><a xlink:href="_radar_8h.html" target="_top" xlink:title="Header for ifxRadar.">
<polygon fill="white" stroke="black" points="189.5,-67.5 189.5,-97.5 336.5,-97.5 336.5,-67.5 189.5,-67.5"/>
<text text-anchor="start" x="197.5" y="-85.5" font-family="Helvetica,sans-Serif" font-size="10.00">/home/build/sdk/c/ifxRadar</text>
<text text-anchor="middle" x="263" y="-74.5" font-family="Helvetica,sans-Serif" font-size="10.00">/Radar.h</text>
</a>
</g>
</g>
<!-- Node5&#45;&gt;Node6 -->
<g id="edge6" class="edge">
<title>Node5&#45;&gt;Node6</title>
<path fill="none" stroke="midnightblue" d="M202.79,-194.76C193.73,-186.63 184.85,-176.48 180,-165 174.63,-152.31 173.25,-146.01 180,-134 189.34,-117.38 206.61,-105.6 222.98,-97.62"/>
<polygon fill="midnightblue" stroke="midnightblue" points="200.79,-197.65 210.7,-201.38 205.28,-192.28 200.79,-197.65"/>
</g>
<!-- Node7 -->
<g id="node7" class="node">
<title>Node7</title>
<g id="a_node7"><a xlink:href="_range_angle_image_8h.html" target="_top" xlink:title="API for Range Angle Image algorithm.">
<polygon fill="white" stroke="black" points="189.5,-134.5 189.5,-164.5 336.5,-164.5 336.5,-134.5 189.5,-134.5"/>
<text text-anchor="start" x="197.5" y="-152.5" font-family="Helvetica,sans-Serif" font-size="10.00">/home/build/sdk/c/ifxRadar</text>
<text text-anchor="middle" x="263" y="-141.5" font-family="Helvetica,sans-Serif" font-size="10.00">/RangeAngleImage.h</text>
</a>
</g>
</g>
<!-- Node5&#45;&gt;Node7 -->
<g id="edge8" class="edge">
<title>Node5&#45;&gt;Node7</title>
<path fill="none" stroke="midnightblue" d="M243.07,-192.28C247.49,-183.02 252.43,-172.66 256.29,-164.58"/>
<polygon fill="midnightblue" stroke="midnightblue" points="239.87,-190.86 238.73,-201.4 246.19,-193.88 239.87,-190.86"/>
</g>
<!-- Node6&#45;&gt;Node3 -->
<g id="edge7" class="edge">
<title>Node6&#45;&gt;Node3</title>
<path fill="none" stroke="midnightblue" d="M237.31,-60.88C225,-51.01 210.57,-39.43 199.54,-30.58"/>
<polygon fill="midnightblue" stroke="midnightblue" points="235.43,-63.87 245.42,-67.4 239.82,-58.41 235.43,-63.87"/>
</g>
<!-- Node7&#45;&gt;Node6 -->
<g id="edge9" class="edge">
<title>Node7&#45;&gt;Node6</title>
<path fill="none" stroke="midnightblue" d="M263,-124.11C263,-115.15 263,-105.32 263,-97.58"/>
<polygon fill="midnightblue" stroke="midnightblue" points="259.5,-124.4 263,-134.4 266.5,-124.4 259.5,-124.4"/>
</g>
<!-- Node8&#45;&gt;Node6 -->
<g id="edge13" class="edge">
<title>Node8&#45;&gt;Node6</title>
<path fill="none" stroke="midnightblue" d="M385.96,-192.49C376.75,-174.99 362.36,-151.09 345,-134 329.87,-119.11 309.57,-106.56 292.95,-97.7"/>
<polygon fill="midnightblue" stroke="midnightblue" points="382.87,-194.15 390.52,-201.47 389.11,-190.97 382.87,-194.15"/>
</g>
<!-- Node8&#45;&gt;Node9 -->
<g id="edge11" class="edge">
<title>Node8&#45;&gt;Node9</title>
<path fill="none" stroke="midnightblue" d="M419.82,-194.31C430.32,-184.56 442.49,-173.26 451.84,-164.58"/>
<polygon fill="midnightblue" stroke="midnightblue" points="417.14,-192.03 412.19,-201.4 421.9,-197.16 417.14,-192.03"/>
</g>
<!-- Node9&#45;&gt;Node6 -->
<g id="edge12" class="edge">
<title>Node9&#45;&gt;Node6</title>
<path fill="none" stroke="midnightblue" d="M413.04,-131.31C380.04,-120.79 338.34,-107.51 307.29,-97.61"/>
<polygon fill="midnightblue" stroke="midnightblue" points="412.4,-134.77 422.99,-134.48 414.52,-128.11 412.4,-134.77"/>
</g>
</g>
</svg>
