<?xml version="1.0" encoding="UTF-8" standalone="no"?>
<!DOCTYPE svg PUBLIC "-//W3C//DTD SVG 1.1//EN"
 "http://www.w3.org/Graphics/SVG/1.1/DTD/svg11.dtd">
<!-- Generated by graphviz version 2.43.0 (0)
 -->
<!-- Title: /home/build/sdk/c Pages: 1 -->
<svg width="242pt" height="327pt"
 viewBox="0.00 0.00 242.00 327.00" xmlns="http://www.w3.org/2000/svg" xmlns:xlink="http://www.w3.org/1999/xlink">
<g id="graph0" class="graph" transform="scale(1 1) rotate(0) translate(4 323)">
<title>/home/build/sdk/c</title>
<polygon fill="white" stroke="transparent" points="-4,4 -4,-323 238,-323 238,4 -4,4"/>
<g id="clust1" class="cluster">
<title>clusterdir_243a4ba6b4f893d71afbb5a3e90552fa</title>
<g id="a_clust1"><a xlink:href="dir_243a4ba6b4f893d71afbb5a3e90552fa.html" target="_top" xlink:title="sdk">
<polygon fill="#ddddee" stroke="black" points="8,-8 8,-311 226,-311 226,-8 8,-8"/>
<text text-anchor="middle" x="117" y="-299" font-family="Helvetica,sans-Serif" font-size="10.00">sdk</text>
</a>
</g>
</g>
<g id="clust2" class="cluster">
<title>clusterdir_cb1b8b20a863d3b4f720b5073297472d</title>
<g id="a_clust2"><a xlink:href="dir_cb1b8b20a863d3b4f720b5073297472d.html" target="_top">
<polygon fill="#eeeeff" stroke="black" points="16,-16 16,-284 218,-284 218,-16 16,-16"/>
</a>
</g>
</g>
<!-- dir_cb1b8b20a863d3b4f720b5073297472d -->
<g id="node1" class="node">
<title>dir_cb1b8b20a863d3b4f720b5073297472d</title>
<text text-anchor="middle" x="158" y="-255.5" font-family="Helvetica,sans-Serif" font-size="10.00">c</text>
</g>
<!-- dir_4697e86ad33e45c91248444b464b6119 -->
<g id="node2" class="node">
<title>dir_4697e86ad33e45c91248444b464b6119</title>
<g id="a_node2"><a xlink:href="dir_4697e86ad33e45c91248444b464b6119.html" target="_top" xlink:title="ifxAlgo">
<polygon fill="white" stroke="black" points="78,-132 24,-132 24,-96 78,-96 78,-132"/>
<text text-anchor="middle" x="51" y="-111.5" font-family="Helvetica,sans-Serif" font-size="10.00">ifxAlgo</text>
</a>
</g>
</g>
<!-- dir_567fd94d20573b82fae4b73e87e5ca9b -->
<g id="node3" class="node">
<title>dir_567fd94d20573b82fae4b73e87e5ca9b</title>
<g id="a_node3"><a xlink:href="dir_567fd94d20573b82fae4b73e87e5ca9b.html" target="_top" xlink:title="ifxBase">
<polygon fill="white" stroke="black" points="149,-60 95,-60 95,-24 149,-24 149,-60"/>
<text text-anchor="middle" x="122" y="-39.5" font-family="Helvetica,sans-Serif" font-size="10.00">ifxBase</text>
</a>
</g>
</g>
<!-- dir_4697e86ad33e45c91248444b464b6119&#45;&gt;dir_567fd94d20573b82fae4b73e87e5ca9b -->
<g id="edge1" class="edge">
<title>dir_4697e86ad33e45c91248444b464b6119&#45;&gt;dir_567fd94d20573b82fae4b73e87e5ca9b</title>
<path fill="none" stroke="black" d="M68.55,-95.7C77.23,-87.14 87.86,-76.66 97.35,-67.3"/>
<polygon fill="black" stroke="black" points="99.99,-69.62 104.65,-60.1 95.07,-64.63 99.99,-69.62"/>
<g id="a_edge1&#45;headlabel"><a xlink:href="dir_000004_000005.html" target="_top" xlink:title="16">
<text text-anchor="middle" x="99.42" y="-71.66" font-family="Helvetica,sans-Serif" font-size="10.00">16</text>
</a>
</g>
</g>
<!-- dir_0cec0a48671a4ccd1f8585e45e892f1f -->
<g id="node4" class="node">
<title>dir_0cec0a48671a4ccd1f8585e45e892f1f</title>
<g id="a_node4"><a xlink:href="dir_0cec0a48671a4ccd1f8585e45e892f1f.html" target="_top" xlink:title="ifxDevice">
<polygon fill="white" stroke="black" points="179.5,-132 116.5,-132 116.5,-96 179.5,-96 179.5,-132"/>
<text text-anchor="middle" x="148" y="-111.5" font-family="Helvetica,sans-Serif" font-size="10.00">ifxDevice</text>
</a>
</g>
</g>
<!-- dir_0cec0a48671a4ccd1f8585e45e892f1f&#45;&gt;dir_567fd94d20573b82fae4b73e87e5ca9b -->
<g id="edge2" class="edge">
<title>dir_0cec0a48671a4ccd1f8585e45e892f1f&#45;&gt;dir_567fd94d20573b82fae4b73e87e5ca9b</title>
<path fill="none" stroke="black" d="M141.57,-95.7C138.64,-87.81 135.11,-78.3 131.86,-69.55"/>
<polygon fill="black" stroke="black" points="135.12,-68.26 128.35,-60.1 128.55,-70.7 135.12,-68.26"/>
<g id="a_edge2&#45;headlabel"><a xlink:href="dir_000006_000005.html" target="_top" xlink:title="7">
<text text-anchor="middle" x="139.03" y="-68.14" font-family="Helvetica,sans-Serif" font-size="10.00">7</text>
</a>
</g>
</g>
<!-- dir_dab4b19e452ad33ce9758a674c7abd78 -->
<g id="node5" class="node">
<title>dir_dab4b19e452ad33ce9758a674c7abd78</title>
<g id="a_node5"><a xlink:href="dir_dab4b19e452ad33ce9758a674c7abd78.html" target="_top" xlink:title="ifxRadar">
<polygon fill="white" stroke="black" points="88,-276 30,-276 30,-240 88,-240 88,-276"/>
<text text-anchor="middle" x="59" y="-255.5" font-family="Helvetica,sans-Serif" font-size="10.00">ifxRadar</text>
</a>
</g>
</g>
<!-- dir_dab4b19e452ad33ce9758a674c7abd78&#45;&gt;dir_4697e86ad33e45c91248444b464b6119 -->
<g id="edge5" class="edge">
<title>dir_dab4b19e452ad33ce9758a674c7abd78&#45;&gt;dir_4697e86ad33e45c91248444b464b6119</title>
<path fill="none" stroke="black" d="M51.11,-239.75C46.89,-229.58 42.14,-216.33 40,-204 36.42,-183.42 39.62,-159.97 43.47,-142.31"/>
<polygon fill="black" stroke="black" points="46.98,-142.67 45.89,-132.14 40.17,-141.05 46.98,-142.67"/>
<g id="a_edge5&#45;headlabel"><a xlink:href="dir_000007_000004.html" target="_top" xlink:title="6">
<text text-anchor="middle" x="48.9" y="-144.33" font-family="Helvetica,sans-Serif" font-size="10.00">6</text>
</a>
</g>
</g>
<!-- dir_dab4b19e452ad33ce9758a674c7abd78&#45;&gt;dir_567fd94d20573b82fae4b73e87e5ca9b -->
<g id="edge8" class="edge">
<title>dir_dab4b19e452ad33ce9758a674c7abd78&#45;&gt;dir_567fd94d20573b82fae4b73e87e5ca9b</title>
<path fill="none" stroke="black" d="M55.38,-239.7C52.32,-221.34 49.62,-191.75 58,-168 64.83,-148.62 76.68,-149.76 87,-132 98.49,-112.23 107.75,-87.97 113.85,-69.77"/>
<polygon fill="black" stroke="black" points="117.23,-70.69 116.99,-60.1 110.57,-68.53 117.23,-70.69"/>
<g id="a_edge8&#45;headlabel"><a xlink:href="dir_000007_000005.html" target="_top" xlink:title="22">
<text text-anchor="middle" x="118.82" y="-72.49" font-family="Helvetica,sans-Serif" font-size="10.00">22</text>
</a>
</g>
</g>
<!-- dir_dab4b19e452ad33ce9758a674c7abd78&#45;&gt;dir_0cec0a48671a4ccd1f8585e45e892f1f -->
<g id="edge6" class="edge">
<title>dir_dab4b19e452ad33ce9758a674c7abd78&#45;&gt;dir_0cec0a48671a4ccd1f8585e45e892f1f</title>
<path fill="none" stroke="black" d="M58.41,-239.92C58.53,-220.94 61.15,-190.08 75,-168 83.05,-155.17 95.43,-144.47 107.72,-136.13"/>
<polygon fill="black" stroke="black" points="109.63,-139.06 116.17,-130.73 105.86,-133.17 109.63,-139.06"/>
<g id="a_edge6&#45;headlabel"><a xlink:href="dir_000007_000006.html" target="_top" xlink:title="3">
<text text-anchor="middle" x="108.13" y="-140.89" font-family="Helvetica,sans-Serif" font-size="10.00">3</text>
</a>
</g>
</g>
<!-- dir_029b6408fc75c8aa18949ca0afd8f1c3 -->
<g id="node6" class="node">
<title>dir_029b6408fc75c8aa18949ca0afd8f1c3</title>
<g id="a_node6"><a xlink:href="dir_029b6408fc75c8aa18949ca0afd8f1c3.html" target="_top" xlink:title="ifxRadarSegmentation">
<polygon fill="white" stroke="black" points="210,-204 84,-204 84,-168 210,-168 210,-204"/>
<text text-anchor="middle" x="147" y="-183.5" font-family="Helvetica,sans-Serif" font-size="10.00">ifxRadarSegmentation</text>
</a>
</g>
</g>
<!-- dir_dab4b19e452ad33ce9758a674c7abd78&#45;&gt;dir_029b6408fc75c8aa18949ca0afd8f1c3 -->
<g id="edge7" class="edge">
<title>dir_dab4b19e452ad33ce9758a674c7abd78&#45;&gt;dir_029b6408fc75c8aa18949ca0afd8f1c3</title>
<path fill="none" stroke="black" d="M80.75,-239.7C91.84,-230.88 105.47,-220.03 117.49,-210.47"/>
<polygon fill="black" stroke="black" points="119.85,-213.07 125.5,-204.1 115.49,-207.59 119.85,-213.07"/>
<g id="a_edge7&#45;headlabel"><a xlink:href="dir_000007_000008.html" target="_top" xlink:title="1">
<text text-anchor="middle" x="118.8" y="-215.03" font-family="Helvetica,sans-Serif" font-size="10.00">1</text>
</a>
</g>
</g>
<!-- dir_029b6408fc75c8aa18949ca0afd8f1c3&#45;&gt;dir_567fd94d20573b82fae4b73e87e5ca9b -->
<g id="edge4" class="edge">
<title>dir_029b6408fc75c8aa18949ca0afd8f1c3&#45;&gt;dir_567fd94d20573b82fae4b73e87e5ca9b</title>
<path fill="none" stroke="black" d="M165.6,-167.76C174.53,-158.2 184.29,-145.53 189,-132 194.26,-116.89 195.97,-110.4 189,-96 182.28,-82.12 169.96,-70.77 157.7,-62.18"/>
<polygon fill="black" stroke="black" points="159.58,-59.23 149.3,-56.68 155.75,-65.09 159.58,-59.23"/>
<g id="a_edge4&#45;headlabel"><a xlink:href="dir_000008_000005.html" target="_top" xlink:title="8">
<text text-anchor="middle" x="164.14" y="-56.32" font-family="Helvetica,sans-Serif" font-size="10.00">8</text>
</a>
</g>
</g>
<!-- dir_029b6408fc75c8aa18949ca0afd8f1c3&#45;&gt;dir_0cec0a48671a4ccd1f8585e45e892f1f -->
<g id="edge3" class="edge">
<title>dir_029b6408fc75c8aa18949ca0afd8f1c3&#45;&gt;dir_0cec0a48671a4ccd1f8585e45e892f1f</title>
<path fill="none" stroke="black" d="M147.25,-167.7C147.36,-159.98 147.49,-150.71 147.61,-142.11"/>
<polygon fill="black" stroke="black" points="151.11,-142.15 147.76,-132.1 144.11,-142.05 151.11,-142.15"/>
<g id="a_edge3&#45;headlabel"><a xlink:href="dir_000008_000006.html" target="_top" xlink:title="2">
<text text-anchor="middle" x="153.9" y="-143.29" font-family="Helvetica,sans-Serif" font-size="10.00">2</text>
</a>
</g>
</g>
</g>
</svg>
