<?xml version="1.0" encoding="UTF-8" standalone="no"?>
<!DOCTYPE svg PUBLIC "-//W3C//DTD SVG 1.1//EN"
 "http://www.w3.org/Graphics/SVG/1.1/DTD/svg11.dtd">
<!-- Generated by graphviz version 2.43.0 (0)
 -->
<!-- Title: /home/build/sdk/c/ifxRadarSegmentation Pages: 1 -->
<svg width="166pt" height="223pt"
 viewBox="0.00 0.00 166.00 223.00" xmlns="http://www.w3.org/2000/svg" xmlns:xlink="http://www.w3.org/1999/xlink">
<g id="graph0" class="graph" transform="scale(1 1) rotate(0) translate(4 219)">
<title>/home/build/sdk/c/ifxRadarSegmentation</title>
<polygon fill="white" stroke="transparent" points="-4,4 -4,-219 162,-219 162,4 -4,4"/>
<g id="clust1" class="cluster">
<title>clusterdir_cb1b8b20a863d3b4f720b5073297472d</title>
<g id="a_clust1"><a xlink:href="dir_cb1b8b20a863d3b4f720b5073297472d.html" target="_top" xlink:title="c">
<polygon fill="#ddddee" stroke="black" points="8,-136 8,-207 150,-207 150,-136 8,-136"/>
<text text-anchor="middle" x="79" y="-195" font-family="Helvetica,sans-Serif" font-size="10.00">c</text>
</a>
</g>
</g>
<!-- dir_029b6408fc75c8aa18949ca0afd8f1c3 -->
<g id="node1" class="node">
<title>dir_029b6408fc75c8aa18949ca0afd8f1c3</title>
<g id="a_node1"><a xlink:href="dir_029b6408fc75c8aa18949ca0afd8f1c3.html" target="_top" xlink:title="ifxRadarSegmentation">
<polygon fill="#eeeeff" stroke="black" points="142,-180 16,-180 16,-144 142,-144 142,-180"/>
<text text-anchor="middle" x="79" y="-159.5" font-family="Helvetica,sans-Serif" font-size="10.00">ifxRadarSegmentation</text>
</a>
</g>
</g>
<!-- dir_0cec0a48671a4ccd1f8585e45e892f1f -->
<g id="node2" class="node">
<title>dir_0cec0a48671a4ccd1f8585e45e892f1f</title>
<g id="a_node2"><a xlink:href="dir_0cec0a48671a4ccd1f8585e45e892f1f.html" target="_top" xlink:title="ifxDevice">
<polygon fill="none" stroke="black" points="80.5,-108 17.5,-108 17.5,-72 80.5,-72 80.5,-108"/>
<text text-anchor="middle" x="49" y="-87.5" font-family="Helvetica,sans-Serif" font-size="10.00">ifxDevice</text>
</a>
</g>
</g>
<!-- dir_029b6408fc75c8aa18949ca0afd8f1c3&#45;&gt;dir_0cec0a48671a4ccd1f8585e45e892f1f -->
<g id="edge2" class="edge">
<title>dir_029b6408fc75c8aa18949ca0afd8f1c3&#45;&gt;dir_0cec0a48671a4ccd1f8585e45e892f1f</title>
<path fill="none" stroke="black" d="M71.58,-143.7C68.21,-135.81 64.13,-126.3 60.38,-117.55"/>
<polygon fill="black" stroke="black" points="63.49,-115.92 56.33,-108.1 57.05,-118.67 63.49,-115.92"/>
<g id="a_edge2&#45;headlabel"><a xlink:href="dir_000008_000006.html" target="_top" xlink:title="2">
<text text-anchor="middle" x="67.51" y="-115.6" font-family="Helvetica,sans-Serif" font-size="10.00">2</text>
</a>
</g>
</g>
<!-- dir_567fd94d20573b82fae4b73e87e5ca9b -->
<g id="node3" class="node">
<title>dir_567fd94d20573b82fae4b73e87e5ca9b</title>
<g id="a_node3"><a xlink:href="dir_567fd94d20573b82fae4b73e87e5ca9b.html" target="_top" xlink:title="ifxBase">
<polygon fill="none" stroke="black" points="106,-36 52,-36 52,0 106,0 106,-36"/>
<text text-anchor="middle" x="79" y="-15.5" font-family="Helvetica,sans-Serif" font-size="10.00">ifxBase</text>
</a>
</g>
</g>
<!-- dir_029b6408fc75c8aa18949ca0afd8f1c3&#45;&gt;dir_567fd94d20573b82fae4b73e87e5ca9b -->
<g id="edge3" class="edge">
<title>dir_029b6408fc75c8aa18949ca0afd8f1c3&#45;&gt;dir_567fd94d20573b82fae4b73e87e5ca9b</title>
<path fill="none" stroke="black" d="M83.46,-143.95C85.94,-133.63 88.75,-120.15 90,-108 91.63,-92.08 91.63,-87.92 90,-72 89.12,-63.46 87.47,-54.26 85.71,-45.96"/>
<polygon fill="black" stroke="black" points="89.08,-45.03 83.46,-36.05 82.26,-46.57 89.08,-45.03"/>
<g id="a_edge3&#45;headlabel"><a xlink:href="dir_000008_000005.html" target="_top" xlink:title="8">
<text text-anchor="middle" x="92.65" y="-45.41" font-family="Helvetica,sans-Serif" font-size="10.00">8</text>
</a>
</g>
</g>
<!-- dir_0cec0a48671a4ccd1f8585e45e892f1f&#45;&gt;dir_567fd94d20573b82fae4b73e87e5ca9b -->
<g id="edge1" class="edge">
<title>dir_0cec0a48671a4ccd1f8585e45e892f1f&#45;&gt;dir_567fd94d20573b82fae4b73e87e5ca9b</title>
<path fill="none" stroke="black" d="M56.42,-71.7C59.79,-63.81 63.87,-54.3 67.62,-45.55"/>
<polygon fill="black" stroke="black" points="70.95,-46.67 71.67,-36.1 64.51,-43.92 70.95,-46.67"/>
<g id="a_edge1&#45;headlabel"><a xlink:href="dir_000006_000005.html" target="_top" xlink:title="7">
<text text-anchor="middle" x="72.14" y="-48.6" font-family="Helvetica,sans-Serif" font-size="10.00">7</text>
</a>
</g>
</g>
</g>
</svg>
