<?xml version="1.0" encoding="UTF-8" standalone="no"?>
<!DOCTYPE svg PUBLIC "-//W3C//DTD SVG 1.1//EN"
 "http://www.w3.org/Graphics/SVG/1.1/DTD/svg11.dtd">
<!-- Generated by graphviz version 2.43.0 (0)
 -->
<!-- Title: /home/build/sdk/c/ifxRadar Pages: 1 -->
<svg width="262pt" height="295pt"
 viewBox="0.00 0.00 262.18 295.00" xmlns="http://www.w3.org/2000/svg" xmlns:xlink="http://www.w3.org/1999/xlink">
<g id="graph0" class="graph" transform="scale(1 1) rotate(0) translate(4 291)">
<title>/home/build/sdk/c/ifxRadar</title>
<polygon fill="white" stroke="transparent" points="-4,4 -4,-291 258.18,-291 258.18,4 -4,4"/>
<g id="clust1" class="cluster">
<title>clusterdir_cb1b8b20a863d3b4f720b5073297472d</title>
<g id="a_clust1"><a xlink:href="dir_cb1b8b20a863d3b4f720b5073297472d.html" target="_top" xlink:title="c">
<polygon fill="#ddddee" stroke="black" points="90,-208 90,-279 164,-279 164,-208 90,-208"/>
<text text-anchor="middle" x="127" y="-267" font-family="Helvetica,sans-Serif" font-size="10.00">c</text>
</a>
</g>
</g>
<!-- dir_dab4b19e452ad33ce9758a674c7abd78 -->
<g id="node1" class="node">
<title>dir_dab4b19e452ad33ce9758a674c7abd78</title>
<g id="a_node1"><a xlink:href="dir_dab4b19e452ad33ce9758a674c7abd78.html" target="_top" xlink:title="ifxRadar">
<polygon fill="#eeeeff" stroke="black" points="156,-252 98,-252 98,-216 156,-216 156,-252"/>
<text text-anchor="middle" x="127" y="-231.5" font-family="Helvetica,sans-Serif" font-size="10.00">ifxRadar</text>
</a>
</g>
</g>
<!-- dir_4697e86ad33e45c91248444b464b6119 -->
<g id="node2" class="node">
<title>dir_4697e86ad33e45c91248444b464b6119</title>
<g id="a_node2"><a xlink:href="dir_4697e86ad33e45c91248444b464b6119.html" target="_top" xlink:title="ifxAlgo">
<polygon fill="none" stroke="black" points="54,-180 0,-180 0,-144 54,-144 54,-180"/>
<text text-anchor="middle" x="27" y="-159.5" font-family="Helvetica,sans-Serif" font-size="10.00">ifxAlgo</text>
</a>
</g>
</g>
<!-- dir_dab4b19e452ad33ce9758a674c7abd78&#45;&gt;dir_4697e86ad33e45c91248444b464b6119 -->
<g id="edge5" class="edge">
<title>dir_dab4b19e452ad33ce9758a674c7abd78&#45;&gt;dir_4697e86ad33e45c91248444b464b6119</title>
<path fill="none" stroke="black" d="M102.54,-215.88C89.7,-206.89 73.8,-195.76 59.91,-186.03"/>
<polygon fill="black" stroke="black" points="61.76,-183.06 51.56,-180.19 57.74,-188.79 61.76,-183.06"/>
<g id="a_edge5&#45;headlabel"><a xlink:href="dir_000007_000004.html" target="_top" xlink:title="6">
<text text-anchor="middle" x="66.33" y="-180.29" font-family="Helvetica,sans-Serif" font-size="10.00">6</text>
</a>
</g>
</g>
<!-- dir_0cec0a48671a4ccd1f8585e45e892f1f -->
<g id="node3" class="node">
<title>dir_0cec0a48671a4ccd1f8585e45e892f1f</title>
<g id="a_node3"><a xlink:href="dir_0cec0a48671a4ccd1f8585e45e892f1f.html" target="_top" xlink:title="ifxDevice">
<polygon fill="none" stroke="black" points="144.5,-108 81.5,-108 81.5,-72 144.5,-72 144.5,-108"/>
<text text-anchor="middle" x="113" y="-87.5" font-family="Helvetica,sans-Serif" font-size="10.00">ifxDevice</text>
</a>
</g>
</g>
<!-- dir_dab4b19e452ad33ce9758a674c7abd78&#45;&gt;dir_0cec0a48671a4ccd1f8585e45e892f1f -->
<g id="edge6" class="edge">
<title>dir_dab4b19e452ad33ce9758a674c7abd78&#45;&gt;dir_0cec0a48671a4ccd1f8585e45e892f1f</title>
<path fill="none" stroke="black" d="M115.95,-215.61C110.26,-205.62 103.92,-192.58 101,-180 96.23,-159.43 99.86,-135.72 104.34,-117.95"/>
<polygon fill="black" stroke="black" points="107.74,-118.81 107.02,-108.23 100.99,-116.94 107.74,-118.81"/>
<g id="a_edge6&#45;headlabel"><a xlink:href="dir_000007_000006.html" target="_top" xlink:title="3">
<text text-anchor="middle" x="109.52" y="-120.53" font-family="Helvetica,sans-Serif" font-size="10.00">3</text>
</a>
</g>
</g>
<!-- dir_029b6408fc75c8aa18949ca0afd8f1c3 -->
<g id="node4" class="node">
<title>dir_029b6408fc75c8aa18949ca0afd8f1c3</title>
<g id="a_node4"><a xlink:href="dir_029b6408fc75c8aa18949ca0afd8f1c3.html" target="_top" xlink:title="ifxRadarSegmentation">
<polygon fill="none" stroke="black" points="236,-180 110,-180 110,-144 236,-144 236,-180"/>
<text text-anchor="middle" x="173" y="-159.5" font-family="Helvetica,sans-Serif" font-size="10.00">ifxRadarSegmentation</text>
</a>
</g>
</g>
<!-- dir_dab4b19e452ad33ce9758a674c7abd78&#45;&gt;dir_029b6408fc75c8aa18949ca0afd8f1c3 -->
<g id="edge7" class="edge">
<title>dir_dab4b19e452ad33ce9758a674c7abd78&#45;&gt;dir_029b6408fc75c8aa18949ca0afd8f1c3</title>
<path fill="none" stroke="black" d="M138.37,-215.7C143.72,-207.56 150.2,-197.69 156.11,-188.7"/>
<polygon fill="black" stroke="black" points="159.19,-190.38 161.76,-180.1 153.34,-186.54 159.19,-190.38"/>
<g id="a_edge7&#45;headlabel"><a xlink:href="dir_000007_000008.html" target="_top" xlink:title="1">
<text text-anchor="middle" x="159.59" y="-192.45" font-family="Helvetica,sans-Serif" font-size="10.00">1</text>
</a>
</g>
</g>
<!-- dir_567fd94d20573b82fae4b73e87e5ca9b -->
<g id="node5" class="node">
<title>dir_567fd94d20573b82fae4b73e87e5ca9b</title>
<g id="a_node5"><a xlink:href="dir_567fd94d20573b82fae4b73e87e5ca9b.html" target="_top" xlink:title="ifxBase">
<polygon fill="none" stroke="black" points="170,-36 116,-36 116,0 170,0 170,-36"/>
<text text-anchor="middle" x="143" y="-15.5" font-family="Helvetica,sans-Serif" font-size="10.00">ifxBase</text>
</a>
</g>
</g>
<!-- dir_dab4b19e452ad33ce9758a674c7abd78&#45;&gt;dir_567fd94d20573b82fae4b73e87e5ca9b -->
<g id="edge8" class="edge">
<title>dir_dab4b19e452ad33ce9758a674c7abd78&#45;&gt;dir_567fd94d20573b82fae4b73e87e5ca9b</title>
<path fill="none" stroke="black" d="M156.1,-228.96C184.27,-223.33 225.48,-210.17 245,-180 276.53,-131.27 216.96,-73.73 176.33,-42.33"/>
<polygon fill="black" stroke="black" points="178.33,-39.45 168.24,-36.22 174.11,-45.04 178.33,-39.45"/>
<g id="a_edge8&#45;headlabel"><a xlink:href="dir_000007_000005.html" target="_top" xlink:title="22">
<text text-anchor="middle" x="182.91" y="-36.85" font-family="Helvetica,sans-Serif" font-size="10.00">22</text>
</a>
</g>
</g>
<!-- dir_4697e86ad33e45c91248444b464b6119&#45;&gt;dir_567fd94d20573b82fae4b73e87e5ca9b -->
<g id="edge1" class="edge">
<title>dir_4697e86ad33e45c91248444b464b6119&#45;&gt;dir_567fd94d20573b82fae4b73e87e5ca9b</title>
<path fill="none" stroke="black" d="M33.16,-143.92C40.58,-124.95 54.4,-94.09 73,-72 82.72,-60.46 95.39,-49.92 107.27,-41.33"/>
<polygon fill="black" stroke="black" points="109.52,-44.03 115.73,-35.44 105.52,-38.28 109.52,-44.03"/>
<g id="a_edge1&#45;headlabel"><a xlink:href="dir_000004_000005.html" target="_top" xlink:title="16">
<text text-anchor="middle" x="108.2" y="-45.91" font-family="Helvetica,sans-Serif" font-size="10.00">16</text>
</a>
</g>
</g>
<!-- dir_0cec0a48671a4ccd1f8585e45e892f1f&#45;&gt;dir_567fd94d20573b82fae4b73e87e5ca9b -->
<g id="edge2" class="edge">
<title>dir_0cec0a48671a4ccd1f8585e45e892f1f&#45;&gt;dir_567fd94d20573b82fae4b73e87e5ca9b</title>
<path fill="none" stroke="black" d="M120.42,-71.7C123.79,-63.81 127.87,-54.3 131.62,-45.55"/>
<polygon fill="black" stroke="black" points="134.95,-46.67 135.67,-36.1 128.51,-43.92 134.95,-46.67"/>
<g id="a_edge2&#45;headlabel"><a xlink:href="dir_000006_000005.html" target="_top" xlink:title="7">
<text text-anchor="middle" x="136.14" y="-48.6" font-family="Helvetica,sans-Serif" font-size="10.00">7</text>
</a>
</g>
</g>
<!-- dir_029b6408fc75c8aa18949ca0afd8f1c3&#45;&gt;dir_0cec0a48671a4ccd1f8585e45e892f1f -->
<g id="edge3" class="edge">
<title>dir_029b6408fc75c8aa18949ca0afd8f1c3&#45;&gt;dir_0cec0a48671a4ccd1f8585e45e892f1f</title>
<path fill="none" stroke="black" d="M158.17,-143.7C150.98,-135.3 142.2,-125.07 134.31,-115.86"/>
<polygon fill="black" stroke="black" points="136.83,-113.42 127.66,-108.1 131.51,-117.97 136.83,-113.42"/>
<g id="a_edge3&#45;headlabel"><a xlink:href="dir_000008_000006.html" target="_top" xlink:title="2">
<text text-anchor="middle" x="141.32" y="-111.8" font-family="Helvetica,sans-Serif" font-size="10.00">2</text>
</a>
</g>
</g>
<!-- dir_029b6408fc75c8aa18949ca0afd8f1c3&#45;&gt;dir_567fd94d20573b82fae4b73e87e5ca9b -->
<g id="edge4" class="edge">
<title>dir_029b6408fc75c8aa18949ca0afd8f1c3&#45;&gt;dir_567fd94d20573b82fae4b73e87e5ca9b</title>
<path fill="none" stroke="black" d="M169.38,-143.87C164.25,-119.56 154.79,-74.82 148.71,-46.01"/>
<polygon fill="black" stroke="black" points="152.12,-45.25 146.63,-36.19 145.27,-46.7 152.12,-45.25"/>
<g id="a_edge4&#45;headlabel"><a xlink:href="dir_000008_000005.html" target="_top" xlink:title="8">
<text text-anchor="middle" x="155.64" y="-45.68" font-family="Helvetica,sans-Serif" font-size="10.00">8</text>
</a>
</g>
</g>
</g>
</svg>
