<?xml version="1.0" encoding="UTF-8" standalone="no"?>
<!DOCTYPE svg PUBLIC "-//W3C//DTD SVG 1.1//EN"
 "http://www.w3.org/Graphics/SVG/1.1/DTD/svg11.dtd">
<!-- Generated by graphviz version 2.43.0 (0)
 -->
<!-- Title: Radar Device (ifxDevice) Pages: 1 -->
<svg width="302pt" height="138pt"
 viewBox="0.00 0.00 302.00 138.00" xmlns="http://www.w3.org/2000/svg" xmlns:xlink="http://www.w3.org/1999/xlink">
<g id="graph0" class="graph" transform="scale(1 1) rotate(0) translate(4 134)">
<title>Radar Device (ifxDevice)</title>
<polygon fill="white" stroke="transparent" points="-4,4 -4,-134 298,-134 298,4 -4,4"/>
<!-- Node3 -->
<g id="node1" class="node">
<title>Node3</title>
<g id="a_node1"><a xlink:href="group__gr__devicecontrol.html" target="_top" xlink:title="API for Radar device control operations.">
<polygon fill="white" stroke="black" points="279,-130 190,-130 190,-111 279,-111 279,-130"/>
<text text-anchor="middle" x="234.5" y="-118" font-family="Helvetica,sans-Serif" font-size="10.00">Device Control</text>
</a>
</g>
</g>
<!-- Node1 -->
<g id="node2" class="node">
<title>Node1</title>
<g id="a_node2"><a xlink:title=" ">
<polygon fill="#bfbfbf" stroke="black" points="139,-74 0,-74 0,-55 139,-55 139,-74"/>
<text text-anchor="middle" x="69.5" y="-62" font-family="Helvetica,sans-Serif" font-size="10.00">Radar Device (ifxDevice)</text>
</a>
</g>
</g>
<!-- Node1&#45;&gt;Node3 -->
<g id="edge2" class="edge">
<title>Node1&#45;&gt;Node3</title>
<path fill="none" stroke="black" d="M105.16,-77.6C125.43,-85.13 151.56,-94.64 175,-102.5 183.56,-105.37 192.89,-108.32 201.53,-110.98"/>
<polygon fill="black" stroke="black" points="106.31,-74.29 95.71,-74.07 103.86,-80.85 106.31,-74.29"/>
</g>
<!-- Node4 -->
<g id="node3" class="node">
<title>Node4</title>
<g id="a_node3"><a xlink:href="group__gr__frame.html" target="_top" xlink:title="API for Measurement Frame handling.">
<polygon fill="white" stroke="black" points="258,-93 211,-93 211,-74 258,-74 258,-93"/>
<text text-anchor="middle" x="234.5" y="-81" font-family="Helvetica,sans-Serif" font-size="10.00">Frame</text>
</a>
</g>
</g>
<!-- Node1&#45;&gt;Node4 -->
<g id="edge3" class="edge">
<title>Node1&#45;&gt;Node4</title>
<path fill="none" stroke="black" d="M149.11,-73.66C171.63,-76.29 194.45,-78.95 210.67,-80.84"/>
<polygon fill="black" stroke="black" points="149.49,-70.18 139.15,-72.5 148.68,-77.14 149.49,-70.18"/>
</g>
<!-- Node5 -->
<g id="node4" class="node">
<title>Node5</title>
<g id="a_node4"><a xlink:href="group__gr__shapes.html" target="_top" xlink:title="API for Shape configuration.">
<polygon fill="white" stroke="black" points="260.5,-56 208.5,-56 208.5,-37 260.5,-37 260.5,-56"/>
<text text-anchor="middle" x="234.5" y="-44" font-family="Helvetica,sans-Serif" font-size="10.00">Shapes</text>
</a>
</g>
</g>
<!-- Node1&#45;&gt;Node5 -->
<g id="edge4" class="edge">
<title>Node1&#45;&gt;Node5</title>
<path fill="none" stroke="black" d="M149.28,-55.8C170.69,-53.44 192.35,-51.04 208.34,-49.28"/>
<polygon fill="black" stroke="black" points="148.71,-52.34 139.15,-56.92 149.48,-59.3 148.71,-52.34"/>
</g>
<!-- Node2 -->
<g id="node5" class="node">
<title>Node2</title>
<g id="a_node5"><a xlink:href="group__gr__deviceconfig.html" target="_top" xlink:title="API for Radar device configuration.">
<polygon fill="white" stroke="black" points="294,-19 175,-19 175,0 294,0 294,-19"/>
<text text-anchor="middle" x="234.5" y="-7" font-family="Helvetica,sans-Serif" font-size="10.00">Device Configuration</text>
</a>
</g>
</g>
<!-- Node1&#45;&gt;Node2 -->
<g id="edge1" class="edge">
<title>Node1&#45;&gt;Node2</title>
<path fill="none" stroke="black" d="M107.59,-51.54C127.54,-44.62 152.58,-36 175,-28.5 184.32,-25.38 194.49,-22.05 203.71,-19.06"/>
<polygon fill="black" stroke="black" points="106.25,-48.3 97.96,-54.89 108.55,-54.91 106.25,-48.3"/>
</g>
</g>
</svg>
