<?xml version="1.0" encoding="UTF-8" standalone="no"?>
<!DOCTYPE svg PUBLIC "-//W3C//DTD SVG 1.1//EN"
 "http://www.w3.org/Graphics/SVG/1.1/DTD/svg11.dtd">
<!-- Generated by graphviz version 2.43.0 (0)
 -->
<!-- Title: RadarSegmentation (ifxRadarSegmentation) Pages: 1 -->
<svg width="300pt" height="64pt"
 viewBox="0.00 0.00 300.00 64.00" xmlns="http://www.w3.org/2000/svg" xmlns:xlink="http://www.w3.org/1999/xlink">
<g id="graph0" class="graph" transform="scale(1 1) rotate(0) translate(4 60)">
<title>RadarSegmentation (ifxRadarSegmentation)</title>
<polygon fill="white" stroke="transparent" points="-4,4 -4,-60 296,-60 296,4 -4,4"/>
<!-- Node2 -->
<g id="node1" class="node">
<title>Node2</title>
<g id="a_node1"><a xlink:href="group__gr__paramestimation.html" target="_top" xlink:title="API for Parameter estimation algorithm.">
<polygon fill="white" stroke="black" points="292,-56 170,-56 170,-37 292,-37 292,-56"/>
<text text-anchor="middle" x="231" y="-44" font-family="Helvetica,sans-Serif" font-size="10.00">Parameter Estimation</text>
</a>
</g>
</g>
<!-- Node3 -->
<g id="node2" class="node">
<title>Node3</title>
<g id="a_node2"><a xlink:href="group__gr__segmentation.html" target="_top" xlink:title="API for Segmentation algorithm.">
<polygon fill="white" stroke="black" points="273.5,-19 188.5,-19 188.5,0 273.5,0 273.5,-19"/>
<text text-anchor="middle" x="231" y="-7" font-family="Helvetica,sans-Serif" font-size="10.00">Segmentation</text>
</a>
</g>
</g>
<!-- Node1 -->
<g id="node3" class="node">
<title>Node1</title>
<g id="a_node3"><a xlink:title=" ">
<polygon fill="#bfbfbf" stroke="black" points="134,-42.5 0,-42.5 0,-12.5 134,-12.5 134,-42.5"/>
<text text-anchor="start" x="8" y="-30.5" font-family="Helvetica,sans-Serif" font-size="10.00">RadarSegmentation </text>
<text text-anchor="middle" x="67" y="-19.5" font-family="Helvetica,sans-Serif" font-size="10.00">(ifxRadarSegmentation)</text>
</a>
</g>
</g>
<!-- Node1&#45;&gt;Node2 -->
<g id="edge1" class="edge">
<title>Node1&#45;&gt;Node2</title>
<path fill="none" stroke="black" d="M144.39,-36.46C152.98,-37.47 161.64,-38.48 169.99,-39.46"/>
<polygon fill="black" stroke="black" points="144.7,-32.97 134.36,-35.28 143.88,-39.92 144.7,-32.97"/>
</g>
<!-- Node1&#45;&gt;Node3 -->
<g id="edge2" class="edge">
<title>Node1&#45;&gt;Node3</title>
<path fill="none" stroke="black" d="M144.66,-18.98C159.63,-17.32 174.8,-15.63 188.11,-14.15"/>
<polygon fill="black" stroke="black" points="143.91,-15.54 134.36,-20.13 144.68,-22.5 143.91,-15.54"/>
</g>
</g>
</svg>
