<?xml version="1.0" encoding="UTF-8" standalone="no"?>
<!DOCTYPE svg PUBLIC "-//W3C//DTD SVG 1.1//EN"
 "http://www.w3.org/Graphics/SVG/1.1/DTD/svg11.dtd">
<!-- Generated by graphviz version 2.43.0 (0)
 -->
<!-- Title: ifx_Device_CW_Config_t Pages: 1 -->
<svg width="416pt" height="127pt"
 viewBox="0.00 0.00 416.00 126.50" xmlns="http://www.w3.org/2000/svg" xmlns:xlink="http://www.w3.org/1999/xlink">
<g id="graph0" class="graph" transform="scale(1 1) rotate(0) translate(4 122.5)">
<title>ifx_Device_CW_Config_t</title>
<polygon fill="white" stroke="transparent" points="-4,4 -4,-122.5 412,-122.5 412,4 -4,4"/>
<!-- Node1 -->
<g id="node1" class="node">
<title>Node1</title>
<g id="a_node1"><a xlink:title="Used to define a default set for the configuration values including their min and max values.">
<polygon fill="#bfbfbf" stroke="black" points="273,-44.5 273,-63.5 408,-63.5 408,-44.5 273,-44.5"/>
<text text-anchor="middle" x="340.5" y="-51.5" font-family="Helvetica,sans-Serif" font-size="10.00">ifx_Device_CW_Config_t</text>
</a>
</g>
</g>
<!-- Node2 -->
<g id="node2" class="node">
<title>Node2</title>
<g id="a_node2"><a xlink:href="structifx___device___baseband___config__t.html" target="_top" xlink:title="Defines the structure for the Baseband configuration.">
<polygon fill="white" stroke="black" points="9,-88 9,-118 131,-118 131,-88 9,-88"/>
<text text-anchor="start" x="17" y="-106" font-family="Helvetica,sans-Serif" font-size="10.00">ifx_Device_Baseband</text>
<text text-anchor="middle" x="70" y="-95" font-family="Helvetica,sans-Serif" font-size="10.00">_Config_t</text>
</a>
</g>
</g>
<!-- Node2&#45;&gt;Node1 -->
<g id="edge1" class="edge">
<title>Node2&#45;&gt;Node1</title>
<path fill="none" stroke="#9a32cd" stroke-dasharray="5,2" d="M141.1,-90.21C186.81,-81.87 245.49,-71.16 287.15,-63.55"/>
<polygon fill="#9a32cd" stroke="#9a32cd" points="140.47,-86.76 131.26,-92 141.72,-93.65 140.47,-86.76"/>
<text text-anchor="middle" x="206.5" y="-88" font-family="Helvetica,sans-Serif" font-size="10.00"> baseband_configs</text>
</g>
<!-- Node3 -->
<g id="node3" class="node">
<title>Node3</title>
<g id="a_node3"><a xlink:href="structifx___device___test___signal___generator__t.html" target="_top" xlink:title="Defines the structure for the Test Signal configuration.">
<polygon fill="white" stroke="black" points="6,-39 6,-69 134,-69 134,-39 6,-39"/>
<text text-anchor="start" x="14" y="-57" font-family="Helvetica,sans-Serif" font-size="10.00">ifx_Device_Test_Signal</text>
<text text-anchor="middle" x="70" y="-46" font-family="Helvetica,sans-Serif" font-size="10.00">_Generator_t</text>
</a>
</g>
</g>
<!-- Node3&#45;&gt;Node1 -->
<g id="edge2" class="edge">
<title>Node3&#45;&gt;Node1</title>
<path fill="none" stroke="#9a32cd" stroke-dasharray="5,2" d="M144.54,-54C184.65,-54 233.92,-54 272.89,-54"/>
<polygon fill="#9a32cd" stroke="#9a32cd" points="144.29,-50.5 134.29,-54 144.29,-57.5 144.29,-50.5"/>
<text text-anchor="middle" x="206.5" y="-57" font-family="Helvetica,sans-Serif" font-size="10.00"> test_signal_configs</text>
</g>
<!-- Node4 -->
<g id="node4" class="node">
<title>Node4</title>
<g id="a_node4"><a xlink:href="structifx___device___a_d_c___config__t.html" target="_top" xlink:title="Defines the structure for the ADC configuration.">
<polygon fill="white" stroke="black" points="0,-0.5 0,-19.5 140,-19.5 140,-0.5 0,-0.5"/>
<text text-anchor="middle" x="70" y="-7.5" font-family="Helvetica,sans-Serif" font-size="10.00">ifx_Device_ADC_Config_t</text>
</a>
</g>
</g>
<!-- Node4&#45;&gt;Node1 -->
<g id="edge3" class="edge">
<title>Node4&#45;&gt;Node1</title>
<path fill="none" stroke="#9a32cd" stroke-dasharray="5,2" d="M143.5,-21.1C177.4,-26.37 218.29,-32.85 255,-39 265.29,-40.72 276.27,-42.63 286.79,-44.48"/>
<polygon fill="#9a32cd" stroke="#9a32cd" points="143.64,-17.58 133.22,-19.5 142.57,-24.49 143.64,-17.58"/>
<text text-anchor="middle" x="206.5" y="-42" font-family="Helvetica,sans-Serif" font-size="10.00"> adc_configs</text>
</g>
</g>
</svg>
