<?xml version="1.0" encoding="UTF-8" standalone="no"?>
<!DOCTYPE svg PUBLIC "-//W3C//DTD SVG 1.1//EN"
 "http://www.w3.org/Graphics/SVG/1.1/DTD/svg11.dtd">
<!-- Generated by graphviz version 2.43.0 (0)
 -->
<!-- Title: ifx_Device_Chirp_Config_s Pages: 1 -->
<svg width="296pt" height="106pt"
 viewBox="0.00 0.00 295.50 106.00" xmlns="http://www.w3.org/2000/svg" xmlns:xlink="http://www.w3.org/1999/xlink">
<g id="graph0" class="graph" transform="scale(1 1) rotate(0) translate(4 102)">
<title>ifx_Device_Chirp_Config_s</title>
<polygon fill="white" stroke="transparent" points="-4,4 -4,-102 291.5,-102 291.5,4 -4,4"/>
<!-- Node1 -->
<g id="node1" class="node">
<title>Node1</title>
<g id="a_node1"><a xlink:title=" ">
<polygon fill="#bfbfbf" stroke="black" points="80.5,-0.5 80.5,-19.5 226.5,-19.5 226.5,-0.5 80.5,-0.5"/>
<text text-anchor="middle" x="153.5" y="-7.5" font-family="Helvetica,sans-Serif" font-size="10.00">ifx_Device_Chirp_Config_s</text>
</a>
</g>
</g>
<!-- Node2 -->
<g id="node2" class="node">
<title>Node2</title>
<g id="a_node2"><a xlink:href="structifx___device___chirp___settings__s.html" target="_top" xlink:title=" ">
<polygon fill="white" stroke="black" points="0,-73 0,-92 155,-92 155,-73 0,-73"/>
<text text-anchor="middle" x="77.5" y="-80" font-family="Helvetica,sans-Serif" font-size="10.00">ifx_Device_Chirp_Settings_s</text>
</a>
</g>
</g>
<!-- Node2&#45;&gt;Node1 -->
<g id="edge1" class="edge">
<title>Node2&#45;&gt;Node1</title>
<path fill="none" stroke="#9a32cd" stroke-dasharray="5,2" d="M94.54,-65.69C109.85,-51.49 131.76,-31.17 144.1,-19.72"/>
<polygon fill="#9a32cd" stroke="#9a32cd" points="91.77,-63.49 86.82,-72.86 96.53,-68.62 91.77,-63.49"/>
<text text-anchor="middle" x="156" y="-41" font-family="Helvetica,sans-Serif" font-size="10.00"> chirp_setting</text>
</g>
<!-- Node3 -->
<g id="node3" class="node">
<title>Node3</title>
<g id="a_node3"><a xlink:href="structifx___device___antenna___setup__s.html" target="_top" xlink:title=" ">
<polygon fill="white" stroke="black" points="173.5,-67.5 173.5,-97.5 287.5,-97.5 287.5,-67.5 173.5,-67.5"/>
<text text-anchor="start" x="181.5" y="-85.5" font-family="Helvetica,sans-Serif" font-size="10.00">ifx_Device_Antenna</text>
<text text-anchor="middle" x="230.5" y="-74.5" font-family="Helvetica,sans-Serif" font-size="10.00">_Setup_s</text>
</a>
</g>
</g>
<!-- Node3&#45;&gt;Node1 -->
<g id="edge2" class="edge">
<title>Node3&#45;&gt;Node1</title>
<path fill="none" stroke="#9a32cd" stroke-dasharray="5,2" d="M213.58,-59.27C207.62,-52.1 200.62,-44.37 193.5,-38 185.76,-31.07 176.13,-24.52 168.26,-19.61"/>
<polygon fill="#9a32cd" stroke="#9a32cd" points="211.05,-61.71 220.05,-67.31 216.51,-57.33 211.05,-61.71"/>
<text text-anchor="middle" x="241.5" y="-41" font-family="Helvetica,sans-Serif" font-size="10.00"> antenna_setup</text>
</g>
</g>
</svg>
