<?xml version="1.0" encoding="UTF-8" standalone="no"?>
<!DOCTYPE svg PUBLIC "-//W3C//DTD SVG 1.1//EN"
 "http://www.w3.org/Graphics/SVG/1.1/DTD/svg11.dtd">
<!-- Generated by graphviz version 2.43.0 (0)
 -->
<!-- Title: ifx_Device_Shape_Config_s Pages: 1 -->
<svg width="296pt" height="184pt"
 viewBox="0.00 0.00 295.50 184.00" xmlns="http://www.w3.org/2000/svg" xmlns:xlink="http://www.w3.org/1999/xlink">
<g id="graph0" class="graph" transform="scale(1 1) rotate(0) translate(4 180)">
<title>ifx_Device_Shape_Config_s</title>
<polygon fill="white" stroke="transparent" points="-4,4 -4,-180 291.5,-180 291.5,4 -4,4"/>
<!-- Node1 -->
<g id="node1" class="node">
<title>Node1</title>
<g id="a_node1"><a xlink:title=" ">
<polygon fill="#bfbfbf" stroke="black" points="78.5,-0.5 78.5,-19.5 228.5,-19.5 228.5,-0.5 78.5,-0.5"/>
<text text-anchor="middle" x="153.5" y="-7.5" font-family="Helvetica,sans-Serif" font-size="10.00">ifx_Device_Shape_Config_s</text>
</a>
</g>
</g>
<!-- Node2 -->
<g id="node2" class="node">
<title>Node2</title>
<g id="a_node2"><a xlink:href="structifx___device___chirp___config__s.html" target="_top" xlink:title=" ">
<polygon fill="white" stroke="black" points="80.5,-78.5 80.5,-97.5 226.5,-97.5 226.5,-78.5 80.5,-78.5"/>
<text text-anchor="middle" x="153.5" y="-85.5" font-family="Helvetica,sans-Serif" font-size="10.00">ifx_Device_Chirp_Config_s</text>
</a>
</g>
</g>
<!-- Node2&#45;&gt;Node1 -->
<g id="edge1" class="edge">
<title>Node2&#45;&gt;Node1</title>
<path fill="none" stroke="#9a32cd" stroke-dasharray="5,2" d="M153.5,-68.22C153.5,-52.7 153.5,-31.36 153.5,-19.62"/>
<polygon fill="#9a32cd" stroke="#9a32cd" points="150,-68.28 153.5,-78.28 157,-68.28 150,-68.28"/>
<text text-anchor="middle" x="168.5" y="-52" font-family="Helvetica,sans-Serif" font-size="10.00"> down</text>
<text text-anchor="middle" x="168.5" y="-41" font-family="Helvetica,sans-Serif" font-size="10.00">up</text>
</g>
<!-- Node3 -->
<g id="node3" class="node">
<title>Node3</title>
<g id="a_node3"><a xlink:href="structifx___device___chirp___settings__s.html" target="_top" xlink:title=" ">
<polygon fill="white" stroke="black" points="0,-151 0,-170 155,-170 155,-151 0,-151"/>
<text text-anchor="middle" x="77.5" y="-158" font-family="Helvetica,sans-Serif" font-size="10.00">ifx_Device_Chirp_Settings_s</text>
</a>
</g>
</g>
<!-- Node3&#45;&gt;Node2 -->
<g id="edge2" class="edge">
<title>Node3&#45;&gt;Node2</title>
<path fill="none" stroke="#9a32cd" stroke-dasharray="5,2" d="M94.54,-143.69C109.85,-129.49 131.76,-109.17 144.1,-97.72"/>
<polygon fill="#9a32cd" stroke="#9a32cd" points="91.77,-141.49 86.82,-150.86 96.53,-146.62 91.77,-141.49"/>
<text text-anchor="middle" x="156" y="-119" font-family="Helvetica,sans-Serif" font-size="10.00"> chirp_setting</text>
</g>
<!-- Node4 -->
<g id="node4" class="node">
<title>Node4</title>
<g id="a_node4"><a xlink:href="structifx___device___antenna___setup__s.html" target="_top" xlink:title=" ">
<polygon fill="white" stroke="black" points="173.5,-145.5 173.5,-175.5 287.5,-175.5 287.5,-145.5 173.5,-145.5"/>
<text text-anchor="start" x="181.5" y="-163.5" font-family="Helvetica,sans-Serif" font-size="10.00">ifx_Device_Antenna</text>
<text text-anchor="middle" x="230.5" y="-152.5" font-family="Helvetica,sans-Serif" font-size="10.00">_Setup_s</text>
</a>
</g>
</g>
<!-- Node4&#45;&gt;Node2 -->
<g id="edge3" class="edge">
<title>Node4&#45;&gt;Node2</title>
<path fill="none" stroke="#9a32cd" stroke-dasharray="5,2" d="M213.58,-137.27C207.62,-130.1 200.62,-122.37 193.5,-116 185.76,-109.07 176.13,-102.52 168.26,-97.61"/>
<polygon fill="#9a32cd" stroke="#9a32cd" points="211.05,-139.71 220.05,-145.31 216.51,-135.33 211.05,-139.71"/>
<text text-anchor="middle" x="241.5" y="-119" font-family="Helvetica,sans-Serif" font-size="10.00"> antenna_setup</text>
</g>
</g>
</svg>
