<?xml version="1.0" encoding="UTF-8" standalone="no"?>
<!DOCTYPE svg PUBLIC "-//W3C//DTD SVG 1.1//EN"
 "http://www.w3.org/Graphics/SVG/1.1/DTD/svg11.dtd">
<!-- Generated by graphviz version 2.43.0 (0)
 -->
<!-- Title: ifx_Device_Shape_s Pages: 1 -->
<svg width="296pt" height="251pt"
 viewBox="0.00 0.00 295.50 251.00" xmlns="http://www.w3.org/2000/svg" xmlns:xlink="http://www.w3.org/1999/xlink">
<g id="graph0" class="graph" transform="scale(1 1) rotate(0) translate(4 247)">
<title>ifx_Device_Shape_s</title>
<polygon fill="white" stroke="transparent" points="-4,4 -4,-247 291.5,-247 291.5,4 -4,4"/>
<!-- Node1 -->
<g id="node1" class="node">
<title>Node1</title>
<g id="a_node1"><a xlink:title=" ">
<polygon fill="#bfbfbf" stroke="black" points="96.5,-0.5 96.5,-19.5 210.5,-19.5 210.5,-0.5 96.5,-0.5"/>
<text text-anchor="middle" x="153.5" y="-7.5" font-family="Helvetica,sans-Serif" font-size="10.00">ifx_Device_Shape_s</text>
</a>
</g>
</g>
<!-- Node2 -->
<g id="node2" class="node">
<title>Node2</title>
<g id="a_node2"><a xlink:href="structifx___device___shape___config__s.html" target="_top" xlink:title=" ">
<polygon fill="white" stroke="black" points="78.5,-67.5 78.5,-86.5 228.5,-86.5 228.5,-67.5 78.5,-67.5"/>
<text text-anchor="middle" x="153.5" y="-74.5" font-family="Helvetica,sans-Serif" font-size="10.00">ifx_Device_Shape_Config_s</text>
</a>
</g>
</g>
<!-- Node2&#45;&gt;Node1 -->
<g id="edge1" class="edge">
<title>Node2&#45;&gt;Node1</title>
<path fill="none" stroke="#9a32cd" stroke-dasharray="5,2" d="M153.5,-57.04C153.5,-44.67 153.5,-29.12 153.5,-19.63"/>
<polygon fill="#9a32cd" stroke="#9a32cd" points="150,-57.23 153.5,-67.23 157,-57.23 150,-57.23"/>
<text text-anchor="middle" x="170" y="-41" font-family="Helvetica,sans-Serif" font-size="10.00"> config</text>
</g>
<!-- Node3 -->
<g id="node3" class="node">
<title>Node3</title>
<g id="a_node3"><a xlink:href="structifx___device___chirp___config__s.html" target="_top" xlink:title=" ">
<polygon fill="white" stroke="black" points="80.5,-145.5 80.5,-164.5 226.5,-164.5 226.5,-145.5 80.5,-145.5"/>
<text text-anchor="middle" x="153.5" y="-152.5" font-family="Helvetica,sans-Serif" font-size="10.00">ifx_Device_Chirp_Config_s</text>
</a>
</g>
</g>
<!-- Node3&#45;&gt;Node2 -->
<g id="edge2" class="edge">
<title>Node3&#45;&gt;Node2</title>
<path fill="none" stroke="#9a32cd" stroke-dasharray="5,2" d="M153.5,-135.22C153.5,-119.7 153.5,-98.36 153.5,-86.62"/>
<polygon fill="#9a32cd" stroke="#9a32cd" points="150,-135.28 153.5,-145.28 157,-135.28 150,-135.28"/>
<text text-anchor="middle" x="168.5" y="-119" font-family="Helvetica,sans-Serif" font-size="10.00"> down</text>
<text text-anchor="middle" x="168.5" y="-108" font-family="Helvetica,sans-Serif" font-size="10.00">up</text>
</g>
<!-- Node4 -->
<g id="node4" class="node">
<title>Node4</title>
<g id="a_node4"><a xlink:href="structifx___device___chirp___settings__s.html" target="_top" xlink:title=" ">
<polygon fill="white" stroke="black" points="0,-218 0,-237 155,-237 155,-218 0,-218"/>
<text text-anchor="middle" x="77.5" y="-225" font-family="Helvetica,sans-Serif" font-size="10.00">ifx_Device_Chirp_Settings_s</text>
</a>
</g>
</g>
<!-- Node4&#45;&gt;Node3 -->
<g id="edge3" class="edge">
<title>Node4&#45;&gt;Node3</title>
<path fill="none" stroke="#9a32cd" stroke-dasharray="5,2" d="M94.54,-210.69C109.85,-196.49 131.76,-176.17 144.1,-164.72"/>
<polygon fill="#9a32cd" stroke="#9a32cd" points="91.77,-208.49 86.82,-217.86 96.53,-213.62 91.77,-208.49"/>
<text text-anchor="middle" x="156" y="-186" font-family="Helvetica,sans-Serif" font-size="10.00"> chirp_setting</text>
</g>
<!-- Node5 -->
<g id="node5" class="node">
<title>Node5</title>
<g id="a_node5"><a xlink:href="structifx___device___antenna___setup__s.html" target="_top" xlink:title=" ">
<polygon fill="white" stroke="black" points="173.5,-212.5 173.5,-242.5 287.5,-242.5 287.5,-212.5 173.5,-212.5"/>
<text text-anchor="start" x="181.5" y="-230.5" font-family="Helvetica,sans-Serif" font-size="10.00">ifx_Device_Antenna</text>
<text text-anchor="middle" x="230.5" y="-219.5" font-family="Helvetica,sans-Serif" font-size="10.00">_Setup_s</text>
</a>
</g>
</g>
<!-- Node5&#45;&gt;Node3 -->
<g id="edge4" class="edge">
<title>Node5&#45;&gt;Node3</title>
<path fill="none" stroke="#9a32cd" stroke-dasharray="5,2" d="M213.58,-204.27C207.62,-197.1 200.62,-189.37 193.5,-183 185.76,-176.07 176.13,-169.52 168.26,-164.61"/>
<polygon fill="#9a32cd" stroke="#9a32cd" points="211.05,-206.71 220.05,-212.31 216.51,-202.33 211.05,-206.71"/>
<text text-anchor="middle" x="241.5" y="-186" font-family="Helvetica,sans-Serif" font-size="10.00"> antenna_setup</text>
</g>
</g>
</svg>
