<?xml version="1.0" encoding="UTF-8" standalone="no"?>
<!DOCTYPE svg PUBLIC "-//W3C//DTD SVG 1.1//EN"
 "http://www.w3.org/Graphics/SVG/1.1/DTD/svg11.dtd">
<!-- Generated by graphviz version 2.43.0 (0)
 -->
<!-- Title: ifx_ParamEstimation_Result_t Pages: 1 -->
<svg width="155pt" height="139pt"
 viewBox="0.00 0.00 155.00 139.00" xmlns="http://www.w3.org/2000/svg" xmlns:xlink="http://www.w3.org/1999/xlink">
<g id="graph0" class="graph" transform="scale(1 1) rotate(0) translate(4 135)">
<title>ifx_ParamEstimation_Result_t</title>
<polygon fill="white" stroke="transparent" points="-4,4 -4,-135 151,-135 151,4 -4,4"/>
<!-- Node1 -->
<g id="node1" class="node">
<title>Node1</title>
<g id="a_node1"><a xlink:title="Defines the structure for ParamEstimation module return results.">
<polygon fill="#bfbfbf" stroke="black" points="0,-0.5 0,-30.5 118,-30.5 118,-0.5 0,-0.5"/>
<text text-anchor="start" x="8" y="-18.5" font-family="Helvetica,sans-Serif" font-size="10.00">ifx_ParamEstimation</text>
<text text-anchor="middle" x="59" y="-7.5" font-family="Helvetica,sans-Serif" font-size="10.00">_Result_t</text>
</a>
</g>
</g>
<!-- Node2 -->
<g id="node2" class="node">
<title>Node2</title>
<g id="a_node2"><a xlink:href="structifx___vector___r__s.html" target="_top" xlink:title="Defines the structure for a one&#45;dimensional real data array.">
<polygon fill="white" stroke="black" points="15,-111.5 15,-130.5 103,-130.5 103,-111.5 15,-111.5"/>
<text text-anchor="middle" x="59" y="-118.5" font-family="Helvetica,sans-Serif" font-size="10.00">ifx_Vector_R_s</text>
</a>
</g>
</g>
<!-- Node2&#45;&gt;Node1 -->
<g id="edge1" class="edge">
<title>Node2&#45;&gt;Node1</title>
<path fill="none" stroke="#9a32cd" stroke-dasharray="5,2" d="M59,-101C59,-80.74 59,-49.11 59,-30.84"/>
<polygon fill="#9a32cd" stroke="#9a32cd" points="55.5,-101.18 59,-111.18 62.5,-101.18 55.5,-101.18"/>
<text text-anchor="middle" x="103" y="-85" font-family="Helvetica,sans-Serif" font-size="10.00"> range</text>
<text text-anchor="middle" x="103" y="-74" font-family="Helvetica,sans-Serif" font-size="10.00">target_magnitude</text>
<text text-anchor="middle" x="103" y="-63" font-family="Helvetica,sans-Serif" font-size="10.00">angle</text>
<text text-anchor="middle" x="103" y="-52" font-family="Helvetica,sans-Serif" font-size="10.00">doppler</text>
</g>
</g>
</svg>
